<svg width="408" height="776" viewBox="0 0 408 776" fill="none" xmlns="http://www.w3.org/2000/svg"><path fill-rule="evenodd" clip-rule="evenodd" d="M186.187 0C189.059 0 191.387 2.22978 191.387 4.98036V73.7419C192.598 73.3707 193.812 73.0075 195.028 72.6523V38.0997C195.028 33.8363 198.637 30.3802 203.089 30.3802C207.541 30.3802 211.15 33.8363 211.15 38.0997V68.4474C277.341 53.2215 349.51 61.327 413.117 96.4944L438.944 110.774V87.1562C438.944 84.4057 441.273 82.1759 444.145 82.1759C447.017 82.1759 449.346 84.4057 449.346 87.1562V116.525L459.227 121.988V105.833C459.227 101.569 462.836 98.113 467.288 98.113C471.74 98.113 475.349 101.569 475.349 105.833V130.902L816 319.241L540.619 776L307 646.836V674C307 675.657 305.657 677 304 677C302.343 677 301 675.657 301 674V643.519L298 641.86V654C298 656.209 296.209 658 294 658C291.791 658 290 656.209 290 654V637.437L287 635.779V593C287 591.895 286.105 591 285 591C283.895 591 283 591.895 283 593V633.567L137.736 553.253C106.452 535.957 80.0516 513.669 59 488.047V446C59 443.791 57.2091 442 55 442C52.7909 442 51 443.791 51 446V477.806C47.1212 472.579 43.4534 467.231 40 461.774V507C40 508.105 39.1046 509 38 509C36.8955 509 36 508.105 36 507V455.243C34.3463 452.452 32.7474 449.634 31.2037 446.792V488.075C31.2037 490.826 28.8753 493.055 26.003 493.055C23.1307 493.055 20.8022 490.826 20.8022 488.075V425.348C-10.5533 352.331 -7.47044 266.68 36.94 193.019C49.513 172.165 64.6112 153.577 81.6512 137.406V93.6307C81.6512 88.6797 85.8424 84.6661 91.0126 84.6661C96.1827 84.6661 100.374 88.6797 100.374 93.6307V121.209C109.662 113.89 119.395 107.205 129.498 101.173V138.859C129.498 143.311 133.107 146.92 137.559 146.92C142.011 146.92 145.62 143.311 145.62 138.859V92.2584C157.048 86.4236 168.87 81.379 180.986 77.1501V4.98036C180.986 2.22978 183.314 0 186.187 0Z" fill="url(#paint0_linear)"/><defs><linearGradient id="paint0_linear" x1="50.5" y1="52.5" x2="432.5" y2="442.5" gradientUnits="userSpaceOnUse"><stop stop-color="#0A5CFF"/><stop offset="1" stop-color="#6C00E0"/></linearGradient></defs></svg>