<svg width="999" height="1001" viewBox="0 0 999 1001" fill="none" xmlns="http://www.w3.org/2000/svg"><path fill-rule="evenodd" clip-rule="evenodd" d="M1558.12 -38.4999L641 -568L293.435 34H367.5C376.06 34 383 40.9396 383 49.5C383 58.0604 376.06 65 367.5 65H275.537L262.836 87H212.5C203.94 87 197 93.9396 197 102.5C197 111.06 203.94 118 212.5 118H244.938L233.968 137H175C169.477 137 165 141.477 165 147C165 152.523 169.477 157 175 157H222.421L193.75 206.66C123.138 328.964 106.863 467.729 137.435 595H76.5C67.9396 595 61 601.94 61 610.5C61 619.06 67.9396 626 76.5 626H145.878C146.591 628.338 147.32 630.672 148.066 633H10C4.47715 633 0 637.477 0 643C0 648.523 4.47716 653 10 653H154.909C163.419 676.35 173.575 699.131 185.325 721.151C186.036 721.052 186.762 721 187.5 721H279.5C288.06 721 295 727.94 295 736.5C295 745.06 288.06 752 279.5 752H203.144C215.256 771.426 228.679 790.141 243.374 808H188C178.059 808 170 816.059 170 826C170 835.941 178.059 844 188 844H275.896C308.366 876.764 345.688 905.795 387.561 929.97C535.464 1015.36 707.44 1021.29 854.051 961H980C985.523 961 990 956.523 990 951C990 945.477 985.523 941 980 941H897.108C983.519 896.058 1058.56 826.763 1110.87 736.16L1558.12 -38.4999Z" fill="url(#paint0_linear)"/><defs><linearGradient id="paint0_linear" x1="891.5" y1="81.5" x2="3.60063e-05" y2="1111.5" gradientUnits="userSpaceOnUse"><stop offset="0.145833" stop-color="#6C00E0"/><stop offset="0.807292" stop-color="#0A5CFF"/></linearGradient></defs></svg>