<svg
    width="1000"
    height="750"
    viewBox="0 0 1000 750"
    fill="none"
    xmlns="http://www.w3.org/2000/svg"
>
    <rect width="1000" height="750" fill="#03A8CC" />
    <path d="M364.368 512.33L236.505 442.753L364.368 369.199V512.33Z" fill="#40ADBD" />
    <path
        d="M363.489 512.33L358.643 227.977L482.69 292.47V437.089L363.489 512.33Z"
        fill="#7FD8EC"
    />
    <path d="M122 237.194L243.184 165L362.459 229.595L122 376.833V237.194Z" fill="#7FECC0" />
    <path
        d="M245.092 585.804L364.368 511.376L122 375.879V519.009L245.092 585.804Z"
        fill="#7FECEC"
    />
    <path
        d="M362.459 371.435L358.55 227.977L240.321 301.15V441.719L362.459 371.435Z"
        fill="#4FD6DB"
    />
    <path d="M242.23 300.497V443.628L122 375.931L242.23 300.497Z" fill="#4ADBB5" />
    <path
        d="M315.33 374H288.49C279.324 374 272.504 372.167 268.03 368.5C263.63 364.833 261.43 359.187 261.43 351.56V317.35C261.43 309.723 263.63 304.077 268.03 300.41C272.504 296.67 279.324 294.8 288.49 294.8H315.33C316.724 294.8 317.714 295.13 318.3 295.79C318.96 296.377 319.29 297.367 319.29 298.76V312.07C319.29 313.463 318.96 314.49 318.3 315.15C317.714 315.737 316.724 316.03 315.33 316.03H293.22C290.947 316.03 289.26 316.507 288.16 317.46C287.06 318.34 286.51 319.697 286.51 321.53V347.71C286.51 349.543 287.06 350.9 288.16 351.78C289.26 352.587 290.947 352.99 293.22 352.99H315.33C316.724 352.99 317.714 353.32 318.3 353.98C318.96 354.567 319.29 355.557 319.29 356.95V370.04C319.29 371.433 318.96 372.46 318.3 373.12C317.714 373.707 316.724 374 315.33 374ZM360.423 317.9L355.253 334.62H372.523L367.353 317.9C367.059 317.24 366.729 316.763 366.363 316.47C366.069 316.177 365.703 316.03 365.263 316.03H362.513C362.073 316.03 361.669 316.177 361.303 316.47C361.009 316.763 360.716 317.24 360.423 317.9ZM354.153 370.04C354.153 371.433 353.823 372.46 353.163 373.12C352.576 373.707 351.586 374 350.193 374H334.023C332.629 374 331.603 373.707 330.943 373.12C330.356 372.46 330.063 371.433 330.063 370.04V341C330.063 338.8 330.393 336.27 331.053 333.41C331.786 330.55 332.886 327.213 334.353 323.4L343.923 298.43C344.363 297.183 345.023 296.267 345.903 295.68C346.856 295.093 348.066 294.8 349.533 294.8H379.123C380.516 294.8 381.653 295.093 382.533 295.68C383.486 296.267 384.183 297.183 384.623 298.43L394.193 323.4C395.659 327.213 396.723 330.55 397.383 333.41C398.116 336.27 398.483 338.8 398.483 341V370.04C398.483 371.433 398.153 372.46 397.493 373.12C396.906 373.707 395.916 374 394.523 374H377.913C376.446 374 375.346 373.707 374.613 373.12C373.953 372.46 373.623 371.433 373.623 370.04V354.64H354.153V370.04ZM432.524 374H416.024C414.631 374 413.604 373.707 412.944 373.12C412.357 372.46 412.064 371.433 412.064 370.04V298.76C412.064 297.367 412.357 296.377 412.944 295.79C413.604 295.13 414.631 294.8 416.024 294.8H427.464C428.857 294.8 430.031 295.02 430.984 295.46C432.011 295.9 433.001 296.67 433.954 297.77L455.294 322.19V298.76C455.294 297.367 455.587 296.377 456.174 295.79C456.834 295.13 457.861 294.8 459.254 294.8H475.754C477.147 294.8 478.137 295.13 478.724 295.79C479.384 296.377 479.714 297.367 479.714 298.76V370.04C479.714 371.433 479.384 372.46 478.724 373.12C478.137 373.707 477.147 374 475.754 374H459.254C457.861 374 456.834 373.707 456.174 373.12C455.587 372.46 455.294 371.433 455.294 370.04V356.51L436.484 333.74V370.04C436.484 371.433 436.154 372.46 435.494 373.12C434.907 373.707 433.917 374 432.524 374ZM541.746 374H513.146C511.753 374 510.58 373.743 509.626 373.23C508.746 372.717 508.05 371.763 507.536 370.37L496.756 343.42C496.096 341.807 495.546 340.413 495.106 339.24C494.666 337.993 494.3 336.82 494.006 335.72C493.713 334.62 493.493 333.483 493.346 332.31C493.273 331.063 493.236 329.56 493.236 327.8V298.76C493.236 297.367 493.53 296.377 494.116 295.79C494.776 295.13 495.803 294.8 497.196 294.8H514.686C516.08 294.8 517.143 295.13 517.876 295.79C518.61 296.377 518.976 297.367 518.976 298.76V329.12C518.976 329.853 519.05 330.587 519.196 331.32C519.343 332.053 519.563 332.823 519.856 333.63L525.026 349.03C525.246 349.763 525.503 350.277 525.796 350.57C526.09 350.79 526.53 350.9 527.116 350.9H528.326C528.913 350.9 529.353 350.79 529.646 350.57C529.94 350.277 530.196 349.763 530.416 349.03L535.586 333.52C535.88 332.713 536.1 331.943 536.246 331.21C536.393 330.477 536.466 329.743 536.466 329.01V298.76C536.466 297.367 536.76 296.377 537.346 295.79C538.006 295.13 539.033 294.8 540.426 294.8H557.696C559.09 294.8 560.08 295.13 560.666 295.79C561.326 296.377 561.656 297.367 561.656 298.76V327.8C561.656 329.56 561.583 331.063 561.436 332.31C561.363 333.483 561.18 334.62 560.886 335.72C560.593 336.82 560.226 337.993 559.786 339.24C559.346 340.413 558.796 341.807 558.136 343.42L547.356 370.37C546.843 371.763 546.11 372.717 545.156 373.23C544.276 373.743 543.14 374 541.746 374ZM602.874 317.9L597.704 334.62H614.974L609.804 317.9C609.51 317.24 609.18 316.763 608.814 316.47C608.52 316.177 608.154 316.03 607.714 316.03H604.964C604.524 316.03 604.12 316.177 603.754 316.47C603.46 316.763 603.167 317.24 602.874 317.9ZM596.604 370.04C596.604 371.433 596.274 372.46 595.614 373.12C595.027 373.707 594.037 374 592.644 374H576.474C575.08 374 574.054 373.707 573.394 373.12C572.807 372.46 572.514 371.433 572.514 370.04V341C572.514 338.8 572.844 336.27 573.504 333.41C574.237 330.55 575.337 327.213 576.804 323.4L586.374 298.43C586.814 297.183 587.474 296.267 588.354 295.68C589.307 295.093 590.517 294.8 591.984 294.8H621.574C622.967 294.8 624.104 295.093 624.984 295.68C625.937 296.267 626.634 297.183 627.074 298.43L636.644 323.4C638.11 327.213 639.174 330.55 639.834 333.41C640.567 336.27 640.934 338.8 640.934 341V370.04C640.934 371.433 640.604 372.46 639.944 373.12C639.357 373.707 638.367 374 636.974 374H620.364C618.897 374 617.797 373.707 617.064 373.12C616.404 372.46 616.074 371.433 616.074 370.04V354.64H596.604V370.04ZM691.255 374H656.495C655.102 374 654.075 373.707 653.415 373.12C652.829 372.46 652.535 371.433 652.535 370.04V357.17C652.535 355.777 652.829 354.787 653.415 354.2C654.075 353.54 655.102 353.21 656.495 353.21H686.085C687.039 353.21 687.735 352.917 688.175 352.33C688.689 351.67 688.945 350.9 688.945 350.02C688.945 348.773 688.689 347.857 688.175 347.27C687.735 346.683 687.039 346.353 686.085 346.28L669.585 343.97C664.452 343.237 660.309 341.55 657.155 338.91C654.075 336.27 652.535 331.87 652.535 325.71V314.16C652.535 307.927 654.552 303.16 658.585 299.86C662.619 296.487 668.192 294.8 675.305 294.8H706.105C707.499 294.8 708.489 295.13 709.075 295.79C709.735 296.377 710.065 297.367 710.065 298.76V311.85C710.065 313.243 709.735 314.27 709.075 314.93C708.489 315.517 707.499 315.81 706.105 315.81H680.475C679.522 315.81 678.789 316.14 678.275 316.8C677.762 317.387 677.505 318.157 677.505 319.11C677.505 320.063 677.762 320.87 678.275 321.53C678.789 322.19 679.522 322.557 680.475 322.63L696.865 324.83C701.999 325.563 706.142 327.25 709.295 329.89C712.449 332.53 714.025 336.93 714.025 343.09V354.64C714.025 360.873 711.972 365.677 707.865 369.05C703.832 372.35 698.295 374 691.255 374Z"
        fill="black"
    />
    <path
        d="M766.802 390.495C767.713 393.895 767.828 397.88 767.148 402.452C766.468 407.024 765.052 411.628 762.898 416.263C760.821 420.878 757.729 424.481 753.619 427.073C752.044 427.992 750.135 428.752 747.894 429.352C745.731 429.932 743.149 429.878 740.149 429.191L736.498 459.613C736.002 462.396 735.355 464.309 734.557 465.351C733.76 466.393 732.897 467.038 731.97 467.286C731.043 467.535 730.502 467.68 730.347 467.721C730.115 467.783 729.389 467.854 728.168 467.932C726.869 468.032 725.921 468.203 725.324 468.446C726.589 466.368 728.846 457.481 732.094 441.785C735.286 426.188 736.703 415.869 736.347 410.83C735.828 412.294 735.193 413.168 734.441 413.452C733.977 413.577 733.863 413.152 734.099 412.177C734.314 411.126 734.621 409.18 735.02 406.34C735.52 402.645 735.398 399.406 734.653 396.624C733.886 393.765 732.9 392.249 731.694 392.075C736.124 390.06 738.735 388.987 739.529 388.858C740.301 388.65 740.848 388.835 741.168 389.412C741.565 389.968 741.868 390.633 742.075 391.405C743.338 396.119 743.664 401.664 743.053 408.039L744.377 403.709C745.958 398.481 747.191 395.045 748.076 393.4C749.037 391.735 750.066 390.01 751.161 388.225C752.822 385.461 754.696 383.799 756.783 383.24C757.401 383.075 758.001 382.997 758.583 383.006C762.716 382.976 765.456 385.472 766.802 390.495ZM760.927 390.826C760.596 389.59 760.025 388.542 759.215 387.682C758.462 386.725 757.544 386.391 756.462 386.681C753.758 387.405 751.262 390.766 748.976 396.762C746.767 402.737 743.979 412.884 740.61 427.204C741.884 427.94 743.41 428.069 745.187 427.593C746.964 427.117 749.113 425.091 751.634 421.517C755.652 415.803 758.54 409.273 760.299 401.927C761.422 397.154 761.631 393.454 760.927 390.826ZM779.796 396.827C779.801 397.157 779.743 398.332 779.622 400.352C779.48 402.295 779.405 404.179 779.397 406.003C779.446 407.729 779.698 409.442 780.153 411.142C780.588 412.765 781.388 414.207 782.554 415.468C783.7 416.652 785.123 417.016 786.823 416.561C789.605 415.815 791.812 413.236 793.446 408.823C795.058 404.333 796.557 398.796 797.94 392.214C798.268 390.966 798.734 390.386 799.337 390.473C799.806 390.679 799.997 391.083 799.911 391.686C799.803 392.212 799.591 393.428 799.273 395.335C799.013 397.144 798.782 398.448 798.582 399.247C798.439 399.948 798.131 401.273 797.659 403.222C797.244 405.072 796.803 406.516 796.335 407.552C795.924 408.49 795.315 409.772 794.508 411.396C793.757 412.922 792.962 414.129 792.124 415.016C789.874 417.441 787.552 418.974 785.157 419.616C782.761 420.258 780.772 420.253 779.189 419.6C777.586 418.87 776.474 417.967 775.854 416.891C775.291 415.717 774.885 414.666 774.637 413.739C774.389 412.811 774.106 411.603 773.79 410.114C773.359 407.579 773.181 405.06 773.255 402.555C773.407 400.03 773.48 398.602 773.474 398.272C773.533 391.382 774.171 383.716 775.387 375.274C776.681 366.811 777.941 360.386 779.167 355.999C780.45 351.514 781.562 348.4 782.503 346.657C784.385 343.171 786.601 341.087 789.151 340.403C790.928 339.927 792.468 340.881 793.769 343.265C793.971 343.708 794.165 344.278 794.351 344.973C795.055 347.6 795.018 351.172 794.24 355.687C791.549 372.227 786.735 385.94 779.796 396.827ZM779.729 392.87C782.594 387.795 785.14 381.688 787.368 374.548C789.596 367.408 791.029 361.475 791.667 356.749C792.362 351.925 792.503 348.74 792.089 347.194C791.675 345.649 791.197 344.949 790.656 345.093C789.883 345.301 788.829 347.239 787.494 350.91C786.138 354.504 784.671 360.777 783.095 369.73C781.575 378.585 780.453 386.298 779.729 392.87ZM798.12 408.689C797.23 405.366 797.582 400.965 799.179 395.485C797.942 395.816 797.429 395.291 797.638 393.91L798.638 389.294C799.919 383.567 800.944 378.737 801.712 374.804C802.05 372.974 803.34 371.759 805.581 371.159L812.651 369.264C810.408 372.019 808.633 376.677 807.327 383.239C806.077 389.702 805.125 394.803 804.469 398.539C803.794 402.199 803.683 404.879 804.139 406.579C804.594 408.279 805.186 409.404 805.913 409.955C806.718 410.485 807.622 410.615 808.627 410.346C810.095 409.952 811.729 407.858 813.528 404.063C816.34 398.175 819.394 386.548 822.692 369.183C823.107 367.332 824.397 366.117 826.561 365.537L832.82 363.86C831.472 365.629 830.482 367.344 829.85 369.004C829.295 370.644 828.644 373.468 827.897 377.478C825.745 387.994 824.802 394.831 825.069 397.989C825.127 399.133 825.28 400.169 825.529 401.096C826.191 403.569 827.393 404.655 829.135 404.354C833.308 403.236 836.717 395.406 839.364 380.866C839.538 379.66 839.888 379.111 840.413 379.218C840.939 379.326 841.254 379.573 841.357 379.959C841.461 380.345 841.351 381.327 841.029 382.905C840.706 384.482 840.373 386.02 840.029 387.52C839.763 389 839.245 391.085 838.475 393.776C837.762 396.369 837.002 398.477 836.195 400.102C834.092 404.309 831.573 406.806 828.636 407.593C825.777 408.359 823.465 407.612 821.7 405.352C820.926 404.317 820.3 402.911 819.824 401.134C819.348 399.357 819.144 397.051 819.213 394.216C816.222 405.619 812.331 411.962 807.54 413.246C803.368 414.364 800.468 413.277 798.84 409.986C798.505 409.662 798.265 409.23 798.12 408.689ZM854.672 398.381C855.718 398.266 856.434 398.157 856.821 398.053C859.912 397.225 862.478 394.591 864.518 390.152C865.603 387.708 867.144 381.87 869.143 372.638C869.194 372.21 869.413 371.945 869.799 371.841C870.474 371.578 870.894 371.755 871.059 372.373C871.101 372.528 871.032 373.043 870.853 373.919C870.73 374.698 870.618 375.515 870.515 376.37C870.393 377.148 870.17 378.326 869.847 379.903C869.524 381.481 869.206 382.767 868.893 383.762C868.657 384.736 868.319 385.945 867.877 387.388C867.436 388.832 866.922 390.005 866.336 390.907L864.585 394.11C863.623 395.775 862.326 397.117 860.694 398.134C858.083 399.827 855.322 400.65 852.41 400.602C850.84 401.851 849.359 402.662 847.968 403.034C842.482 404.504 838.579 403.231 836.261 399.214C835.76 398.272 835.323 397.105 834.95 395.714C834.557 394.246 834.648 392.731 835.223 391.169C835.876 389.586 836.732 388.611 837.794 388.244C839.726 379.692 841.276 372.03 842.443 365.257C843.774 357.861 846.487 353.614 850.582 352.516C851.664 352.226 852.78 352.217 853.929 352.489C855.136 352.663 855.667 353.1 855.523 353.801C855.457 354.482 854.947 354.742 853.994 354.584C853.04 354.425 852.254 354.429 851.636 354.594C851.018 354.76 850.508 355.021 850.107 355.377C847.811 357.317 847.211 360.335 848.309 364.431C848.888 366.594 849.674 368.289 850.665 369.514C851.656 370.74 852.755 372.06 853.962 373.476C856.816 377.018 858.585 380.064 859.268 382.614C859.952 385.164 859.813 387.893 858.853 390.8C857.893 393.708 856.499 396.235 854.672 398.381ZM850.514 398.625C853.21 395.087 853.771 390.381 852.198 384.508C851.556 382.113 850.405 378.901 848.746 374.873C847.087 370.846 846.061 368.097 845.668 366.629C845.274 365.161 845.044 364.146 844.976 363.585C842.25 376.904 840.534 385.025 839.826 387.948C841.449 387.513 842.571 388.454 843.192 390.773C844.414 395.332 846.854 397.949 850.514 398.625ZM840.982 397.825C841.106 398.289 841.28 398.781 841.502 399.301C842.679 401.222 844.388 401.882 846.629 401.281C847.556 401.033 848.288 400.671 848.823 400.196C845.488 399.185 843.166 396.702 841.857 392.745C840.839 394.509 840.547 396.202 840.982 397.825Z"
        fill="black"
    />
</svg>
