<svg
    width="1000"
    height="750"
    viewBox="0 0 1000 750"
    fill="none"
    xmlns="http://www.w3.org/2000/svg"
>
    <rect width="1000" height="750" fill="#F4F4F4" />
    <rect
        x="526.177"
        y="207.823"
        width="122.786"
        height="119.501"
        transform="rotate(-45 526.177 207.823)"
        fill="white"
    />
    <path
        d="M613.5 120L530.5 206H473.5L556.5 120H613.5L572 79.5L444 206H390L515.5 79.5H572L613.5 120Z"
        fill="white"
    />
    <path
        d="M530 373.5L699 206L613.5 120M613.5 120L530.5 206H473.5L556.5 120H613.5ZM613.5 120L572 79.5M572 79.5L444 206H390L515.5 79.5H572Z"
        stroke="#11B0D1"
        stroke-width="3"
    />
    <path
        d="M359 205.5L528.5 37H472.5L303.5 205.5H359Z"
        fill="white"
        stroke="#11B0D1"
        stroke-width="3"
    />
    <path d="M473.377 374.5L300 206.5H359.5L531 374.5H473.377Z" fill="#11B0D1" />
    <path d="M512.562 333.5L386 207.5H444.413L572 331.516L570.463 333.5H512.562Z" fill="#11B0D1" />
    <path d="M556 292.5L470 207.5H531.243L614.5 288.5L610.5 292.5H556Z" fill="#11B0D1" />
    <g clip-path="url(#clip0)">
        <path
            d="M208.672 708.023L193.103 706.853L198.293 733.168L215.937 724.981L208.672 708.023Z"
            fill="#FFB9B9"
        />
        <path
            d="M351.385 658.901L315.059 619.135L294.3 637.264L253.302 692.818L257.973 701.005L307.793 662.994L341.525 712.701L373.701 694.573L351.385 658.901Z"
            fill="#2F2E41"
        />
        <path
            opacity="0.1"
            d="M351.385 658.901L315.059 619.135L294.3 637.264L253.302 692.818L257.973 701.005L307.793 662.994L341.525 712.701L373.701 694.573L351.385 658.901Z"
            fill="black"
        />
        <path
            d="M354.499 685.216L349.828 689.309L311.944 674.69L303.122 670.596L285.478 674.69C285.478 674.69 285.478 658.316 302.084 658.901L319.21 663.579L339.449 665.333L354.499 685.216Z"
            fill="#FFB9B9"
        />
        <path
            d="M388.231 728.49L376.814 736.677H363.321L300.527 710.362L208.672 729.075L206.077 706.853L290.148 665.334L363.841 692.818L388.231 728.49Z"
            fill="#2F2E41"
        />
        <path
            d="M314.539 624.398L306.755 626.153L305.059 623.923C303.716 622.157 302.865 619.984 302.613 617.677C302.361 615.369 302.718 613.028 303.641 610.948L325.438 578.785C325.438 578.785 331.665 562.996 341.525 569.429C351.385 575.861 333.222 586.387 333.222 586.387L322.324 605.685L323.362 615.627L314.539 624.398Z"
            fill="#FFB9B9"
        />
        <path
            d="M363.84 586.387C375.018 586.387 384.08 576.177 384.08 563.581C384.08 550.985 375.018 540.774 363.84 540.774C352.663 540.774 343.601 550.985 343.601 563.581C343.601 576.177 352.663 586.387 363.84 586.387Z"
            fill="#FFB9B9"
        />
        <path
            d="M354.759 580.247L364.1 605.393L386.415 594.867C386.415 594.867 379.15 574.984 379.15 574.399C379.15 573.815 354.759 580.247 354.759 580.247Z"
            fill="#FFB9B9"
        />
        <path
            d="M416.208 654.638C416.208 668.402 414.283 682.08 410.505 695.169L408.99 700.42L401.724 737.847L393.94 740.186L388.231 731.999L376.814 722.642L368.511 707.438L361.391 694.07L359.17 689.894L351.385 646.035L321.805 627.322L311.944 625.568L314.02 619.135L322.842 605.685L331.665 604.516L334.26 602.177L336.335 603.346L344.639 598.083L347.234 599.253L362.408 600.843L371.625 598.668L384.879 590.651L390.307 591.651L408.99 609.194C413.766 623.74 416.21 639.127 416.208 654.638Z"
            fill="#575A89"
        />
        <path
            d="M197.882 717.078C197.882 717.078 202.53 708.2 200.567 707.164C198.604 706.128 190.266 701.996 190.266 701.996L178.039 697.43C178.039 697.43 160.396 667.883 160.008 693.578C159.621 719.272 172.855 725.449 172.855 725.449C172.855 725.449 184.657 754.071 191.343 749.507C198.029 744.943 204.719 729.449 204.719 729.449C204.719 729.449 192.663 722.146 197.882 717.078Z"
            fill="#2F2E41"
        />
        <path
            opacity="0.1"
            d="M410.547 649.544L390.826 664.164L361.391 694.069L359.17 689.894L352.942 654.807H354.499L370.587 621.475L410.547 649.544Z"
            fill="black"
        />
        <path
            d="M370.587 617.966L354.499 651.298H348.791L345.158 662.994L336.855 665.334L359.17 692.818L390.826 660.655L410.547 646.035L370.587 617.966Z"
            fill="#575A89"
        />
        <path
            d="M348.098 546.623L345.905 547.574C345.568 547.317 345.28 546.986 345.057 546.601C344.835 546.217 344.683 545.786 344.61 545.335C344.537 544.883 344.545 544.42 344.633 543.972C344.721 543.523 344.887 543.1 345.123 542.725L341.07 542.511C343.672 538.607 346.979 535.37 350.774 533.014C354.568 530.658 358.764 529.237 363.082 528.845C367.401 528.453 371.744 529.098 375.825 530.739C379.905 532.379 383.63 534.978 386.753 538.362C386.937 537.646 388.948 539.039 389.769 540.452C390.045 539.287 391.931 544.919 392.598 548.9C392.907 547.575 394.094 549.715 393.054 551.768C393.713 551.66 394.011 553.56 393.501 554.618C394.222 554.237 394.1 556.505 393.318 558.021C394.347 557.918 385.204 573.908 381.502 583.253C380.427 577.687 379.219 571.827 375.753 567.681C375.164 566.977 374.518 566.335 373.874 565.694L370.391 562.229C366.34 558.199 362.655 553.226 357.258 551.72C353.549 550.686 351.204 550.452 353.225 545.743C351.399 546.601 349.694 547.878 347.852 548.676C347.877 548.018 348.134 547.282 348.098 546.623Z"
            fill="#2F2E41"
        />
        <path
            d="M373.96 570.306C375.967 570.306 377.593 568.473 377.593 566.212C377.593 563.952 375.967 562.119 373.96 562.119C371.954 562.119 370.328 563.952 370.328 566.212C370.328 568.473 371.954 570.306 373.96 570.306Z"
            fill="#FFB9B9"
        />
        <path d="M289.497 474.206H271.933V493.998H289.497V474.206Z" fill="#11B0D1" />
        <path
            d="M300.16 482.689H278.833V458.656H300.16V482.689ZM279.76 481.644H299.233V459.7H279.76V481.644Z"
            fill="#3F3D56"
        />
        <path
            d="M211.02 554.409L206.197 535.378L189.308 540.813L194.131 559.844L211.02 554.409Z"
            fill="#11B0D1"
        />
        <path
            d="M206.71 568.293L200.854 545.184L221.362 538.585L227.218 561.694L206.71 568.293ZM202 545.901L207.347 567.001L226.071 560.976L220.724 539.876L202 545.901Z"
            fill="#3F3D56"
        />
        <path
            d="M206.655 465.771L218.647 451.311L205.815 437.797L193.822 452.257L206.655 465.771Z"
            fill="#11B0D1"
        />
        <path
            d="M193.874 468.759L208.437 451.2L224.019 467.61L209.456 485.169L193.874 468.759ZM208.481 452.677L195.185 468.709L209.412 483.692L222.708 467.66L208.481 452.677Z"
            fill="#3F3D56"
        />
        <path
            d="M803.742 435.79H640.541V432H566.539V435.79H402.665C401.216 435.79 399.78 436.112 398.441 436.737C397.101 437.362 395.884 438.279 394.859 439.434C393.834 440.589 393.021 441.96 392.466 443.47C391.912 444.979 391.626 446.596 391.626 448.23V700.048C391.626 701.682 391.912 703.299 392.466 704.808C393.021 706.318 393.834 707.689 394.859 708.844C395.884 709.999 397.101 710.915 398.441 711.541C399.78 712.166 401.216 712.488 402.665 712.488H803.742C806.67 712.488 809.478 711.177 811.548 708.844C813.618 706.511 814.781 703.347 814.781 700.048V448.23C814.781 446.596 814.496 444.979 813.941 443.47C813.386 441.96 812.573 440.589 811.548 439.434C810.523 438.279 809.306 437.362 807.966 436.737C806.627 436.112 805.192 435.79 803.742 435.79Z"
            fill="#3F3D56"
        />
        <path d="M799.981 457.775H406.427V707.939H799.981V457.775Z" fill="#11B0D1" />
        <path
            d="M602.867 450.952C605.097 450.952 606.904 448.915 606.904 446.403C606.904 443.891 605.097 441.855 602.867 441.855C600.638 441.855 598.831 443.891 598.831 446.403C598.831 448.915 600.638 450.952 602.867 450.952Z"
            fill="#11B0D1"
        />
        <path opacity="0.1" d="M687.431 707.939H406.427V457.775L687.431 707.939Z" fill="black" />
        <path
            d="M468.006 689.219C488.899 689.219 505.836 670.134 505.836 646.591C505.836 623.048 488.899 603.963 468.006 603.963C447.113 603.963 430.176 623.048 430.176 646.591C430.176 670.134 447.113 689.219 468.006 689.219Z"
            fill="#F2F2F2"
        />
        <path
            d="M476.428 678.63C467.121 678.63 458.023 675.52 450.284 669.694C442.546 663.867 436.515 655.586 432.953 645.897C429.391 636.208 428.46 625.546 430.275 615.26C432.091 604.975 436.573 595.526 443.154 588.111C449.735 580.695 458.119 575.645 467.247 573.599C476.375 571.553 485.837 572.603 494.435 576.616C503.034 580.63 510.383 587.426 515.553 596.146C520.724 604.866 523.484 615.118 523.484 625.605C523.47 639.663 518.508 653.141 509.686 663.082C500.864 673.023 488.903 678.614 476.428 678.63ZM476.428 573.273C467.242 573.273 458.263 576.342 450.626 582.093C442.989 587.843 437.036 596.016 433.521 605.579C430.006 615.141 429.087 625.663 430.879 635.815C432.671 645.966 437.094 655.291 443.589 662.609C450.083 669.928 458.359 674.912 467.367 676.932C476.376 678.951 485.714 677.915 494.2 673.954C502.686 669.993 509.939 663.285 515.042 654.679C520.145 646.073 522.869 635.955 522.869 625.605C522.855 611.731 517.958 598.429 509.251 588.618C500.545 578.807 488.74 573.289 476.428 573.273Z"
            fill="#3F3D56"
        />
        <path d="M731.457 592.69H694.694V601.346H731.457V592.69Z" fill="#3F3D56" />
        <path d="M775.901 525.297H650.25V529.007H775.901V525.297Z" fill="#3F3D56" />
        <path d="M775.901 537.044H650.25V540.754H775.901V537.044Z" fill="#3F3D56" />
        <path d="M775.901 548.792H650.25V552.502H775.901V548.792Z" fill="#3F3D56" />
        <path d="M775.901 560.539H650.25V564.249H775.901V560.539Z" fill="#3F3D56" />
        <path d="M775.901 572.287H650.25V575.996H775.901V572.287Z" fill="#3F3D56" />
        <path d="M775.9 462.85H760.537V480.162H775.9V462.85Z" fill="#F2F2F2" />
        <path
            d="M783.033 488.2H764.378V467.178H783.033V488.2ZM765.189 487.286H782.222V468.092H765.189V487.286Z"
            fill="#3F3D56"
        />
        <path
            d="M825.831 703.391H787.423V700.272C787.423 700.191 787.409 700.111 787.381 700.036C787.354 699.961 787.313 699.893 787.262 699.835C787.211 699.778 787.151 699.732 787.084 699.701C787.018 699.67 786.947 699.654 786.874 699.654H773.706C773.634 699.654 773.562 699.67 773.496 699.701C773.429 699.732 773.369 699.778 773.318 699.835C773.267 699.893 773.227 699.961 773.199 700.036C773.171 700.111 773.157 700.191 773.157 700.272V703.391H764.927V700.272C764.927 700.191 764.913 700.111 764.885 700.036C764.857 699.961 764.817 699.893 764.766 699.835C764.715 699.778 764.655 699.732 764.588 699.701C764.521 699.67 764.45 699.654 764.378 699.654H751.21C751.137 699.654 751.066 699.67 751 699.701C750.933 699.732 750.872 699.778 750.822 699.835C750.771 699.893 750.73 699.961 750.703 700.036C750.675 700.111 750.661 700.191 750.661 700.272V703.391H742.43V700.272C742.43 700.191 742.416 700.111 742.389 700.036C742.361 699.961 742.321 699.893 742.27 699.835C742.219 699.778 742.158 699.732 742.092 699.701C742.025 699.67 741.954 699.654 741.882 699.654H728.713C728.641 699.654 728.57 699.67 728.503 699.701C728.437 699.732 728.376 699.778 728.325 699.835C728.274 699.893 728.234 699.961 728.206 700.036C728.179 700.111 728.165 700.191 728.165 700.272V703.391H719.934V700.272C719.934 700.191 719.92 700.111 719.892 700.036C719.865 699.961 719.824 699.893 719.773 699.835C719.723 699.778 719.662 699.732 719.595 699.701C719.529 699.67 719.458 699.654 719.385 699.654H706.217C706.145 699.654 706.073 699.67 706.007 699.701C705.94 699.732 705.88 699.778 705.829 699.835C705.778 699.893 705.737 699.961 705.71 700.036C705.682 700.111 705.668 700.191 705.668 700.272V703.391H697.438V700.272C697.438 700.191 697.424 700.111 697.396 700.036C697.368 699.961 697.328 699.893 697.277 699.835C697.226 699.778 697.166 699.732 697.099 699.701C697.033 699.67 696.961 699.654 696.889 699.654H683.721C683.648 699.654 683.577 699.67 683.511 699.701C683.444 699.732 683.384 699.778 683.333 699.835C683.282 699.893 683.241 699.961 683.214 700.036C683.186 700.111 683.172 700.191 683.172 700.272V703.391H674.941V700.272C674.941 700.191 674.927 700.111 674.9 700.036C674.872 699.961 674.832 699.893 674.781 699.835C674.73 699.778 674.669 699.732 674.603 699.701C674.536 699.67 674.465 699.654 674.393 699.654H661.224C661.152 699.654 661.081 699.67 661.014 699.701C660.948 699.732 660.887 699.778 660.836 699.835C660.785 699.893 660.745 699.961 660.717 700.036C660.69 700.111 660.676 700.191 660.676 700.272V703.391H652.445V700.272C652.445 700.191 652.431 700.111 652.403 700.036C652.376 699.961 652.335 699.893 652.285 699.835C652.234 699.778 652.173 699.732 652.106 699.701C652.04 699.67 651.969 699.654 651.897 699.654H548.743C548.671 699.654 548.599 699.67 548.533 699.701C548.466 699.732 548.406 699.778 548.355 699.835C548.304 699.893 548.263 699.961 548.236 700.036C548.208 700.111 548.194 700.191 548.194 700.272V703.391H539.964V700.272C539.964 700.191 539.949 700.111 539.922 700.036C539.894 699.961 539.854 699.893 539.803 699.835C539.752 699.778 539.691 699.732 539.625 699.701C539.558 699.67 539.487 699.654 539.415 699.654H526.246C526.174 699.654 526.103 699.67 526.036 699.701C525.97 699.732 525.909 699.778 525.858 699.835C525.807 699.893 525.767 699.961 525.739 700.036C525.712 700.111 525.698 700.191 525.698 700.272V703.391H517.467V700.272C517.467 700.191 517.453 700.111 517.425 700.036C517.398 699.961 517.357 699.893 517.307 699.835C517.256 699.778 517.195 699.732 517.129 699.701C517.062 699.67 516.991 699.654 516.919 699.654H503.75C503.678 699.654 503.607 699.67 503.54 699.701C503.473 699.732 503.413 699.778 503.362 699.835C503.311 699.893 503.271 699.961 503.243 700.036C503.215 700.111 503.201 700.191 503.201 700.272V703.391H494.971V700.272C494.971 700.191 494.957 700.111 494.929 700.036C494.902 699.961 494.861 699.893 494.81 699.835C494.759 699.778 494.699 699.732 494.632 699.701C494.566 699.67 494.494 699.654 494.422 699.654H481.254C481.182 699.654 481.11 699.67 481.044 699.701C480.977 699.732 480.917 699.778 480.866 699.835C480.815 699.893 480.774 699.961 480.747 700.036C480.719 700.111 480.705 700.191 480.705 700.272V703.391H472.475V700.272C472.475 700.191 472.46 700.111 472.433 700.036C472.405 699.961 472.365 699.893 472.314 699.835C472.263 699.778 472.202 699.732 472.136 699.701C472.069 699.67 471.998 699.654 471.926 699.654H458.757C458.685 699.654 458.614 699.67 458.547 699.701C458.481 699.732 458.42 699.778 458.369 699.835C458.318 699.893 458.278 699.961 458.25 700.036C458.223 700.111 458.209 700.191 458.209 700.272V703.391H449.978V700.272C449.978 700.191 449.964 700.111 449.936 700.036C449.909 699.961 449.868 699.893 449.818 699.835C449.767 699.778 449.706 699.732 449.64 699.701C449.573 699.67 449.502 699.654 449.43 699.654H436.261C436.189 699.654 436.118 699.67 436.051 699.701C435.984 699.732 435.924 699.778 435.873 699.835C435.822 699.893 435.782 699.961 435.754 700.036C435.726 700.111 435.712 700.191 435.712 700.272V703.391H427.482V700.272C427.482 700.191 427.468 700.111 427.44 700.036C427.413 699.961 427.372 699.893 427.321 699.835C427.27 699.778 427.21 699.732 427.143 699.701C427.077 699.67 427.005 699.654 426.933 699.654H413.765C413.693 699.654 413.621 699.67 413.555 699.701C413.488 699.732 413.428 699.778 413.377 699.835C413.326 699.893 413.285 699.961 413.258 700.036C413.23 700.111 413.216 700.191 413.216 700.272V703.391H387.976C384.484 703.391 381.134 704.954 378.665 707.737C376.195 710.52 374.808 714.294 374.808 718.23V724.939C374.808 728.875 376.195 732.649 378.665 735.432C381.134 738.215 384.484 739.778 387.976 739.778H825.831C829.324 739.778 832.673 738.215 835.143 735.432C837.613 732.649 839 728.875 839 724.939V718.23C839 714.294 837.613 710.52 835.143 707.737C832.673 704.954 829.324 703.391 825.831 703.391Z"
            fill="#3F3D56"
        />
    </g>
    <defs>
        <clipPath id="clip0">
            <rect width="679" height="318" fill="white" transform="translate(160 432)" />
        </clipPath>
    </defs>
</svg>
