<svg
    width="1000"
    height="750"
    viewBox="0 0 1000 750"
    fill="none"
    xmlns="http://www.w3.org/2000/svg"
>
    <rect width="1000" height="750" fill="#36393F" />
    <path
        d="M144.617 231V145.688H170.867C178.367 145.688 185.066 147.387 190.965 150.785C196.902 154.145 201.531 158.949 204.852 165.199C208.172 171.41 209.832 178.48 209.832 186.41V190.336C209.832 198.266 208.191 205.316 204.91 211.488C201.668 217.66 197.078 222.445 191.141 225.844C185.203 229.242 178.504 230.961 171.043 231H144.617ZM162.195 159.926V216.879H170.691C177.566 216.879 182.82 214.633 186.453 210.141C190.086 205.648 191.941 199.223 192.02 190.863V186.352C192.02 177.68 190.223 171.117 186.629 166.664C183.035 162.172 177.781 159.926 170.867 159.926H162.195ZM250.73 232.172C241.434 232.172 233.855 229.32 227.996 223.617C222.176 217.914 219.266 210.316 219.266 200.824V199.184C219.266 192.816 220.496 187.133 222.957 182.133C225.418 177.094 228.895 173.227 233.387 170.531C237.918 167.797 243.074 166.43 248.855 166.43C257.527 166.43 264.344 169.164 269.305 174.633C274.305 180.102 276.805 187.855 276.805 197.895V204.809H236.434C236.98 208.949 238.621 212.27 241.355 214.77C244.129 217.27 247.625 218.52 251.844 218.52C258.367 218.52 263.465 216.156 267.137 211.43L275.457 220.746C272.918 224.34 269.48 227.152 265.145 229.184C260.809 231.176 256.004 232.172 250.73 232.172ZM248.797 180.141C245.438 180.141 242.703 181.273 240.594 183.539C238.523 185.805 237.195 189.047 236.609 193.266H260.164V191.918C260.086 188.168 259.07 185.277 257.117 183.246C255.164 181.176 252.391 180.141 248.797 180.141ZM343.602 199.887C343.602 210.043 341.434 217.973 337.098 223.676C332.762 229.34 326.707 232.172 318.934 232.172C312.059 232.172 306.57 229.535 302.469 224.262L301.707 231H286.473V141H303.406V173.285C307.312 168.715 312.449 166.43 318.816 166.43C326.551 166.43 332.605 169.281 336.98 174.984C341.395 180.648 343.602 188.637 343.602 198.949V199.887ZM326.668 198.656C326.668 192.25 325.652 187.582 323.621 184.652C321.59 181.684 318.562 180.199 314.539 180.199C309.148 180.199 305.438 182.406 303.406 186.82V211.84C305.477 216.293 309.227 218.52 314.656 218.52C320.125 218.52 323.719 215.824 325.438 210.434C326.258 207.855 326.668 203.93 326.668 198.656ZM390.828 231C390.047 229.477 389.48 227.582 389.129 225.316C385.027 229.887 379.695 232.172 373.133 232.172C366.922 232.172 361.766 230.375 357.664 226.781C353.602 223.188 351.57 218.656 351.57 213.188C351.57 206.469 354.051 201.312 359.012 197.719C364.012 194.125 371.219 192.309 380.633 192.27H388.426V188.637C388.426 185.707 387.664 183.363 386.141 181.605C384.656 179.848 382.293 178.969 379.051 178.969C376.199 178.969 373.953 179.652 372.312 181.02C370.711 182.387 369.91 184.262 369.91 186.645H352.977C352.977 182.973 354.109 179.574 356.375 176.449C358.641 173.324 361.844 170.883 365.984 169.125C370.125 167.328 374.773 166.43 379.93 166.43C387.742 166.43 393.934 168.402 398.504 172.348C403.113 176.254 405.418 181.762 405.418 188.871V216.352C405.457 222.367 406.297 226.918 407.938 230.004V231H390.828ZM376.824 219.223C379.324 219.223 381.629 218.676 383.738 217.582C385.848 216.449 387.41 214.945 388.426 213.07V202.172H382.098C373.621 202.172 369.109 205.102 368.562 210.961L368.504 211.957C368.504 214.066 369.246 215.805 370.73 217.172C372.215 218.539 374.246 219.223 376.824 219.223ZM438.699 152.016V167.602H449.539V180.023H438.699V211.664C438.699 214.008 439.148 215.688 440.047 216.703C440.945 217.719 442.664 218.227 445.203 218.227C447.078 218.227 448.738 218.09 450.184 217.816V230.648C446.863 231.664 443.445 232.172 439.93 232.172C428.055 232.172 422 226.176 421.766 214.184V180.023H412.508V167.602H421.766V152.016H438.699ZM488.152 232.172C478.855 232.172 471.277 229.32 465.418 223.617C459.598 217.914 456.688 210.316 456.688 200.824V199.184C456.688 192.816 457.918 187.133 460.379 182.133C462.84 177.094 466.316 173.227 470.809 170.531C475.34 167.797 480.496 166.43 486.277 166.43C494.949 166.43 501.766 169.164 506.727 174.633C511.727 180.102 514.227 187.855 514.227 197.895V204.809H473.855C474.402 208.949 476.043 212.27 478.777 214.77C481.551 217.27 485.047 218.52 489.266 218.52C495.789 218.52 500.887 216.156 504.559 211.43L512.879 220.746C510.34 224.34 506.902 227.152 502.566 229.184C498.23 231.176 493.426 232.172 488.152 232.172ZM486.219 180.141C482.859 180.141 480.125 181.273 478.016 183.539C475.945 185.805 474.617 189.047 474.031 193.266H497.586V191.918C497.508 188.168 496.492 185.277 494.539 183.246C492.586 181.176 489.812 180.141 486.219 180.141ZM615.594 159.926H589.461V231H571.883V159.926H546.102V145.688H615.594V159.926ZM642.43 231H625.438V167.602H642.43V231ZM624.441 151.195C624.441 148.656 625.281 146.566 626.961 144.926C628.68 143.285 631.004 142.465 633.934 142.465C636.824 142.465 639.129 143.285 640.848 144.926C642.566 146.566 643.426 148.656 643.426 151.195C643.426 153.773 642.547 155.883 640.789 157.523C639.07 159.164 636.785 159.984 633.934 159.984C631.082 159.984 628.777 159.164 627.02 157.523C625.301 155.883 624.441 153.773 624.441 151.195ZM672.312 167.602L672.84 174.691C677.332 169.184 683.406 166.43 691.062 166.43C699.227 166.43 704.832 169.652 707.879 176.098C712.332 169.652 718.68 166.43 726.922 166.43C733.797 166.43 738.914 168.441 742.273 172.465C745.633 176.449 747.312 182.465 747.312 190.512V231H730.32V190.57C730.32 186.977 729.617 184.359 728.211 182.719C726.805 181.039 724.324 180.199 720.77 180.199C715.691 180.199 712.176 182.621 710.223 187.465L710.281 231H693.348V190.629C693.348 186.957 692.625 184.301 691.18 182.66C689.734 181.02 687.273 180.199 683.797 180.199C678.992 180.199 675.516 182.191 673.367 186.176V231H656.434V167.602H672.312ZM789.559 232.172C780.262 232.172 772.684 229.32 766.824 223.617C761.004 217.914 758.094 210.316 758.094 200.824V199.184C758.094 192.816 759.324 187.133 761.785 182.133C764.246 177.094 767.723 173.227 772.215 170.531C776.746 167.797 781.902 166.43 787.684 166.43C796.355 166.43 803.172 169.164 808.133 174.633C813.133 180.102 815.633 187.855 815.633 197.895V204.809H775.262C775.809 208.949 777.449 212.27 780.184 214.77C782.957 217.27 786.453 218.52 790.672 218.52C797.195 218.52 802.293 216.156 805.965 211.43L814.285 220.746C811.746 224.34 808.309 227.152 803.973 229.184C799.637 231.176 794.832 232.172 789.559 232.172ZM787.625 180.141C784.266 180.141 781.531 181.273 779.422 183.539C777.352 185.805 776.023 189.047 775.438 193.266H798.992V191.918C798.914 188.168 797.898 185.277 795.945 183.246C793.992 181.176 791.219 180.141 787.625 180.141ZM860.926 183.48C858.621 183.168 856.59 183.012 854.832 183.012C848.426 183.012 844.227 185.18 842.234 189.516V231H825.301V167.602H841.297L841.766 175.16C845.164 169.34 849.871 166.43 855.887 166.43C857.762 166.43 859.52 166.684 861.16 167.191L860.926 183.48Z"
        fill="#8C9EFF"
    />
    <g clip-path="url(#clip0)">
        <rect width="743" height="518.629" transform="translate(0 231)" fill="#36393F" />
        <rect x="232" y="294" width="379" height="456" fill="#8C9EFF" fill-opacity="0.5" />
        <path
            d="M539.099 717.563L535.238 665.549L524.207 720.552C524.207 720.552 524.353 734.429 524.718 749.629H538.85C539.326 732.253 539.099 717.563 539.099 717.563Z"
            fill="#36393F"
        />
        <path
            d="M340.599 736.061C339.513 731.197 338.746 726.256 338.304 721.274L336.76 703.281C336.111 698.353 335.444 694.012 334.773 690.179C329.856 662.854 324.779 661.866 324.779 661.866C324.561 662.047 324.349 662.248 324.131 662.455C323.535 663.043 322.979 663.678 322.469 664.356C314.385 675.495 308.9 704.385 306.019 723.55C304.427 734.137 303.635 741.755 303.635 741.755C303.635 741.755 304.355 745 305.338 749.629H342.23C342.09 745.06 341.544 740.516 340.599 736.061Z"
            fill="#F2F2F2"
        />
        <path
            d="M630.695 231H112.305C50.5373 231 0 285.783 0 352.74V627.889C0 694.846 50.5373 749.629 112.305 749.629H276.606L274.486 738.808C274.486 738.808 269.033 700.661 274.486 670.918C276.247 661.587 277.456 652.143 278.104 642.644C278.786 631.92 280.403 621.291 282.933 610.897C283.077 610.297 283.239 609.703 283.39 609.104C282.06 608.712 281.449 608.399 281.758 608.201C282.61 607.656 283.078 605.985 283.312 603.865C284.764 589.83 287.535 575.993 291.579 562.568C286.069 566.318 282.41 566.716 280.015 565.263C271.598 562.772 275.092 542.251 275.092 542.251C275.092 542.251 280.323 497.867 282.061 481.797C283.06 472.559 295.859 467.325 307.189 464.483C308.383 461.707 309.243 458.91 308.697 455.975C308.66 455.778 308.607 455.587 308.559 455.394C307.118 451.925 304.19 449.071 303.091 445.479C302.604 444.513 302.261 443.468 302.074 442.386C301.101 436.227 306.413 430.908 307.945 424.985C306.382 423.349 305.216 421.321 304.548 419.08C302.214 413.891 303.352 407.663 310.847 402.854C312.343 401.894 313.929 401.046 315.539 400.233C316.129 399.82 316.771 399.501 317.445 399.286C322.807 396.657 328.198 394.112 331.407 388.993C332.234 387.674 332.959 386.145 334.296 385.451C334.926 385.159 335.6 384.996 336.285 384.969C346.618 384.109 355.975 393.715 366.259 392.338C369.374 391.921 372.555 390.501 375.545 391.523C377.51 392.195 379.044 393.831 380.364 395.523C383.959 400.174 386.561 405.627 387.987 411.495C389.412 417.362 389.625 423.498 388.611 429.465C387.306 436.809 384.136 444.378 386.421 451.444C388.1 456.636 392.594 460.85 392.626 466.342C392.653 470.861 389.693 474.467 386.834 477.983C387.206 478.395 387.568 478.819 387.921 479.253C394.908 487.883 393.588 495.248 392.603 498.197L392.603 498.199L389.01 535.785L385.98 561.001C385.98 561.001 385.231 571.35 378.174 573.62C376.118 574.65 373.426 574.922 369.886 573.754C367.589 572.996 365.654 572.239 364.011 571.503C365.563 576.878 368.235 587.852 367.802 598.503C367.196 613.374 369.013 614.667 369.013 614.667C368.899 614.819 368.77 614.958 368.628 615.08C375.826 632.318 375.892 650.005 368.408 667.686C359.924 687.729 369.013 734.282 369.013 734.282C369.013 734.282 369.66 741.544 369.951 749.629H500.086C498.016 728.228 495.529 706.804 494.425 704.41C492.604 700.462 494.916 635.421 495.779 612.829C495.395 612.724 495.021 612.617 494.667 612.507C494.052 612.316 493.499 612.116 492.988 611.912C492.962 613.062 493.074 614.211 493.322 615.329C494.088 617.266 492.251 618.69 489.129 619.662C490.945 629.267 493.187 647.14 485.6 650.603C477.796 654.165 477.64 632.526 478.068 621.247C477.084 621.287 476.097 621.308 475.121 621.308C465.745 621.308 477.879 503.53 477.328 495.757C476.776 487.985 481.74 456.299 481.74 456.299C481.74 456.299 483.394 449.722 488.358 448.527C493.322 447.331 517.037 432.384 517.037 432.384C518.371 430.353 520.057 428.623 522.001 427.29V426.406C522.619 425.781 523.277 425.204 523.969 424.679C523.68 419.455 523.028 412.716 522.553 408.163C519.887 405.218 518.086 401.483 517.378 397.429C516.362 396.569 515.398 395.64 514.49 394.648C512.213 391.817 510.906 388.222 510.791 384.468C510.69 380.74 511.188 377.021 512.262 373.477C512.543 372.3 512.973 371.171 513.54 370.121C514.32 368.905 515.298 367.853 516.427 367.018C516.762 366.749 517.108 366.497 517.453 366.243C518.184 364.703 519.256 363.384 520.573 362.403C523.388 360.4 527.011 360.563 530.377 360.654C530.427 360.656 530.478 360.655 530.529 360.656C531.154 360.547 531.78 360.457 532.409 360.386C532.777 360.307 533.115 360.113 533.383 359.829C533.651 359.544 533.837 359.181 533.917 358.784C534.373 359.259 534.828 359.733 535.284 360.208C535.968 360.197 536.651 360.21 537.334 360.246C537.636 359.496 537.991 358.772 538.397 358.081C538.646 358.853 538.896 359.626 539.146 360.398C539.832 360.477 540.516 360.577 541.196 360.705C541.732 360.243 542.268 359.782 542.804 359.32C542.923 359.217 543.35 360.73 543.565 361.25C543.934 361.352 544.302 361.462 544.666 361.584C545.236 361.556 545.869 361.44 546.221 361.446C548.161 361.375 550.081 361.894 551.763 362.944C553.233 364.103 554.438 365.611 555.286 367.352C557.453 371.068 558.798 375.277 559.218 379.649C560.271 381.231 561.014 383.029 561.4 384.934C562.31 390.935 557.049 395.951 556.006 401.927C555.45 405.115 556.085 408.646 554.587 411.455C553.931 412.587 553.072 413.563 552.06 414.327C551.462 414.81 550.839 415.256 550.193 415.66C550.228 419.275 550.61 422.877 551.334 426.406L552.044 429.355C553.147 430.218 554.338 431.214 555.644 432.384C555.644 432.384 571.087 439.559 576.602 443.146C581.45 446.299 586.722 446.684 588.301 450.792L588.735 450.918C588.735 450.918 594.251 517.28 594.802 528.64C595.354 539.999 601.972 609.948 600.869 612.938C600.461 614.044 597.86 615.314 594.719 616.323C596.552 625.403 599.511 645.15 591.493 648.809C583.365 652.519 583.533 628.894 584.017 618.107C582.933 618.001 582.222 617.693 582.117 617.123C582.027 616.637 581.74 614.442 581.324 611.095C580.637 611.211 579.925 611.33 579.166 611.455C579.014 611.48 578.854 611.506 578.699 611.531C585.691 635.374 570.205 698.609 567.226 710.986C565.669 717.454 563.991 733.446 562.477 749.629H630.695C692.463 749.629 743 694.846 743 627.889V352.74C743 285.783 692.463 231 630.695 231Z"
            fill="#36393F"
        />
        <path
            d="M288.725 678.789L299.022 748.34H527.942L547.745 608.38L288.725 678.789Z"
            fill="#3F3D56"
        />
        <path
            d="M556.459 598.934L558.835 611.814L262.585 689.093V677.931L556.459 598.934Z"
            fill="#3F3D56"
        />
        <path
            d="M431.304 622.118L429.72 636.715L447.147 634.139L440.017 619.542L431.304 622.118Z"
            fill="#3F3D56"
        />
        <path
            d="M335.459 474.429C335.459 474.429 370.312 471.853 379.817 501.047C389.322 530.242 411.501 582.62 420.215 590.348C428.928 598.076 438.433 618.683 436.849 625.553"
            stroke="#3F3D56"
            stroke-width="5"
            stroke-miterlimit="10"
        />
        <path
            d="M340.607 474C340.607 478.031 336.653 481.298 330.31 481.298C323.967 481.298 320.805 478.031 320.805 474C320.805 469.969 323.967 466.701 330.31 466.701C336.653 466.701 340.607 469.969 340.607 474Z"
            fill="#8C9EFF"
        />
        <path
            d="M216.365 513.341C201.794 513.341 189.982 501.205 189.982 486.235C189.982 471.264 201.794 459.128 216.365 459.128C230.936 459.128 242.748 471.264 242.748 486.235C242.748 501.205 230.936 513.341 216.365 513.341Z"
            fill="#FFB9B9"
        />
        <path
            d="M194.965 490.753C194.965 490.753 192.034 511.233 186.757 513.643C183.086 515.5 179.722 517.939 176.79 520.871L191.447 528.1L220.175 526.293C220.175 526.293 217.83 513.041 221.934 506.415C226.038 499.788 194.965 490.753 194.965 490.753Z"
            fill="#FFB9B9"
        />
        <path
            d="M140.437 587.734C140.437 587.734 126.952 623.274 140.437 657.609C153.922 691.943 159.785 697.365 159.785 697.365L163.889 652.187L159.17 647.789C159.17 647.789 156.312 634.082 158.635 625.967C160.957 617.852 157.439 592.553 157.439 592.553L140.437 587.734Z"
            fill="#FFB9B9"
        />
        <path
            d="M241.281 664.837C241.281 664.837 258.284 704.594 256.525 723.869C254.766 743.145 241.281 824.465 241.281 824.465C241.281 824.465 243.04 929.276 237.764 929.276C232.487 929.276 207.277 938.914 207.277 932.288C207.277 925.662 202 766.637 202 766.637C202 766.637 172.1 836.512 169.168 841.933C166.237 847.354 147.476 932.288 141.026 932.288C134.577 932.288 114.644 926.265 116.402 922.048C118.161 917.831 138.095 823.862 149.234 799.768C160.374 775.673 158.029 684.715 158.029 684.715L176.79 642.55L241.281 664.837Z"
            fill="#373737"
        />
        <path
            d="M224.278 473.887C224.278 473.887 240.694 472.682 241.867 468.466C243.039 464.249 245.384 460.635 244.212 460.635C243.039 460.635 242.453 457.623 242.453 457.623C242.453 457.623 241.28 457.021 240.694 457.623C240.108 458.225 239.521 453.406 239.521 453.406C239.521 453.406 238.935 451.599 238.349 452.804C237.762 454.009 237.763 453.406 237.176 451.599C236.59 449.792 233.658 448.587 233.658 448.587C233.658 448.587 222.519 449.19 220.76 446.78C219.001 444.371 199.067 446.178 194.963 449.19C190.859 452.202 172.685 463.044 175.616 472.08C178.547 481.115 189.101 500.994 189.101 504.005C189.101 507.017 193.205 506.415 194.377 503.403C195.55 500.391 204.93 496.777 204.93 494.97C204.93 493.163 210.207 476.296 213.138 477.501C216.07 478.706 219.588 488.344 220.76 486.537C221.933 484.73 224.278 473.887 224.278 473.887Z"
            fill="#3F3D56"
        />
        <path
            d="M143.372 556.411C143.372 556.411 167.409 520.269 174.445 518.462C181.48 516.655 197.31 511.836 197.31 511.836C197.31 511.836 213.14 514.246 217.83 516.655C222.52 519.065 240.109 523.281 240.695 530.51C241.282 537.738 236.005 607.01 238.936 613.636C241.868 620.262 251.835 683.51 247.144 682.306C242.454 681.101 245.972 665.439 225.452 664.837C204.932 664.235 193.792 651.585 186.171 666.644C178.549 681.703 156.856 693.148 156.856 693.148C156.311 688.292 155.528 683.467 154.511 678.691C152.752 670.258 159.201 649.778 159.201 649.778C159.201 649.778 158.615 602.191 156.27 596.77C153.925 591.348 143.372 556.411 143.372 556.411Z"
            fill="#8C9EFF"
        />
        <path
            d="M152.166 555.207L143.372 556.412C143.372 556.412 143.958 568.459 141.613 572.073C139.268 575.687 135.163 594.361 137.509 594.963C139.854 595.565 160.96 599.18 160.96 599.18L162.133 571.471L152.166 555.207Z"
            fill="#8C9EFF"
        />
        <path
            d="M247.144 576.891C247.144 576.891 253.007 616.045 255.938 620.864C258.869 625.683 273.527 693.148 273.527 693.148C273.527 693.148 297.629 727.585 285.903 726.982C274.178 726.38 261.801 695.557 261.801 695.557C261.801 695.557 225.451 627.49 225.451 620.261C225.451 613.033 216.657 576.891 216.657 576.891H247.144Z"
            fill="#FFB9B9"
        />
        <path
            d="M230.14 523.883L240.693 528.1C240.693 528.1 254.177 577.494 251.246 581.711C248.315 585.927 213.138 579.904 212.551 578.096C211.965 576.289 219.001 523.883 230.14 523.883Z"
            fill="#8C9EFF"
        />
    </g>
    <path
        d="M779.5 715C855.991 715 918 652.991 918 576.5C918 500.009 855.991 438 779.5 438C703.009 438 641 500.009 641 576.5C641 652.991 703.009 715 779.5 715Z"
        fill="#8C9EFF"
    />
    <path
        d="M842.474 529.269C842.474 529.269 824.459 515.149 803.143 513.526L801.249 517.367C820.509 522.074 829.328 528.836 838.579 537.114C822.673 528.999 806.93 521.37 779.554 521.37C752.179 521.37 736.435 528.999 720.53 537.114C729.781 528.836 740.277 521.316 757.86 517.367L755.966 513.526C733.622 515.636 716.634 529.269 716.634 529.269C716.634 529.269 696.508 558.484 693.046 615.832C713.334 639.258 744.172 639.42 744.172 639.42L750.61 630.818C739.681 627.031 727.292 620.214 716.634 607.933C729.348 617.563 748.608 627.626 779.608 627.626C810.609 627.626 829.815 617.617 842.583 607.933C831.925 620.214 819.535 627.031 808.607 630.818L815.045 639.42C815.045 639.42 845.883 639.258 866.171 615.832C862.6 558.484 842.474 529.269 842.474 529.269ZM753.91 600.088C746.282 600.088 740.114 593.055 740.114 584.345C740.114 575.634 746.282 568.601 753.91 568.601C761.539 568.601 767.706 575.634 767.706 584.345C767.706 593.055 761.539 600.088 753.91 600.088ZM805.09 600.088C797.462 600.088 791.294 593.055 791.294 584.345C791.294 575.634 797.462 568.601 805.09 568.601C812.719 568.601 818.886 575.634 818.886 584.345C818.886 593.055 812.664 600.088 805.09 600.088Z"
        fill="white"
    />
    <defs>
        <clipPath id="clip0">
            <rect width="743" height="518.629" fill="white" transform="translate(0 231)" />
        </clipPath>
    </defs>
</svg>
