<svg
    width="1000"
    height="750"
    viewBox="0 0 1000 750"
    fill="none"
    xmlns="http://www.w3.org/2000/svg"
>
    <rect width="1000" height="750" fill="#EEEEEE" />
    <path
        fill-rule="evenodd"
        clip-rule="evenodd"
        d="M498.048 468.027C594.698 468.027 673.048 389.677 673.048 293.027C673.048 196.377 594.698 118.027 498.048 118.027C401.398 118.027 323.048 196.377 323.048 293.027C323.048 389.677 401.398 468.027 498.048 468.027ZM498.048 418.027C567.084 418.027 623.048 362.063 623.048 293.027C623.048 223.991 567.084 168.027 498.048 168.027C429.012 168.027 373.048 223.991 373.048 293.027C373.048 362.063 429.012 418.027 498.048 418.027Z"
        fill="#048EC4"
    />
    <path
        d="M712.908 78.171C688.594 53.8476 632.379 75.3341 568.253 119.431C546.556 110.626 522.867 105.731 498.048 105.731C394.769 105.731 310.75 189.749 310.75 293.026C310.75 317.843 315.644 341.532 324.45 363.229C280.357 427.349 258.87 483.557 283.189 507.88C290.152 514.848 299.732 518.054 311.359 518.054C340.343 518.054 382.078 498.081 427.839 466.621C449.541 475.426 473.225 480.321 498.048 480.321C601.327 480.321 685.347 396.302 685.347 293.026C685.347 268.208 680.452 244.519 671.647 222.822C715.735 158.703 737.226 102.494 712.908 78.171ZM565.96 271.324C559.178 269.981 552.62 274.361 551.266 281.119L538.78 343.55C538.78 343.56 538.78 343.57 538.78 343.575C538.6 344.494 538.55 345.428 538.575 346.357C538.585 346.642 538.63 346.912 538.655 347.196C538.72 347.851 538.825 348.495 538.994 349.139C539.074 349.439 539.154 349.728 539.254 350.018C539.469 350.652 539.749 351.262 540.068 351.856C540.198 352.096 540.303 352.341 540.443 352.57C540.937 353.364 541.507 354.129 542.196 354.823C542.79 355.417 543.44 355.942 544.124 356.401C544.608 356.726 545.128 356.961 545.642 357.21C545.857 357.315 546.057 357.455 546.282 357.545C546.856 357.78 547.45 357.93 548.045 358.079C548.235 358.124 548.414 358.209 548.609 358.244C549.408 358.399 550.212 358.484 551.022 358.484C551.831 358.484 552.64 358.404 553.439 358.244C553.449 358.244 553.459 358.244 553.469 358.239L615.902 345.753C622.665 344.399 627.05 337.822 625.696 331.059C624.343 324.296 617.78 319.926 611.002 321.265L587.737 325.92C611.886 299.998 634.372 273.387 653.831 247.52C658.061 261.97 660.374 277.228 660.374 293.026C660.374 382.528 587.552 455.348 498.048 455.348C434.766 455.348 379.865 418.928 353.104 365.966C372.044 339.58 395.823 310.337 424.458 279.465L420.342 300.033C418.988 306.795 423.374 313.373 430.136 314.727C430.966 314.892 431.79 314.972 432.599 314.972C438.427 314.972 443.642 310.866 444.831 304.932L457.317 242.501C457.317 242.491 457.317 242.481 457.317 242.476C457.497 241.557 457.547 240.623 457.522 239.694C457.512 239.409 457.467 239.139 457.442 238.855C457.377 238.201 457.272 237.556 457.102 236.912C457.023 236.612 456.943 236.323 456.843 236.033C456.628 235.399 456.348 234.789 456.029 234.195C455.899 233.955 455.794 233.71 455.654 233.481C455.16 232.687 454.59 231.922 453.901 231.228C453.207 230.534 452.442 229.965 451.643 229.47C451.424 229.335 451.189 229.23 450.959 229.11C450.345 228.781 449.72 228.496 449.071 228.276C448.801 228.186 448.532 228.107 448.252 228.032C447.578 227.857 446.903 227.742 446.214 227.677C445.964 227.652 445.72 227.612 445.465 227.607C444.521 227.577 443.582 227.627 442.653 227.807C442.643 227.807 442.633 227.807 442.628 227.807L380.195 240.293C373.432 241.647 369.047 248.225 370.401 254.987C371.754 261.75 378.317 266.125 385.095 264.781L408.36 260.127C384.211 286.048 361.725 312.659 342.266 338.526C338.035 324.082 335.723 308.823 335.723 293.026C335.723 203.523 408.545 130.704 498.048 130.704C561.33 130.704 616.231 167.123 642.993 220.085C624.053 246.471 600.274 275.714 571.639 306.586L575.755 286.018C577.108 279.256 572.723 272.678 565.96 271.324ZM300.85 490.22C290.586 479.956 302.698 442.022 337.296 389.016C353.209 415.566 375.505 437.862 402.057 453.775C349.054 488.377 311.124 500.484 300.85 490.22ZM658.801 197.036C642.888 170.49 620.592 148.194 594.045 132.282C647.053 97.6846 684.978 85.5779 695.247 95.8316C705.516 106.095 693.403 144.024 658.801 197.036Z"
        fill="#071D26"
    />
    <path
        d="M169 565.727H213.25C227.95 565.727 235.3 571.927 235.3 584.327V643.427C235.3 655.827 227.95 662.027 213.25 662.027H169V565.727ZM209.05 641.477V586.277C209.05 584.077 207.8 582.977 205.3 582.977H195.25V644.777H205.3C207.8 644.777 209.05 643.677 209.05 641.477ZM267.445 587.177H285.745C300.445 587.177 307.795 593.377 307.795 605.777V631.277H269.545V641.177C269.545 643.377 270.795 644.477 273.295 644.477H279.895C282.395 644.477 283.645 643.277 283.645 640.877V636.677H307.795V643.427C307.795 655.827 300.445 662.027 285.745 662.027H267.445C252.745 662.027 245.395 655.827 245.395 643.427V605.777C245.395 593.377 252.745 587.177 267.445 587.177ZM269.545 617.477H283.645V608.027C283.645 605.827 282.395 604.727 279.895 604.727H273.295C270.795 604.727 269.545 605.827 269.545 608.027V617.477ZM354.4 639.977V626.327C354.4 624.127 353.15 623.027 350.65 623.027H336.25C328.85 623.027 323.6 621.427 320.5 618.227C317.5 614.927 316 610.227 316 604.127V584.327C316 571.927 323.3 565.727 337.9 565.727H358.45C373.05 565.727 380.35 571.927 380.35 584.327V595.877H354.1V587.777C354.1 585.577 352.85 584.477 350.35 584.477H346C343.5 584.477 342.25 585.577 342.25 587.777V602.027C342.25 604.227 343.5 605.327 346 605.327H360.1C367.5 605.327 372.75 606.877 375.85 609.977C379.05 613.077 380.65 617.627 380.65 623.627V643.427C380.65 655.827 373.35 662.027 358.75 662.027H338.35C323.65 662.027 316.3 655.827 316.3 643.427V631.877H342.55V639.977C342.55 642.177 343.8 643.277 346.3 643.277H350.65C353.15 643.277 354.4 642.177 354.4 639.977ZM429.132 605.927H419.682V639.977C419.682 642.177 420.932 643.277 423.432 643.277H428.982V662.027H416.232C401.532 662.027 394.182 655.827 394.182 643.427V605.927H385.932V587.177H394.182V572.477H419.682V587.177H429.132V605.927ZM471.392 587.177H496.442V662.027H470.942V653.927C469.042 659.327 464.642 662.027 457.742 662.027H455.042C441.742 662.027 435.092 655.827 435.092 643.427V605.777C435.092 593.377 441.742 587.177 455.042 587.177H457.742C465.442 587.177 469.992 590.377 471.392 596.777V587.177ZM464.342 643.277H466.892C469.592 643.277 470.942 641.777 470.942 638.777V610.427C470.942 607.427 469.592 605.927 466.892 605.927H464.342C461.842 605.927 460.592 607.027 460.592 609.227V639.977C460.592 642.177 461.842 643.277 464.342 643.277ZM543.169 587.177H568.219V662.777C568.219 675.177 560.869 681.377 546.169 681.377H510.319V663.377H538.969C541.469 663.377 542.719 662.277 542.719 660.077V649.427C540.819 654.827 536.419 657.527 529.519 657.527H526.819C513.519 657.527 506.869 651.327 506.869 638.927V605.777C506.869 593.377 513.519 587.177 526.819 587.177H529.519C537.219 587.177 541.769 590.377 543.169 596.777V587.177ZM536.119 638.777H538.669C541.369 638.777 542.719 637.277 542.719 634.277V610.427C542.719 607.427 541.369 605.927 538.669 605.927H536.119C533.619 605.927 532.369 607.027 532.369 609.227V635.477C532.369 637.677 533.619 638.777 536.119 638.777ZM618.847 587.177H621.547C634.847 587.177 641.497 593.377 641.497 605.777V662.027H615.997V609.227C615.997 607.027 614.747 605.927 612.247 605.927H609.697C606.997 605.927 605.647 607.427 605.647 610.427V662.027H580.147V587.177H605.197V596.777C606.597 590.377 611.147 587.177 618.847 587.177ZM687.603 587.177H712.653V662.027H687.153V653.927C685.253 659.327 680.853 662.027 673.953 662.027H671.253C657.953 662.027 651.303 655.827 651.303 643.427V605.777C651.303 593.377 657.953 587.177 671.253 587.177H673.953C681.653 587.177 686.203 590.377 687.603 596.777V587.177ZM680.553 643.277H683.103C685.803 643.277 687.153 641.777 687.153 638.777V610.427C687.153 607.427 685.803 605.927 683.103 605.927H680.553C678.053 605.927 676.803 607.027 676.803 609.227V639.977C676.803 642.177 678.053 643.277 680.553 643.277ZM762.53 605.927H753.08V639.977C753.08 642.177 754.33 643.277 756.83 643.277H762.38V662.027H749.63C734.93 662.027 727.58 655.827 727.58 643.427V605.927H719.33V587.177H727.58V572.477H753.08V587.177H762.53V605.927ZM790.54 587.177H808.84C823.54 587.177 830.89 593.377 830.89 605.777V631.277H792.64V641.177C792.64 643.377 793.89 644.477 796.39 644.477H802.99C805.49 644.477 806.74 643.277 806.74 640.877V636.677H830.89V643.427C830.89 655.827 823.54 662.027 808.84 662.027H790.54C775.84 662.027 768.49 655.827 768.49 643.427V605.777C768.49 593.377 775.84 587.177 790.54 587.177ZM792.64 617.477H806.74V608.027C806.74 605.827 805.49 604.727 802.99 604.727H796.39C793.89 604.727 792.64 605.827 792.64 608.027V617.477Z"
        fill="#071D26"
    />
</svg>
