<svg width="1000" height="750" viewBox="0 0 1000 750" fill="none" xmlns="http://www.w3.org/2000/svg">
<rect width="1000" height="750" fill="url(#paint0_linear_527_2)"/>
<g filter="url(#filter0_d_527_2)">
<path d="M500 613.358C578.425 613.358 642 567.284 642 510.449C642 453.614 578.425 407.541 500 407.541C421.575 407.541 358 453.614 358 510.449C358 567.284 421.575 613.358 500 613.358V613.358Z" fill="#BAE4F8"/>
<path d="M500 373.438C578.425 373.438 642 342.304 642 303.899C642 265.493 578.425 234.36 500 234.36C421.575 234.36 358 265.493 358 303.899C358 342.304 421.575 373.438 500 373.438V373.438Z" fill="#BAE4F8"/>
<path d="M641.929 304.475H358.104V510.45H641.929V304.475Z" fill="#BAE4F8"/>
<path d="M499.999 608.213C574.704 608.213 635.262 564.443 635.262 510.45C635.262 456.456 574.704 412.686 499.999 412.686C425.295 412.686 364.736 456.456 364.736 510.45C364.736 564.443 425.295 608.213 499.999 608.213Z" fill="#E7F6FF"/>
<path d="M500.005 376.096C574.515 376.096 634.918 346.513 634.918 310.022C634.918 273.531 574.515 243.948 500.005 243.948C425.495 243.948 365.092 273.531 365.092 310.022C365.092 346.513 425.495 376.096 500.005 376.096V376.096Z" fill="#E7F6FF"/>
<path d="M635.054 309.621H364.966V505.306H635.054V309.621Z" fill="#E7F6FF"/>
<path d="M380.065 474.263C380.065 510.992 380.888 405.039 380.503 418.88C379.698 448.925 379.82 477.08 380.94 482.75C397.756 529.365 441.555 548.194 493.018 539.252C505.389 536.172 513.106 532.2 520.245 527.178C505.687 535.105 479.404 529.663 468.118 522.733C458.353 516.749 448.502 506.827 448.099 485.602C447.784 469.801 450.742 452.652 443.06 437.866C435.098 422.537 403.618 405.896 380.048 402.309" fill="#BA00FF"/>
<path d="M619.791 313.646C619.494 398.303 620.089 451.761 619.196 488.735C619.056 494.352 619.721 501.229 615.347 516.82C604.55 555.194 566.859 575.528 551.74 581.635C506.506 599.938 466.89 588.844 450.914 583.069C442.199 579.92 402.478 562.334 386.607 522.437C378.505 502.104 379.94 481.001 379.957 470.047C379.975 462.173 387.919 497.905 422.234 519.183C428.761 523.225 452.996 537.801 492.315 533.951C536.184 529.647 543.813 505.061 545.283 499.637C548.87 486.496 549.15 463.608 548.8 398.793C548.555 351.478 549.727 355.31 557.672 344.373C562.396 337.864 580.735 324.827 604.393 317.723" fill="#8600FF"/>
<path d="M499.996 300.451C574.372 300.451 634.665 270.868 634.665 234.377C634.665 197.885 574.372 168.302 499.996 168.302C425.621 168.302 365.328 197.885 365.328 234.377C365.328 270.868 425.621 300.451 499.996 300.451Z" fill="url(#paint1_linear_527_2)"/>
<path d="M631.672 238.366C633.002 274.745 572.615 303.53 499.926 303.53C427.237 303.53 367.568 275.638 368.303 239.118" stroke="#E1E1E1" stroke-width="3.5" stroke-miterlimit="10"/>
<path d="M500.005 272.523C574.515 272.523 634.918 241.962 634.918 204.261C634.918 166.561 574.515 136 500.005 136C425.495 136 365.092 166.561 365.092 204.261C365.092 241.962 425.495 272.523 500.005 272.523V272.523Z" fill="#E1E1E1"/>
<path d="M500 267.03C570.664 267.03 627.948 238.928 627.948 204.263C627.948 169.599 570.664 141.496 500 141.496C429.336 141.496 372.051 169.599 372.051 204.263C372.051 238.928 429.336 267.03 500 267.03V267.03Z" fill="url(#paint2_linear_527_2)"/>
<path d="M631.609 242.041L631.942 204.437" stroke="#E1E1E1" stroke-width="3.5" stroke-miterlimit="10"/>
<path d="M368.427 240.15L368.305 205.433" stroke="#E1E1E1" stroke-width="3.5" stroke-miterlimit="10"/>
<path opacity="0.2" d="M473.252 305.49C470.942 305.227 466.9 304.703 464.677 304.388C456.698 303.285 451.221 302.323 443.242 301.098C440.425 300.415 438.64 300.03 437.625 299.733C432.445 298.228 431.85 298.088 429.226 297.388L367.456 531.203C367.456 531.203 368.961 535.297 370.133 538.587C373.388 545.726 374.385 548.211 377.973 553.408C381.962 559.2 387.002 564.8 392.321 569.612C397.641 574.424 399.863 575.911 405.34 579.778C406.688 580.723 410.817 583.103 412.147 584.031C413.005 584.136 413.809 585.325 414.457 585.675L485.623 306.225C480.724 305.98 477.399 305.892 473.252 305.49Z" fill="white"/>
<path opacity="0.2" d="M463.217 604.784C465.579 605.344 466.524 605.204 468.694 605.606C468.956 605.606 470.513 606.026 470.758 606.026C472.666 606.026 473.191 606.359 474.993 606.621L549.554 302.026C547.069 302.585 545.879 302.848 543.22 303.128C540.945 303.373 539.825 303.688 536.273 304.23C535.695 304.318 532.265 304.843 531.688 304.913C527.103 305.193 525.039 305.333 520.909 305.7L447.065 600.969C449.673 601.739 452.42 602.422 455.535 603.104C459.069 603.962 460.399 604.242 463.217 604.784V604.784Z" fill="white"/>
</g>
<defs>
<filter id="filter0_d_527_2" x="298" y="136" width="344" height="537.358" filterUnits="userSpaceOnUse" color-interpolation-filters="sRGB">
<feFlood flood-opacity="0" result="BackgroundImageFix"/>
<feColorMatrix in="SourceAlpha" type="matrix" values="0 0 0 0 0 0 0 0 0 0 0 0 0 0 0 0 0 0 127 0" result="hardAlpha"/>
<feOffset dx="-30" dy="30"/>
<feGaussianBlur stdDeviation="15"/>
<feComposite in2="hardAlpha" operator="out"/>
<feColorMatrix type="matrix" values="0 0 0 0 0 0 0 0 0 0 0 0 0 0 0 0 0 0 0.09 0"/>
<feBlend mode="normal" in2="BackgroundImageFix" result="effect1_dropShadow_527_2"/>
<feBlend mode="normal" in="SourceGraphic" in2="effect1_dropShadow_527_2" result="shape"/>
</filter>
<linearGradient id="paint0_linear_527_2" x1="-6.40005e-06" y1="750" x2="615.717" y2="-73.833" gradientUnits="userSpaceOnUse">
<stop stop-color="#5E00B4"/>
<stop offset="1" stop-color="#CF4EFF"/>
</linearGradient>
<linearGradient id="paint1_linear_527_2" x1="365.327" y1="234.382" x2="634.682" y2="234.382" gradientUnits="userSpaceOnUse">
<stop stop-color="#EFEFEF"/>
<stop offset="1" stop-color="#CFCFCF"/>
</linearGradient>
<linearGradient id="paint2_linear_527_2" x1="392.178" y1="153.98" x2="607.843" y2="254.543" gradientUnits="userSpaceOnUse">
<stop stop-color="#F3F3F3"/>
<stop offset="1" stop-color="#D3D4D6"/>
</linearGradient>
</defs>
</svg>
