<svg
    width="1000"
    height="750"
    viewBox="0 0 1000 750"
    fill="none"
    xmlns="http://www.w3.org/2000/svg"
>
    <rect width="1000" height="750" fill="#373737" />
    <g clip-path="url(#clip0)">
        <path
            d="M539.941 169.126C545.405 164.056 554.252 164.07 559.699 169.156C565.146 174.242 565.132 182.475 559.667 187.545L535.4 210.057C513.012 230.827 476.505 231.128 453.739 210.757C453.608 210.639 443.471 201.405 410.029 170.939C387.782 150.673 385.565 118.243 406.501 97.4169L445.535 58.586C466.313 37.9147 504.615 35.6555 528.372 53.5048L563.824 80.1425C569.828 84.6535 570.766 92.8402 565.919 98.4278C561.072 104.015 552.276 104.888 546.272 100.377L510.82 73.7397C498.395 64.4049 476.661 65.6869 465.941 76.3526L426.906 115.184C416.714 125.322 417.83 141.655 429.576 152.355C454.132 174.726 473.057 191.967 473.079 191.986C484.915 202.577 504.053 202.419 515.674 191.639L539.941 169.126Z"
            fill="#FFA116"
        />
        <path
            fill-rule="evenodd"
            clip-rule="evenodd"
            d="M480.99 146.597C473.274 146.597 467.019 140.776 467.019 133.595C467.019 126.413 473.274 120.592 480.99 120.592H584.029C591.745 120.592 598 126.413 598 133.595C598 140.776 591.745 146.597 584.029 146.597H480.99Z"
            fill="#B3B3B3"
        />
        <path
            fill-rule="evenodd"
            clip-rule="evenodd"
            d="M500.287 4.11961C505.558 -1.12454 514.399 -1.39854 520.034 3.50763C525.669 8.41379 525.963 16.6423 520.692 21.8864L426.906 115.184C416.714 125.322 417.83 141.655 429.575 152.355L472.886 191.813C478.4 196.837 478.495 205.069 473.097 210.201C467.7 215.333 458.854 215.421 453.34 210.397L410.028 170.939C387.782 150.671 385.565 118.241 406.502 97.4168L500.287 4.11961Z"
            fill="white"
        />
    </g>
    <path
        d="M205.605 258H225.045V326.16H267.165V342H205.605V258ZM339.478 309.96C339.478 310.2 339.358 311.88 339.118 315H290.278C291.158 319 293.238 322.16 296.518 324.48C299.798 326.8 303.878 327.96 308.758 327.96C312.118 327.96 315.078 327.48 317.638 326.52C320.278 325.48 322.718 323.88 324.958 321.72L334.918 332.52C328.838 339.48 319.958 342.96 308.278 342.96C300.998 342.96 294.558 341.56 288.958 338.76C283.358 335.88 279.038 331.92 275.998 326.88C272.958 321.84 271.438 316.12 271.438 309.72C271.438 303.4 272.918 297.72 275.878 292.68C278.918 287.56 283.038 283.6 288.238 280.8C293.518 277.92 299.398 276.48 305.878 276.48C312.198 276.48 317.918 277.84 323.038 280.56C328.158 283.28 332.158 287.2 335.038 292.32C337.998 297.36 339.478 303.24 339.478 309.96ZM305.998 290.64C301.758 290.64 298.198 291.84 295.318 294.24C292.438 296.64 290.678 299.92 290.038 304.08H321.838C321.198 300 319.438 296.76 316.558 294.36C313.678 291.88 310.158 290.64 305.998 290.64ZM415.181 309.96C415.181 310.2 415.061 311.88 414.821 315H365.981C366.861 319 368.941 322.16 372.221 324.48C375.501 326.8 379.581 327.96 384.461 327.96C387.821 327.96 390.781 327.48 393.341 326.52C395.981 325.48 398.421 323.88 400.661 321.72L410.621 332.52C404.541 339.48 395.661 342.96 383.981 342.96C376.701 342.96 370.261 341.56 364.661 338.76C359.061 335.88 354.741 331.92 351.701 326.88C348.661 321.84 347.141 316.12 347.141 309.72C347.141 303.4 348.621 297.72 351.581 292.68C354.621 287.56 358.741 283.6 363.941 280.8C369.221 277.92 375.101 276.48 381.581 276.48C387.901 276.48 393.621 277.84 398.741 280.56C403.861 283.28 407.861 287.2 410.741 292.32C413.701 297.36 415.181 303.24 415.181 309.96ZM381.701 290.64C377.461 290.64 373.901 291.84 371.021 294.24C368.141 296.64 366.381 299.92 365.741 304.08H397.541C396.901 300 395.141 296.76 392.261 294.36C389.381 291.88 385.861 290.64 381.701 290.64ZM469.284 338.88C467.444 340.24 465.164 341.28 462.444 342C459.804 342.64 457.004 342.96 454.044 342.96C446.364 342.96 440.404 341 436.164 337.08C432.004 333.16 429.924 327.4 429.924 319.8V293.28H419.964V278.88H429.924V263.16H448.644V278.88H464.724V293.28H448.644V319.56C448.644 322.28 449.324 324.4 450.684 325.92C452.124 327.36 454.124 328.08 456.684 328.08C459.644 328.08 462.164 327.28 464.244 325.68L469.284 338.88ZM521.312 343.44C512.752 343.44 504.992 341.6 498.032 337.92C491.152 334.16 485.712 329 481.712 322.44C477.792 315.8 475.832 308.32 475.832 300C475.832 291.68 477.792 284.24 481.712 277.68C485.712 271.04 491.152 265.88 498.032 262.2C504.992 258.44 512.792 256.56 521.432 256.56C528.712 256.56 535.272 257.84 541.112 260.4C547.032 262.96 551.992 266.64 555.992 271.44L543.512 282.96C537.832 276.4 530.792 273.12 522.392 273.12C517.192 273.12 512.552 274.28 508.472 276.6C504.392 278.84 501.192 282 498.872 286.08C496.632 290.16 495.512 294.8 495.512 300C495.512 305.2 496.632 309.84 498.872 313.92C501.192 318 504.392 321.2 508.472 323.52C512.552 325.76 517.192 326.88 522.392 326.88C530.792 326.88 537.832 323.56 543.512 316.92L555.992 328.44C551.992 333.32 547.032 337.04 541.112 339.6C535.192 342.16 528.592 343.44 521.312 343.44ZM596.294 342.96C589.494 342.96 583.374 341.56 577.934 338.76C572.574 335.88 568.374 331.92 565.334 326.88C562.294 321.84 560.774 316.12 560.774 309.72C560.774 303.32 562.294 297.6 565.334 292.56C568.374 287.52 572.574 283.6 577.934 280.8C583.374 277.92 589.494 276.48 596.294 276.48C603.094 276.48 609.174 277.92 614.534 280.8C619.894 283.6 624.094 287.52 627.134 292.56C630.174 297.6 631.694 303.32 631.694 309.72C631.694 316.12 630.174 321.84 627.134 326.88C624.094 331.92 619.894 335.88 614.534 338.76C609.174 341.56 603.094 342.96 596.294 342.96ZM596.294 327.6C601.094 327.6 605.014 326 608.054 322.8C611.174 319.52 612.734 315.16 612.734 309.72C612.734 304.28 611.174 299.96 608.054 296.76C605.014 293.48 601.094 291.84 596.294 291.84C591.494 291.84 587.534 293.48 584.414 296.76C581.294 299.96 579.734 304.28 579.734 309.72C579.734 315.16 581.294 319.52 584.414 322.8C587.534 326 591.494 327.6 596.294 327.6ZM709.966 252.96V342H692.086V334.56C687.446 340.16 680.726 342.96 671.926 342.96C665.846 342.96 660.326 341.6 655.366 338.88C650.486 336.16 646.646 332.28 643.846 327.24C641.046 322.2 639.646 316.36 639.646 309.72C639.646 303.08 641.046 297.24 643.846 292.2C646.646 287.16 650.486 283.28 655.366 280.56C660.326 277.84 665.846 276.48 671.926 276.48C680.166 276.48 686.606 279.08 691.246 284.28V252.96H709.966ZM675.166 327.6C679.886 327.6 683.806 326 686.926 322.8C690.046 319.52 691.606 315.16 691.606 309.72C691.606 304.28 690.046 299.96 686.926 296.76C683.806 293.48 679.886 291.84 675.166 291.84C670.366 291.84 666.406 293.48 663.286 296.76C660.166 299.96 658.606 304.28 658.606 309.72C658.606 315.16 660.166 319.52 663.286 322.8C666.406 326 670.366 327.6 675.166 327.6ZM790.532 309.96C790.532 310.2 790.412 311.88 790.172 315H741.332C742.212 319 744.292 322.16 747.572 324.48C750.852 326.8 754.932 327.96 759.812 327.96C763.172 327.96 766.132 327.48 768.692 326.52C771.332 325.48 773.772 323.88 776.012 321.72L785.972 332.52C779.892 339.48 771.012 342.96 759.332 342.96C752.052 342.96 745.612 341.56 740.012 338.76C734.412 335.88 730.092 331.92 727.052 326.88C724.012 321.84 722.492 316.12 722.492 309.72C722.492 303.4 723.972 297.72 726.932 292.68C729.972 287.56 734.092 283.6 739.292 280.8C744.572 277.92 750.452 276.48 756.932 276.48C763.252 276.48 768.972 277.84 774.092 280.56C779.212 283.28 783.212 287.2 786.092 292.32C789.052 297.36 790.532 303.24 790.532 309.96ZM757.052 290.64C752.812 290.64 749.252 291.84 746.372 294.24C743.492 296.64 741.732 299.92 741.092 304.08H772.892C772.252 300 770.492 296.76 767.612 294.36C764.732 291.88 761.212 290.64 757.052 290.64Z"
        fill="#F4F4F4"
    />
    <g clip-path="url(#clip1)">
        <path
            opacity="0.1"
            d="M651.103 732C708.071 732 754.253 721.963 754.253 709.583C754.253 697.202 708.071 687.165 651.103 687.165C594.134 687.165 547.953 697.202 547.953 709.583C547.953 721.963 594.134 732 651.103 732Z"
            fill="#FFA116"
        />
        <g opacity="0.1">
            <path
                opacity="0.1"
                d="M533.786 376.967C533.786 458.347 586.398 524.196 651.441 524.196L533.786 376.967Z"
                fill="#FFA116"
            />
        </g>
        <path
            opacity="0.1"
            d="M535.076 430.789C497.066 431.071 460.544 422.734 425.624 413.444C390.703 404.154 356.067 393.707 318.826 389.442C294.854 386.695 267.573 387.127 248.732 397.783C230.6 408.033 225.233 424.835 222.585 440.34C220.591 452.007 219.619 464.248 226.635 474.863C231.481 482.229 239.852 488.277 245.761 495.294C266.316 519.708 253.567 551.129 233.184 576.366C223.627 588.206 212.447 599.566 205.194 612.067C197.941 624.569 194.89 638.707 202.084 650.959C209.218 663.095 225.475 671.812 242.962 677.781C278.49 689.824 319.9 692.222 360.22 692.983C449.477 694.678 538.965 689.527 628.211 684.381C661.236 682.473 694.41 680.555 726.784 675.44C744.76 672.599 763.273 668.434 776.07 659.482C792.322 648.117 795.776 629.709 784.129 616.561C764.59 594.514 712.676 590.661 698.708 566.758C691.02 553.6 697.865 538.413 707.841 525.614C729.298 498.171 766.051 473.481 766.937 442.92C767.528 421.937 748.671 401.589 720.37 392.648C690.687 383.264 650.104 385.98 629.119 403.914C607.506 422.38 568.642 430.544 535.076 430.789Z"
            fill="#FFA116"
        />
        <path
            d="M706.712 379.26V649.525C706.712 657.564 698.718 664.122 688.854 664.122H310.949C301.085 664.122 293.097 657.585 293.097 649.525V379.26C293.097 371.206 301.085 363 310.949 363L688.806 363.891C698.654 363.891 706.712 371.206 706.712 379.26Z"
            fill="white"
        />
        <path
            d="M706.712 379.344V391.856H293.097V379.344C293.097 375.01 294.87 370.854 298.028 367.789C301.185 364.724 305.468 363.001 309.934 363H689.843C692.057 362.997 694.249 363.418 696.296 364.238C698.342 365.058 700.201 366.261 701.768 367.779C703.335 369.297 704.578 371.1 705.426 373.084C706.275 375.068 706.712 377.196 706.712 379.344Z"
            fill="#3F3D56"
        />
        <path
            opacity="0.8"
            d="M313.13 383.202C316.418 383.202 319.083 380.616 319.083 377.425C319.083 374.235 316.418 371.649 313.13 371.649C309.843 371.649 307.178 374.235 307.178 377.425C307.178 380.616 309.843 383.202 313.13 383.202Z"
            fill="#FA5959"
        />
        <path
            opacity="0.8"
            d="M330.446 383.202C333.733 383.202 336.398 380.616 336.398 377.425C336.398 374.235 333.733 371.649 330.446 371.649C327.158 371.649 324.493 374.235 324.493 377.425C324.493 380.616 327.158 383.202 330.446 383.202Z"
            fill="#FED253"
        />
        <path
            opacity="0.8"
            d="M347.761 383.202C351.048 383.202 353.713 380.616 353.713 377.425C353.713 374.235 351.048 371.649 347.761 371.649C344.473 371.649 341.808 374.235 341.808 377.425C341.808 380.616 344.473 383.202 347.761 383.202Z"
            fill="#8CCF4D"
        />
        <path
            opacity="0.2"
            d="M476.527 451.992H448.123C445.58 451.992 443.519 453.992 443.519 456.46V464.843C443.519 467.31 445.58 469.31 448.123 469.31H476.527C479.069 469.31 481.131 467.31 481.131 464.843V456.46C481.131 453.992 479.069 451.992 476.527 451.992Z"
            fill="#FFA116"
        />
        <path
            opacity="0.2"
            d="M552.729 451.992H524.325C521.782 451.992 519.721 453.992 519.721 456.46V464.843C519.721 467.31 521.782 469.31 524.325 469.31H552.729C555.272 469.31 557.333 467.31 557.333 464.843V456.46C557.333 453.992 555.272 451.992 552.729 451.992Z"
            fill="#FFA116"
        />
        <path
            d="M462.22 468.919L499.87 516.627L538.653 468.695"
            stroke="#3F3D56"
            stroke-miterlimit="10"
        />
        <path
            opacity="0.1"
            d="M524.013 515.099H475.721C473.178 515.099 471.117 517.099 471.117 519.567V537.11C471.117 539.577 473.178 541.578 475.721 541.578H524.013C526.556 541.578 528.617 539.577 528.617 537.11V519.567C528.617 517.099 526.556 515.099 524.013 515.099Z"
            fill="black"
        />
        <path
            d="M522.848 515.641H476.892C474.349 515.641 472.288 517.642 472.288 520.109V536.578C472.288 539.046 474.349 541.046 476.892 541.046H522.848C525.39 541.046 527.452 539.046 527.452 536.578V520.109C527.452 517.642 525.39 515.641 522.848 515.641Z"
            fill="#FFA116"
        />
        <path d="M462.477 451.992L461.989 435.127" stroke="#3F3D56" stroke-miterlimit="10" />
        <path
            d="M560.755 435.95L538.653 451.992L515.407 435.95"
            stroke="#3F3D56"
            stroke-miterlimit="10"
        />
        <path
            opacity="0.2"
            d="M476.317 418.626H447.913C445.37 418.626 443.309 420.627 443.309 423.094V431.477C443.309 433.945 445.37 435.945 447.913 435.945H476.317C478.86 435.945 480.921 433.945 480.921 431.477V423.094C480.921 420.627 478.86 418.626 476.317 418.626Z"
            fill="#FFA116"
        />
        <path
            opacity="0.2"
            d="M574.954 418.626H546.55C544.008 418.626 541.946 420.627 541.946 423.094V431.477C541.946 433.945 544.008 435.945 546.55 435.945H574.954C577.497 435.945 579.558 433.945 579.558 431.477V423.094C579.558 420.627 577.497 418.626 574.954 418.626Z"
            fill="#FFA116"
        />
        <path
            opacity="0.2"
            d="M529.611 418.626H501.207C498.664 418.626 496.603 420.627 496.603 423.094V431.477C496.603 433.945 498.664 435.945 501.207 435.945H529.611C532.154 435.945 534.215 433.945 534.215 431.477V423.094C534.215 420.627 532.154 418.626 529.611 418.626Z"
            fill="#FFA116"
        />
        <path d="M499.87 541.041L499.725 587.179" stroke="#3F3D56" stroke-miterlimit="10" />
        <path
            d="M446.431 620.075L499.617 604.106L553.019 619.96"
            stroke="#3F3D56"
            stroke-miterlimit="10"
        />
        <path
            opacity="0.2"
            d="M513.929 587.179H485.526C482.983 587.179 480.921 589.179 480.921 591.647V600.03C480.921 602.497 482.983 604.497 485.526 604.497H513.929C516.472 604.497 518.534 602.497 518.534 600.03V591.647C518.534 589.179 516.472 587.179 513.929 587.179Z"
            fill="#FFA116"
        />
        <path
            opacity="0.2"
            d="M662.922 515.266V487.703C662.922 485.236 660.861 483.235 658.318 483.235H649.679C647.136 483.235 645.075 485.236 645.075 487.703V515.266C645.075 517.733 647.136 519.734 649.679 519.734H658.318C660.861 519.734 662.922 517.733 662.922 515.266Z"
            fill="#FFA116"
        />
        <path
            opacity="0.2"
            d="M645.075 544.857V572.42C645.075 574.887 647.136 576.888 649.679 576.888H658.318C660.86 576.888 662.922 574.887 662.922 572.42V544.857C662.922 542.389 660.86 540.389 658.318 540.389H649.679C647.136 540.389 645.075 542.389 645.075 544.857Z"
            fill="#FFA116"
        />
        <path
            opacity="0.2"
            d="M567.223 619.84H538.819C536.277 619.84 534.215 621.841 534.215 624.308V632.691C534.215 635.159 536.277 637.159 538.819 637.159H567.223C569.766 637.159 571.828 635.159 571.828 632.691V624.308C571.828 621.841 569.766 619.84 567.223 619.84Z"
            fill="#FFA116"
        />
        <path
            opacity="0.2"
            d="M432.231 637.164H460.635C463.178 637.164 465.239 635.164 465.239 632.696V624.313C465.239 621.846 463.178 619.845 460.635 619.845H432.231C429.688 619.845 427.627 621.846 427.627 624.313V632.696C427.627 635.164 429.688 637.164 432.231 637.164Z"
            fill="#FFA116"
        />
        <path
            opacity="0.2"
            d="M486.46 637.164H514.864C517.407 637.164 519.468 635.164 519.468 632.696V624.313C519.468 621.846 517.407 619.845 514.864 619.845H486.46C483.917 619.845 481.856 621.846 481.856 624.313V632.696C481.856 635.164 483.917 637.164 486.46 637.164Z"
            fill="#FFA116"
        />
        <path d="M628.329 530.061L645.069 558.469" stroke="#3F3D56" stroke-miterlimit="10" />
        <path d="M592.931 529.712H610.504" stroke="#3F3D56" stroke-miterlimit="10" />
        <path d="M527.452 528.341L575.416 529.712" stroke="#3F3D56" stroke-miterlimit="10" />
        <path d="M645.069 501.482L628.41 529.936" stroke="#3F3D56" stroke-miterlimit="10" />
        <path
            opacity="0.2"
            d="M593.263 543.387V515.824C593.263 513.356 591.202 511.356 588.659 511.356H580.02C577.477 511.356 575.416 513.356 575.416 515.824V543.387C575.416 545.854 577.477 547.855 580.02 547.855H588.659C591.202 547.855 593.263 545.854 593.263 543.387Z"
            fill="#FFA116"
        />
        <path
            opacity="0.2"
            d="M628.329 543.84V516.277C628.329 513.81 626.268 511.809 623.725 511.809H615.086C612.543 511.809 610.482 513.81 610.482 516.277V543.84C610.482 546.308 612.543 548.308 615.086 548.308H623.725C626.268 548.308 628.329 546.308 628.329 543.84Z"
            fill="#FFA116"
        />
        <path
            opacity="0.2"
            d="M354.665 515.261V487.698C354.665 485.23 352.603 483.23 350.06 483.23H341.422C338.879 483.23 336.817 485.23 336.817 487.698V515.261C336.817 517.728 338.879 519.729 341.422 519.729H350.06C352.603 519.729 354.665 517.728 354.665 515.261Z"
            fill="#FFA116"
        />
        <path
            opacity="0.2"
            d="M336.817 544.857V572.42C336.817 574.887 338.879 576.888 341.422 576.888H350.06C352.603 576.888 354.664 574.887 354.664 572.42V544.857C354.664 542.389 352.603 540.389 350.06 540.389H341.422C338.879 540.389 336.817 542.389 336.817 544.857Z"
            fill="#FFA116"
        />
        <path d="M371.41 530.061L354.665 558.469" stroke="#3F3D56" stroke-miterlimit="10" />
        <path d="M406.804 529.712H389.236" stroke="#3F3D56" stroke-miterlimit="10" />
        <path d="M472.288 528.341L424.323 529.712" stroke="#3F3D56" stroke-miterlimit="10" />
        <path d="M354.665 501.482L371.324 529.936" stroke="#3F3D56" stroke-miterlimit="10" />
        <path
            opacity="0.2"
            d="M424.323 543.392V515.829C424.323 513.362 422.262 511.361 419.719 511.361H411.08C408.537 511.361 406.476 513.362 406.476 515.829V543.392C406.476 545.859 408.537 547.86 411.08 547.86H419.719C422.262 547.86 424.323 545.859 424.323 543.392Z"
            fill="#FFA116"
        />
        <path
            opacity="0.2"
            d="M389.257 543.84V516.277C389.257 513.81 387.196 511.81 384.653 511.81H376.014C373.472 511.81 371.41 513.81 371.41 516.277V543.84C371.41 546.308 373.472 548.308 376.014 548.308H384.653C387.196 548.308 389.257 546.308 389.257 543.84Z"
            fill="#FFA116"
        />
        <path
            d="M256.033 624.657C256.033 650.849 272.967 672.047 293.892 672.047L256.033 624.657Z"
            fill="#46455B"
        />
        <path
            d="M293.892 672.041C293.892 645.552 312.792 624.12 336.146 624.12L293.892 672.041Z"
            fill="#FFA116"
        />
        <path
            d="M269.754 627.03C269.754 651.908 280.552 672.042 293.892 672.042L269.754 627.03Z"
            fill="#FFA116"
        />
        <path
            d="M293.892 672.041C293.892 638.196 315.736 610.811 342.727 610.811L293.892 672.041Z"
            fill="#46455B"
        />
        <path
            opacity="0.1"
            d="M292.248 681.092C297.446 681.092 301.66 680.401 301.66 679.549C301.66 678.696 297.446 678.005 292.248 678.005C287.05 678.005 282.835 678.696 282.835 679.549C282.835 680.401 287.05 681.092 292.248 681.092Z"
            fill="#FFA116"
        />
        <path
            d="M285.93 672.375C285.93 672.375 291.303 672.214 292.914 671.098C294.526 669.982 301.172 668.642 301.575 670.436C301.978 672.229 309.633 679.356 303.579 679.403C297.524 679.45 289.492 678.485 287.88 677.531C286.269 676.577 285.93 672.375 285.93 672.375Z"
            fill="#A8A8A8"
        />
        <path
            opacity="0.2"
            d="M303.691 678.777C297.631 678.824 289.61 677.865 287.993 676.905C286.763 676.181 286.274 673.574 286.107 672.37H285.93C285.93 672.37 286.269 676.572 287.886 677.526C289.503 678.48 297.524 679.444 303.584 679.397C305.335 679.397 305.937 678.777 305.905 677.886C305.663 678.433 304.997 678.767 303.691 678.777Z"
            fill="black"
        />
        <path
            d="M711.719 701.236L696.854 680.32C696.854 680.32 696.574 675.143 695.602 673.929C694.63 672.714 695.393 670.029 695.393 670.029C695.393 670.029 696.435 668.548 695.532 668.418C694.63 668.288 695.393 664.988 695.393 664.988L695.323 659.738C695.323 659.738 696.155 654.697 695.462 653.482C695.26 653.154 695.159 652.777 695.171 652.395C695.184 652.014 695.309 651.643 695.532 651.329C695.532 651.329 696.365 648.435 695.532 647.679C694.7 646.924 694.904 642.435 695.113 638.874C695.323 635.313 693.657 633.291 693.657 632.754C693.657 632.217 688.167 626.967 688.167 626.498C688.167 626.029 684.696 624.079 682.612 623.536C680.527 622.994 679.485 622.598 679.555 622.327C679.625 622.056 676.288 620.982 676.288 620.982C676.288 620.982 673.371 620.784 672.259 619.371C671.147 617.958 667.746 617.546 667.655 617.536C667.655 617.442 667.607 617.348 667.59 617.254L667.526 616.952C667.789 616.525 668.031 616.087 668.251 615.633L668.445 615.221C669.667 615.225 670.861 614.861 671.861 614.179C672.352 613.78 672.753 613.288 673.039 612.733C673.326 612.178 673.492 611.571 673.527 610.952C673.585 609.709 673.305 608.474 672.716 607.37C672.103 606.155 671.211 604.904 671.518 603.59C671.652 603.022 672.001 602.548 672.184 601.969C672.452 600.885 672.273 599.741 671.684 598.784C671.147 597.809 670.427 596.949 669.841 596C669.094 594.795 668.595 593.459 668.375 592.069C668.329 591.329 668.147 590.603 667.838 589.926C667.523 589.448 667.108 589.041 666.618 588.732C664.445 587.225 661.82 586.454 659.15 586.537C657.259 586.6 655.39 587.095 653.499 586.871C652.376 586.679 651.27 586.398 650.195 586.032C647.868 585.364 645.177 585.088 643.151 586.381C641.126 587.674 640.315 590.218 638.939 592.21C637.72 593.972 635.942 595.447 635.018 597.313C635.018 597.277 635.018 597.24 635.044 597.204C634.813 597.636 634.633 598.093 634.507 598.565C634.153 600.03 634.448 601.562 634.813 603.022C635.007 603.778 635.265 604.586 635.936 605.014C636.608 605.441 637.548 605.342 638.365 605.478C638.332 605.608 638.3 605.733 638.273 605.863C637.44 609.653 638.111 613.608 640.153 616.938C642.195 620.267 645.457 622.726 649.287 623.823C649.287 623.959 649.287 624.1 649.287 624.23C649.287 624.631 649.254 625.017 649.211 625.387C649.211 625.387 642.227 623.995 640.352 624.934C638.477 625.872 634.792 626.618 634.239 627.155C633.685 627.692 632.294 627.29 631.042 630.449C629.79 633.609 629.656 636.841 628.055 638.316C626.454 639.792 625.627 640.808 625.557 641.882C625.487 642.956 625.761 643.227 625.138 643.566C624.514 643.905 623.612 645.313 623.886 645.85C623.886 645.85 624.235 647.195 623.123 647.867C622.794 648.092 622.532 648.397 622.361 648.751C622.191 649.105 622.118 649.495 622.151 649.885C622.151 649.885 621.732 651.365 620.759 651.699C619.787 652.033 619.147 654.259 619.147 654.259L615.999 657.773L609.751 651.068C609.283 650.567 608.63 650.267 607.934 650.232C607.238 650.198 606.557 650.433 606.039 650.886L603.025 653.597C601.842 653.874 600.772 654.492 599.957 655.369C599.283 656.034 598.737 656.811 598.346 657.663L596.669 659.133C596.407 659.359 596.195 659.635 596.046 659.943C595.898 660.252 595.815 660.586 595.804 660.927C595.587 661.379 595.512 661.884 595.589 662.377C595.667 662.871 595.893 663.331 596.24 663.7L600.237 667.996V668.032C598.817 668.147 597.467 668.68 596.368 669.56C590.394 674.669 590.325 679.377 591.227 681.551C592.13 683.724 599.699 691.977 599.699 691.977C599.699 691.977 604.099 697.529 610.444 700.48L610.401 700.527C610.272 700.657 610.149 700.798 610.025 700.949L609.923 701.08L609.826 701.21L609.714 701.372L609.628 701.502L609.504 701.695C609.482 701.74 609.457 701.784 609.429 701.825C609.38 701.909 609.332 701.997 609.289 702.086L609.241 702.174C609.182 702.289 609.128 702.414 609.069 702.539C609.01 702.665 609.031 702.633 609.015 702.675C608.999 702.717 608.94 702.852 608.908 702.946L608.843 703.118C608.811 703.202 608.784 703.29 608.752 703.379C608.72 703.467 608.714 703.504 608.693 703.572L608.612 703.864L608.564 704.046C608.521 704.202 608.489 704.364 608.451 704.531L608.419 704.724C608.419 704.833 608.376 704.948 608.36 705.068C608.344 705.188 608.333 705.23 608.322 705.313C608.311 705.396 608.322 705.532 608.279 705.647C608.236 705.761 608.279 705.819 608.252 705.902C608.225 705.985 608.252 706.157 608.252 706.288C608.252 706.418 608.252 706.439 608.252 706.522C608.252 706.731 608.252 706.95 608.225 707.174C608.086 715.041 608.558 716.183 608.558 716.183C608.558 716.183 609.542 718.69 612.249 718.868C612.646 718.895 613.045 718.874 613.437 718.805C617.047 718.2 625.525 716.787 628.512 717.33C630.306 717.653 633.631 717.173 635.995 716.741L636.624 716.621L637.054 717.96L638.429 717.596L639.595 718.247L640.331 718.659C641.701 723.169 647.267 721.631 647.267 721.631L648.588 722.371L662.019 722.705C663.524 723.591 665.115 724.333 666.768 724.92C666.989 724.983 667.213 725.03 667.44 725.061C668.682 725.157 669.929 725.179 671.174 725.129C672.205 725.129 673 725.061 673 725.061C673 725.061 672.861 721.532 672.667 717.575C677.787 717.366 682.338 717.053 685.083 716.589C692.207 715.369 695.188 709.03 696.29 705.652C696.618 707.025 696.851 708.419 696.988 709.822C697.28 711.06 697.652 712.279 698.1 713.472C698.493 714.427 699.007 715.331 699.631 716.162C704.912 714.415 701.716 711.793 700.604 710.651C699.492 709.51 701.367 708.566 701.367 708.566C701.367 708.566 702.828 707.622 702.688 706.747C702.549 705.871 702.479 704.932 707.201 705C711.923 705.068 711.719 701.236 711.719 701.236ZM638.365 658.294C638.424 658.68 639.084 662.819 639.681 663.909C639.846 664.636 639.898 665.382 639.837 666.124C637.038 665.911 634.12 665.791 634.12 665.791C634.205 665.89 634.258 666.012 634.271 666.14L633.83 666.041C633.626 665.994 633.411 665.947 633.191 665.89L638.348 658.283L638.365 658.294ZM628.157 674.064L632.992 674.81L633.4 674.872C633.262 675.606 633.178 676.348 633.148 677.093C633.148 677.161 633.255 677.244 633.411 677.343C633.346 677.71 633.315 678.082 633.32 678.454C633.395 678.829 635.662 679.632 638.262 680.299C638.225 680.435 638.187 680.56 638.155 680.685C635.861 679.512 632.245 678.965 631.826 678.078C631.407 677.192 619.142 673.058 619.142 673.058C619.142 673.058 618.691 672.823 617.917 672.464L621.141 673.058L622.032 672.969C624.044 673.461 626.086 673.827 628.146 674.064H628.157Z"
            fill="url(#paint0_linear)"
        />
        <path
            d="M695.909 704.161C695.909 704.161 693.98 715.448 684.202 717.121C674.424 718.795 641.792 718.456 641.792 718.456C641.792 718.456 623.134 715.849 616.386 700.553C609.639 685.257 605.303 679.179 611.084 678.902C616.864 678.626 648.057 689.126 649.846 689.261C651.635 689.397 697.628 666.01 695.909 704.161Z"
            fill="#65617D"
        />
        <path
            opacity="0.05"
            d="M695.909 704.161C695.909 704.161 693.98 715.448 684.202 717.121C674.424 718.795 641.792 718.456 641.792 718.456C641.792 718.456 623.134 715.849 616.386 700.553C609.639 685.257 605.303 679.179 611.084 678.902C616.864 678.626 648.057 689.126 649.846 689.261C651.635 689.397 697.628 666.01 695.909 704.161Z"
            fill="black"
        />
        <path
            d="M608.398 716.72C608.398 716.72 609.37 719.206 612.051 719.389C612.444 719.416 612.84 719.395 613.228 719.326C616.811 718.722 625.208 717.319 628.168 717.856C629.952 718.174 633.245 717.7 635.593 717.272C637.151 716.986 638.279 716.72 638.279 716.72C638.279 716.72 635.528 707.857 635.179 707.565C634.83 707.273 622.79 700.266 622.79 700.266L613.233 699.62C611.954 699.811 610.8 700.472 610.01 701.466C609.005 702.649 608.14 704.594 608.081 707.774C607.914 715.583 608.398 716.72 608.398 716.72Z"
            fill="#3F3D56"
        />
        <path
            opacity="0.05"
            d="M608.397 716.72C608.397 716.72 609.37 719.206 612.05 719.389C611.116 718.222 610.251 717.003 609.461 715.74L609.509 709.259C609.316 707.482 609.556 705.686 610.209 704.016C610.863 702.345 611.911 700.846 613.27 699.641H613.232C613.232 699.641 608.209 699.974 608.07 707.794C607.93 715.614 608.397 716.72 608.397 716.72Z"
            fill="black"
        />
        <path
            opacity="0.1"
            d="M649.765 702.555L658.646 695.809L672.614 682.447C672.614 682.447 671.104 682.374 668.826 682.28C668.289 682.63 666.677 683.73 666.613 685.07C666.548 686.707 662.852 685.184 660.907 686.112C658.963 687.04 649.572 698.77 647.917 698.687C646.262 698.603 644.957 697.873 644.269 699.01L644.221 699.083L649.765 702.555Z"
            fill="black"
        />
        <path
            opacity="0.1"
            d="M610.009 701.46C610.326 701.606 610.649 701.752 610.971 701.888C617.719 704.693 626.051 710.573 626.669 711.642C627.051 712.294 631.88 715.14 635.609 717.272C637.167 716.986 638.295 716.72 638.295 716.72C638.295 716.72 635.544 707.857 635.195 707.565C634.846 707.273 622.806 700.266 622.806 700.266L613.233 699.62C611.955 699.81 610.801 700.469 610.009 701.46Z"
            fill="black"
        />
        <path
            d="M591.254 682.312C592.151 684.449 599.657 692.665 599.657 692.665C599.657 692.665 604.406 698.682 611.154 701.486C617.901 704.291 626.228 710.172 626.852 711.241C627.249 711.929 632.627 715.072 636.415 717.231L637.263 717.71L639.144 718.753L640.138 719.311C640.138 719.311 642.442 717.512 644.742 715.703C647.041 713.894 649.26 712.127 649.298 712.054C649.362 711.856 650.259 709.583 650.05 709.447C649.942 709.379 649.469 708.451 648.605 707.362C647.679 706.169 646.477 705.205 645.096 704.547C641.927 703.144 640.551 699.948 640.551 699.948C640.551 699.948 640.25 699.74 639.794 699.458C638.855 698.829 637.804 698.374 636.694 698.119C635.179 697.936 632.358 694.928 632.358 694.928C632.358 694.928 630.43 693.724 629.672 692.191C628.915 690.658 618.272 683.61 617.283 682.948L643.168 699.083L649.362 702.946L658.248 696.2L672.216 682.838C672.216 682.838 670.336 682.75 667.607 682.635C660.811 682.348 648.75 681.9 647.224 682.234C645.992 682.513 644.722 682.594 643.463 682.473C643.463 682.473 640.025 682.625 637.752 681.462C635.48 680.299 631.896 679.752 631.483 678.892C631.069 678.032 618.884 673.882 618.884 673.882C618.884 673.882 602.294 665.332 596.369 670.41C590.443 675.487 590.362 680.174 591.254 682.312Z"
            fill="#65617D"
        />
        <path
            d="M644.752 633.275L646.901 640.151L649.657 655.656L659.774 656.323L662.707 651.631L665.63 646.939C665.63 646.939 667.451 640.683 668.762 634.615C669.917 629.256 670.674 624.053 669.417 623.49C668.3 622.968 667.564 621.18 667.086 619.241C667.026 619.001 666.967 618.756 666.919 618.516C666.583 616.871 666.359 615.206 666.247 613.532C666.247 613.532 645.043 612.463 647.981 620.951C648.511 622.399 648.782 623.924 648.782 625.46C648.777 625.844 648.752 626.226 648.707 626.607C648.556 627.923 648.127 629.194 647.446 630.341C646.766 631.489 645.849 632.488 644.752 633.275Z"
            fill="#EE8E9E"
        />
        <path
            d="M640.342 632.139L641.105 643.827L642.824 653.784L644.753 658.393L646.472 683.615C646.472 683.615 663.072 685.476 667.112 683.584C667.402 683.464 667.654 683.271 667.843 683.026C672.716 675.884 671.12 655.187 671.12 655.187L672.979 641.825L671.738 634.891L668.746 634.578L666.441 634.344C666.441 634.344 665.904 634.964 665.168 635.908C663.126 638.514 659.371 643.665 659.623 645.813C659.967 648.753 659.21 651.756 658.012 652.226C656.814 652.695 655.863 653.498 655.675 652.695C655.487 651.892 655.261 651.694 655.465 650.557C655.669 649.421 654.568 645.943 654.568 645.943C654.568 645.943 652.709 641.872 652.849 640.131C652.988 638.389 652.645 636.393 652.091 635.923C651.538 635.454 650.786 634.99 651.404 632.853C652.021 630.715 648.69 626.571 648.69 626.571L640.342 632.139Z"
            fill="#E3E8F4"
        />
        <path
            opacity="0.1"
            d="M662.272 661.339L662.965 681.316L666.94 683.454C667.229 683.333 667.48 683.143 667.671 682.901C672.544 675.753 670.948 655.056 670.948 655.056L672.807 641.695L671.566 634.761L668.574 634.448C669.729 629.089 670.486 623.886 669.229 623.323C668.111 622.802 667.375 621.013 666.897 619.074L664.748 633.207C664.748 633.207 664.926 634.485 664.99 635.814C665.077 636.646 665.019 637.487 664.818 638.301C664.335 639.505 664.679 641.643 664.679 641.643C663.438 643.764 662.814 647.695 662.53 651.491C662.121 656.527 662.272 661.339 662.272 661.339Z"
            fill="black"
        />
        <path
            d="M666.957 618.756C666.957 618.756 670.427 619.173 671.529 620.581C672.63 621.988 675.52 622.181 675.52 622.181C675.52 622.181 678.824 623.224 678.744 623.516C678.663 623.808 679.705 624.188 681.768 624.72C683.831 625.252 687.281 627.191 687.281 627.66C687.281 628.129 692.744 633.338 692.744 633.875C692.744 634.412 694.399 636.413 694.189 639.953C693.98 643.493 693.776 647.971 694.603 648.706C695.43 649.442 694.603 652.314 694.603 652.314C694.381 652.626 694.256 652.994 694.243 653.373C694.231 653.752 694.332 654.127 694.533 654.452C695.221 655.656 694.399 660.666 694.399 660.666L694.463 665.879C694.463 665.879 693.706 669.153 694.603 669.289C695.5 669.424 694.463 670.894 694.463 670.894C694.463 670.894 693.706 673.564 694.673 674.768C695.64 675.972 695.914 681.113 695.914 681.113L710.645 701.893C710.645 701.893 710.855 705.699 706.17 705.636C701.485 705.574 701.555 706.502 701.695 707.372C701.834 708.243 700.389 709.176 700.389 709.176C700.389 709.176 698.53 710.109 699.632 711.261C700.733 712.413 703.897 715.005 698.665 716.741C698.048 715.913 697.539 715.015 697.15 714.066C696.706 712.887 696.338 711.682 696.048 710.458C696.048 710.458 695.565 705.381 694.603 704.724C693.641 704.067 693.776 700.85 693.776 700.85C693.776 700.85 695.156 698.244 693.238 697.175C691.321 696.106 663.357 681.071 663.357 681.071L662.659 661.067C662.659 661.067 662.175 646.303 665.066 641.356C665.066 641.356 664.722 639.218 665.205 638.014C665.689 636.81 665.135 632.936 665.135 632.936L666.957 618.756Z"
            fill="#3F3D56"
        />
        <path
            opacity="0.1"
            d="M648.921 626.774C648.921 626.774 641.996 625.387 640.138 626.326C638.279 627.264 634.631 627.994 634.078 628.531C633.524 629.068 632.154 628.661 630.913 631.805C629.672 634.948 629.538 638.149 627.953 639.625C626.368 641.1 625.541 642.096 625.471 643.165C625.401 644.233 625.681 644.499 625.063 644.838C624.445 645.177 623.548 646.574 623.822 647.106C624.096 647.638 638.139 659.399 638.139 659.399C638.139 659.399 638.832 663.877 639.45 665.014C640.068 666.15 638.762 681.78 637.387 682.854C636.012 683.928 646.681 683.823 646.681 683.823C646.681 683.823 647.159 673.564 647.573 673.032C647.987 672.5 647.299 661.563 647.299 661.563C647.299 661.563 647.229 652.21 648.126 649.739C649.024 647.268 648.921 639.051 648.921 639.051C648.921 639.051 649.711 634.12 650.673 632.967C651.635 631.815 648.921 626.774 648.921 626.774Z"
            fill="black"
        />
        <path
            d="M648.691 626.571C648.691 626.571 641.771 625.189 639.912 626.122C638.053 627.056 634.421 627.785 633.873 628.307C633.325 628.828 631.945 628.442 630.704 631.581C629.463 634.719 629.328 637.931 627.744 639.401C626.159 640.871 625.337 641.872 625.267 642.941C625.197 644.009 625.471 644.275 624.853 644.609C624.235 644.943 623.338 646.345 623.612 646.882C623.886 647.419 637.946 659.196 637.946 659.196C637.946 659.196 638.633 663.669 639.257 664.805C639.88 665.942 638.564 681.577 637.188 682.645C635.813 683.714 646.482 683.615 646.482 683.615C646.482 683.615 646.966 673.36 647.38 672.823C647.793 672.286 647.1 661.354 647.1 661.354C647.1 661.354 647.036 652.001 647.928 649.53C648.819 647.059 648.691 638.817 648.691 638.817C648.691 638.817 649.48 633.885 650.442 632.738C651.404 631.591 648.691 626.571 648.691 626.571Z"
            fill="#3F3D56"
        />
        <path
            opacity="0.1"
            d="M647.987 620.914C648.517 622.362 648.787 623.887 648.787 625.424C652.172 626.401 655.797 626.248 659.081 624.989C662.366 623.73 665.12 621.438 666.903 618.48C666.567 616.834 666.343 615.169 666.231 613.496C666.231 613.496 645.026 612.427 647.987 620.914Z"
            fill="black"
        />
        <path
            d="M637.521 610.357C637.522 614.277 639.073 618.047 641.853 620.889C644.634 623.732 648.433 625.431 652.467 625.635C656.5 625.84 660.461 624.534 663.532 621.988C666.603 619.442 668.55 615.85 668.971 611.952C669.393 608.053 668.257 604.147 665.797 601.038C663.338 597.929 659.742 595.854 655.753 595.242C651.763 594.629 647.684 595.526 644.356 597.747C641.027 599.968 638.704 603.343 637.865 607.177C637.637 608.223 637.521 609.288 637.521 610.357Z"
            fill="#EE8E9E"
        />
        <path
            d="M627.4 645.766L623.639 646.903C623.639 646.903 623.988 648.237 622.882 648.905C622.556 649.13 622.296 649.433 622.127 649.785C621.958 650.137 621.887 650.525 621.92 650.912C621.92 650.912 621.506 652.382 620.545 652.716C619.583 653.049 618.96 655.255 618.96 655.255L615.79 658.794C615.79 658.794 614.624 659.728 614.828 660.197C615.033 660.666 613.587 660.796 613.587 660.796L614.307 672.693L620.851 673.892L624.912 673.491L628.216 672.292L631.107 670.618L632.418 667.344L638.198 658.794L627.4 645.766Z"
            fill="#3F3D56"
        />
        <path
            d="M614.527 661.735C614.527 661.735 606.125 649.973 599.861 656.323C593.596 662.673 602.407 672.959 604.475 672.625C606.544 672.292 616.386 671.755 616.386 671.755L614.527 661.735Z"
            fill="#EE8E9E"
        />
        <path
            d="M634.593 656.806L596.91 638.142C596.503 637.94 596.005 638.097 595.797 638.492L581.031 666.566C580.823 666.961 580.985 667.445 581.391 667.646L619.074 686.31C619.481 686.512 619.98 686.355 620.187 685.96L634.954 657.886C635.162 657.491 635 657.007 634.593 656.806Z"
            fill="#3F3D56"
        />
        <path
            d="M630.833 658.297L597.92 641.996L585.262 666.063L618.174 682.364L630.833 658.297Z"
            fill="#FFA116"
        />
        <path
            d="M590.346 653.972C590.682 653.972 590.953 653.708 590.953 653.383C590.953 653.057 590.682 652.794 590.346 652.794C590.011 652.794 589.739 653.057 589.739 653.383C589.739 653.708 590.011 653.972 590.346 653.972Z"
            fill="#E6E8EC"
        />
        <path
            d="M625.97 672.062C626.522 672.062 626.97 671.628 626.97 671.093C626.97 670.557 626.522 670.123 625.97 670.123C625.419 670.123 624.971 670.557 624.971 671.093C624.971 671.628 625.419 672.062 625.97 672.062Z"
            fill="#E6E8EC"
        />
        <path
            d="M609.085 664.206C609.021 673.027 627.813 674.893 627.813 674.893L632.616 675.633L634.765 675.967L635.662 667.344C635.662 667.344 634.679 667.203 633.449 666.927C631.628 666.515 629.269 665.801 628.775 664.805C627.953 663.137 609.155 655.385 609.085 664.206Z"
            fill="#EE8E9E"
        />
        <path
            opacity="0.1"
            d="M637.865 607.177C638.302 607.211 638.712 607.396 639.02 607.698C639.558 608.246 639.558 609.215 640.272 609.549C640.53 609.661 640.817 609.694 641.094 609.643C642.926 609.393 643.984 607.386 645.741 606.833C646.768 606.577 647.854 606.669 648.82 607.094C649.213 607.209 649.566 607.427 649.84 607.724C650.431 608.465 650.018 609.554 650.292 610.446C650.668 611.687 652.193 612.182 653.515 612.343C654.837 612.505 656.325 612.594 657.211 613.563C657.504 613.928 657.714 614.349 657.827 614.798C657.94 615.248 657.954 615.715 657.867 616.17C657.789 616.484 657.789 616.811 657.867 617.124C658.232 618.13 660.016 617.979 660.483 617.187C660.827 616.613 660.725 616.144 661.525 615.977C662.103 615.93 662.684 616.027 663.212 616.259C664.613 616.725 666.089 616.944 667.569 616.905C668.516 614.952 669.026 612.827 669.067 610.67C669.107 608.512 668.677 606.37 667.804 604.385C666.931 602.4 665.635 600.617 664.001 599.153C662.368 597.688 660.434 596.576 658.326 595.888C656.218 595.2 653.984 594.953 651.77 595.163C649.557 595.372 647.414 596.034 645.483 597.104C643.551 598.174 641.875 599.628 640.564 601.372C639.253 603.115 638.337 605.108 637.876 607.219L637.865 607.177Z"
            fill="black"
        />
        <path
            d="M657.856 616.686C657.779 616.371 657.779 616.042 657.856 615.727C657.943 615.272 657.929 614.805 657.816 614.355C657.703 613.906 657.493 613.485 657.2 613.12C656.314 612.151 654.826 612.078 653.504 611.9C652.182 611.723 650.657 611.243 650.281 610.003C650.007 609.111 650.42 608.022 649.829 607.286C649.556 606.987 649.203 606.767 648.808 606.65C647.843 606.226 646.757 606.134 645.73 606.39C643.973 606.942 642.915 608.95 641.083 609.2C640.806 609.25 640.519 609.218 640.261 609.106C639.568 608.772 639.541 607.803 639.009 607.255C638.171 606.395 636.586 606.953 635.56 606.312C634.894 605.895 634.636 605.081 634.448 604.336C634.088 602.881 633.793 601.359 634.147 599.904C634.744 597.418 637.032 595.734 638.493 593.591C639.858 591.615 640.642 589.113 642.668 587.799C644.693 586.485 647.342 586.788 649.652 587.455C650.717 587.819 651.811 588.096 652.924 588.284C654.783 588.508 656.652 588.018 658.527 587.955C661.173 587.875 663.772 588.641 665.925 590.135C666.41 590.444 666.822 590.849 667.134 591.323C667.446 591.994 667.628 592.715 667.671 593.45C667.892 594.833 668.387 596.16 669.127 597.36C669.702 598.299 670.432 599.148 670.954 600.123C671.535 601.076 671.713 602.211 671.448 603.288C671.271 603.835 670.911 604.331 670.787 604.899C670.481 606.202 671.367 607.448 671.974 608.652C672.559 609.75 672.837 610.978 672.78 612.213C672.746 612.828 672.581 613.43 672.296 613.981C672.011 614.531 671.613 615.019 671.125 615.414C670.106 616.11 668.885 616.475 667.639 616.457C666.129 616.502 664.623 616.277 663.196 615.795C662.667 615.563 662.087 615.466 661.509 615.513C660.708 615.67 660.81 616.149 660.467 616.723C660.005 617.536 658.221 617.687 657.856 616.686Z"
            fill="#3F3D56"
        />
        <path
            opacity="0.1"
            d="M649.362 702.957L658.248 696.21L672.216 682.849C672.216 682.849 670.336 682.76 667.607 682.645C667.065 683.119 666.718 683.767 666.629 684.47C666.565 686.102 662.869 684.585 660.924 685.513C658.979 686.441 649.572 698.165 647.917 698.092C646.262 698.019 644.957 697.279 644.269 698.416L644.221 698.489C643.939 698.797 643.562 699.009 643.146 699.093L649.362 702.957Z"
            fill="black"
        />
        <path
            d="M631.461 702.487L635.925 716.313L636.624 718.482L638.773 717.919L643.458 716.668L664.324 711.105C666.947 710.995 669.514 710.331 671.845 709.16C675.792 707.019 680.307 706.064 684.814 706.418C687.57 706.668 690.638 705.516 693.184 700.949C693.184 700.949 698.965 684.381 684.368 679.637C669.772 674.893 669.078 682.161 669.078 682.161L668.88 682.28C668.342 682.63 666.731 683.73 666.666 685.07C666.602 686.707 662.906 685.184 660.961 686.112C659.016 687.04 649.571 698.77 647.917 698.687C646.262 698.603 644.956 697.874 644.269 699.01L644.22 699.083C643.71 699.766 642.174 699.922 641.163 699.954C640.626 699.954 640.207 699.954 640.207 699.954L640.078 699.99L639.004 700.298L631.461 702.487Z"
            fill="#65617D"
        />
        <path
            opacity="0.1"
            d="M632.616 675.633L634.765 675.967L635.662 667.344C635.662 667.344 634.679 667.203 633.449 666.927C633.771 668.126 633.035 672.776 632.616 675.633Z"
            fill="black"
        />
        <path
            opacity="0.1"
            d="M688.914 635.36C688.914 635.36 695.318 633.557 693.749 651.198C692.18 668.84 680.318 679.992 680.318 679.992C680.318 679.992 666.688 685.805 660.558 684.871C657.047 684.321 653.509 683.942 649.959 683.735C648.029 682.788 645.918 682.241 643.759 682.129C640.321 681.999 633.089 679.924 632.95 679.257C632.81 678.589 634.744 668.767 633.917 668.032C633.917 668.032 643.555 668.418 644.516 669.075C645.478 669.732 646.859 669.268 647.89 669.075C648.922 668.882 652.091 666.213 658.356 668.554C658.356 668.554 660.505 668.752 661.316 668.22C662.127 667.688 663.465 668.085 663.465 668.085C663.997 667.907 664.501 667.66 664.964 667.349C665.168 667.084 666.823 667.349 666.823 667.349C666.921 667.396 667.028 667.421 667.138 667.422C667.247 667.423 667.355 667.4 667.454 667.355C667.553 667.31 667.641 667.244 667.71 667.162C667.779 667.079 667.828 666.983 667.854 666.88C668.069 666.332 668.396 665.832 668.816 665.41C668.816 665.41 670.675 655.254 674.188 651.449C674.188 651.449 675.22 650.578 674.946 649.509C674.672 648.441 680.651 633.223 688.914 635.36Z"
            fill="black"
        />
        <path
            d="M688.747 634.005C688.747 634.005 695.151 632.201 693.582 649.843C692.013 667.485 680.151 678.636 680.151 678.636C680.151 678.636 666.516 684.449 660.391 683.516C654.267 682.583 649.765 682.379 649.765 682.379C647.837 681.433 645.728 680.886 643.57 680.774C640.127 680.643 632.901 678.569 632.761 677.901C632.621 677.234 634.55 667.412 633.723 666.677C633.723 666.677 643.361 667.063 644.328 667.72C645.295 668.376 646.67 667.907 647.702 667.72C648.733 667.532 651.903 664.852 658.167 667.198C658.167 667.198 660.316 667.396 661.127 666.865C661.939 666.333 663.276 666.729 663.276 666.729C663.807 666.552 664.31 666.305 664.77 665.994C664.974 665.728 666.629 665.994 666.629 665.994C666.727 666.041 666.835 666.065 666.944 666.066C667.053 666.067 667.161 666.044 667.26 665.999C667.359 665.954 667.447 665.888 667.516 665.806C667.585 665.724 667.634 665.628 667.66 665.525C667.88 664.978 668.209 664.478 668.627 664.055C668.627 664.055 670.486 653.899 674 650.093C674 650.093 675.037 649.223 674.757 648.154C674.478 647.085 680.484 631.867 688.747 634.005Z"
            fill="#3F3D56"
        />
        <path
            opacity="0.1"
            d="M639.02 700.293L648.11 710.969C648.148 710.938 648.169 710.917 648.169 710.907C648.239 710.709 649.131 708.436 648.927 708.3C648.723 708.165 647.138 704.823 643.968 703.421C642.36 702.657 641.011 701.463 640.078 699.98L639.02 700.293Z"
            fill="black"
        />
        <path
            opacity="0.1"
            d="M639.144 718.769L640.138 719.326C640.138 719.326 642.442 717.528 644.742 715.719C647.041 713.91 649.26 712.142 649.298 712.069C649.362 711.871 650.259 709.598 650.05 709.463C649.942 709.395 649.469 708.467 648.604 707.377C642.437 705.699 646.364 709.854 646.885 710.041C646.885 710.041 639.364 708.373 638.966 716.297C638.913 717.125 638.972 717.956 639.144 718.769Z"
            fill="black"
        />
        <path
            d="M646.746 722.147L648.056 722.882L661.342 723.216C662.834 724.094 664.41 724.829 666.049 725.41C666.266 725.477 666.489 725.526 666.715 725.556C667.946 725.649 669.182 725.672 670.416 725.624C671.437 725.624 672.221 725.556 672.221 725.556C672.221 725.556 671.593 709.291 671.147 707.581C670.921 706.762 669.804 706.945 668.708 707.351C667.883 707.676 667.087 708.067 666.328 708.519C666.328 708.519 660.682 709.04 659.784 709.525C658.887 710.01 656.346 709.254 654.761 709.525C653.176 709.796 650.356 707.716 650.356 707.716C642.641 705.245 646.982 709.854 647.53 710.052C647.53 710.052 640.009 708.384 639.616 716.308C639.224 724.232 646.746 722.147 646.746 722.147Z"
            fill="#3F3D56"
        />
        <path
            d="M665.957 715.849C666.102 719.217 668.805 723.398 670.416 725.608C671.437 725.608 672.221 725.541 672.221 725.541C672.221 725.541 671.593 709.275 671.147 707.565C670.921 706.747 669.804 706.929 668.708 707.336C667.349 709.76 665.839 713.138 665.957 715.849Z"
            fill="#565387"
        />
        <path
            opacity="0.1"
            d="M665.957 715.849C666.102 719.217 668.805 723.398 670.416 725.608C671.437 725.608 672.221 725.541 672.221 725.541C672.221 725.541 671.593 709.275 671.147 707.565C670.921 706.747 669.804 706.929 668.708 707.336C667.349 709.76 665.839 713.138 665.957 715.849Z"
            fill="black"
        />
        <path
            opacity="0.05"
            d="M663.685 716.297C664.598 719.545 664.587 723.189 666.049 725.395C666.266 725.461 666.489 725.51 666.715 725.541C667.946 725.634 669.182 725.656 670.416 725.608C671.437 725.608 672.222 725.541 672.222 725.541C672.222 725.541 671.593 709.275 671.147 707.565C670.921 706.747 669.804 706.929 668.708 707.336C667.883 707.661 667.087 708.051 666.328 708.504C666.328 708.504 662.514 712.137 663.685 716.297Z"
            fill="black"
        />
        <path
            opacity="0.1"
            d="M617.842 683.333C617.842 683.333 624.445 685.419 630.038 692.801L617.842 683.333Z"
            fill="black"
        />
        <g opacity="0.1">
            <path
                opacity="0.1"
                d="M671.475 603.163C671.475 603.215 671.475 603.262 671.437 603.309C671.37 603.499 671.293 603.685 671.206 603.867C671.274 603.625 671.364 603.389 671.475 603.163Z"
                fill="black"
            />
            <path
                opacity="0.1"
                d="M634.131 599.925C634.256 599.457 634.436 599.003 634.669 598.575C634.631 598.69 634.599 598.804 634.566 598.924C634.217 600.379 634.507 601.901 634.873 603.351C635.061 604.101 635.319 604.915 635.985 605.332C637.011 605.968 638.596 605.415 639.434 606.275C639.971 606.797 639.971 607.792 640.686 608.126C640.943 608.238 641.23 608.27 641.508 608.22C643.334 607.97 644.398 605.962 646.155 605.41C647.181 605.154 648.267 605.246 649.233 605.67C649.627 605.787 649.98 606.007 650.254 606.306C650.839 607.042 650.431 608.131 650.7 609.023C651.081 610.263 652.607 610.753 653.923 610.92C655.239 611.087 656.733 611.171 657.619 612.14C657.912 612.505 658.122 612.926 658.235 613.375C658.348 613.825 658.362 614.292 658.275 614.747C658.194 615.06 658.194 615.388 658.275 615.701C658.64 616.702 660.424 616.556 660.891 615.763C661.235 615.19 661.128 614.721 661.933 614.549C662.512 614.506 663.092 614.604 663.62 614.835C665.051 615.31 666.558 615.529 668.069 615.482C669.315 615.5 670.536 615.135 671.555 614.439C672.001 614.097 672.367 613.667 672.63 613.178C672.397 614.067 671.875 614.86 671.142 615.44C670.122 616.136 668.901 616.501 667.655 616.483C666.138 616.521 664.626 616.288 663.196 615.795C662.668 615.563 662.087 615.466 661.509 615.513C660.708 615.67 660.811 616.149 660.467 616.723C659.999 617.515 658.216 617.666 657.85 616.665C657.774 616.35 657.774 616.022 657.85 615.706C657.937 615.251 657.924 614.784 657.811 614.335C657.698 613.885 657.488 613.464 657.195 613.099C656.309 612.13 654.82 612.057 653.499 611.88C652.177 611.702 650.651 611.223 650.275 609.982C650.001 609.09 650.415 608.001 649.824 607.266C649.55 606.967 649.197 606.747 648.803 606.63C647.838 606.205 646.752 606.113 645.725 606.369C643.968 606.922 642.904 608.929 641.078 609.179C640.8 609.23 640.514 609.197 640.256 609.085C639.563 608.752 639.536 607.782 639.004 607.234C638.166 606.374 636.581 606.932 635.555 606.291C634.889 605.874 634.631 605.06 634.443 604.315C634.072 602.902 633.782 601.38 634.131 599.925Z"
                fill="black"
            />
        </g>
        <path
            opacity="0.1"
            d="M672.544 653.399C671.281 655.051 669.858 656.579 668.724 658.325C667.591 660.072 666.822 662.115 667.053 664.159C668.208 663.012 668.735 661.422 669.466 659.988C670.696 657.548 672.539 655.479 674.097 653.211C674.392 652.783 676.294 650.307 675.332 650.187C674.537 650.099 672.974 652.836 672.544 653.399Z"
            fill="black"
        />
    </g>
    <defs>
        <linearGradient
            id="paint0_linear"
            x1="651.28"
            y1="725.129"
            x2="651.28"
            y2="585.505"
            gradientUnits="userSpaceOnUse"
        >
            <stop stop-color="#808080" stop-opacity="0.25" />
            <stop offset="0.54" stop-color="#808080" stop-opacity="0.12" />
            <stop offset="1" stop-color="#808080" stop-opacity="0.1" />
        </linearGradient>
        <clipPath id="clip0">
            <rect width="206" height="226" fill="white" transform="translate(392)" />
        </clipPath>
        <clipPath id="clip1">
            <rect width="593" height="369" fill="white" transform="translate(198 363)" />
        </clipPath>
    </defs>
</svg>
