<svg width="1000" height="750" viewBox="0 0 1000 750" fill="none" xmlns="http://www.w3.org/2000/svg">
<rect width="1000" height="750" fill="black"/>
<g clip-path="url(#clip0_626_35)">
<path d="M136 176.958V333.561H249.28V304.662H171.275V176.958H136Z" fill="white"/>
<path d="M316.368 313.122C338.066 313.122 344.588 294.898 344.588 276.933C344.588 258.708 338.066 240.483 316.368 240.483C294.804 240.483 288.281 258.708 288.281 276.933C288.281 294.898 294.804 313.122 316.368 313.122ZM316.368 217.051C352.975 217.051 376.536 240.743 376.536 276.933C376.536 312.862 352.975 336.554 316.368 336.554C280.028 336.554 256.467 312.862 256.467 276.933C256.467 240.743 280.028 217.051 316.368 217.051Z" fill="white"/>
<path d="M449.375 240.615C430.473 240.615 422.221 257.928 422.221 277.065C422.221 295.94 430.473 313.253 449.375 313.253C468.278 313.253 476.53 295.94 476.53 277.065C476.398 257.928 468.144 240.615 449.375 240.615ZM391.471 176.958H423.285V233.976H423.684C431.538 222.39 445.914 217.053 460.291 217.053C483.452 217.053 508.345 235.278 508.345 276.674C508.345 318.331 483.452 336.555 460.291 336.555C443.252 336.555 429.142 331.478 422.221 318.982H421.821V333.561H391.604V176.958H391.471Z" fill="white"/>
<path d="M555.572 176.958H523.758V333.561H555.572V176.958Z" fill="white"/>
<path d="M647.286 278.107C641.962 282.663 630.647 282.924 620.796 284.746C610.947 286.698 601.895 289.953 601.895 301.409C601.895 312.995 611.079 315.858 621.463 315.858C646.355 315.858 647.286 296.592 647.286 289.693V278.107ZM573.808 255.065C575.538 225.906 602.294 217.184 628.251 217.184C651.413 217.184 679.101 222.261 679.101 249.468V308.438C679.101 318.722 680.165 329.006 683.094 333.692H650.748C649.683 330.177 648.751 326.403 648.484 322.758C638.367 333.041 623.592 336.817 609.482 336.817C587.518 336.817 569.947 326.013 569.947 302.84C569.947 277.196 589.648 271.077 609.482 268.344C629.05 265.48 647.153 266.131 647.153 253.373C647.153 239.965 637.702 238.012 626.52 238.012C614.407 238.012 606.554 242.829 605.489 255.065H573.808Z" fill="white"/>
<path d="M827.401 333.562H794.655L774.022 257.408H773.622L753.788 333.562H720.91L684.037 220.177H717.715L739.013 297.111H739.413L758.714 220.177H789.73L809.43 296.982H809.963L831.26 220.177H864.007L827.401 333.562Z" fill="white"/>
<path d="M230.644 373.854C241.959 377.5 251.144 384.138 258.199 393.901C263.789 401.712 267.65 410.304 269.647 419.416C271.643 428.529 272.708 437.251 272.708 445.582C272.708 466.54 268.448 484.375 259.796 498.954C248.082 518.612 230.111 528.375 205.619 528.375H136V370.34H205.619C215.602 370.599 223.988 371.642 230.644 373.854ZM168.746 397.807V500.777H199.895C215.868 500.777 226.917 493.097 233.173 477.736C236.634 469.275 238.364 459.251 238.364 447.665C238.364 431.653 235.835 419.287 230.644 410.694C225.452 402.103 215.203 397.807 199.895 397.807H168.746Z" fill="white"/>
<path d="M323.015 397.54H291.334V369.421H323.015V397.54ZM291.468 411.469H323.149V528.238H291.468V411.469Z" fill="white"/>
<path d="M407.841 411.339C415.429 414.462 421.552 420.06 426.211 428.262V411.469H456.693V522.25C456.693 537.35 454.165 548.675 448.973 556.356C440.055 569.503 423.016 576.013 397.724 576.013C382.416 576.013 370.036 573.149 360.453 567.291C350.868 561.433 345.544 552.711 344.479 540.996H378.423C379.355 544.51 380.686 547.113 382.682 548.675C386.01 551.41 391.734 552.841 399.721 552.841C410.902 552.841 418.49 549.196 422.218 541.776C424.746 537.089 425.945 529.149 425.945 517.953V510.403C423.016 515.35 419.688 519.125 416.36 521.599C410.104 526.285 402.117 528.498 392.134 528.498C376.825 528.498 364.579 523.291 355.394 512.746C346.209 502.202 341.684 488.013 341.684 469.918C341.684 452.605 346.077 438.025 354.861 426.178C363.647 414.333 376.16 408.475 392.4 408.475C398.257 408.734 403.448 409.646 407.841 411.339ZM418.49 495.043C423.549 489.705 426.077 481.114 426.077 469.267C426.077 458.202 423.681 449.741 418.89 444.013C414.097 438.285 407.708 435.291 399.721 435.291C388.806 435.291 381.351 440.368 377.092 450.392C374.962 455.728 373.763 462.368 373.763 470.179C373.763 476.948 374.962 482.936 377.225 488.273C381.485 498.166 388.938 503.114 399.854 503.114C407.308 503.114 413.432 500.51 418.49 495.043Z" fill="white"/>
<path d="M513.388 397.54H481.707V369.421H513.388V397.54ZM481.707 411.469H513.388V528.238H481.707V411.469Z" fill="white"/>
<path d="M526.824 434.377V412.637H543.463V380.093H574.345V412.637H593.78V434.377H574.345V496.082C574.345 500.898 575.011 503.892 576.209 505.063C577.407 506.235 581.268 506.886 587.657 506.886C588.588 506.886 589.654 506.886 590.719 506.886C591.784 506.886 592.848 506.756 593.78 506.756V529.537L579.004 530.058C564.228 530.578 554.245 528.106 548.787 522.507C545.326 518.992 543.596 513.655 543.596 506.365V434.377H526.824Z" fill="white"/>
<path d="M656.592 457.29C662.449 456.64 666.575 455.728 669.105 454.557C673.63 452.734 675.894 449.87 675.894 445.835C675.894 441.018 674.163 437.764 670.702 435.941C667.241 434.119 662.182 433.208 655.527 433.208C648.072 433.208 642.748 435.031 639.686 438.545C637.424 441.148 635.959 444.794 635.294 449.219H605.21C605.875 439.066 608.804 430.604 613.995 424.096C622.249 413.811 636.492 408.734 656.725 408.734C669.904 408.734 681.484 411.208 691.734 416.285C701.983 421.361 707.042 430.865 707.042 444.924V498.427C707.042 502.071 707.175 506.627 707.309 511.965C707.575 516 708.107 518.735 709.172 520.166C710.237 521.599 711.701 522.77 713.831 523.681V528.237H679.887C678.955 525.894 678.29 523.681 677.89 521.599C677.491 519.515 677.225 517.172 676.959 514.569C672.566 519.125 667.64 523.03 661.916 526.285C655.127 530.06 647.54 532.013 639.021 532.013C628.105 532.013 619.187 529.019 612.132 522.9C605.077 516.912 601.482 508.321 601.482 497.256C601.482 482.935 607.206 472.521 618.522 466.143C624.777 462.628 633.963 460.154 646.076 458.592L656.592 457.29ZM675.628 471.48C673.63 472.652 671.633 473.693 669.637 474.474C667.64 475.255 664.844 475.906 661.251 476.557L654.196 477.859C647.54 479.03 642.748 480.332 639.82 482.025C634.894 484.758 632.498 489.185 632.498 495.042C632.498 500.249 633.963 504.024 637.024 506.368C640.086 508.711 643.68 509.883 647.94 509.883C654.729 509.883 660.985 507.929 666.842 504.155C672.566 500.249 675.628 493.22 675.76 483.066V471.48H675.628Z" fill="white"/>
<path d="M761.492 528.245H730.344V370.34H761.492V528.245Z" fill="white"/>
</g>
<defs>
<clipPath id="clip0_626_35">
<rect width="728" height="413" fill="white" transform="translate(136 168)"/>
</clipPath>
</defs>
</svg>
