<svg
    width="1000"
    height="750"
    viewBox="0 0 1000 750"
    fill="none"
    xmlns="http://www.w3.org/2000/svg"
>
    <rect width="1000" height="750" fill="url(#paint0_linear)" />
    <g clip-path="url(#clip0)">
        <path
            opacity="0.1"
            d="M62.4667 273.029C60.7054 273.757 58.8977 274.693 57.9297 276.333C56.9046 278.065 57.0272 280.216 57.2181 282.22C58.8813 299.601 63.2629 318.087 55.6967 333.832C52.024 341.47 45.8811 347.591 40.9951 354.528C36.1091 361.465 32.4201 370.126 34.6886 378.286C37.4587 388.258 47.7979 393.786 54.7669 401.46C59.3285 406.477 62.5267 412.573 66.7829 417.852C71.039 423.13 76.8711 427.78 83.6657 428.09C93.4377 428.538 101.388 420.122 110.969 418.172C120.785 416.176 130.669 421.256 138.628 427.336C146.586 433.417 153.825 440.783 163.099 444.579C173.339 448.775 184.884 448.133 195.665 450.654C205.48 452.952 214.516 457.838 224.261 460.443C234.005 463.048 245.427 462.891 252.977 456.237C262.817 447.535 262.043 432.035 268.327 420.525C274.165 409.83 285.592 403.445 293.283 393.99C307.123 376.973 306.671 350.963 294.919 332.456C283.168 313.948 261.882 302.742 240.116 299.824C230.3 298.511 220.193 298.69 210.756 295.702C185.497 287.707 170.466 259.063 144.678 253.102C128.286 249.319 112.344 255.87 98.381 263.933C86.2614 270.932 75.0798 267.81 62.4667 273.029Z"
            fill="#7CA2F3"
        />
        <path
            d="M87.0804 329.181C87.0804 329.181 77.7747 337.94 67.7873 338.201C63.5933 338.284 59.5396 339.722 56.2349 342.299C54.6728 343.53 53.2271 344.902 51.916 346.397"
            stroke="#535461"
            stroke-width="2"
            stroke-miterlimit="10"
        />
        <path
            d="M45.6179 346.612C46.9594 345.932 52.0799 346.383 52.0799 346.383C52.0799 346.383 49.4242 350.775 48.0827 351.455C47.7615 351.644 47.4045 351.767 47.034 351.813C46.6634 351.86 46.2872 351.83 45.9287 351.726C45.5702 351.621 45.2369 351.445 44.9497 351.207C44.6625 350.969 44.4273 350.674 44.2589 350.342C44.0904 350.009 43.9923 349.646 43.9705 349.274C43.9487 348.902 44.0037 348.53 44.1322 348.18C44.2606 347.83 44.4597 347.511 44.7172 347.241C44.9746 346.971 45.285 346.757 45.6288 346.612H45.6179Z"
            fill="#7CA2F3"
        />
        <path
            d="M51.0082 338.848C52.5051 339.006 56.5568 342.16 56.5568 342.16C56.5568 342.16 51.9216 344.406 50.4384 344.251C49.7444 344.147 49.1176 343.779 48.6884 343.225C48.2592 342.672 48.0607 341.974 48.1341 341.278C48.2075 340.582 48.5472 339.941 49.0826 339.488C49.6179 339.036 50.3077 338.806 51.0082 338.848Z"
            fill="#7CA2F3"
        />
        <path
            d="M63.7903 332.591C65.0009 333.48 66.9041 338.244 66.9041 338.244C66.9041 338.244 61.7754 337.855 60.5648 336.969C60.0192 336.529 59.6644 335.897 59.5743 335.203C59.4843 334.509 59.6658 333.807 60.0811 333.244C60.4965 332.68 61.1138 332.297 61.8046 332.176C62.4954 332.054 63.2066 332.203 63.7903 332.591Z"
            fill="#7CA2F3"
        />
        <path
            d="M74.53 330.032C75.8742 330.704 78.5572 335.079 78.5572 335.079C78.5572 335.079 73.4367 335.56 72.0925 334.889C71.7533 334.741 71.4479 334.526 71.1947 334.257C70.9416 333.988 70.746 333.67 70.62 333.323C70.494 332.976 70.4401 332.607 70.4617 332.238C70.4832 331.87 70.5798 331.51 70.7454 331.18C70.9111 330.85 71.1424 330.557 71.4252 330.319C71.708 330.081 72.0365 329.902 72.3906 329.795C72.7447 329.688 73.117 329.653 73.4848 329.694C73.8526 329.735 74.2082 329.85 74.53 330.032Z"
            fill="#7CA2F3"
        />
        <path
            d="M59.4062 347.112C59.8534 345.679 58.5446 340.719 58.5446 340.719C58.5446 340.719 54.6511 344.069 54.2039 345.502C54.0779 345.848 54.0236 346.216 54.0443 346.583C54.065 346.951 54.1603 347.31 54.3243 347.64C54.4884 347.969 54.7178 348.262 54.9987 348.501C55.2796 348.739 55.6062 348.919 55.9586 349.028C56.311 349.137 56.682 349.173 57.049 349.135C57.416 349.097 57.7714 348.985 58.0937 348.806C58.4161 348.627 58.6986 348.384 58.9242 348.093C59.1498 347.802 59.3138 347.468 59.4062 347.112Z"
            fill="#7CA2F3"
        />
        <path
            d="M71.9291 343.949C71.9291 342.448 69.1889 338.108 69.1889 338.108C69.1889 338.108 66.4787 342.459 66.4814 343.966C66.4836 344.687 66.773 345.378 67.2858 345.886C67.7987 346.394 68.493 346.679 69.2162 346.677C69.9393 346.675 70.6319 346.386 71.1417 345.874C71.6515 345.363 71.9367 344.67 71.9345 343.949H71.9291Z"
            fill="#7CA2F3"
        />
        <path
            d="M83.678 339.229C83.9288 337.749 81.9657 333.01 81.9657 333.01C81.9657 333.01 78.5548 336.849 78.3067 338.329C78.2229 339.023 78.4103 339.722 78.83 340.282C79.2497 340.842 79.8694 341.219 80.5606 341.335C81.2517 341.451 81.9612 341.298 82.5417 340.906C83.1222 340.514 83.5291 339.914 83.678 339.231V339.229Z"
            fill="#7CA2F3"
        />
        <path
            d="M99.173 305.986C99.173 305.986 87.9642 299.846 84.6323 290.44C83.2635 286.484 80.6448 283.079 77.1697 280.735C75.5114 279.634 73.7554 278.687 71.9238 277.906"
            stroke="#535461"
            stroke-width="2"
            stroke-miterlimit="10"
        />
        <path
            d="M69.7969 271.992C70.8575 273.055 71.9999 278.056 71.9999 278.056C71.9999 278.056 66.994 276.887 65.9333 275.821C65.4649 275.302 65.2145 274.623 65.234 273.926C65.2534 273.228 65.5411 272.564 66.0377 272.072C66.5342 271.58 67.2014 271.297 67.9012 271.282C68.601 271.268 69.2797 271.522 69.7969 271.992Z"
            fill="#7CA2F3"
        />
        <path
            d="M78.8628 274.719C79.1736 276.188 77.4095 281.004 77.4095 281.004C77.4095 281.004 73.8459 277.308 73.5351 275.837C73.4428 275.481 73.4238 275.111 73.4793 274.747C73.5347 274.384 73.6633 274.036 73.8575 273.723C74.0517 273.411 74.3073 273.141 74.6089 272.93C74.9106 272.719 75.252 272.571 75.6125 272.495C75.9731 272.42 76.3453 272.417 76.7067 272.489C77.0681 272.561 77.4112 272.705 77.7152 272.912C78.0192 273.12 78.2779 273.387 78.4756 273.697C78.6733 274.007 78.806 274.354 78.8655 274.717L78.8628 274.719Z"
            fill="#7CA2F3"
        />
        <path
            d="M88.7604 284.941C88.2859 286.363 84.3242 289.635 84.3242 289.635C84.3242 289.635 83.1191 284.65 83.5935 283.225C83.8217 282.54 84.3134 281.973 84.9605 281.65C85.6075 281.326 86.357 281.272 87.044 281.5C87.731 281.727 88.2992 282.218 88.6236 282.863C88.948 283.509 89.0021 284.256 88.774 284.941H88.7604Z"
            fill="#7CA2F3"
        />
        <path
            d="M94.5075 294.336C94.2812 295.818 90.9303 299.71 90.9303 299.71C90.9303 299.71 88.8963 295 89.1226 293.518C89.1603 293.152 89.2721 292.797 89.4514 292.475C89.6307 292.153 89.8737 291.871 90.1656 291.645C90.4575 291.42 90.7923 291.256 91.1496 291.164C91.5069 291.071 91.8793 291.052 92.2443 291.107C92.6093 291.162 92.9592 291.291 93.2729 291.485C93.5865 291.679 93.8574 291.935 94.069 292.237C94.2806 292.539 94.4286 292.88 94.504 293.24C94.5793 293.601 94.5805 293.973 94.5075 294.334V294.336Z"
            fill="#7CA2F3"
        />
        <path
            d="M73.5569 285.232C75.062 285.216 79.3918 282.448 79.3918 282.448C79.3918 282.448 74.9993 279.783 73.4942 279.799C72.7711 279.807 72.0809 280.102 71.5754 280.618C71.07 281.133 70.7907 281.828 70.799 282.55C70.8073 283.271 71.1026 283.959 71.6198 284.463C72.137 284.967 72.8338 285.246 73.5569 285.238V285.232Z"
            fill="#7CA2F3"
        />
        <path
            d="M80.4168 296.147C81.8455 295.682 85.1474 291.75 85.1474 291.75C85.1474 291.75 80.1551 290.518 78.7264 290.983C78.3738 291.084 78.0451 291.254 77.7601 291.484C77.475 291.714 77.2393 291.999 77.0672 292.322C76.8951 292.645 76.79 292.999 76.7583 293.363C76.7265 293.727 76.7688 294.094 76.8826 294.442C76.9963 294.789 77.1792 295.111 77.4202 295.386C77.6613 295.662 77.9556 295.886 78.2855 296.045C78.6155 296.205 78.9743 296.296 79.3405 296.314C79.7067 296.332 80.0728 296.276 80.4168 296.15V296.147Z"
            fill="#7CA2F3"
        />
        <path
            d="M88.5421 305.844C90.0308 305.627 93.9516 302.309 93.9516 302.309C93.9516 302.309 89.2401 300.253 87.7541 300.471C87.3882 300.509 87.0336 300.62 86.7118 300.798C86.39 300.975 86.1077 301.216 85.8818 301.506C85.6558 301.796 85.491 302.128 85.3972 302.483C85.3034 302.837 85.2826 303.208 85.336 303.571C85.3894 303.934 85.5159 304.282 85.7079 304.595C85.8999 304.908 86.1535 305.179 86.4533 305.392C86.7531 305.604 87.0929 305.754 87.4524 305.833C87.8118 305.911 88.1834 305.916 88.5448 305.847L88.5421 305.844Z"
            fill="#7CA2F3"
        />
        <path
            d="M176.31 454.969C230.821 454.969 275.011 410.897 275.011 356.531C275.011 302.166 230.821 258.094 176.31 258.094C121.798 258.094 77.6084 302.166 77.6084 356.531C77.6084 410.897 121.798 454.969 176.31 454.969Z"
            fill="url(#paint1_linear)"
        />
        <path
            d="M176.31 453.337C229.918 453.337 273.375 409.996 273.375 356.531C273.375 303.067 229.918 259.725 176.31 259.725C122.702 259.725 79.2446 303.067 79.2446 356.531C79.2446 409.996 122.702 453.337 176.31 453.337Z"
            fill="white"
        />
        <path
            d="M176.31 433.487C218.925 433.487 253.472 399.033 253.472 356.531C253.472 314.03 218.925 279.576 176.31 279.576C133.695 279.576 99.1484 314.03 99.1484 356.531C99.1484 399.033 133.695 433.487 176.31 433.487Z"
            fill="#EEEEEE"
        />
        <path opacity="0.3" d="M178.491 293.172H174.128V361.154H178.491V293.172Z" fill="#535461" />
        <g opacity="0.1">
            <path opacity="0.1" d="M242.565 354.9H180.945V360.338H242.565V354.9Z" fill="black" />
            <path
                opacity="0.1"
                d="M137.44 334.553L134.911 339.37L173.683 359.62L176.212 354.802L137.44 334.553Z"
                fill="black"
            />
            <path
                opacity="0.1"
                d="M176.31 365.777C180.828 365.777 184.49 362.125 184.49 357.619C184.49 353.114 180.828 349.461 176.31 349.461C171.793 349.461 168.13 353.114 168.13 357.619C168.13 362.125 171.793 365.777 176.31 365.777Z"
                fill="black"
            />
        </g>
        <path d="M242.565 353.812H180.945V359.251H242.565V353.812Z" fill="#535461" />
        <path
            d="M176.231 353.721L137.458 333.471L134.929 338.289L173.701 358.539L176.231 353.721Z"
            fill="#535461"
        />
        <path
            d="M176.309 364.689C180.827 364.689 184.489 361.037 184.489 356.531C184.489 352.026 180.827 348.374 176.309 348.374C171.792 348.374 168.13 352.026 168.13 356.531C168.13 361.037 171.792 364.689 176.309 364.689Z"
            fill="#535461"
        />
        <g opacity="0.1">
            <path
                opacity="0.1"
                d="M105.141 365.777C105.141 323.275 139.687 288.822 182.303 288.822C194.264 288.811 206.063 291.578 216.766 296.904C227.469 302.23 236.782 309.968 243.966 319.506C230.835 295.707 205.478 279.576 176.304 279.576C133.688 279.576 99.1427 314.029 99.1427 356.531C99.1176 373.228 104.562 389.476 114.649 402.802C108.394 391.46 105.123 378.722 105.141 365.777Z"
                fill="black"
            />
        </g>
        <g opacity="0.1">
            <path
                opacity="0.1"
                d="M215.597 380.2C215.597 380.2 215.021 381.35 214.233 382.732C213.03 382.09 211.866 381.376 210.749 380.594L210.509 380.426L210.381 380.333L211.744 378.832L215.597 380.2Z"
                fill="black"
            />
        </g>
        <g opacity="0.1">
            <path
                opacity="0.1"
                d="M217.227 301.105C216.493 302.058 215.512 302.794 214.39 303.232C213.267 303.67 212.046 303.794 210.858 303.59C210.79 302.198 210.501 300.808 209.743 299.96C207.75 297.724 216.218 298.097 216.218 298.097C216.478 299.123 216.815 300.129 217.227 301.105Z"
                fill="black"
            />
        </g>
        <g opacity="0.1">
            <path
                opacity="0.1"
                d="M203.641 313.004C203.3 313.976 202.909 314.929 202.468 315.859C202.299 314.63 201.604 311.487 198.853 310.472C199.398 309.73 199.78 309.281 199.78 309.281L203.641 313.004Z"
                fill="black"
            />
        </g>
        <g opacity="0.1">
            <path
                opacity="0.1"
                d="M207.221 295.378C208.221 295.378 209.007 294.32 210.007 294.374C210.525 294.402 210.97 294.731 211.398 295.027C213.015 296.144 214.815 296.972 216.717 297.474C217.456 297.67 218.239 297.817 218.98 297.637C219.722 297.458 220.417 296.876 220.502 296.117C220.523 295.783 220.478 295.448 220.371 295.13C219.531 292.213 217.632 289.713 215.043 288.117C214.007 287.484 212.742 287 211.594 287.397C210.558 287.753 209.89 288.721 209.14 289.518C208.575 290.114 207.933 290.634 207.232 291.062C206.686 291.391 205.868 291.606 205.555 292.21C204.963 293.336 205.893 295.367 207.221 295.378Z"
                fill="black"
            />
        </g>
        <path
            opacity="0.05"
            d="M204.203 323.498C204.203 323.498 210.305 325.733 214.291 323.995L216.284 324.12C216.284 324.12 219.597 326.437 223.1 325.401"
            fill="black"
        />
        <path
            opacity="0.05"
            d="M233.096 319.772C233.096 319.772 232.1 322.133 232.597 322.878L233.096 319.772Z"
            fill="black"
        />
        <path
            opacity="0.05"
            d="M193.367 319.027C193.367 319.027 193.866 321.388 193.367 322.133V319.027Z"
            fill="black"
        />
    </g>
    <path
        d="M404.72 429.23C399.507 429.23 394.69 427.757 390.27 424.81C385.85 421.977 381.6 418.803 377.52 415.29C374.8 416.65 372.023 417.727 369.19 418.52C366.357 419.313 363.467 419.71 360.52 419.71C355.307 419.71 351.34 418.69 348.62 416.65C346.013 414.723 344.2 412.57 343.18 410.19C342.273 407.81 341.82 405.997 341.82 404.75C341.82 402.823 342.727 400.897 344.54 398.97C346.467 396.93 349.697 395.91 354.23 395.91C358.877 395.91 363.41 397.043 367.83 399.31C372.25 401.463 376.727 403.957 381.26 406.79C386.36 402.257 390.837 396.477 394.69 389.45C398.657 382.423 401.943 374.887 404.55 366.84C407.27 358.793 409.31 350.917 410.67 343.21C412.143 335.39 412.88 328.477 412.88 322.47C412.88 313.177 411.123 305.64 407.61 299.86C404.097 294.08 398.373 291.19 390.44 291.19C383.867 291.19 377.747 293.173 372.08 297.14C366.413 300.993 361.257 306.207 356.61 312.78C352.077 319.353 348.167 326.72 344.88 334.88C341.593 342.927 339.043 351.257 337.23 359.87C335.53 368.483 334.68 376.7 334.68 384.52C334.68 386.9 334.793 389.28 335.02 391.66C335.247 394.04 335.587 396.42 336.04 398.8C332.527 398.8 329.807 397.667 327.88 395.4C326.067 393.133 324.763 390.243 323.97 386.73C323.29 383.103 322.95 379.25 322.95 375.17C322.95 366.67 324.083 358.227 326.35 349.84C328.617 341.34 331.79 333.293 335.87 325.7C340.063 318.107 344.937 311.42 350.49 305.64C356.157 299.747 362.333 295.1 369.02 291.7C375.82 288.3 382.903 286.6 390.27 286.6C401.15 286.6 409.593 290.34 415.6 297.82C421.72 305.187 424.78 315.217 424.78 327.91C424.78 335.05 423.817 342.53 421.89 350.35C419.963 358.057 417.243 365.65 413.73 373.13C410.33 380.497 406.307 387.353 401.66 393.7C397.013 400.047 391.913 405.373 386.36 409.68C390.213 411.833 394.18 413.647 398.26 415.12C402.453 416.707 406.873 417.5 411.52 417.5C414.013 417.5 415.827 417.273 416.96 416.82C418.207 416.367 419.68 415.913 421.38 415.46C420.247 419.427 418.66 422.373 416.62 424.3C414.693 426.34 412.653 427.643 410.5 428.21C408.46 428.89 406.533 429.23 404.72 429.23ZM360.52 415.46C362.9 415.46 365.167 415.12 367.32 414.44C369.587 413.873 371.74 413.023 373.78 411.89C370.267 408.83 366.753 406.167 363.24 403.9C359.84 401.52 356.27 400.33 352.53 400.33C349.923 400.33 348.223 400.897 347.43 402.03C346.637 403.05 346.24 404.013 346.24 404.92C346.24 405.94 346.637 407.3 347.43 409C348.223 410.587 349.64 412.06 351.68 413.42C353.72 414.78 356.667 415.46 360.52 415.46ZM443.305 414.1C439.451 414.1 436.335 412.4 433.955 409C431.688 405.487 430.555 401.463 430.555 396.93C430.555 393.643 431.065 389.847 432.085 385.54C433.218 381.233 434.578 376.983 436.165 372.79C437.751 368.597 439.395 365.14 441.095 362.42C442.795 359.7 444.268 358.34 445.515 358.34C446.081 358.34 447.045 358.68 448.405 359.36C449.765 359.927 450.898 360.72 451.805 361.74C450.558 363.667 449.028 366.613 447.215 370.58C445.401 374.547 443.815 378.797 442.455 383.33C441.095 387.863 440.415 392.057 440.415 395.91C440.415 396.817 440.528 398.233 440.755 400.16C440.981 401.973 441.548 403.617 442.455 405.09C443.361 406.563 444.721 407.3 446.535 407.3C448.688 407.3 450.898 406.223 453.165 404.07C455.431 401.803 457.698 398.913 459.965 395.4C462.345 391.887 464.611 388.09 466.765 384.01C468.918 379.93 470.901 376.02 472.715 372.28C474.641 368.54 476.228 365.423 477.475 362.93C478.155 363.043 479.118 363.27 480.365 363.61C481.725 363.95 482.915 364.403 483.935 364.97C485.068 365.537 485.635 366.33 485.635 367.35C485.635 367.803 485.068 369.333 483.935 371.94C482.801 374.433 481.441 377.55 479.855 381.29C478.381 384.917 477.078 388.6 475.945 392.34C474.811 396.08 474.245 399.367 474.245 402.2C474.245 404.24 474.641 405.883 475.435 407.13C476.341 408.377 477.815 409 479.855 409C482.235 409 485.125 407.923 488.525 405.77C491.925 403.617 495.381 400.5 498.895 396.42C502.408 392.227 505.525 387.24 508.245 381.46L510.455 382.99C508.075 389.11 504.958 394.55 501.105 399.31C497.251 403.957 493.171 407.583 488.865 410.19C484.558 412.797 480.365 414.1 476.285 414.1C471.751 414.1 468.635 412.853 466.935 410.36C465.235 407.98 464.385 405.033 464.385 401.52C464.385 400.16 464.498 398.8 464.725 397.44C464.951 395.967 465.235 394.493 465.575 393.02C462.401 398.573 458.945 403.503 455.205 407.81C451.578 412.003 447.611 414.1 443.305 414.1ZM537.736 335.56C535.922 335.56 534.279 335.107 532.806 334.2C531.446 333.293 530.766 331.877 530.766 329.95C530.766 327.57 532.126 325.53 534.846 323.83C537.679 322.017 540.456 321.11 543.176 321.11C544.876 321.11 546.236 321.507 547.256 322.3C548.276 323.093 548.786 324.453 548.786 326.38C548.786 328.533 547.596 330.63 545.216 332.67C542.949 334.597 540.456 335.56 537.736 335.56ZM517.336 413.42C512.916 413.42 509.629 412.003 507.476 409.17C505.322 406.45 504.246 403.107 504.246 399.14C504.246 396.533 504.699 393.247 505.606 389.28C506.626 385.313 507.929 381.177 509.516 376.87C511.102 372.45 512.916 368.313 514.956 364.46C517.109 360.607 519.376 357.49 521.756 355.11C524.136 352.617 526.459 351.37 528.726 351.37C529.746 351.37 530.596 351.71 531.276 352.39C532.069 352.957 532.466 353.863 532.466 355.11C532.466 356.47 531.559 358.68 529.746 361.74C528.046 364.8 526.006 368.313 523.626 372.28C521.246 376.247 519.149 380.44 517.336 384.86C515.636 389.167 514.786 393.303 514.786 397.27C514.786 401.35 515.466 404.07 516.826 405.43C518.186 406.79 520.282 407.47 523.116 407.47C526.969 407.47 531.049 405.543 535.356 401.69C539.776 397.837 544.422 391.093 549.296 381.46L550.826 383.16C547.539 392.907 542.779 400.387 536.546 405.6C530.426 410.813 524.022 413.42 517.336 413.42ZM564.292 418.52C558.852 418.52 554.318 416.707 550.692 413.08C547.065 409.453 545.252 404.013 545.252 396.76C545.252 391.093 546.328 385.597 548.482 380.27C550.748 374.83 553.695 369.957 557.322 365.65C560.948 361.343 564.972 357.943 569.392 355.45C573.812 352.843 578.175 351.54 582.482 351.54C587.128 351.54 590.302 352.9 592.002 355.62C593.702 358.34 594.552 361.173 594.552 364.12C594.552 367.407 593.758 370.297 592.172 372.79C590.698 375.283 588.658 376.53 586.052 376.53C584.125 376.53 582.482 375.68 581.122 373.98C582.822 373.073 584.295 371.26 585.542 368.54C586.788 365.707 587.412 363.043 587.412 360.55C587.412 359.19 587.128 358.17 586.562 357.49C586.108 356.697 585.145 356.3 583.672 356.3C580.612 356.3 577.438 357.66 574.152 360.38C570.978 363.1 567.975 366.613 565.142 370.92C562.422 375.227 560.155 379.76 558.342 384.52C556.642 389.28 555.792 393.757 555.792 397.95C555.792 401.463 556.642 404.693 558.342 407.64C560.042 410.587 563.328 412.06 568.202 412.06C572.735 412.06 577.268 410.813 581.802 408.32C586.448 405.827 590.755 402.257 594.722 397.61C598.688 392.963 601.862 387.523 604.242 381.29L606.452 382.99C603.845 389.79 600.275 395.91 595.742 401.35C591.208 406.677 586.222 410.87 580.782 413.93C575.342 416.99 569.845 418.52 564.292 418.52ZM651.543 415.46C648.369 415.46 645.649 414.383 643.383 412.23C641.116 410.077 639.303 407.357 637.943 404.07C636.696 400.783 635.733 397.44 635.053 394.04C634.486 390.527 634.203 387.467 634.203 384.86C635.449 384.86 637.263 384.577 639.643 384.01C642.023 383.33 644.459 382.367 646.953 381.12C649.446 379.76 651.543 378.06 653.243 376.02C655.056 373.867 655.963 371.373 655.963 368.54C655.963 366.16 655.113 364.29 653.413 362.93C651.713 361.57 649.729 360.89 647.463 360.89C643.949 360.89 640.663 362.137 637.603 364.63C634.543 367.01 631.766 370.183 629.273 374.15C626.893 378.003 624.739 382.14 622.813 386.56C620.886 390.98 619.243 395.173 617.883 399.14C616.523 403.107 615.389 406.393 614.483 409C613.803 411.04 612.839 412.4 611.593 413.08C610.346 413.873 609.043 414.27 607.683 414.27C605.756 414.27 604.339 413.477 603.433 411.89C602.639 410.303 602.129 408.32 601.903 405.94C601.789 403.447 601.733 400.897 601.733 398.29C601.733 392.397 602.696 385.597 604.623 377.89C606.549 370.183 609.099 362.193 612.273 353.92C615.559 345.533 619.129 337.43 622.983 329.61C626.836 321.79 630.689 314.707 634.543 308.36C638.396 302.013 641.966 296.97 645.253 293.23C648.539 289.49 651.203 287.62 653.243 287.62C654.829 287.62 656.076 288.697 656.983 290.85C658.003 293.003 658.513 295.61 658.513 298.67C658.513 302.523 657.663 306.887 655.963 311.76C654.263 316.52 651.826 321.337 648.653 326.21C645.593 331.083 641.909 335.673 637.603 339.98C633.409 344.287 628.819 347.97 623.833 351.03C620.093 360.21 617.259 369.163 615.333 377.89C613.519 386.503 612.613 393.757 612.613 399.65C614.426 395.117 616.579 390.13 619.073 384.69C621.679 379.25 624.626 374.037 627.913 369.05C631.199 364.063 634.769 359.983 638.623 356.81C642.476 353.637 646.499 352.05 650.693 352.05C654.886 352.05 658.456 353.523 661.403 356.47C664.349 359.417 665.823 362.987 665.823 367.18C665.823 370.807 664.859 373.923 662.933 376.53C661.119 379.023 658.853 381.063 656.133 382.65C653.526 384.123 650.863 385.257 648.143 386.05C645.536 386.73 643.383 387.07 641.683 387.07C641.796 387.977 642.136 389.62 642.703 392C643.269 394.38 644.063 396.873 645.083 399.48C646.216 402.087 647.576 404.353 649.163 406.28C650.749 408.093 652.676 409 654.943 409C659.816 409 664.349 406.337 668.543 401.01C672.736 395.57 676.589 388.997 680.103 381.29L681.803 382.99C680.216 388.543 677.779 393.813 674.493 398.8C671.206 403.673 667.523 407.64 663.443 410.7C659.476 413.873 655.509 415.46 651.543 415.46ZM626.723 344.23C631.936 340.037 636.469 335.277 640.323 329.95C644.289 324.623 647.349 319.523 649.503 314.65C651.656 309.663 652.733 305.753 652.733 302.92C652.733 301.9 652.563 301.39 652.223 301.39C651.089 301.39 649.106 303.373 646.273 307.34C643.553 311.307 640.436 316.577 636.923 323.15C633.409 329.61 630.009 336.637 626.723 344.23ZM694.772 417.67C689.445 417.67 685.195 416.48 682.022 414.1C678.962 411.833 676.809 409 675.562 405.6C674.202 402.2 673.522 398.8 673.522 395.4C673.522 392 673.975 389.393 674.882 387.58C675.789 385.767 676.865 384.407 678.112 383.5C679.472 382.593 680.719 381.913 681.852 381.46C683.099 381.007 683.949 380.553 684.402 380.1C687.802 376.36 690.919 372.45 693.752 368.37C696.585 364.29 699.079 359.983 701.232 355.45V353.41C701.232 349.217 701.912 346.27 703.272 344.57C704.745 342.757 706.275 341.85 707.862 341.85C709.675 341.85 710.582 342.587 710.582 344.06C710.582 344.627 710.412 345.533 710.072 346.78C709.732 348.027 709.562 349.613 709.562 351.54C709.562 355.28 710.299 359.36 711.772 363.78C713.245 368.087 714.719 372.677 716.192 377.55C717.665 382.31 718.402 387.297 718.402 392.51C718.402 395.457 718.062 398.233 717.382 400.84C721.349 400.16 725.089 398.403 728.602 395.57C732.115 392.623 735.515 387.977 738.802 381.63L740.332 383.33C738.179 389.563 734.949 394.323 730.642 397.61C726.335 400.783 721.632 402.767 716.532 403.56C714.719 408.433 711.829 412.003 707.862 414.27C704.009 416.537 699.645 417.67 694.772 417.67ZM706.672 400.67C706.899 399.537 707.069 398.347 707.182 397.1C707.295 395.853 707.352 394.38 707.352 392.68C707.352 387.353 706.672 382.083 705.312 376.87C704.065 371.543 702.989 366.557 702.082 361.91C699.475 366.217 696.699 370.353 693.752 374.32C690.919 378.173 688.199 381.403 685.592 384.01C687.292 387.637 689.899 391.037 693.412 394.21C697.039 397.383 701.459 399.537 706.672 400.67ZM695.112 411.72C696.472 411.72 698.285 411.267 700.552 410.36C702.819 409.453 704.575 407.13 705.822 403.39C701.062 402.483 696.812 400.613 693.072 397.78C689.445 394.947 686.725 392.113 684.912 389.28C682.419 389.393 681.172 391.377 681.172 395.23C681.172 399.31 682.362 403.107 684.742 406.62C687.235 410.02 690.692 411.72 695.112 411.72ZM749.975 416.82C739.889 416.82 734.845 411.21 734.845 399.99C734.845 395.003 735.752 388.883 737.565 381.63C739.492 374.263 741.872 366.727 744.705 359.02C743.572 358.793 742.495 358.623 741.475 358.51C740.455 358.283 739.492 358 738.585 357.66V354.6C739.492 354.713 740.569 354.827 741.815 354.94C743.062 355.053 744.479 355.167 746.065 355.28C748.445 349.16 750.995 343.267 753.715 337.6C756.435 331.82 759.099 326.72 761.705 322.3C764.425 317.767 766.975 314.197 769.355 311.59C771.849 308.87 773.945 307.51 775.645 307.51C776.552 307.51 777.345 307.85 778.025 308.53C778.819 309.097 779.215 310.003 779.215 311.25C779.215 313.177 778.025 316.35 775.645 320.77C773.265 325.077 770.319 330.233 766.805 336.24C763.292 342.247 759.892 348.763 756.605 355.79H762.895C766.635 355.79 770.545 355.733 774.625 355.62C778.819 355.507 783.012 355.223 787.205 354.77V357.83C774.852 359.19 764.879 359.87 757.285 359.87H754.735C752.129 365.877 749.919 372.053 748.105 378.4C746.292 384.747 745.385 390.923 745.385 396.93C745.385 401.803 746.122 405.317 747.595 407.47C749.069 409.51 751.505 410.53 754.905 410.53C760.799 410.53 766.579 407.923 772.245 402.71C777.912 397.497 782.899 390.413 787.205 381.46L789.415 383.16C786.695 389.507 783.239 395.23 779.045 400.33C774.965 405.43 770.432 409.453 765.445 412.4C760.459 415.347 755.302 416.82 749.975 416.82ZM792.162 416.99C788.649 416.99 785.702 415.8 783.322 413.42C780.829 411.153 779.582 407.64 779.582 402.88C779.582 398.8 780.489 394.437 782.302 389.79C784.115 385.03 786.609 380.383 789.782 375.85C792.955 371.203 796.525 367.01 800.492 363.27C804.572 359.417 808.822 356.357 813.242 354.09C817.775 351.823 822.252 350.69 826.672 350.69C831.092 350.69 834.775 351.88 837.722 354.26C840.669 356.527 842.142 359.587 842.142 363.44C842.142 366.273 841.349 368.2 839.762 369.22C838.289 370.24 836.305 370.75 833.812 370.75C834.379 368.71 834.662 366.727 834.662 364.8C834.662 362.193 834.039 359.983 832.792 358.17C831.545 356.243 829.392 355.28 826.332 355.28C823.159 355.28 819.929 356.413 816.642 358.68C813.355 360.833 810.182 363.78 807.122 367.52C804.062 371.147 801.342 375.113 798.962 379.42C796.582 383.727 794.712 387.977 793.352 392.17C791.992 396.363 791.312 400.103 791.312 403.39C791.312 407.81 792.842 410.02 795.902 410.02C798.509 410.02 801.342 408.83 804.402 406.45C807.462 403.957 810.579 400.84 813.752 397.1C817.039 393.247 820.155 389.28 823.102 385.2C826.049 381.12 828.655 377.38 830.922 373.98C831.375 373.3 831.659 372.96 831.772 372.96C832.792 373.073 834.152 373.527 835.852 374.32C837.552 375 838.402 375.963 838.402 377.21C838.402 378.23 837.892 379.647 836.872 381.46C835.852 383.16 834.719 385.143 833.472 387.41C832.225 389.677 831.092 392 830.072 394.38C829.052 396.647 828.542 398.8 828.542 400.84C828.542 402.54 828.995 404.24 829.902 405.94C830.809 407.527 832.282 408.32 834.322 408.32C837.382 408.32 841.405 406.11 846.392 401.69C851.379 397.157 856.422 390.413 861.522 381.46L863.222 383.16C860.842 389.28 857.782 394.663 854.042 399.31C850.302 403.957 846.279 407.583 841.972 410.19C837.779 412.797 833.642 414.1 829.562 414.1C825.369 414.1 822.252 412.853 820.212 410.36C818.285 407.867 817.322 405.147 817.322 402.2C817.322 400.727 817.492 399.083 817.832 397.27C812.959 403.843 808.482 408.773 804.402 412.06C800.435 415.347 796.355 416.99 792.162 416.99ZM887.455 413.42C883.602 413.42 880.542 412.4 878.275 410.36C876.122 408.32 875.045 405.657 875.045 402.37C875.045 398.97 875.838 395.4 877.425 391.66C879.012 387.92 880.542 384.237 882.015 380.61C883.602 376.87 884.395 373.527 884.395 370.58C884.395 366.953 883.318 364.29 881.165 362.59C879.125 360.777 877.028 359.133 874.875 357.66C872.268 364.347 869.548 370.693 866.715 376.7C863.882 382.707 861.558 387.24 859.745 390.3L858.215 387.41C859.802 384.463 861.842 380.157 864.335 374.49C866.942 368.823 869.492 362.363 871.985 355.11C870.852 353.977 870.285 352.617 870.285 351.03C870.285 347.63 871.248 344.853 873.175 342.7C875.102 340.547 876.518 339.47 877.425 339.47C878.672 339.47 879.352 340.037 879.465 341.17C879.692 342.19 879.805 342.983 879.805 343.55C879.805 344.117 879.465 345.25 878.785 346.95C878.218 348.537 877.935 349.5 877.935 349.84C877.935 351.427 878.785 352.9 880.485 354.26C882.298 355.507 884.338 356.98 886.605 358.68C888.872 360.267 890.855 362.25 892.555 364.63C894.368 366.897 895.275 369.843 895.275 373.47C895.275 376.87 894.538 380.327 893.065 383.84C891.705 387.353 890.288 390.697 888.815 393.87C887.455 397.043 886.775 399.82 886.775 402.2C886.775 404.24 887.285 405.6 888.305 406.28C889.325 406.96 890.515 407.3 891.875 407.3C894.595 407.3 897.372 406.45 900.205 404.75C903.152 403.05 905.985 400.897 908.705 398.29C911.425 395.683 913.862 392.963 916.015 390.13C918.168 387.183 919.755 384.463 920.775 381.97L922.985 383.67C920.832 388.43 917.885 393.133 914.145 397.78C910.405 402.313 906.212 406.053 901.565 409C897.032 411.947 892.328 413.42 887.455 413.42ZM931.596 416.82C921.51 416.82 916.466 411.21 916.466 399.99C916.466 395.003 917.373 388.883 919.186 381.63C921.113 374.263 923.493 366.727 926.326 359.02C925.193 358.793 924.116 358.623 923.096 358.51C922.076 358.283 921.113 358 920.206 357.66V354.6C921.113 354.713 922.19 354.827 923.436 354.94C924.683 355.053 926.1 355.167 927.686 355.28C930.066 349.16 932.616 343.267 935.336 337.6C938.056 331.82 940.72 326.72 943.326 322.3C946.046 317.767 948.596 314.197 950.976 311.59C953.47 308.87 955.566 307.51 957.266 307.51C958.173 307.51 958.966 307.85 959.646 308.53C960.44 309.097 960.836 310.003 960.836 311.25C960.836 313.177 959.646 316.35 957.266 320.77C954.886 325.077 951.94 330.233 948.426 336.24C944.913 342.247 941.513 348.763 938.226 355.79H944.516C948.256 355.79 952.166 355.733 956.246 355.62C960.44 355.507 964.633 355.223 968.826 354.77V357.83C956.473 359.19 946.5 359.87 938.906 359.87H936.356C933.75 365.877 931.54 372.053 929.726 378.4C927.913 384.747 927.006 390.923 927.006 396.93C927.006 401.803 927.743 405.317 929.216 407.47C930.69 409.51 933.126 410.53 936.526 410.53C942.42 410.53 948.2 407.923 953.866 402.71C959.533 397.497 964.52 390.413 968.826 381.46L971.036 383.16C968.316 389.507 964.86 395.23 960.666 400.33C956.586 405.43 952.053 409.453 947.066 412.4C942.08 415.347 936.923 416.82 931.596 416.82Z"
        fill="#F4F4F4"
    />
    <defs>
        <linearGradient
            id="paint0_linear"
            x1="45.5"
            y1="73"
            x2="941"
            y2="678"
            gradientUnits="userSpaceOnUse"
        >
            <stop stop-color="#3E6CD0" />
            <stop offset="1" stop-color="#770095" />
        </linearGradient>
        <linearGradient
            id="paint1_linear"
            x1="176.31"
            y1="454.969"
            x2="176.31"
            y2="258.094"
            gradientUnits="userSpaceOnUse"
        >
            <stop stop-color="#808080" stop-opacity="0.25" />
            <stop offset="0.54" stop-color="#808080" stop-opacity="0.12" />
            <stop offset="1" stop-color="#808080" stop-opacity="0.1" />
        </linearGradient>
        <clipPath id="clip0">
            <rect width="283" height="210.006" fill="white" transform="translate(34 252)" />
        </clipPath>
    </defs>
</svg>
