<svg
    width="1000"
    height="750"
    viewBox="0 0 1000 750"
    fill="none"
    xmlns="http://www.w3.org/2000/svg"
>
    <rect width="1000" height="750" fill="#EEEEEE" />
    <g filter="url(#filter0_d)">
        <path
            d="M166.517 294.696L381.572 174.788C384.1 173.388 386.983 172.65 389.919 172.65C392.856 172.65 395.739 173.388 398.266 174.788L796.428 394.883C798.853 396.231 800.866 398.141 802.273 400.43C803.68 402.718 804.434 405.308 804.461 407.949C804.489 410.59 803.789 413.193 802.43 415.507C801.071 417.821 799.098 419.768 796.702 421.159L595.917 537.259C591.715 539.692 586.889 541.014 581.95 541.083C577.012 541.152 572.145 539.966 567.868 537.652L166.718 321.177C164.247 319.836 162.193 317.914 160.759 315.601C159.324 313.288 158.559 310.665 158.538 307.99C158.518 305.315 159.244 302.681 160.643 300.35C162.042 298.018 164.067 296.069 166.517 294.696Z"
            fill="#3F88C5"
            fill-opacity="0.76"
        />
        <path
            d="M327.316 200.518C326.634 201.029 325.887 201.46 325.093 201.799C325.109 201.848 325.114 201.901 325.105 201.952C325.097 202.004 325.076 202.053 325.045 202.096C325.013 202.139 324.971 202.174 324.923 202.2C324.874 202.225 324.82 202.24 324.765 202.242H323.58C322.329 202.518 321.029 202.536 319.77 202.294C318.512 202.053 317.324 201.557 316.29 200.842C314.541 200.123 312.899 199.193 311.406 198.076C307.761 195.379 304.116 191.384 299.979 188.584C299.979 189.369 300.088 190.154 300.179 190.906L301.072 198.435L302.658 211.787C302.658 212.026 302.658 212.726 302.785 212.93C309.674 221.262 328.574 218.326 328.574 218.326C328.574 218.326 339.764 191.247 327.316 200.518Z"
            fill="#3F88C5"
        />
        <path
            d="M613.923 424.95L565.007 458.414L636.759 500.449L682.959 471.253"
            fill="url(#paint0_linear)"
        />
        <path d="M329.012 299.937L306.777 315.713L332.784 332.155L358.81 311.991" fill="#0D60A5" />
        <path
            d="M250.025 274.293L210.567 297.803L264.933 327.391L310.513 298.998"
            fill="#0D60A5"
        />
        <path
            d="M344.812 284.059C344.812 284.059 342.826 294.422 346.051 295.635C349.277 296.847 362.454 306.459 360.449 310.318C355.948 319.162 329.029 299.937 329.029 299.937L332.364 278.015"
            fill="#032B43"
        />
        <path
            d="M327.809 244.431C327.809 246.429 325.986 280.9 325.986 280.9C325.986 280.9 340.949 293.825 352.085 293.005L357.552 259.541"
            fill="#032B43"
        />
        <path
            d="M301.491 272.381C301.491 272.381 321.356 274.515 333.057 263.195C339.855 256.605 352.704 245.353 352.704 245.353L305.318 242.092"
            fill="#032B43"
        />
        <path
            d="M338.124 123.619C338.124 123.619 336.429 137.653 344.393 141.683C351.902 145.473 353.378 131.541 353.378 131.541L383.796 147.863V77.1788L328.665 47.727C328.665 47.727 312.409 43.5952 309.62 55.9735L310.622 108.662L338.124 123.619Z"
            fill="#3F88C5"
            fill-opacity="0.76"
        />
        <path
            d="M434.425 175.454C434.425 175.454 433.532 163.964 447.419 166.098C461.307 168.232 456.313 188.754 456.313 188.754"
            fill="#3F88C5"
            fill-opacity="0.76"
        />
        <path
            d="M633.15 427.511C632.603 426.879 616.747 423.464 613.922 424.967C611.097 426.469 614.925 430.515 622.105 434.476C629.286 438.438 635.446 441.886 638.344 441.033C641.242 440.179 644.376 438.625 644.376 437.072V421.381"
            fill="#032B43"
        />
        <path
            d="M668.543 455.887C668.543 456.792 670.456 460.411 668.543 461.299C666.629 462.187 653.671 465.021 651.029 468.436C648.386 471.851 649.315 474.463 651.029 475.385C652.742 476.307 682.959 471.253 682.959 471.253L679.314 451.977"
            fill="#032B43"
        />
        <path
            d="M659.923 302.225C659.923 302.225 658.192 295.498 647.858 292.476C637.524 289.454 638.91 310.932 638.91 310.932"
            fill="#1D3F75"
        />
        <path
            d="M640.203 335.518C639.128 335.962 613.011 354.06 615.235 381.839C616.583 398.605 629.614 426.742 629.614 426.742C629.614 426.742 650.646 439.274 664.242 436.099"
            fill="#3F88C5"
        />
        <path
            d="M634.59 343.526C634.59 343.526 627.61 371.953 630.198 389.624C632.785 407.296 659.904 458.089 659.904 458.089C669.376 458.975 678.942 458.116 688.062 455.562C688.062 455.562 671.659 395.566 670.147 388.976C668.634 382.385 670.147 346.411 670.147 346.411"
            fill="#3F88C5"
        />
        <path
            d="M644.487 294.456C644.487 294.456 611.536 281.224 600.911 275.437C600.911 275.437 598.104 285.954 598.669 287.388C599.234 288.822 626.663 315.491 640.896 317.762"
            fill="#032B43"
        />
        <path
            d="M255.108 255.409C255.108 255.409 249.058 251.226 246.78 251.892C244.501 252.558 243.627 276.171 245.212 277.622C246.798 279.073 252.083 284.451 255.108 283.324C258.134 282.198 259.883 277.622 259.883 277.622"
            fill="#032B43"
        />
        <path
            d="M310.731 240.931L274.682 242.997L281.48 266.746L258.243 250.304C253.724 254.829 254.471 259.644 254.234 265.671C253.98 269.529 254.411 273.401 255.51 277.127C255.637 277.537 255.783 277.929 255.947 278.322C258.116 280.183 260.631 281.822 262.362 283.103C266.536 286.193 270.582 289.42 274.682 292.596C280.478 297.069 286 301.354 293.345 303.403C300.689 305.452 313.538 300.313 315.032 292.288C317.639 277.912 312.882 255.256 310.731 240.931Z"
            fill="#032B43"
        />
        <path
            d="M594.258 309.481L587.406 306.545C586.184 306.015 585.127 307.723 586.349 308.252L593.201 311.189C594.495 311.701 595.479 310.011 594.258 309.481Z"
            fill="#606060"
        />
        <path
            d="M327.518 117.831L400.673 157.903V176.957C400.673 176.957 387.515 169.291 386.33 180.098C385.109 191.213 400.673 195.635 400.673 195.635L400.163 224.967L369.345 208.748C369.345 208.748 369.946 196.011 360.232 191.981C349.971 187.764 350.81 198.811 350.81 198.811L326.953 186.125L327.518 117.831Z"
            fill="#032B43"
        />
        <path
            d="M400.672 127.785V103.096C400.672 103.096 392.562 102.635 390.558 96.267C388.553 89.8986 393.237 84.4351 400.672 86.9107V57.1003L494.367 108.116V142.639C494.367 142.639 509.895 143.919 509.457 154.59C509.02 165.261 494.367 158.193 494.367 158.193V178.459L454.436 155.973C454.436 155.973 458.081 141.29 445.014 136.475C435.555 133.06 434.425 145.37 434.425 145.37L400.672 127.785Z"
            fill="#032B43"
        />
        <path
            d="M400.162 224.95V248.751C400.162 248.751 386.038 240.214 381.464 248.221C376.889 256.229 397.666 264.663 397.666 264.663V292.459L494.367 344.755V276.068L400.162 224.95Z"
            fill="#032B43"
        />
        <path
            d="M610.588 259.729L611.426 200.177C611.426 200.177 613.249 190.82 605.23 186.518L512.646 136.407V170.93C512.646 170.93 530.307 176.052 527.409 184.588C524.511 193.125 512.646 186.466 512.646 186.466V206.75L610.588 259.729Z"
            fill="#3F88C5"
            fill-opacity="0.76"
        />
        <path
            d="M326.953 186.125L350.736 198.845C350.736 198.845 349.934 186.705 360.159 192.015C370.383 197.325 369.271 208.782 369.271 208.782L402.86 226.521V295.72L333.076 257.646C329.731 255.146 327.518 251.554 326.88 247.59C326.114 241.136 326.953 186.125 326.953 186.125Z"
            fill="#3F88C5"
            fill-opacity="0.76"
        />
        <path
            d="M400.162 224.95L435.373 244.038C435.373 244.038 429.268 257.373 440.33 262.512C451.393 267.651 452.031 253.497 452.031 253.497L494.367 276.068V250.458C494.367 250.458 480.206 249.519 477.6 240.214C474.994 230.909 489.228 231.558 494.367 234.665V208.542L463.713 191.247L400.673 157.851V176.956C400.673 176.956 388.061 168.795 385.254 178.015C382.448 187.235 389.665 193.859 400.673 195.635L400.162 224.967"
            fill="#3F88C5"
            fill-opacity="0.76"
        />
        <path
            d="M494.367 287.627V316.55C494.367 316.55 479.623 309.515 476.962 316.857C474.301 324.199 494.367 333.179 494.367 333.179V356.348L569.982 397.325C569.982 397.325 587.314 406.442 590.777 388.6L591.178 339.087L552.031 318.155C552.031 318.155 554.71 300.501 542.535 295.379C530.361 290.257 531.6 307.245 531.6 307.245L494.367 287.627Z"
            fill="#3F88C5"
            fill-opacity="0.76"
        />
        <path
            d="M494.367 208.542L537.397 231.541C537.397 231.541 535.829 218.667 549.024 222.287C562.219 225.906 559.011 243.612 559.011 243.612L592.309 261.505L591.197 327.374L552.05 306.442C552.05 306.442 553.872 287.456 542.554 283.666C531.237 279.876 531.619 295.532 531.619 295.532L494.349 276.068V250.458C484.89 250.304 474.302 244.072 477.582 236.287C480.863 228.501 494.349 234.58 494.349 234.58V208.542"
            fill="#032B43"
        />
        <path
            d="M439.692 211.889C438.89 219.043 437.396 226.128 436.43 233.265C441.186 235.092 451.101 240.231 451.101 240.231L449.278 215.389L439.692 211.889Z"
            fill="#032B43"
        />
        <path
            d="M446.502 217.953C451.352 217.224 454.432 211.66 453.382 205.524C452.332 199.388 447.549 195.005 442.699 195.734C437.849 196.462 434.768 202.027 435.819 208.163C436.869 214.298 441.652 218.681 446.502 217.953Z"
            fill="#032B43"
        />
        <path
            d="M668.817 344.909C664.965 333.595 661.527 322.167 658.501 310.625C658.173 309.396 656.15 309.925 656.478 311.155C659.491 322.696 662.93 334.124 666.794 345.438C667.195 346.616 669.218 346.087 668.817 344.909Z"
            fill="#606060"
        />
        <path
            d="M278.274 183.547C276.889 181.276 272.587 178.305 270.072 180.918C269.594 181.483 269.37 182.201 269.448 182.918C269.526 183.636 269.901 184.296 270.492 184.759C272.004 185.754 273.735 186.419 275.558 186.705C275.758 186.762 275.97 186.773 276.176 186.739C276.382 186.704 276.576 186.624 276.743 186.506C276.91 186.388 277.045 186.235 277.136 186.059C277.228 185.883 277.274 185.689 277.271 185.493C277.495 185.46 277.707 185.377 277.889 185.25C278.071 185.123 278.218 184.957 278.316 184.766C278.415 184.575 278.463 184.364 278.455 184.152C278.448 183.939 278.385 183.732 278.274 183.547Z"
            fill="#FBB5AD"
        />
        <path
            d="M309.037 226.453L272.076 217.916C272.076 217.916 273.224 232.941 274.664 242.963C281.28 245.746 289.335 245.694 296.352 244.67C301.328 244.131 306.178 242.84 310.713 240.846C312.188 240.129 313.601 239.307 314.941 238.387C314.376 234.836 309.492 230.123 309.037 226.453Z"
            fill="#3F88C5"
        />
        <path
            d="M317.475 233.743C317.475 236.458 316.71 243.151 316.546 245.865C300.981 241.973 267.338 231.421 265.005 209.687C264.664 206.733 265.038 203.745 266.099 200.945C268.324 198.092 270.934 195.521 273.863 193.296C277.836 189.881 282.756 186.347 288.224 185.442C294.949 184.315 300.252 188.413 305.082 192.681C306.905 196.625 301.656 200.484 302.348 204.496L311.752 230.96L317.493 233.726"
            fill="#3F88C5"
        />
        <path
            d="M288.316 176.205C288.316 176.205 292.398 193.979 286.147 196.233C279.896 198.486 273.517 194.389 272.405 191.111C271.743 188.309 271.595 185.422 271.968 182.574C271.968 182.574 276.706 176.257 288.316 176.205Z"
            fill="#FBB5AD"
        />
        <path
            d="M289.062 173.03C289.263 168.71 282.829 165.978 279.859 169.615C279.117 169.012 278.242 168.569 277.297 168.318C276.353 168.067 275.36 168.015 274.391 168.164C271.657 168.608 270.746 170.417 270.928 172.825C270.143 172.815 269.365 172.978 268.659 173.301C267.953 173.625 267.338 174.099 266.864 174.686C266.333 175.393 266.048 176.237 266.048 177.102C266.048 177.966 266.333 178.81 266.864 179.518C265.9 179.881 265.095 180.539 264.582 181.386C264.069 182.232 263.878 183.217 264.039 184.179C264.125 185.079 264.457 185.944 265.005 186.688C264.88 186.963 264.789 187.249 264.732 187.542C264.603 188.347 264.73 189.169 265.096 189.907C265.462 190.644 266.052 191.265 266.791 191.691C267.646 192.233 268.657 192.519 269.689 192.511C270.032 193.132 270.557 193.648 271.203 193.999C271.849 194.35 272.588 194.521 273.334 194.491C274.264 194.464 275.15 194.116 275.823 193.514C276.496 192.913 276.908 192.099 276.979 191.23C277.022 190.744 276.954 190.255 276.778 189.796C277.644 188.005 277.805 185.985 277.234 184.093C277.511 184.007 277.775 183.887 278.018 183.735C278.766 183.248 279.292 182.518 279.494 181.686C280.363 181.983 281.299 182.059 282.21 181.908C282.631 181.819 283.02 181.629 283.34 181.356C283.659 181.084 283.898 180.739 284.032 180.354C285.222 180.647 286.478 180.599 287.638 180.215C288.798 179.832 289.809 179.131 290.538 178.203C291.007 177.32 291.116 176.307 290.844 175.355C290.573 174.402 289.939 173.575 289.062 173.03Z"
            fill="#D86212"
        />
        <path
            d="M278.345 188.396C278.237 187.828 278.006 187.288 277.668 186.806C277.33 186.325 276.89 185.913 276.377 185.596C276.134 185.401 275.853 185.254 275.549 185.163C275.245 185.073 274.925 185.04 274.607 185.067C274.29 185.094 273.981 185.18 273.699 185.321C273.418 185.462 273.17 185.654 272.969 185.886C272.66 186.334 272.508 186.861 272.534 187.393C272.56 187.926 272.763 188.437 273.114 188.857C273.953 189.881 275.32 189.898 276.504 190.342C277.215 190.615 277.634 189.949 277.488 189.386C277.617 189.38 277.742 189.349 277.857 189.295C277.972 189.241 278.073 189.164 278.154 189.071C278.235 188.977 278.293 188.869 278.326 188.752C278.359 188.636 278.366 188.515 278.345 188.396Z"
            fill="#FBB5AD"
        />
        <path
            d="M287.113 183.94C287.113 183.53 286.347 183.7 286.438 184.11L287.022 186.893C287.152 187.312 287.244 187.74 287.295 188.174C287.295 188.942 286.894 189.079 286.274 189.437C286.195 189.48 286.136 189.551 286.113 189.634C286.089 189.718 286.101 189.806 286.147 189.881C286.193 189.956 286.269 190.01 286.357 190.033C286.446 190.055 286.541 190.044 286.621 190.001C287.423 189.54 288.097 189.318 288.042 188.293C287.827 186.826 287.517 185.372 287.113 183.94Z"
            fill="#56403D"
        />
        <path
            d="M288.713 183.188C288.622 183.188 288.534 183.222 288.47 183.283C288.405 183.343 288.369 183.425 288.369 183.511C288.369 183.596 288.405 183.678 288.47 183.739C288.534 183.799 288.622 183.833 288.713 183.833C288.805 183.833 288.892 183.799 288.957 183.739C289.021 183.678 289.057 183.596 289.057 183.511C289.057 183.425 289.021 183.343 288.957 183.283C288.892 183.222 288.805 183.188 288.713 183.188Z"
            fill="#56403D"
        />
        <path
            d="M281.97 185.323C281.879 185.323 281.791 185.356 281.727 185.417C281.662 185.477 281.626 185.559 281.626 185.645C281.626 185.73 281.662 185.812 281.727 185.873C281.791 185.933 281.879 185.967 281.97 185.967C282.061 185.967 282.149 185.933 282.213 185.873C282.278 185.812 282.314 185.73 282.314 185.645C282.314 185.559 282.278 185.477 282.213 185.417C282.149 185.356 282.061 185.323 281.97 185.323Z"
            fill="#56403D"
        />
        <path
            d="M285.544 191.247C285.009 191.46 284.409 191.484 283.856 191.314C283.303 191.145 282.835 190.793 282.537 190.325C282.491 190.25 282.416 190.196 282.327 190.173C282.238 190.151 282.143 190.163 282.063 190.206C281.984 190.249 281.926 190.32 281.902 190.403C281.878 190.486 281.89 190.575 281.936 190.649C282.329 191.268 282.952 191.728 283.685 191.942C284.419 192.157 285.21 192.11 285.909 191.81C286.31 191.674 285.964 191.11 285.544 191.247Z"
            fill="#56403D"
        />
        <path
            d="M328.41 229.884C327.602 229.898 326.814 230.125 326.137 230.538C325.46 230.952 324.922 231.536 324.583 232.223C324.018 233.128 323.653 234.102 323.015 234.972C321.977 236.372 321.193 235.826 319.662 235.177C318.131 234.528 316.618 236.714 318.259 237.431C319.521 238.175 320.949 238.637 322.432 238.78C322.893 238.685 323.328 238.503 323.71 238.245C324.093 237.986 324.415 237.657 324.656 237.277C324.715 237.49 324.835 237.684 325.003 237.838C325.171 237.992 325.38 238.1 325.609 238.151C325.837 238.202 326.076 238.193 326.3 238.127C326.524 238.06 326.724 237.938 326.879 237.772C328.386 236.429 329.578 234.807 330.378 233.009C330.511 232.683 330.563 232.334 330.531 231.987C330.5 231.639 330.385 231.303 330.196 231.003C330.007 230.703 329.748 230.447 329.439 230.253C329.13 230.059 328.778 229.933 328.41 229.884Z"
            fill="#FBB5AD"
        />
        <path
            d="M336.921 240.385C330.469 238.359 323.987 236.344 317.475 234.341C317.074 237.414 316.873 240.487 316.618 243.56C319.378 246.7 322.585 249.469 326.15 251.79C326.386 251.913 326.652 251.978 326.922 251.977C327.192 251.976 327.457 251.91 327.692 251.784C327.927 251.659 328.123 251.479 328.262 251.261C328.4 251.044 328.476 250.797 328.483 250.543C328.428 249.949 328.255 249.37 327.972 248.836C329.29 249.659 330.702 250.341 332.182 250.868C332.509 250.94 332.852 250.912 333.16 250.788C333.469 250.665 333.727 250.451 333.896 250.18C334.065 249.908 334.137 249.593 334.101 249.281C334.065 248.968 333.923 248.674 333.695 248.443L332.401 247.453C333.484 247.628 334.586 247.674 335.682 247.59C337.322 247.453 337.905 245.131 336.101 244.738C335.372 244.585 334.661 244.397 333.95 244.175C335.279 244.016 336.537 243.527 337.595 242.758C338.579 242.075 337.905 240.76 336.921 240.385Z"
            fill="#FBB5AD"
        />
        <path
            d="M329.959 191.776C328.812 192.153 327.761 192.75 326.874 193.528C325.986 194.305 325.281 195.248 324.803 196.294C324.324 197.341 324.084 198.47 324.096 199.608C324.108 200.747 324.373 201.871 324.874 202.908C324.962 203.125 325.124 203.308 325.335 203.429C325.546 203.549 325.795 203.601 326.04 203.574C326.093 202.462 326.396 201.373 326.93 200.378C327.464 199.383 328.217 198.506 329.139 197.803C330.524 196.728 332.255 195.737 332.784 194.389C333.64 192.408 331.964 191.145 329.959 191.776Z"
            fill="#FBB5AD"
        />
        <path
            d="M604.573 306.271C600.569 304.388 596.884 301.96 593.638 299.066C593.839 295.652 594.057 288.122 589.993 288.822C588.025 289.198 588.171 291.315 588.171 292.783C588.169 294.078 588.242 295.372 588.389 296.659C583.76 298.366 576.379 295.959 573.809 300.33C573.686 300.53 573.621 300.756 573.621 300.987C573.621 301.218 573.686 301.445 573.809 301.645C573.938 301.822 574.091 301.983 574.265 302.123C573.552 302.454 572.929 302.933 572.442 303.523C572.282 303.661 572.157 303.832 572.077 304.023C571.998 304.214 571.966 304.419 571.983 304.623C572.001 304.827 572.068 305.024 572.179 305.201C572.29 305.377 572.442 305.527 572.625 305.64C572.899 305.831 573.199 305.986 573.518 306.101C573.502 306.22 573.502 306.34 573.518 306.459C573.518 307.945 574.757 308.593 576.671 308.764C576.987 309.537 577.592 310.176 578.373 310.562C579.154 310.948 580.058 311.056 580.917 310.864C583.579 310.626 586.214 310.169 588.79 309.498C591.58 310.578 594.3 311.809 596.937 313.186C597.219 313.325 597.544 313.371 597.857 313.316C598.171 313.262 598.456 313.11 598.666 312.885C598.876 312.661 599 312.376 599.017 312.078C599.034 311.779 598.943 311.484 598.759 311.24C599.06 311.069 599.279 310.797 599.371 310.479C599.462 310.161 599.42 309.822 599.251 309.533C599.45 309.287 599.557 308.987 599.557 308.679C599.557 308.371 599.45 308.071 599.251 307.825C599.484 307.811 599.709 307.742 599.906 307.626C600.104 307.51 600.267 307.349 600.381 307.159C601.256 307.637 602.204 308.098 603.061 308.525C604.755 309.276 606.177 307.023 604.573 306.271Z"
            fill="#FBB5AD"
        />
        <path
            d="M585.383 300.518C581.728 301.316 577.981 301.677 574.229 301.593C574.137 301.593 574.049 301.627 573.984 301.688C573.919 301.749 573.883 301.832 573.883 301.918C573.883 302.004 573.919 302.086 573.984 302.147C574.049 302.208 574.137 302.242 574.229 302.242C578.042 302.327 581.851 301.96 585.565 301.149C586.002 301.132 585.802 300.518 585.383 300.518Z"
            fill="#56403D"
        />
        <path
            d="M583.706 305.093C580.458 305.835 577.11 306.117 573.773 305.93C573.318 305.93 573.318 306.562 573.773 306.579C577.178 306.77 580.593 306.482 583.906 305.725C584.344 305.64 584.143 304.991 583.706 305.093Z"
            fill="#56403D"
        />
        <path
            d="M583.049 307.723C581.028 308.268 578.938 308.556 576.835 308.576C576.743 308.576 576.655 308.611 576.59 308.671C576.525 308.732 576.488 308.815 576.488 308.901C576.488 308.987 576.525 309.069 576.59 309.13C576.655 309.191 576.743 309.225 576.835 309.225C579 309.201 581.152 308.902 583.232 308.337C583.304 308.304 583.362 308.248 583.395 308.179C583.429 308.11 583.435 308.032 583.413 307.959C583.392 307.886 583.343 307.822 583.277 307.779C583.21 307.736 583.13 307.716 583.049 307.723Z"
            fill="#56403D"
        />
        <path
            d="M631.911 327.391C631.565 330.396 632.877 337.362 634.59 343.526C640.586 346.586 647.317 348.161 654.146 348.101C659.542 348.326 664.943 347.75 670.147 346.394C669.327 331.506 663.203 297.7 655.567 298.383C645.926 299.254 636.413 309.942 636.413 309.942C618.516 312.401 595.096 296.283 595.096 296.283L590.176 310.437C601.33 320.786 616.224 326.836 631.911 327.391Z"
            fill="#032B43"
        />
        <path
            d="M600.947 277.025C597.302 272.893 594.914 269.785 589.829 267.241C588.317 266.49 586.02 268.146 587.242 269.666C588.783 271.37 590.485 272.942 592.326 274.361V274.481C592.326 274.481 592.326 274.634 592.326 274.703V274.805C591.462 277.258 591.605 279.924 592.727 282.283C594.254 284.408 596.296 286.163 598.687 287.405C599.471 283.956 600.309 280.507 600.947 277.025Z"
            fill="#FBB5AD"
        />
        <path
            d="M728.594 402.31L692.454 422.388C692.454 422.388 693.602 435.842 721.25 446.718L762.839 422.474"
            fill="url(#paint1_linear)"
        />
        <path
            d="M748.076 427.442C760.145 427.442 769.928 418.919 769.928 408.405C769.928 397.891 760.145 389.368 748.076 389.368C736.008 389.368 726.225 397.891 726.225 408.405C726.225 418.919 736.008 427.442 748.076 427.442Z"
            fill="#0D60A5"
        />
        <path
            d="M748.058 405.452C757.097 405.452 764.424 401.736 764.424 397.154C764.424 392.571 757.097 388.856 748.058 388.856C739.02 388.856 731.692 392.571 731.692 397.154C731.692 401.736 739.02 405.452 748.058 405.452Z"
            fill="#0D60A5"
        />
        <path
            d="M747.221 330.294V395.344C747.26 395.665 747.424 395.961 747.681 396.175C747.938 396.39 748.27 396.509 748.615 396.509C748.96 396.509 749.292 396.39 749.549 396.175C749.806 395.961 749.97 395.665 750.009 395.344V330.294C749.97 329.973 749.806 329.677 749.549 329.462C749.292 329.248 748.96 329.129 748.615 329.129C748.27 329.129 747.938 329.248 747.681 329.462C747.424 329.677 747.26 329.973 747.221 330.294Z"
            fill="#136F63"
        />
        <path
            d="M753.8 327.835C754.227 327.078 754.485 326.246 754.557 325.392C754.63 324.537 754.514 323.678 754.219 322.867C753.581 321.16 752.651 319.35 751.904 317.591C751.157 315.833 750.483 314.296 749.662 312.691C748.842 313.084 742.974 321.347 742.737 324.83C742.5 328.313 747.366 331.216 747.366 331.216L748.842 332.087C749.116 332.24 751.649 330.277 751.941 330.038C752.705 329.422 753.336 328.674 753.8 327.835Z"
            fill="#136F63"
        />
        <path
            d="M749.407 346.821C755.604 346.258 759.868 341.375 762.784 336.304C756.242 336.628 750.209 340.504 749.407 346.821Z"
            fill="#136F63"
        />
        <path
            d="M748.952 346.616C747.13 341.067 741.079 338.079 735.192 336.543C736.887 342.484 742.118 347.214 748.952 346.616Z"
            fill="#136F63"
        />
        <path
            d="M748.605 362.802C756.479 362.085 761.928 355.87 765.646 349.416C757.28 349.826 749.59 354.76 748.605 362.802Z"
            fill="#136F63"
        />
        <path
            d="M748.005 362.512C745.617 355.443 737.999 351.755 730.49 349.689C732.641 357.27 739.402 363.297 748.005 362.512Z"
            fill="#136F63"
        />
        <path
            d="M749.207 381.532C758.192 380.712 764.388 373.627 768.617 366.285C759.103 366.746 750.337 372.363 749.207 381.532Z"
            fill="#136F63"
        />
        <path
            d="M748.514 381.224C745.799 373.166 737.105 368.965 728.467 366.609C731.018 375.231 738.709 382.095 748.514 381.224Z"
            fill="#136F63"
        />
        <path
            d="M388.37 392.561C385.253 395.259 378.875 385.732 375.011 386.978C369.035 388.949 362.786 390.1 356.458 390.393C350.589 390.683 344.593 390.119 339.6 386.978C337.327 385.406 335.5 383.338 334.275 380.953C333.051 378.569 332.467 375.94 332.575 373.296C332.683 370.652 333.479 368.072 334.894 365.782C336.309 363.492 338.3 361.56 340.693 360.155L333.877 356.86L310.567 372.056C310.567 372.056 312.499 404.017 375.521 399.544L448.695 438.677L467.43 425.41L388.37 392.561Z"
            fill="#0D60A5"
        />
        <path
            d="M359.921 393.927C339.727 393.927 323.908 384.332 323.908 372.073C323.908 359.814 339.727 350.219 359.921 350.219C380.114 350.219 395.933 359.814 395.933 372.073C395.933 384.332 380.114 393.927 359.921 393.927ZM359.921 359.865C344.776 359.865 334.205 366.302 334.205 372.056C334.205 377.809 344.812 384.178 359.921 384.178C375.029 384.178 385.636 377.741 385.636 371.987C385.636 366.234 375.084 359.865 359.921 359.865Z"
            fill="#032B43"
        />
        <path
            d="M384.743 381.19C385.928 380.183 435.409 407.961 435.409 407.961L467.43 425.393L460.468 430.515C459.603 431.155 458.552 431.534 457.453 431.604C456.354 431.674 455.258 431.432 454.308 430.908L377.253 389.095L384.743 381.19Z"
            fill="#032B43"
        />
        <path
            d="M466.61 413.408L453.634 421.484L460.468 430.43L474.41 422.166C474.483 417.915 471.111 413.664 466.61 413.408Z"
            fill="#032B43"
        />
        <path
            d="M451.155 404.222C450.252 403.497 449.197 402.955 448.058 402.632C446.919 402.308 445.721 402.21 444.54 402.344L432.165 410.044L438.999 418.991L454.272 409.942C454.042 407.735 452.928 405.691 451.155 404.222Z"
            fill="#032B43"
        />
        <path
            d="M647.347 431.13C638.789 408.008 634.751 383.63 635.428 359.165C635.428 359.057 635.382 358.952 635.3 358.876C635.218 358.799 635.106 358.755 634.99 358.755C634.874 358.755 634.763 358.799 634.681 358.876C634.599 358.952 634.553 359.057 634.553 359.165C633.877 383.699 637.927 408.147 646.509 431.335C646.709 431.83 647.547 431.625 647.347 431.13Z"
            fill="white"
        />
        <path
            d="M639.693 309.464C633.117 310.168 626.456 309.521 620.174 307.569C619.645 307.398 619.408 308.184 619.937 308.354C626.295 310.331 633.036 310.99 639.693 310.284C640.239 310.233 640.258 309.413 639.693 309.464Z"
            fill="#204472"
        />
        <path
            d="M631.911 327.391H636.832L634.59 343.526C634.59 343.526 632.185 331.745 631.911 327.391Z"
            fill="#204472"
        />
        <path
            d="M648.733 291.264C645.653 292.8 641.826 290.308 639.275 288.771C636.176 286.91 633.06 283.649 634.828 279.978C635.101 279.432 634.153 279.107 633.88 279.654C632.057 283.478 634.919 287.149 638.199 289.232C641.115 291.093 645.489 293.893 649.134 292.1C649.736 291.844 649.317 290.991 648.733 291.264Z"
            fill="#009245"
        />
        <path
            d="M633.916 276.99C633.916 276.99 626.407 296.181 633.442 300.005C641.169 304.205 649.17 297.103 649.17 297.103C649.17 297.103 656.861 280.507 649.17 276.205C641.479 271.902 635.119 274.617 633.916 276.99Z"
            fill="#FBB5AD"
        />
        <path
            d="M635.191 291.981C634.997 291.924 634.817 291.831 634.663 291.708C635.524 289.956 636.479 288.247 637.524 286.586C637.561 286.525 637.585 286.458 637.595 286.389C637.604 286.32 637.599 286.25 637.58 286.182C637.56 286.115 637.527 286.052 637.481 285.996C637.436 285.941 637.379 285.895 637.314 285.86C637.25 285.825 637.179 285.803 637.105 285.794C637.031 285.785 636.956 285.79 636.884 285.808C636.812 285.826 636.744 285.857 636.685 285.9C636.626 285.943 636.577 285.996 636.54 286.056C635.423 287.814 634.407 289.626 633.496 291.486C633.425 291.581 633.387 291.694 633.387 291.81C633.387 291.926 633.425 292.04 633.496 292.135C633.841 292.524 634.296 292.814 634.809 292.971C635.592 293.33 635.884 292.288 635.191 291.981Z"
            fill="#56403D"
        />
        <path
            d="M659.522 286.739C660.415 282.71 658.447 279.91 655.659 276.734C655.44 276.484 655.203 276.233 654.948 275.983C655.832 275.693 656.636 275.22 657.299 274.6C657.375 274.539 657.433 274.46 657.467 274.372C657.501 274.283 657.511 274.188 657.494 274.096C657.478 274.003 657.436 273.916 657.373 273.843C657.31 273.77 657.228 273.713 657.135 273.678C656.666 273.542 656.172 273.496 655.684 273.543C655.195 273.59 654.722 273.729 654.292 273.951C654.184 273.018 653.9 272.111 653.454 271.271C653.409 271.188 653.343 271.117 653.261 271.065C653.179 271.013 653.085 270.981 652.987 270.973C652.888 270.964 652.789 270.979 652.699 271.016C652.608 271.054 652.529 271.112 652.469 271.185C652.165 271.501 651.939 271.876 651.807 272.283C651.674 272.691 651.639 273.12 651.704 273.541C648.3 271.548 644.24 270.778 640.277 271.373C638.817 271.642 637.444 272.226 636.267 273.08C635.307 272.64 634.233 272.463 633.169 272.568C632.033 272.658 630.961 273.094 630.115 273.809C629.269 274.525 628.696 275.48 628.485 276.529C628.425 277.666 628.844 278.779 629.652 279.628C630.46 280.478 631.592 280.996 632.804 281.071C634.028 281.26 635.282 281.155 636.45 280.763C635.374 281.583 634.518 282.812 636.45 284.007C639.894 286.108 642.5 284.622 642.045 286.449C641.68 287.951 643.484 289.471 644.997 290.017C644.997 290.273 644.997 290.956 645.106 291.861C645.959 291.886 646.789 292.122 647.512 292.544C647.597 292.499 647.693 292.474 647.791 292.471C647.889 292.468 647.986 292.487 648.074 292.528C648.162 292.568 648.239 292.628 648.296 292.702C648.354 292.777 648.391 292.863 648.405 292.954C648.649 295.447 647.881 297.934 646.255 299.92C648.952 298.991 651.429 297.576 653.545 295.754C656.44 293.365 658.519 290.229 659.522 286.739ZM652.816 272.79C652.816 272.876 652.816 272.978 652.816 273.063C652.806 273.12 652.806 273.178 652.816 273.234C652.816 273.422 652.816 273.593 652.816 273.78C652.725 273.456 652.725 273.115 652.816 272.79Z"
            fill="black"
        />
        <path
            d="M638.49 293.688C637.923 294.246 637.147 294.578 636.325 294.613C635.503 294.648 634.698 294.384 634.079 293.876C633.697 293.586 633.259 294.166 633.642 294.457C634.399 295.056 635.369 295.366 636.358 295.325C637.348 295.284 638.285 294.894 638.982 294.235C639.328 293.91 638.836 293.364 638.49 293.688Z"
            fill="#56403D"
        />
        <path
            d="M638.618 290.632C638.475 290.582 638.318 290.588 638.179 290.647C638.041 290.706 637.933 290.814 637.88 290.948C637.827 291.082 637.832 291.229 637.896 291.359C637.959 291.489 638.074 291.59 638.217 291.639C638.36 291.689 638.517 291.684 638.656 291.625C638.794 291.565 638.902 291.457 638.955 291.324C639.008 291.19 639.003 291.042 638.939 290.912C638.876 290.783 638.761 290.682 638.618 290.632Z"
            fill="#56403D"
        />
        <path
            d="M632.513 287.03C632.37 286.98 632.212 286.985 632.074 287.044C631.935 287.104 631.828 287.212 631.774 287.345C631.721 287.479 631.727 287.627 631.79 287.757C631.853 287.886 631.969 287.987 632.112 288.037C632.254 288.087 632.412 288.081 632.551 288.022C632.689 287.963 632.797 287.855 632.85 287.721C632.903 287.587 632.897 287.44 632.834 287.31C632.771 287.18 632.655 287.079 632.513 287.03Z"
            fill="#56403D"
        />
        <path
            d="M644.176 293.108C644.176 293.108 649.042 286.415 650.3 289.608C651.557 292.8 643.721 296.113 643.721 296.113"
            fill="#FBB5AD"
        />
        <path
            d="M313.612 250.185C313.411 249.16 311.789 249.587 311.935 250.612C313.492 258.283 314.599 266.029 315.252 273.815C315.252 274.856 317.075 274.856 317.075 273.815C316.382 265.885 315.226 257.996 313.612 250.185Z"
            fill="#3F88C5"
            fill-opacity="0.6"
        />
        <path
            d="M288.57 289.488C286.039 282.414 284 275.194 282.464 267.873C282.246 266.849 280.642 267.275 280.788 268.3C282.323 275.621 284.363 282.841 286.893 289.915C287.258 290.905 288.934 290.478 288.57 289.488Z"
            fill="#3F88C5"
            fill-opacity="0.6"
        />
        <path
            d="M304.572 242.809C292.144 239.328 280.933 232.803 272.095 223.909C271.53 223.328 270.6 224.199 271.183 224.762C280.181 233.801 291.586 240.43 304.225 243.97C304.377 243.981 304.527 243.942 304.651 243.86C304.776 243.779 304.866 243.659 304.907 243.523C304.947 243.386 304.936 243.24 304.875 243.11C304.814 242.98 304.707 242.873 304.572 242.809Z"
            fill="#095349"
        />
        <path
            d="M318.241 233.026C309.616 229.745 301.466 225.46 293.983 220.272C293.309 219.811 292.653 220.87 293.327 221.331C300.909 226.559 309.163 230.873 317.894 234.17C318.66 234.494 319.006 233.333 318.241 233.026Z"
            fill="#095349"
        />
        <path
            d="M310.185 222.236L304.17 205.162C303.915 204.428 302.658 204.735 302.913 205.486L308.927 222.56C309.128 223.311 310.385 222.987 310.185 222.236Z"
            fill="#095349"
        />
        <path
            d="M579.804 423.607C580.992 421.68 534.765 394.594 476.554 363.109C418.342 331.624 370.19 307.663 369.002 309.59C367.814 311.517 414.041 338.603 472.252 370.088C530.464 401.573 578.616 425.534 579.804 423.607Z"
            fill="#0D60A5"
        />
    </g>
    <g clip-path="url(#clip0)">
        <path
            fill-rule="evenodd"
            clip-rule="evenodd"
            d="M881.613 83.3335C874.775 78.3239 868.195 60.5333 857.905 58.056C855.862 57.5648 853.175 57.5412 851.259 58.4178C848.56 59.6526 845.792 62.4592 844.639 65.1535C843.233 68.4379 843.609 71.5698 845.307 74.6231C848.622 80.5861 857.676 91.0851 859.946 94.122C863.999 99.5451 872.037 112.705 879.981 112.705C889.134 112.705 910.332 87.2382 918.6 81.7016C918.6 99.8324 918.6 117.963 918.6 136.094C918.6 145.16 918.601 154.225 918.6 163.29C918.285 172.441 921.189 178.436 930.566 179.064C936.001 179.064 942.303 175.085 941.989 168.186V56.1373C941.989 51.1194 935.129 44.1708 929.478 44.1708H928.391C922.475 44.1708 908.212 58.803 904.038 62.7878C898.445 68.1263 887.352 79.4905 881.613 83.3335Z"
            fill="#3F88C5"
        />
        <path
            fill-rule="evenodd"
            clip-rule="evenodd"
            d="M765.213 139.358L764.646 118.689H795.129V97.4757H764.669V67.016H744V143.709C744 163.876 762.128 175.801 780.443 175.801H821.238C831.493 175.801 829.396 160.188 829.396 149.693C829.396 138.27 829.396 126.848 829.396 115.426C831.25 116.667 845.373 134.86 847.987 138.173C852.098 143.381 863.159 159.766 869.103 158.396C874.549 158.396 888.162 142.987 892.348 139.214C895.649 136.238 907.81 126.486 911.529 120.483C913.81 116.802 912.369 112.221 909.214 109.467C907.991 108.399 906.969 107.712 905.83 107.361C903.539 106.654 901.027 107.143 899.051 108.406C891.638 113.143 875.071 131.195 870.191 134.463C864.425 125.853 854.424 114.363 847.495 106.03C844.442 102.359 836.397 90.5542 829.712 84.2047C827.444 82.0501 825.576 80.756 823.459 80.2858C817.024 78.8568 809.947 83.4994 809.815 90.4052V156.22H790.234C778.083 156.22 765.458 150.348 765.213 139.358V139.358Z"
            fill="#3F88C5"
        />
        <path
            d="M754.058 56.7813C759.52 56.7813 763.948 52.3531 763.948 46.8906C763.948 41.4282 759.52 37 754.058 37C748.595 37 744.167 41.4282 744.167 46.8906C744.167 52.3531 748.595 56.7813 754.058 56.7813Z"
            fill="#3F88C5"
        />
    </g>
    <path
        d="M193.28 583.84V599.8H168.2V667H149.48V599.8H124.4V583.84H193.28ZM219.208 654.52C220.968 654.52 222.648 654.48 224.248 654.4C225.848 654.32 227.128 654.2 228.088 654.04V640.48C227.368 640.32 226.288 640.16 224.848 640C223.408 639.84 222.088 639.76 220.888 639.76C219.208 639.76 217.608 639.88 216.088 640.12C214.648 640.28 213.368 640.64 212.248 641.2C211.128 641.76 210.248 642.52 209.608 643.48C208.968 644.44 208.648 645.64 208.648 647.08C208.648 649.88 209.568 651.84 211.408 652.96C213.328 654 215.928 654.52 219.208 654.52ZM217.768 602.2C223.048 602.2 227.448 602.8 230.968 604C234.488 605.2 237.288 606.92 239.368 609.16C241.528 611.4 243.048 614.12 243.928 617.32C244.808 620.52 245.248 624.08 245.248 628V665.2C242.688 665.76 239.128 666.4 234.568 667.12C230.008 667.92 224.488 668.32 218.008 668.32C213.928 668.32 210.208 667.96 206.848 667.24C203.568 666.52 200.728 665.36 198.328 663.76C195.928 662.08 194.088 659.92 192.808 657.28C191.528 654.64 190.888 651.4 190.888 647.56C190.888 643.88 191.608 640.76 193.048 638.2C194.568 635.64 196.568 633.6 199.048 632.08C201.528 630.56 204.368 629.48 207.568 628.84C210.768 628.12 214.088 627.76 217.527 627.76C219.848 627.76 221.888 627.88 223.648 628.12C225.488 628.28 226.968 628.52 228.088 628.84V627.16C228.088 624.12 227.168 621.68 225.328 619.84C223.488 618 220.288 617.08 215.728 617.08C212.688 617.08 209.688 617.32 206.728 617.8C203.768 618.2 201.208 618.8 199.048 619.6L196.768 605.2C197.808 604.88 199.088 604.56 200.608 604.24C202.208 603.84 203.928 603.52 205.768 603.28C207.608 602.96 209.528 602.72 211.528 602.56C213.608 602.32 215.688 602.2 217.768 602.2ZM286.616 668.2C281.416 668.12 277.176 667.56 273.896 666.52C270.696 665.48 268.136 664.04 266.216 662.2C264.376 660.28 263.096 658 262.376 655.36C261.736 652.64 261.416 649.6 261.416 646.24V576.76L279.296 573.88V642.64C279.296 644.24 279.416 645.68 279.656 646.96C279.896 648.24 280.336 649.32 280.976 650.2C281.696 651.08 282.696 651.8 283.976 652.36C285.256 652.92 286.976 653.28 289.136 653.44L286.616 668.2ZM296.384 635.92C296.384 630.32 297.224 625.44 298.904 621.28C300.664 617.04 302.944 613.52 305.744 610.72C308.544 607.92 311.744 605.8 315.344 604.36C319.024 602.92 322.784 602.2 326.624 602.2C335.584 602.2 342.664 604.96 347.864 610.48C353.064 615.92 355.664 623.96 355.664 634.6C355.664 635.64 355.624 636.8 355.544 638.08C355.464 639.28 355.384 640.36 355.304 641.32H314.744C315.144 645 316.864 647.92 319.904 650.08C322.944 652.24 327.024 653.32 332.144 653.32C335.424 653.32 338.624 653.04 341.744 652.48C344.944 651.84 347.544 651.08 349.544 650.2L351.944 664.72C350.984 665.2 349.704 665.68 348.104 666.16C346.504 666.64 344.704 667.04 342.704 667.36C340.784 667.76 338.704 668.08 336.464 668.32C334.224 668.56 331.984 668.68 329.744 668.68C324.064 668.68 319.104 667.84 314.864 666.16C310.704 664.48 307.224 662.2 304.424 659.32C301.704 656.36 299.664 652.88 298.304 648.88C297.024 644.88 296.384 640.56 296.384 635.92ZM338.384 629.08C338.304 627.56 338.024 626.08 337.544 624.64C337.144 623.2 336.464 621.92 335.504 620.8C334.624 619.68 333.464 618.76 332.024 618.04C330.664 617.32 328.944 616.96 326.864 616.96C324.864 616.96 323.144 617.32 321.704 618.04C320.264 618.68 319.064 619.56 318.104 620.68C317.144 621.8 316.384 623.12 315.824 624.64C315.344 626.08 314.984 627.56 314.744 629.08H338.384ZM369.463 606.04C372.503 605.16 376.423 604.36 381.223 603.64C386.023 602.84 391.063 602.44 396.342 602.44C401.703 602.44 406.143 603.16 409.663 604.6C413.263 605.96 416.103 607.92 418.183 610.48C420.263 613.04 421.743 616.08 422.623 619.6C423.503 623.12 423.943 627.04 423.943 631.36V667H406.063V633.52C406.063 627.76 405.303 623.68 403.783 621.28C402.263 618.88 399.423 617.68 395.263 617.68C393.983 617.68 392.623 617.76 391.183 617.92C389.743 618 388.463 618.12 387.343 618.28V667H369.463V606.04ZM439.527 588.16L457.407 585.28V603.88H478.887V618.76H457.407V640.96C457.407 644.72 458.047 647.72 459.327 649.96C460.687 652.2 463.367 653.32 467.367 653.32C469.287 653.32 471.247 653.16 473.247 652.84C475.327 652.44 477.207 651.92 478.887 651.28L481.407 665.2C479.247 666.08 476.847 666.84 474.207 667.48C471.567 668.12 468.327 668.44 464.487 668.44C459.607 668.44 455.567 667.8 452.367 666.52C449.167 665.16 446.607 663.32 444.687 661C442.767 658.6 441.407 655.72 440.607 652.36C439.887 649 439.527 645.28 439.527 641.2V588.16ZM528.127 633.52C528.127 627.76 527.367 623.68 525.847 621.28C524.407 618.88 521.887 617.68 518.287 617.68C517.167 617.68 516.007 617.76 514.807 617.92C513.607 618 512.447 618.12 511.327 618.28V667H493.447V606.04C494.967 605.64 496.727 605.24 498.727 604.84C500.807 604.36 502.967 603.96 505.207 603.64C507.527 603.24 509.887 602.96 512.287 602.8C514.687 602.56 517.047 602.44 519.367 602.44C523.927 602.44 527.607 603.04 530.407 604.24C533.287 605.36 535.647 606.72 537.487 608.32C540.047 606.48 542.967 605.04 546.247 604C549.607 602.96 552.687 602.44 555.487 602.44C560.527 602.44 564.647 603.16 567.847 604.6C571.127 605.96 573.727 607.92 575.647 610.48C577.567 613.04 578.887 616.08 579.607 619.6C580.327 623.12 580.687 627.04 580.687 631.36V667H562.807V633.52C562.807 627.76 562.047 623.68 560.527 621.28C559.087 618.88 556.567 617.68 552.967 617.68C552.007 617.68 550.647 617.92 548.887 618.4C547.207 618.88 545.807 619.48 544.687 620.2C545.247 622.04 545.607 624 545.767 626.08C545.927 628.08 546.007 630.24 546.007 632.56V667H528.127V633.52ZM621.043 654.52C622.803 654.52 624.483 654.48 626.083 654.4C627.683 654.32 628.963 654.2 629.923 654.04V640.48C629.203 640.32 628.123 640.16 626.683 640C625.243 639.84 623.923 639.76 622.723 639.76C621.043 639.76 619.443 639.88 617.923 640.12C616.483 640.28 615.203 640.64 614.083 641.2C612.963 641.76 612.083 642.52 611.443 643.48C610.803 644.44 610.483 645.64 610.483 647.08C610.483 649.88 611.403 651.84 613.243 652.96C615.163 654 617.763 654.52 621.043 654.52ZM619.603 602.2C624.883 602.2 629.283 602.8 632.803 604C636.323 605.2 639.123 606.92 641.203 609.16C643.363 611.4 644.883 614.12 645.763 617.32C646.643 620.52 647.083 624.08 647.083 628V665.2C644.523 665.76 640.963 666.4 636.403 667.12C631.843 667.92 626.323 668.32 619.843 668.32C615.763 668.32 612.043 667.96 608.683 667.24C605.403 666.52 602.563 665.36 600.163 663.76C597.763 662.08 595.923 659.92 594.643 657.28C593.363 654.64 592.723 651.4 592.723 647.56C592.723 643.88 593.443 640.76 594.883 638.2C596.403 635.64 598.403 633.6 600.883 632.08C603.363 630.56 606.203 629.48 609.403 628.84C612.603 628.12 615.923 627.76 619.363 627.76C621.683 627.76 623.723 627.88 625.483 628.12C627.323 628.28 628.803 628.52 629.923 628.84V627.16C629.923 624.12 629.003 621.68 627.163 619.84C625.323 618 622.123 617.08 617.563 617.08C614.523 617.08 611.523 617.32 608.563 617.8C605.603 618.2 603.043 618.8 600.883 619.6L598.603 605.2C599.643 604.88 600.923 604.56 602.443 604.24C604.043 603.84 605.763 603.52 607.603 603.28C609.443 602.96 611.363 602.72 613.363 602.56C615.443 602.32 617.523 602.2 619.603 602.2ZM681.132 626.68C682.892 624.76 684.692 622.76 686.532 620.68C688.452 618.6 690.292 616.56 692.052 614.56C693.812 612.48 695.452 610.52 696.972 608.68C698.572 606.84 699.932 605.24 701.052 603.88H722.292C718.052 608.76 713.892 613.44 709.812 617.92C705.812 622.32 701.412 626.88 696.612 631.6C699.012 633.76 701.492 636.36 704.052 639.4C706.612 642.36 709.092 645.44 711.492 648.64C713.892 651.84 716.092 655.04 718.092 658.24C720.092 661.44 721.772 664.36 723.132 667H702.612C701.332 664.92 699.852 662.64 698.172 660.16C696.572 657.6 694.852 655.08 693.012 652.6C691.172 650.04 689.212 647.6 687.132 645.28C685.132 642.96 683.132 641 681.132 639.4V667H663.252V576.76L681.132 573.88V626.68ZM725.408 635.92C725.408 630.32 726.248 625.44 727.928 621.28C729.688 617.04 731.968 613.52 734.768 610.72C737.568 607.92 740.768 605.8 744.368 604.36C748.048 602.92 751.808 602.2 755.648 602.2C764.608 602.2 771.688 604.96 776.888 610.48C782.088 615.92 784.688 623.96 784.688 634.6C784.688 635.64 784.648 636.8 784.568 638.08C784.488 639.28 784.408 640.36 784.328 641.32H743.768C744.168 645 745.888 647.92 748.928 650.08C751.968 652.24 756.048 653.32 761.168 653.32C764.448 653.32 767.648 653.04 770.768 652.48C773.968 651.84 776.568 651.08 778.568 650.2L780.968 664.72C780.008 665.2 778.728 665.68 777.128 666.16C775.528 666.64 773.728 667.04 771.728 667.36C769.808 667.76 767.728 668.08 765.488 668.32C763.248 668.56 761.008 668.68 758.768 668.68C753.088 668.68 748.128 667.84 743.888 666.16C739.728 664.48 736.248 662.2 733.448 659.32C730.728 656.36 728.688 652.88 727.328 648.88C726.048 644.88 725.408 640.56 725.408 635.92ZM767.408 629.08C767.328 627.56 767.048 626.08 766.568 624.64C766.168 623.2 765.488 621.92 764.528 620.8C763.648 619.68 762.488 618.76 761.048 618.04C759.688 617.32 757.968 616.96 755.888 616.96C753.888 616.96 752.168 617.32 750.728 618.04C749.288 618.68 748.088 619.56 747.128 620.68C746.168 621.8 745.408 623.12 744.848 624.64C744.368 626.08 744.008 627.56 743.768 629.08H767.408ZM836.526 619.72C834.926 619.32 833.046 618.92 830.886 618.52C828.726 618.04 826.406 617.8 823.926 617.8C822.806 617.8 821.446 617.92 819.846 618.16C818.326 618.32 817.166 618.52 816.366 618.76V667H798.486V607.24C801.686 606.12 805.446 605.08 809.766 604.12C814.166 603.08 819.046 602.56 824.406 602.56C825.366 602.56 826.526 602.64 827.886 602.8C829.246 602.88 830.606 603.04 831.966 603.28C833.326 603.44 834.686 603.68 836.046 604C837.406 604.24 838.566 604.56 839.526 604.96L836.526 619.72Z"
        fill="#032B43"
    />
    <defs>
        <filter
            id="filter0_d"
            x="77"
            y="21"
            width="829"
            height="612.206"
            filterUnits="userSpaceOnUse"
            color-interpolation-filters="sRGB"
        >
            <feFlood flood-opacity="0" result="BackgroundImageFix" />
            <feColorMatrix
                in="SourceAlpha"
                type="matrix"
                values="0 0 0 0 0 0 0 0 0 0 0 0 0 0 0 0 0 0 127 0"
            />
            <feOffset dx="10" dy="30" />
            <feGaussianBlur stdDeviation="25" />
            <feColorMatrix type="matrix" values="0 0 0 0 0 0 0 0 0 0 0 0 0 0 0 0 0 0 0.25 0" />
            <feBlend mode="normal" in2="BackgroundImageFix" result="effect1_dropShadow" />
            <feBlend mode="normal" in="SourceGraphic" in2="effect1_dropShadow" result="shape" />
        </filter>
        <linearGradient
            id="paint0_linear"
            x1="670.858"
            y1="421.757"
            x2="625.175"
            y2="469.592"
            gradientUnits="userSpaceOnUse"
        >
            <stop stop-color="#005CA9" />
            <stop offset="1" stop-color="#3F88C5" />
        </linearGradient>
        <linearGradient
            id="paint1_linear"
            x1="24923.9"
            y1="9998.49"
            x2="24141.8"
            y2="10981.7"
            gradientUnits="userSpaceOnUse"
        >
            <stop stop-color="#0D4472" />
            <stop offset="1" stop-color="#568CBA" />
        </linearGradient>
        <clipPath id="clip0">
            <rect width="198" height="142.064" fill="white" transform="translate(744 37)" />
        </clipPath>
    </defs>
</svg>
