<svg width="1000" height="750" viewBox="0 0 1000 750" fill="none" xmlns="http://www.w3.org/2000/svg">
<rect width="1000" height="750" fill="#9DC743"/>
<g clip-path="url(#clip0_432_2)">
<path d="M252.238 66.0234L248.125 74.25L250.766 75.7734C252.238 76.5859 271.383 87.5547 293.32 100.098L333.184 122.898L333.082 129.398C332.93 137.371 331.863 145.191 329.883 153.367C323.586 179.164 308.148 199.832 284.586 214.102L280.676 216.488L239.645 193.027C217.098 180.129 197.902 169.16 196.988 168.602L195.363 167.637L193.281 171.699L191.25 175.812L193.535 182.211C202.219 206.027 215.574 227.559 230.504 241.676C254.32 264.172 285.703 275.902 325.82 277.172C336.586 277.527 338.973 277.984 344.965 281.184C356.594 287.328 371.473 298.957 393.867 319.27C405.852 330.137 411.793 335.875 430.48 354.461L447.086 370.914L479.688 338.312L512.34 305.762L494.82 288.141C447.848 240.914 420.324 209.176 410.219 190.539C407.121 184.801 406.715 182.566 406.359 170.48C405.648 145.496 402.297 128.332 395.34 113.402C388.535 98.8789 376.855 86.3359 362.484 78.2109C340.547 65.7695 310.738 59.4219 268.336 58.2031L256.352 57.8477L252.238 66.0234Z" fill="#6B8A28"/>
<path d="M723.691 106.547C701.652 121.984 683.27 135.137 682.914 135.797C682.559 136.457 680.578 143.922 678.445 152.453L674.637 167.891L556.824 285.602L439.063 403.312L422.813 393.156L406.563 383L398.438 391.125C390.516 399.047 390.313 399.352 390.313 401.434C390.313 404.531 389.449 410.117 388.281 414.586C383.559 432.969 367.918 450.539 346.336 461.559C335.773 466.992 324.246 470.75 314.242 471.969L309.012 472.629L241.93 539.66L174.848 606.641L175.203 611.008C176.574 629.391 187.086 649.246 203.996 665.598C218.57 679.664 234.516 688.246 251.426 690.988C253.965 691.395 257.012 691.75 258.23 691.75H260.465L327.445 624.77C389.398 562.715 394.375 557.637 394.375 556.062C394.375 550.578 397.168 539.152 400.57 530.52C411.184 503.809 430.531 484.207 452.113 478.469C454.297 477.859 458.715 477.148 462.016 476.793L467.906 476.234L475.879 468.312L483.852 460.34L473.645 444.039L463.438 427.687L580.742 310.434C645.285 245.992 698.402 192.926 698.809 192.57C699.215 192.215 706.68 190.184 715.363 188C724.047 185.816 731.461 183.734 731.816 183.328C732.172 182.973 745.07 164.691 760.457 142.703L788.387 102.738L777.824 92.1757C771.984 86.3867 766.449 80.9023 765.535 80.039L763.809 78.414L723.691 106.547Z" fill="#6B8A28"/>
<path d="M528.285 387.164L495.836 419.715L517.926 441.856C549.105 473.188 564.441 489.336 579.98 507.414C596.84 527.016 607.402 542.402 609.129 550.07C609.383 551.34 609.738 557.129 609.941 563.02C610.906 599.988 618.371 623.195 634.723 640.309C642.035 647.977 648.992 653.055 658.945 657.98C680.527 668.746 708.305 674.129 747.914 675.297L759.898 675.652L764.012 667.477L768.125 659.25L765.484 657.727C764.012 656.914 744.867 645.945 722.93 633.402L683.066 610.602L683.168 604.355C683.777 568.453 701.094 537.832 731.156 519.703L735.574 517.012L776.605 540.473C799.152 553.371 818.348 564.34 819.262 564.898L820.887 565.863L822.918 561.801L824.949 557.789L823.527 553.523C819.973 543.063 813.473 529.098 807.582 519.348C786.609 484.613 755.125 464.352 712.52 458.207C704.344 457.039 692.918 456.125 685.707 456.125C677.988 456.125 672.555 453.992 661.738 446.832C644.523 435.356 622.383 415.5 581.758 375.027C570.434 363.805 561.039 354.563 560.937 354.613C560.785 354.613 546.109 369.289 528.285 387.164Z" fill="#6B8A28"/>
</g>
<path d="M288.75 470.5C276.583 470.5 266.083 468.833 257.25 465.5C248.417 462 241.083 457.25 235.25 451.25C229.583 445.083 225.333 437.833 222.5 429.5C219.833 421 218.5 411.667 218.5 401.5V293.75H257.5V398.25C257.5 405.25 258.25 411.25 259.75 416.25C261.417 421.083 263.583 425.083 266.25 428.25C269.083 431.25 272.417 433.417 276.25 434.75C280.25 436.083 284.583 436.75 289.25 436.75C298.75 436.75 306.417 433.833 312.25 428C318.25 422.167 321.25 412.25 321.25 398.25V293.75H360.25V401.5C360.25 411.667 358.833 421 356 429.5C353.167 438 348.833 445.333 343 451.5C337.167 457.5 329.75 462.167 320.75 465.5C311.75 468.833 301.083 470.5 288.75 470.5ZM394.008 302.75L431.258 296.75V335.5H476.008V366.5H431.258V412.75C431.258 420.583 432.591 426.833 435.258 431.5C438.091 436.167 443.674 438.5 452.008 438.5C456.008 438.5 460.091 438.167 464.258 437.5C468.591 436.667 472.508 435.583 476.008 434.25L481.258 463.25C476.758 465.083 471.758 466.667 466.258 468C460.758 469.333 454.008 470 446.008 470C435.841 470 427.424 468.667 420.758 466C414.091 463.167 408.758 459.333 404.758 454.5C400.758 449.5 397.924 443.5 396.258 436.5C394.758 429.5 394.008 421.75 394.008 413.25V302.75ZM543.592 467H506.342V335.5H543.592V467ZM547.092 297.5C547.092 304.333 544.842 309.75 540.342 313.75C536.008 317.583 530.842 319.5 524.842 319.5C518.842 319.5 513.592 317.583 509.092 313.75C504.758 309.75 502.592 304.333 502.592 297.5C502.592 290.667 504.758 285.333 509.092 281.5C513.592 277.5 518.842 275.5 524.842 275.5C530.842 275.5 536.008 277.5 540.342 281.5C544.842 285.333 547.092 290.667 547.092 297.5ZM631.107 469.5C620.274 469.333 611.441 468.167 604.607 466C597.941 463.833 592.607 460.833 588.607 457C584.774 453 582.107 448.25 580.607 442.75C579.274 437.083 578.607 430.75 578.607 423.75V279L615.857 273V416.25C615.857 419.583 616.107 422.583 616.607 425.25C617.107 427.917 618.024 430.167 619.357 432C620.857 433.833 622.941 435.333 625.607 436.5C628.274 437.667 631.857 438.417 636.357 438.75L631.107 469.5ZM695.459 440.25C702.292 440.25 707.126 439.583 709.959 438.25C712.792 436.917 714.209 434.333 714.209 430.5C714.209 427.5 712.376 424.917 708.709 422.75C705.042 420.417 699.459 417.833 691.959 415C686.126 412.833 680.792 410.583 675.959 408.25C671.292 405.917 667.292 403.167 663.959 400C660.626 396.667 658.042 392.75 656.209 388.25C654.376 383.75 653.459 378.333 653.459 372C653.459 359.667 658.042 349.917 667.209 342.75C676.376 335.583 688.959 332 704.959 332C712.959 332 720.626 332.75 727.959 334.25C735.292 335.583 741.126 337.083 745.459 338.75L738.959 367.75C734.626 366.25 729.876 364.917 724.709 363.75C719.709 362.583 714.042 362 707.709 362C696.042 362 690.209 365.25 690.209 371.75C690.209 373.25 690.459 374.583 690.959 375.75C691.459 376.917 692.459 378.083 693.959 379.25C695.459 380.25 697.459 381.417 699.959 382.75C702.626 383.917 705.959 385.25 709.959 386.75C718.126 389.75 724.876 392.75 730.209 395.75C735.542 398.583 739.709 401.75 742.709 405.25C745.876 408.583 748.042 412.333 749.209 416.5C750.542 420.667 751.209 425.5 751.209 431C751.209 444 746.292 453.833 736.459 460.5C726.792 467.167 713.042 470.5 695.209 470.5C683.542 470.5 673.792 469.5 665.959 467.5C658.292 465.5 652.959 463.833 649.959 462.5L656.209 432.25C662.542 434.75 669.042 436.75 675.709 438.25C682.376 439.583 688.959 440.25 695.459 440.25Z" fill="white"/>
<defs>
<clipPath id="clip0_432_2">
<rect width="650" height="633.75" fill="white" transform="translate(175 58)"/>
</clipPath>
</defs>
</svg>
