<svg width="1000" height="750" viewBox="0 0 1000 750" fill="none" xmlns="http://www.w3.org/2000/svg">
<rect width="1000" height="750" fill="url(#paint0_linear_326_5)"/>
<path d="M305 261.5C305 154.081 392.081 67 499.5 67C606.919 67 694 154.081 694 261.5C694 368.919 606.919 456 499.5 456C392.081 456 305 368.919 305 261.5Z" fill="white"/>
<path d="M338.744 231.236C355.081 262.708 398.333 268.704 424.284 244.155C435.92 233.136 446.498 211.348 432.982 197.705C419.889 184.491 404.609 199.356 398.333 211.122C389.471 227.706 387.167 247.594 386.227 265.966C385.357 282.958 385.78 303.909 397.393 317.869C407.759 330.335 424.12 331.399 435.873 320.063C447.72 308.66 453.715 291.465 459.215 276.668C463.517 265.106 468.359 242.481 483.639 239.72C500.563 236.666 499.952 267.142 499.858 276.328C499.788 285.265 498.777 295.945 494.922 304.203C493.841 306.488 492.007 309.791 489.045 310.086C487.752 310.221 487.094 309.678 485.942 309.362C486.6 309.543 485.966 312.009 486.107 309.226C486.6 298.094 493.394 284.406 499.012 274.699C503.408 267.074 508.603 259.857 514.691 253.409C520.427 247.322 526.773 240.965 535.541 239.426C557.661 235.58 560.834 260.988 560.881 276.17C560.881 280.74 560.599 285.265 559.918 289.79C559.33 293.75 558.93 301.782 556.11 304.882C550.985 310.515 552.701 296.623 553.007 294.497C555.24 279.337 563.796 264.495 573.951 252.843C578.018 248.16 585.234 240.15 592.545 241.983C596.964 243.091 599.033 247.436 600.49 251.237C605.215 263.522 605.497 277.46 607.119 290.356C608.623 302.483 611.35 319.272 624.067 325.29C640.24 332.937 651.899 313.502 655.284 301.284C656.248 297.823 656.389 292.664 653.004 290.22C649.784 287.913 646.704 290.175 645.505 293.32C643.46 298.614 639.229 308.479 632.201 309.113C626.018 309.678 622.492 301.126 621.599 297.8C618.426 285.967 618.661 273.183 616.827 261.101C615.041 249.404 612.338 234.72 602.535 226.53C590.688 216.62 576.678 225.014 567.91 234.448C556.815 246.395 547.647 261.26 542.899 276.622C538.95 289.451 533.12 317.937 550.068 325.222C569.109 333.412 573.293 296.669 574.163 286.623C575.855 267.052 575.409 242.413 560.482 227.231C548.493 215.036 530.393 216.303 517.206 225.964C501.48 237.48 489.868 255.626 481.97 272.753C476.211 285.198 469.958 300.538 472.379 314.384C475.059 329.702 491.466 336.852 502.303 323.299C508.156 315.991 510.366 306.284 512.035 297.393C514.103 286.397 514.479 274.971 513.398 263.862C511.941 249.042 509.496 225.534 492.195 219.47C478.115 214.538 464.927 226.054 458.745 237.141C448.896 254.811 444.97 274.948 434.698 292.415C431.36 298.117 426.776 305.289 419.653 306.918C411.685 308.728 405.009 302.438 402.635 295.628C399.25 285.854 399.344 274.496 399.814 264.314C400.261 254.563 401.295 244.404 403.857 234.946C405.855 227.502 410.227 214.289 418.807 211.665C431.783 207.705 421.464 223.407 417.985 226.892C404.633 240.331 384.064 244.2 366.129 237.639C357.831 234.607 350.285 228.837 344.291 222.593C339.966 218.113 337.286 228.407 338.744 231.236Z" fill="url(#paint1_linear_326_5)"/>
<path d="M192.6 540.65C193.1 539.55 193.8 538.7 194.7 538.1C195.7 537.5 196.75 537.2 197.85 537.2C199.45 537.2 200.85 537.75 202.05 538.85C203.35 539.85 204 541.1 204 542.6C204 543.4 203.8 544.2 203.4 545L160.35 640.7C159.75 642 158.85 643 157.65 643.7C156.45 644.4 155.15 644.75 153.75 644.75C152.35 644.75 151.05 644.4 149.85 643.7C148.65 643 147.75 642 147.15 640.7L104.25 545C103.95 544.2 103.8 543.45 103.8 542.75C103.8 541.15 104.45 539.85 105.75 538.85C107.05 537.75 108.5 537.2 110.1 537.2C112.5 537.2 114.25 538.35 115.35 540.65L154.05 628.1L192.6 540.65ZM231.314 644.75C229.514 644.75 228.014 644.25 226.814 643.25C225.714 642.15 225.164 640.65 225.164 638.75V575.45C225.164 573.55 225.714 572.1 226.814 571.1C228.014 570 229.514 569.45 231.314 569.45C233.114 569.45 234.564 570 235.664 571.1C236.764 572.1 237.314 573.55 237.314 575.45V638.75C237.314 640.75 236.764 642.25 235.664 643.25C234.564 644.25 233.114 644.75 231.314 644.75ZM231.314 553.7C228.914 553.7 226.964 553 225.464 551.6C223.964 550.2 223.214 548.35 223.214 546.05C223.214 543.85 223.964 542.05 225.464 540.65C226.964 539.25 228.914 538.55 231.314 538.55C233.714 538.55 235.664 539.25 237.164 540.65C238.664 542.05 239.414 543.85 239.414 546.05C239.414 548.35 238.664 550.2 237.164 551.6C235.664 553 233.714 553.7 231.314 553.7ZM296.177 569.45C300.377 569.15 302.477 570.85 302.477 574.55C302.477 576.15 302.027 577.45 301.127 578.45C300.227 579.35 298.677 579.9 296.477 580.1L291.977 580.55C285.277 581.15 280.277 583.55 276.977 587.75C273.777 591.85 272.177 596.7 272.177 602.3V638.75C272.177 640.75 271.627 642.25 270.527 643.25C269.427 644.25 267.977 644.75 266.177 644.75C264.377 644.75 262.877 644.25 261.677 643.25C260.577 642.15 260.027 640.65 260.027 638.75V575.45C260.027 573.55 260.627 572.1 261.827 571.1C263.027 570 264.477 569.45 266.177 569.45C267.777 569.45 269.127 570 270.227 571.1C271.327 572.1 271.877 573.5 271.877 575.3V583.7C273.977 579.3 276.927 575.95 280.727 573.65C284.627 571.35 289.077 570 294.077 569.6L296.177 569.45ZM352.518 635.15C356.018 635.45 357.768 637.05 357.768 639.95C357.768 641.65 357.118 642.95 355.818 643.85C354.618 644.65 352.768 644.95 350.268 644.75L346.218 644.45C338.218 643.85 332.318 641.45 328.518 637.25C324.718 633.05 322.818 626.7 322.818 618.2V580.55H312.768C311.068 580.55 309.718 580.15 308.718 579.35C307.818 578.45 307.368 577.3 307.368 575.9C307.368 574.4 307.818 573.2 308.718 572.3C309.718 571.4 311.068 570.95 312.768 570.95H322.818V554C322.818 552.1 323.368 550.65 324.468 549.65C325.568 548.55 327.068 548 328.968 548C330.768 548 332.218 548.55 333.318 549.65C334.418 550.65 334.968 552.1 334.968 554V570.95H351.618C353.218 570.95 354.468 571.4 355.368 572.3C356.368 573.2 356.868 574.4 356.868 575.9C356.868 577.3 356.368 578.45 355.368 579.35C354.468 580.15 353.218 580.55 351.618 580.55H334.968V618.8C334.968 624.3 336.068 628.3 338.268 630.8C340.568 633.2 343.968 634.55 348.468 634.85L352.518 635.15ZM425.244 569.45C427.144 569.45 428.594 570 429.594 571.1C430.694 572.2 431.244 573.65 431.244 575.45V638.9C431.244 640.6 430.694 642 429.594 643.1C428.594 644.2 427.144 644.75 425.244 644.75C423.444 644.75 421.994 644.25 420.894 643.25C419.894 642.15 419.394 640.75 419.394 639.05V631.55C417.094 635.95 413.844 639.3 409.644 641.6C405.544 643.9 400.894 645.05 395.694 645.05C386.994 645.05 380.444 642.65 376.044 637.85C371.644 632.95 369.444 625.75 369.444 616.25V575.45C369.444 573.65 369.994 572.2 371.094 571.1C372.194 570 373.694 569.45 375.594 569.45C377.494 569.45 378.944 570 379.944 571.1C381.044 572.2 381.594 573.65 381.594 575.45V615.95C381.594 622.45 382.894 627.25 385.494 630.35C388.094 633.35 392.194 634.85 397.794 634.85C404.194 634.85 409.344 632.8 413.244 628.7C417.144 624.5 419.094 619 419.094 612.2V575.45C419.094 573.65 419.644 572.2 420.744 571.1C421.844 570 423.344 569.45 425.244 569.45ZM483.676 569.15C501.976 569.15 511.126 578.75 511.126 597.95V638.75C511.126 640.55 510.576 642 509.476 643.1C508.476 644.2 507.076 644.75 505.276 644.75C503.476 644.75 502.026 644.2 500.926 643.1C499.826 642 499.276 640.55 499.276 638.75V631.55C497.376 635.85 494.476 639.2 490.576 641.6C486.676 643.9 482.176 645.05 477.076 645.05C472.376 645.05 468.026 644.1 464.026 642.2C460.126 640.3 457.026 637.65 454.726 634.25C452.426 630.85 451.276 627.1 451.276 623C451.276 617.5 452.676 613.25 455.476 610.25C458.276 607.15 462.876 604.95 469.276 603.65C475.676 602.25 484.576 601.55 495.976 601.55H499.276V596.6C499.276 590.6 498.026 586.2 495.526 583.4C493.126 580.6 489.176 579.2 483.676 579.2C476.876 579.2 469.976 581.05 462.976 584.75C460.276 586.45 458.376 587.3 457.276 587.3C456.076 587.3 455.076 586.85 454.276 585.95C453.476 585.05 453.076 583.9 453.076 582.5C453.076 581.1 453.476 579.9 454.276 578.9C455.176 577.8 456.576 576.7 458.476 575.6C461.976 573.6 465.926 572.05 470.326 570.95C474.826 569.75 479.276 569.15 483.676 569.15ZM478.726 635.45C484.726 635.45 489.626 633.45 493.426 629.45C497.326 625.35 499.276 620.1 499.276 613.7V609.35H496.576C487.776 609.35 481.076 609.75 476.476 610.55C471.876 611.25 468.576 612.5 466.576 614.3C464.676 616 463.726 618.55 463.726 621.95C463.726 625.85 465.126 629.1 467.926 631.7C470.826 634.2 474.426 635.45 478.726 635.45ZM539.517 644.75C537.717 644.75 536.217 644.25 535.017 643.25C533.917 642.15 533.367 640.65 533.367 638.75V543.5C533.367 541.6 533.917 540.15 535.017 539.15C536.217 538.05 537.717 537.5 539.517 537.5C541.217 537.5 542.617 538.05 543.717 539.15C544.917 540.15 545.517 541.6 545.517 543.5V638.75C545.517 640.65 544.917 642.15 543.717 643.25C542.617 644.25 541.217 644.75 539.517 644.75ZM662.28 537.5C665.08 537.5 667.33 538.4 669.03 540.2C670.73 541.9 671.58 544.2 671.58 547.1V635.9C671.58 638.7 670.78 640.9 669.18 642.5C667.58 644.1 665.48 644.9 662.88 644.9C660.28 644.9 658.23 644.1 656.73 642.5C655.23 640.9 654.48 638.7 654.48 635.9V574.1L628.98 622.4C627.78 624.6 626.48 626.25 625.08 627.35C623.68 628.35 622.03 628.85 620.13 628.85C618.23 628.85 616.58 628.35 615.18 627.35C613.78 626.35 612.48 624.7 611.28 622.4L585.63 574.85V635.9C585.63 638.6 584.83 640.8 583.23 642.5C581.73 644.1 579.68 644.9 577.08 644.9C574.48 644.9 572.43 644.1 570.93 642.5C569.43 640.9 568.68 638.7 568.68 635.9V547.1C568.68 544.2 569.48 541.9 571.08 540.2C572.78 538.4 575.03 537.5 577.83 537.5C581.73 537.5 584.78 539.65 586.98 543.95L620.28 607.4L653.43 543.95C655.63 539.65 658.58 537.5 662.28 537.5ZM750.904 623.9C752.604 623.9 753.954 624.55 754.954 625.85C756.054 627.15 756.604 628.9 756.604 631.1C756.604 634.2 754.754 636.8 751.054 638.9C747.654 640.8 743.804 642.35 739.504 643.55C735.204 644.65 731.104 645.2 727.204 645.2C715.404 645.2 706.054 641.8 699.154 635C692.254 628.2 688.804 618.9 688.804 607.1C688.804 599.6 690.304 592.95 693.304 587.15C696.304 581.35 700.504 576.85 705.904 573.65C711.404 570.45 717.604 568.85 724.504 568.85C731.104 568.85 736.854 570.3 741.754 573.2C746.654 576.1 750.454 580.2 753.154 585.5C755.854 590.8 757.204 597.05 757.204 604.25C757.204 608.55 755.304 610.7 751.504 610.7H707.254C707.854 617.6 709.804 622.7 713.104 626C716.404 629.2 721.204 630.8 727.504 630.8C730.704 630.8 733.504 630.4 735.904 629.6C738.404 628.8 741.204 627.7 744.304 626.3C747.304 624.7 749.504 623.9 750.904 623.9ZM724.954 582.05C719.854 582.05 715.754 583.65 712.654 586.85C709.654 590.05 707.854 594.65 707.254 600.65H741.154C740.954 594.55 739.454 589.95 736.654 586.85C733.854 583.65 729.954 582.05 724.954 582.05ZM830.591 623.9C832.291 623.9 833.641 624.55 834.641 625.85C835.741 627.15 836.291 628.9 836.291 631.1C836.291 634.2 834.441 636.8 830.741 638.9C827.341 640.8 823.491 642.35 819.191 643.55C814.891 644.65 810.791 645.2 806.891 645.2C795.091 645.2 785.741 641.8 778.841 635C771.941 628.2 768.491 618.9 768.491 607.1C768.491 599.6 769.991 592.95 772.991 587.15C775.991 581.35 780.191 576.85 785.591 573.65C791.091 570.45 797.291 568.85 804.191 568.85C810.791 568.85 816.541 570.3 821.441 573.2C826.341 576.1 830.141 580.2 832.841 585.5C835.541 590.8 836.891 597.05 836.891 604.25C836.891 608.55 834.991 610.7 831.191 610.7H786.941C787.541 617.6 789.491 622.7 792.791 626C796.091 629.2 800.891 630.8 807.191 630.8C810.391 630.8 813.191 630.4 815.591 629.6C818.091 628.8 820.891 627.7 823.991 626.3C826.991 624.7 829.191 623.9 830.591 623.9ZM804.641 582.05C799.541 582.05 795.441 583.65 792.341 586.85C789.341 590.05 787.541 594.65 786.941 600.65H820.841C820.641 594.55 819.141 589.95 816.341 586.85C813.541 583.65 809.641 582.05 804.641 582.05ZM889.303 630.95C894.303 631.25 896.803 633.5 896.803 637.7C896.803 640.1 895.803 641.95 893.803 643.25C891.903 644.45 889.153 644.95 885.553 644.75L881.503 644.45C864.703 643.25 856.303 634.25 856.303 617.45V584.75H848.803C846.103 584.75 844.003 584.15 842.503 582.95C841.103 581.75 840.403 580 840.403 577.7C840.403 575.4 841.103 573.65 842.503 572.45C844.003 571.25 846.103 570.65 848.803 570.65H856.303V556.85C856.303 554.15 857.153 552 858.853 550.4C860.553 548.8 862.853 548 865.753 548C868.553 548 870.803 548.8 872.503 550.4C874.203 552 875.053 554.15 875.053 556.85V570.65H887.803C890.503 570.65 892.553 571.25 893.953 572.45C895.453 573.65 896.203 575.4 896.203 577.7C896.203 580 895.453 581.75 893.953 582.95C892.553 584.15 890.503 584.75 887.803 584.75H875.053V618.8C875.053 626.2 878.453 630.15 885.253 630.65L889.303 630.95Z" fill="white"/>
<defs>
<linearGradient id="paint0_linear_326_5" x1="148" y1="144.5" x2="1143" y2="861" gradientUnits="userSpaceOnUse">
<stop stop-color="#EC0340"/>
<stop offset="1" stop-color="#390099"/>
</linearGradient>
<linearGradient id="paint1_linear_326_5" x1="642" y1="398" x2="338" y2="144.5" gradientUnits="userSpaceOnUse">
<stop stop-color="#FDA712"/>
<stop offset="1" stop-color="#EC0340"/>
</linearGradient>
</defs>
</svg>
