<svg width="722" height="498" viewBox="0 0 722 498" fill="none" xmlns="http://www.w3.org/2000/svg">
    <g clip-path="url(#clip0)">
        <path
            d="M359.656 458.393C180.497 458.393 35.2604 450.309 35.2604 440.337C35.2604 430.365 180.497 422.281 359.656 422.281C538.815 422.281 684.051 430.365 684.051 440.337C684.051 450.309 538.815 458.393 359.656 458.393Z"
            fill="#373737"
        />
        <path
            opacity="0.1"
            d="M359.656 451.986C207.052 451.986 83.3427 446.64 83.3427 440.046C83.3427 433.451 207.052 428.105 359.656 428.105C512.259 428.105 635.969 433.451 635.969 440.046C635.969 446.64 512.259 451.986 359.656 451.986Z"
            fill="black"
        />
        <path
            d="M585.963 498C510.832 498 449.926 493.176 449.926 487.225C449.926 481.273 510.832 476.449 585.963 476.449C661.094 476.449 722 481.273 722 487.225C722 493.176 661.094 498 585.963 498Z"
            fill="#373737"
        />
        <path
            opacity="0.1"
            d="M585.963 494.176C521.968 494.176 470.09 490.986 470.09 487.051C470.09 483.115 521.968 479.925 585.963 479.925C649.958 479.925 701.836 483.115 701.836 487.051C701.836 490.986 649.958 494.176 585.963 494.176Z"
            fill="black"
        />
        <path d="M114.115 94.3579H596.221V438.007H114.115V94.3579Z" fill="#373737" />
        <path
            d="M360.653 141.321H479.588C479.778 141.321 479.966 141.288 480.141 141.222C480.317 141.156 480.476 141.06 480.61 140.938C480.745 140.816 480.851 140.671 480.924 140.512C480.997 140.353 481.034 140.182 481.034 140.009C481.034 139.837 480.997 139.666 480.924 139.507C480.851 139.348 480.745 139.203 480.61 139.081C480.476 138.959 480.317 138.863 480.141 138.797C479.966 138.731 479.778 138.698 479.588 138.698H360.653C360.271 138.699 359.904 138.837 359.634 139.083C359.364 139.329 359.212 139.662 359.212 140.009C359.212 140.357 359.364 140.69 359.634 140.936C359.904 141.182 360.271 141.32 360.653 141.321Z"
            fill="#F4F4F4"
        />
        <path
            d="M230.46 155.746H417.522C417.905 155.746 418.272 155.608 418.543 155.362C418.814 155.116 418.966 154.782 418.966 154.434C418.966 154.087 418.814 153.753 418.543 153.507C418.272 153.261 417.905 153.123 417.522 153.123H230.46C230.27 153.123 230.082 153.157 229.907 153.223C229.732 153.289 229.573 153.385 229.439 153.507C229.305 153.629 229.199 153.773 229.126 153.933C229.054 154.092 229.016 154.262 229.016 154.434C229.016 154.607 229.054 154.777 229.126 154.936C229.199 155.095 229.305 155.24 229.439 155.362C229.573 155.483 229.732 155.58 229.907 155.646C230.082 155.712 230.27 155.746 230.46 155.746Z"
            fill="#F4F4F4"
        />
        <path
            d="M360.076 170.171H479.011C479.394 170.171 479.761 170.033 480.031 169.787C480.302 169.541 480.454 169.207 480.454 168.859C480.454 168.512 480.302 168.178 480.031 167.932C479.761 167.686 479.394 167.548 479.011 167.548H360.076C359.693 167.548 359.326 167.686 359.055 167.932C358.784 168.178 358.632 168.512 358.632 168.859C358.632 169.207 358.784 169.541 359.055 169.787C359.326 170.033 359.693 170.171 360.076 170.171Z"
            fill="#F4F4F4"
        />
        <path
            d="M230.46 170.433H349.395C349.777 170.433 350.144 170.295 350.415 170.049C350.686 169.803 350.838 169.469 350.838 169.122C350.838 168.774 350.686 168.44 350.415 168.194C350.144 167.948 349.777 167.81 349.395 167.81H230.46C230.077 167.81 229.71 167.948 229.439 168.194C229.168 168.44 229.016 168.774 229.016 169.122C229.016 169.469 229.168 169.803 229.439 170.049C229.71 170.295 230.077 170.433 230.46 170.433Z"
            fill="#F4F4F4"
        />
        <path
            d="M359.787 184.596H478.722C479.104 184.596 479.472 184.458 479.742 184.212C480.013 183.966 480.165 183.632 480.165 183.284C480.165 182.937 480.013 182.603 479.742 182.357C479.472 182.111 479.104 181.973 478.722 181.973H359.787C359.404 181.973 359.037 182.111 358.766 182.357C358.495 182.603 358.343 182.937 358.343 183.284C358.343 183.632 358.495 183.966 358.766 184.212C359.037 184.458 359.404 184.596 359.787 184.596Z"
            fill="#F4F4F4"
        />
        <path
            d="M359.498 199.021H478.433C478.816 199.021 479.183 198.882 479.454 198.637C479.724 198.391 479.876 198.057 479.876 197.709C479.876 197.361 479.724 197.028 479.454 196.782C479.183 196.536 478.816 196.398 478.433 196.398H359.498C359.115 196.398 358.748 196.536 358.478 196.782C358.207 197.028 358.055 197.361 358.055 197.709C358.055 198.057 358.207 198.391 358.478 198.637C358.748 198.882 359.115 199.021 359.498 199.021Z"
            fill="#F4F4F4"
        />
        <path
            d="M305.516 141.583H339.58C339.962 141.583 340.33 141.445 340.6 141.199C340.871 140.953 341.023 140.62 341.023 140.272C341.023 139.924 340.871 139.59 340.6 139.344C340.33 139.099 339.962 138.96 339.58 138.96H305.516C305.133 138.96 304.766 139.099 304.495 139.344C304.224 139.59 304.072 139.924 304.072 140.272C304.072 140.62 304.224 140.953 304.495 141.199C304.766 141.445 305.133 141.583 305.516 141.583Z"
            fill="#F4F4F4"
        />
        <path
            d="M305.516 184.596H339.58C339.962 184.596 340.33 184.458 340.6 184.212C340.871 183.966 341.023 183.632 341.023 183.284C341.023 182.937 340.871 182.603 340.6 182.357C340.33 182.111 339.962 181.973 339.58 181.973H305.516C305.133 181.973 304.766 182.111 304.495 182.357C304.224 182.603 304.072 182.937 304.072 183.284C304.072 183.632 304.224 183.966 304.495 184.212C304.766 184.458 305.133 184.596 305.516 184.596Z"
            fill="#F4F4F4"
        />
        <path
            d="M305.515 198.758H339.579C339.769 198.759 339.957 198.725 340.133 198.659C340.308 198.594 340.468 198.497 340.602 198.375C340.736 198.253 340.843 198.109 340.916 197.949C340.988 197.79 341.026 197.619 341.026 197.447C341.026 197.275 340.988 197.104 340.916 196.944C340.843 196.785 340.736 196.641 340.602 196.519C340.468 196.397 340.308 196.3 340.133 196.235C339.957 196.169 339.769 196.135 339.579 196.136H305.515C305.326 196.135 305.138 196.169 304.962 196.235C304.787 196.3 304.627 196.397 304.493 196.519C304.359 196.641 304.252 196.785 304.179 196.944C304.106 197.104 304.069 197.275 304.069 197.447C304.069 197.619 304.106 197.79 304.179 197.949C304.252 198.109 304.359 198.253 304.493 198.375C304.627 198.497 304.787 198.594 304.962 198.659C305.138 198.725 305.326 198.759 305.515 198.758Z"
            fill="#F4F4F4"
        />
        <path
            d="M248.358 198.758H282.421C282.804 198.758 283.17 198.619 283.44 198.373C283.71 198.127 283.862 197.794 283.862 197.447C283.862 197.1 283.71 196.767 283.44 196.521C283.17 196.275 282.804 196.136 282.421 196.136H248.358C248.168 196.135 247.98 196.169 247.804 196.235C247.629 196.3 247.469 196.397 247.335 196.519C247.201 196.641 247.094 196.785 247.021 196.944C246.949 197.104 246.911 197.275 246.911 197.447C246.911 197.619 246.949 197.79 247.021 197.949C247.094 198.109 247.201 198.253 247.335 198.375C247.469 198.497 247.629 198.594 247.804 198.659C247.98 198.725 248.168 198.759 248.358 198.758Z"
            fill="#F4F4F4"
        />
        <path
            d="M445.813 155.746H479.876C480.259 155.746 480.626 155.608 480.897 155.362C481.168 155.116 481.32 154.782 481.32 154.434C481.32 154.087 481.168 153.753 480.897 153.507C480.626 153.261 480.259 153.123 479.876 153.123H445.813C445.43 153.123 445.063 153.261 444.792 153.507C444.521 153.753 444.369 154.087 444.369 154.434C444.369 154.782 444.521 155.116 444.792 155.362C445.063 155.608 445.43 155.746 445.813 155.746Z"
            fill="#F4F4F4"
        />
        <path
            d="M360.509 353.761H479.444C479.827 353.761 480.194 353.623 480.464 353.377C480.735 353.131 480.887 352.797 480.887 352.45C480.887 352.102 480.735 351.768 480.464 351.522C480.194 351.276 479.827 351.138 479.444 351.138H360.509C360.126 351.138 359.759 351.276 359.488 351.522C359.218 351.768 359.065 352.102 359.065 352.45C359.065 352.797 359.218 353.131 359.488 353.377C359.759 353.623 360.126 353.761 360.509 353.761Z"
            fill="#F4F4F4"
        />
        <path
            d="M361.086 382.611H480.021C480.404 382.611 480.771 382.473 481.042 382.227C481.312 381.981 481.464 381.647 481.464 381.299C481.464 380.952 481.312 380.618 481.042 380.372C480.771 380.126 480.404 379.988 480.021 379.988H361.086C360.703 379.988 360.336 380.126 360.065 380.372C359.795 380.618 359.643 380.952 359.643 381.299C359.643 381.647 359.795 381.981 360.065 382.227C360.336 382.473 360.703 382.611 361.086 382.611Z"
            fill="#F4F4F4"
        />
        <path
            d="M360.797 397.036H479.732C479.922 397.036 480.11 397.002 480.286 396.937C480.461 396.871 480.621 396.774 480.755 396.653C480.889 396.531 480.996 396.386 481.069 396.227C481.141 396.068 481.179 395.897 481.179 395.724C481.179 395.552 481.141 395.381 481.069 395.222C480.996 395.063 480.889 394.918 480.755 394.796C480.621 394.674 480.461 394.578 480.286 394.512C480.11 394.446 479.922 394.413 479.732 394.413H360.797C360.607 394.413 360.419 394.446 360.244 394.512C360.069 394.578 359.909 394.674 359.775 394.796C359.64 394.918 359.534 395.063 359.461 395.222C359.388 395.381 359.351 395.552 359.351 395.724C359.351 395.897 359.388 396.068 359.461 396.227C359.534 396.386 359.64 396.531 359.775 396.653C359.909 396.774 360.069 396.871 360.244 396.937C360.419 397.002 360.607 397.036 360.797 397.036Z"
            fill="#F4F4F4"
        />
        <path
            d="M309.99 382.873H344.054C344.437 382.873 344.804 382.735 345.075 382.489C345.345 382.243 345.498 381.91 345.498 381.562C345.498 381.214 345.345 380.88 345.075 380.634C344.804 380.389 344.437 380.25 344.054 380.25H309.99C309.607 380.25 309.24 380.389 308.97 380.634C308.699 380.88 308.547 381.214 308.547 381.562C308.547 381.91 308.699 382.243 308.97 382.489C309.24 382.735 309.607 382.873 309.99 382.873Z"
            fill="#F4F4F4"
        />
        <path
            d="M309.99 397.036H344.054C344.437 397.036 344.804 396.898 345.075 396.652C345.345 396.406 345.498 396.072 345.498 395.724C345.498 395.377 345.345 395.043 345.075 394.797C344.804 394.551 344.437 394.413 344.054 394.413H309.99C309.607 394.413 309.24 394.551 308.97 394.797C308.699 395.043 308.547 395.377 308.547 395.724C308.547 396.072 308.699 396.406 308.97 396.652C309.24 396.898 309.607 397.036 309.99 397.036Z"
            fill="#F4F4F4"
        />
        <path
            d="M252.832 382.873H286.896C287.279 382.873 287.646 382.735 287.917 382.489C288.187 382.243 288.339 381.91 288.339 381.562C288.339 381.214 288.187 380.88 287.917 380.634C287.646 380.389 287.279 380.25 286.896 380.25H252.832C252.449 380.25 252.082 380.389 251.811 380.634C251.541 380.88 251.389 381.214 251.389 381.562C251.389 381.91 251.541 382.243 251.811 382.489C252.082 382.735 252.449 382.873 252.832 382.873Z"
            fill="#F4F4F4"
        />
        <path
            d="M230.315 368.186H417.378C417.761 368.186 418.128 368.048 418.399 367.802C418.669 367.556 418.821 367.222 418.821 366.874C418.821 366.527 418.669 366.193 418.399 365.947C418.128 365.701 417.761 365.563 417.378 365.563H230.315C229.932 365.563 229.565 365.701 229.294 365.947C229.024 366.193 228.872 366.527 228.872 366.874C228.872 367.222 229.024 367.556 229.294 367.802C229.565 368.048 229.932 368.186 230.315 368.186Z"
            fill="#F4F4F4"
        />
        <path
            d="M445.669 368.186H479.732C480.115 368.186 480.482 368.048 480.753 367.802C481.024 367.556 481.176 367.222 481.176 366.874C481.176 366.527 481.024 366.193 480.753 365.947C480.482 365.701 480.115 365.563 479.732 365.563H445.669C445.286 365.563 444.919 365.701 444.648 365.947C444.377 366.193 444.225 366.527 444.225 366.874C444.225 367.222 444.377 367.556 444.648 367.802C444.919 368.048 445.286 368.186 445.669 368.186Z"
            fill="#F4F4F4"
        />
        <path
            d="M230.316 411.723H417.378C417.568 411.723 417.756 411.69 417.932 411.624C418.107 411.558 418.267 411.462 418.401 411.34C418.535 411.218 418.642 411.073 418.715 410.914C418.787 410.755 418.825 410.584 418.825 410.412C418.825 410.239 418.787 410.068 418.715 409.909C418.642 409.75 418.535 409.605 418.401 409.483C418.267 409.362 418.107 409.265 417.932 409.199C417.756 409.134 417.568 409.1 417.378 409.1H230.316C229.933 409.1 229.566 409.238 229.295 409.484C229.024 409.73 228.872 410.064 228.872 410.412C228.872 410.759 229.024 411.093 229.295 411.339C229.566 411.585 229.933 411.723 230.316 411.723Z"
            fill="#F4F4F4"
        />
        <path
            d="M445.668 411.723H479.732C479.922 411.723 480.11 411.69 480.286 411.624C480.461 411.558 480.621 411.462 480.755 411.34C480.889 411.218 480.996 411.073 481.069 410.914C481.141 410.755 481.179 410.584 481.179 410.412C481.179 410.239 481.141 410.068 481.069 409.909C480.996 409.75 480.889 409.605 480.755 409.483C480.621 409.362 480.461 409.265 480.286 409.199C480.11 409.134 479.922 409.1 479.732 409.1H445.668C445.479 409.1 445.291 409.134 445.115 409.199C444.94 409.265 444.78 409.362 444.646 409.483C444.511 409.605 444.405 409.75 444.332 409.909C444.259 410.068 444.222 410.239 444.222 410.412C444.222 410.584 444.259 410.755 444.332 410.914C444.405 411.073 444.511 411.218 444.646 411.34C444.78 411.462 444.94 411.558 445.115 411.624C445.291 411.69 445.479 411.723 445.668 411.723Z"
            fill="#F4F4F4"
        />
        <path
            d="M389.232 233.641L435.42 275.079L389.232 316.518L378.84 307.077L413.769 275.342L378.551 243.344L389.232 233.641Z"
            fill="#0A5CFF"
        />
        <path
            d="M321.104 233.641L274.916 275.079L321.104 316.518L331.497 307.077L296.566 275.342L331.785 243.344L321.104 233.641Z"
            fill="#0A5CFF"
        />
        <path
            d="M583.399 108.337C580.212 108.337 577.629 105.99 577.629 103.095C577.629 100.2 580.212 97.8526 583.399 97.8526C586.585 97.8526 589.168 100.2 589.168 103.095C589.168 105.99 586.585 108.337 583.399 108.337Z"
            fill="#0A5CFF"
        />
        <path
            d="M568.012 108.337C564.826 108.337 562.242 105.99 562.242 103.095C562.242 100.2 564.826 97.8526 568.012 97.8526C571.199 97.8526 573.782 100.2 573.782 103.095C573.782 105.99 571.199 108.337 568.012 108.337Z"
            fill="#0A5CFF"
        />
        <path
            d="M552.626 108.337C549.44 108.337 546.856 105.99 546.856 103.095C546.856 100.2 549.44 97.8526 552.626 97.8526C555.813 97.8526 558.396 100.2 558.396 103.095C558.396 105.99 555.813 108.337 552.626 108.337Z"
            fill="#0A5CFF"
        />
        <path opacity="0.1" d="M114.115 111.832H596.221V113.579H114.115V111.832Z" fill="black" />
        <path
            d="M56.2631 398.246L55.7072 367.16L32.5694 328.702L55.62 362.284L55.37 348.306L39.424 320.483L55.304 344.607L54.8546 319.468L37.7789 297.317L54.7841 315.515L54.5033 269.419L56.2682 330.442L56.1233 327.925L73.4843 303.781L56.4015 332.757L58.0191 360.833L58.0671 360.088L78.0815 334.68L58.128 362.72L58.33 366.232L58.3665 366.285L58.3499 366.573L62.4542 437.805H56.9709L56.3131 401.012L36.4076 373.04L56.2631 398.246Z"
            fill="#373737"
        />
        <path
            d="M643.388 437.478C645.053 438.32 646.81 439.004 648.631 439.518C651.887 440.326 655.367 440.03 658.655 440.719C660.002 441.002 661.467 441.593 661.896 442.786C662.21 443.662 661.868 444.607 661.541 445.479C657.907 455.159 655.716 465.438 649.921 474.206C647.485 477.889 644.462 481.223 640.95 484.101C639.633 485.18 638.14 486.235 636.376 486.404C635.563 486.482 634.742 486.364 633.995 486.062C633.249 485.759 632.603 485.283 632.124 484.682C631.644 484.08 631.348 483.374 631.265 482.635C631.182 481.897 631.315 481.151 631.65 480.474C632.17 479.425 633.136 478.612 633.759 477.611C634.435 476.335 634.831 474.952 634.925 473.539C635.498 469.398 636.05 465.071 634.471 461.153C633.412 458.525 631.469 456.284 629.851 453.903C628.232 451.521 626.888 448.793 627.248 446.014C627.494 444.117 628.512 442.381 629.588 440.74C630.666 439.096 632.796 434.678 634.962 434.129C637.21 433.56 641.427 436.565 643.388 437.478Z"
            fill="#373737"
        />
        <path
            d="M584.128 470.916C584.094 471.852 584.238 472.787 584.553 473.68C585.231 475.306 586.913 476.421 587.782 477.971C588.99 480.126 588.442 482.731 587.642 485.038C587.14 486.485 586.481 487.99 585.133 488.884C583.981 489.533 582.67 489.915 581.316 489.995C569.753 491.449 558.008 490.615 546.339 490.919C544.212 490.975 541.961 491.043 540.104 490.098C538.248 489.154 537.1 486.78 538.363 485.224C539.497 483.827 541.738 483.84 543.647 483.758C548.616 483.529 553.349 481.758 557.054 478.74C557.785 478.173 558.419 477.51 558.935 476.774C559.331 476.12 559.661 475.434 559.918 474.725C561.554 470.699 563.5 466.784 565.742 463.007C566.369 461.95 567.08 460.849 568.246 460.283C569.099 459.93 570.026 459.747 570.964 459.744C573.872 459.573 581.403 458.673 583.652 460.728C585.729 462.626 584.082 468.505 584.128 470.916Z"
            fill="#373737"
        />
        <path
            d="M566.232 236.3C555.973 236.3 547.656 228.744 547.656 219.423C547.656 210.102 555.973 202.546 566.232 202.546C576.491 202.546 584.808 210.102 584.808 219.423C584.808 228.744 576.491 236.3 566.232 236.3Z"
            fill="#FBBEBE"
        />
        <path
            d="M583.006 233.359C584.111 236.046 585.985 238.57 588.712 240.016L563.021 244.777C563.953 241.371 564.075 237.823 563.381 234.37C563.126 233.534 563.073 232.658 563.227 231.801C563.71 230.108 565.808 229.293 567.686 228.904C572.375 227.933 576.522 227.412 580.879 225.531C582.211 227.602 582.024 230.97 583.006 233.359Z"
            fill="#FBBEBE"
        />
        <path
            d="M588.927 233.697C586.163 232.561 583.152 232.008 580.119 232.08C577.086 232.152 574.111 232.847 571.416 234.113C568.123 235.69 565.395 238.07 562.716 240.419C560.246 242.584 557.611 245.062 557.436 248.176C557.351 249.685 557.869 251.16 558.131 252.652C558.601 255.737 558.003 258.878 556.42 261.641C554.837 264.403 552.348 266.65 549.296 268.069C547.255 271.158 546.834 274.9 546.803 278.503C546.684 292.154 551.425 305.972 548.04 319.272C547.246 322.395 546.014 325.42 545.327 328.563C544.438 332.635 544.482 336.822 544.017 340.952C543.512 345.424 542.412 349.824 540.739 354.055C541.857 355.67 544.184 356.29 546.279 356.159C548.375 356.028 550.334 355.202 552.204 354.332C561.259 350.123 569.552 344.572 578.93 340.994C585.134 338.628 591.744 337.153 597.762 334.42C603.781 331.686 609.379 327.347 611.219 321.467C612.015 318.924 612.064 316.245 612.108 313.602C612.291 302.469 612.461 291.215 609.793 280.347C607.441 270.764 602.907 261.596 601.918 251.818C601.596 248.636 601.589 245.228 599.632 242.573C596.865 238.819 590.892 237.847 588.927 233.697Z"
            fill="#373737"
        />
        <path
            d="M576.797 219.661C575.702 218.364 573.591 218.187 571.843 218.571C570.094 218.955 568.482 219.774 566.715 220.085C566.314 220.188 565.893 220.214 565.48 220.162C565.067 220.109 564.67 219.978 564.316 219.778C563.698 219.226 563.329 218.485 563.28 217.699C562.661 214.355 562.517 210.953 562.85 207.576C562.942 207.102 562.907 206.615 562.748 206.156C562.311 205.199 560.977 204.971 559.887 204.664C558.09 204.112 556.546 203.031 555.5 201.593C554.453 200.155 553.964 198.442 554.109 196.723C554.137 195.899 554.518 195.117 555.171 194.544C555.925 193.987 556.979 193.952 557.951 193.945C562.945 193.909 567.938 193.91 572.932 193.948C574.78 193.963 576.721 194.004 578.323 194.841C579.507 195.46 580.388 196.456 581.452 197.236C584.225 199.269 587.977 199.683 591.351 200.725C592.998 201.151 594.494 201.962 595.69 203.076C596.812 204.241 597.351 205.973 596.646 207.382C596.285 207.969 595.881 208.534 595.437 209.073C593.446 211.965 594.772 215.715 594.474 219.115C594.103 223.36 587.188 230.246 582.499 231.251C574.929 232.873 579.303 222.448 576.797 219.661Z"
            fill="#373737"
        />
        <path
            d="M587.284 405.787C586.806 408.887 586.193 411.997 586.357 415.123C586.586 419.488 588.318 423.694 588.639 428.053C588.878 431.31 588.324 434.602 588.822 437.834C589.141 439.903 589.884 441.898 590.344 443.946C591.072 447.283 591.051 450.719 590.283 454.048C589.515 457.377 588.015 460.531 585.873 463.322C585.559 463.799 585.111 464.193 584.576 464.464C584.063 464.637 583.513 464.703 582.968 464.657C577.562 464.557 572.169 464.112 566.832 463.325C566.441 463.31 566.071 463.162 565.795 462.909C565.675 462.742 565.598 462.552 565.57 462.354C564.581 457.731 566.838 453.097 567.412 448.416C568.025 443.419 566.705 438.411 565.395 433.526C564.801 431.116 564.059 428.738 563.172 426.404C562.539 424.833 561.774 423.305 561.225 421.708C560.448 419.199 559.974 416.62 559.813 414.018C559.432 409.911 559.23 405.796 559.208 401.67C559.078 397.761 559.436 393.851 560.275 390.015C561.479 385.159 563.945 380.649 566.389 376.194C567.695 376.478 568.922 377.008 569.99 377.749C573.14 379.602 576.428 381.253 579.831 382.688C582.118 383.653 586.577 384.339 588.028 386.35C589.459 388.333 588.536 392.378 588.426 394.565C588.239 398.319 587.858 402.06 587.284 405.787Z"
            fill="#373737"
        />
        <path
            opacity="0.1"
            d="M587.284 405.787C586.806 408.887 586.193 411.997 586.357 415.123C586.586 419.488 588.318 423.694 588.639 428.053C588.878 431.31 588.324 434.602 588.822 437.834C589.141 439.903 589.884 441.898 590.344 443.946C591.072 447.283 591.051 450.719 590.283 454.048C589.515 457.377 588.015 460.531 585.873 463.322C585.559 463.799 585.111 464.193 584.576 464.464C584.063 464.637 583.513 464.703 582.968 464.657C577.562 464.557 572.169 464.112 566.832 463.325C566.441 463.31 566.071 463.162 565.795 462.909C565.675 462.742 565.598 462.552 565.57 462.354C564.581 457.731 566.838 453.097 567.412 448.416C568.025 443.419 566.705 438.411 565.395 433.526C564.801 431.116 564.059 428.738 563.172 426.404C562.539 424.833 561.774 423.305 561.225 421.708C560.448 419.199 559.974 416.62 559.813 414.018C559.432 409.911 559.23 405.796 559.208 401.67C559.078 397.761 559.436 393.851 560.275 390.015C561.479 385.159 563.945 380.649 566.389 376.194C567.695 376.478 568.922 377.008 569.99 377.749C573.14 379.602 576.428 381.253 579.831 382.688C582.118 383.653 586.577 384.339 588.028 386.35C589.459 388.333 588.536 392.378 588.426 394.565C588.239 398.319 587.858 402.06 587.284 405.787Z"
            fill="black"
        />
        <path
            d="M612.397 339.582C614.864 345.616 611.238 352.137 608.088 357.902C600.327 372.106 594.937 387.262 589.576 402.353C589.175 403.484 588.773 404.717 589.221 405.833C589.608 406.626 590.235 407.302 591.03 407.783C594.726 410.333 599.433 411.242 603.836 412.576C608.091 413.866 612.167 415.602 615.98 417.748C619.171 419.544 622.16 421.618 625.143 423.688L634.638 430.277C635.253 430.654 635.79 431.127 636.226 431.673C637.142 432.978 636.766 434.682 636.31 436.174C635.103 440.124 633.548 443.979 631.661 447.702C631.351 448.518 630.759 449.222 629.975 449.71C628.493 450.433 626.68 449.474 625.548 448.343C624.416 447.211 623.437 445.804 621.842 445.318C620.248 444.833 618.494 445.42 616.83 445.208C614.138 444.865 612.351 442.612 610.411 440.882C602.483 433.817 589.248 434.329 580.528 428.082C579.267 427.057 577.933 426.11 576.533 425.247C575.059 424.455 573.387 424.02 571.857 423.321C567.205 421.192 564.281 416.792 562.714 412.279C561.147 407.766 560.7 403.002 559.574 398.381C558.992 395.993 558.226 393.63 557.967 391.195C557.801 388.93 557.855 386.656 558.13 384.4L561.276 349.036C561.532 346.156 561.789 343.274 562.286 340.421C571.631 340.724 580.97 341.066 590.32 341.166C597.76 341.246 605.338 341.719 612.397 339.582Z"
            fill="#373737"
        />
        <path
            d="M615.832 347.855C614.565 349.707 611.479 349.669 609.355 348.654C607.23 347.638 605.579 345.932 603.45 344.925C600.588 343.572 597.201 343.623 593.977 343.706C588.871 343.837 583.703 343.976 578.791 345.247C573.71 346.562 568.765 349.094 563.511 348.589C562.597 348.501 561.597 348.263 561.1 347.56C560.808 347.051 560.671 346.481 560.703 345.909L560.531 341.739C560.426 341.018 560.553 340.284 560.896 339.627C561.337 339.08 561.942 338.66 562.637 338.416C570.115 335.127 578.642 334.515 586.945 334.257C591.165 334.125 595.387 334.071 599.611 334.094C603.196 334.114 607.499 333.643 610.983 334.513C615.66 335.681 618.205 344.388 615.832 347.855Z"
            fill="#373737"
        />
        <path
            d="M568.881 238.647C578.678 238.568 587.557 232.693 597.353 232.55C598.537 232.475 599.723 232.661 600.81 233.092C602.175 233.717 603.073 234.925 604.11 235.945C607.007 238.795 611.201 240.316 614.177 243.098C616.967 245.706 618.519 249.592 617.418 253.089C616.316 256.586 612.158 259.268 608.263 258.427C606.694 253.812 603.455 249.814 599.072 247.081C596.791 245.752 594.388 244.606 591.888 243.655C587.485 241.843 582.562 239.996 577.965 241.354C576.27 241.936 574.671 242.728 573.215 243.708L565.551 248.385C566.444 245.185 567.247 241.596 568.881 238.647Z"
            fill="#2397FF"
        />
        <path
            d="M609.392 255.334C610.693 256.808 608.818 258.945 609.105 260.816C609.296 262.06 610.422 263.01 610.891 264.191C611.377 265.414 611.12 266.769 611.304 268.059C611.489 268.997 611.762 269.918 612.121 270.814C612.947 273.488 613.523 276.221 613.844 278.983L615.558 290.618C615.856 292.369 616.037 294.135 616.101 295.905C616.014 297.229 616.112 298.557 616.391 299.858C616.77 301.13 617.611 302.242 618.177 303.455C618.743 304.668 619.005 306.136 618.241 307.255C620.799 309.192 621.56 312.995 619.771 315.547C619.43 315.944 619.164 316.39 618.982 316.866C618.884 317.532 619.004 318.209 619.33 318.812L621.064 323.009C621.508 324.084 621.648 325.72 620.414 325.965C621.436 326.929 622.232 328.072 622.755 329.324C623.008 329.952 623.084 330.628 622.975 331.291C622.866 331.953 622.576 332.579 622.131 333.113C621.701 333.456 621.334 333.861 621.045 334.311C620.876 334.937 620.919 335.596 621.171 336.2C621.43 337.116 621.48 338.072 621.318 339.007C621.155 339.941 620.784 340.836 620.226 341.636C619.649 342.425 618.831 343.044 617.872 343.417C616.914 343.79 615.856 343.902 614.829 343.738C611.361 343.027 608.244 341.905 604.746 342.488C597.216 343.743 589.661 345.004 582.368 347.12C574.044 349.534 565.984 353.075 557.285 353.818C556.712 353.925 556.117 353.84 555.607 353.581C555.164 353.199 554.888 352.685 554.831 352.132C553.935 348.314 553.039 344.496 552.143 340.678C551.059 336.446 550.234 332.163 549.671 327.848C549.365 325.063 549.278 322.263 549.191 319.465L548.498 297.197C548.173 293.915 548.655 290.609 549.908 287.517L553.894 275.956C556.169 269.359 561.387 263.509 563.245 256.804C564.421 252.561 565.29 248.007 568.443 244.7C572.939 239.985 580.717 239.252 587.524 240.063C590.6 240.429 593.702 241.061 596.362 242.51C599.438 244.186 601.704 246.825 603.897 249.404C605.704 251.529 607.543 253.238 609.392 255.334Z"
            fill="#0A5CFF"
        />
        <path
            d="M593.496 320.831C592.935 323.028 591.757 325.054 591.036 327.212C589.828 330.829 589.93 334.723 588.725 338.34C588.218 339.859 587.485 341.316 587.122 342.868C586.275 346.485 587.512 350.227 589.048 353.652C590.584 357.077 592.454 360.454 592.953 364.125C593.304 366.71 592.799 369.629 590.606 371.307C588.329 373.048 585.02 372.931 582.055 372.699C580.99 372.672 579.939 372.473 578.951 372.112C576.683 371.137 575.728 368.699 575.197 366.471C573.421 359.004 573.928 351.265 574.445 343.64L575.795 323.7C576.055 319.861 576.333 315.943 577.635 312.257C578.109 310.916 578.935 308.207 580.283 307.351C581.618 306.503 585.431 306.465 587.084 306.394C594.84 306.063 594.753 315.899 593.496 320.831Z"
            fill="#FBBEBE"
        />
        <path
            d="M584.903 247.208C586.487 246.454 588.482 246.779 590.013 247.618C591.492 248.538 592.786 249.68 593.842 250.996C597.265 254.791 600.888 259.147 600.38 264.032C600.19 265.864 599.418 267.597 598.895 269.375C596.6 277.168 599.138 285.41 598.846 293.472C598.678 298.131 597.562 302.714 596.451 307.265C596.224 308.193 595.861 309.268 594.872 309.581C594.129 309.816 593.327 309.514 592.592 309.26C589.853 308.341 586.91 308.034 584.013 308.365C581.116 308.697 578.349 309.658 575.947 311.166C574.11 310.276 574.798 307.46 575.21 305.606C576.434 300.097 574.773 294.415 572.756 289.102C570.739 283.79 568.325 278.484 567.991 272.872C567.612 266.514 569.933 260.308 572.222 254.29C572.722 252.976 573.268 251.599 574.427 250.692C575.419 250.021 576.555 249.55 577.762 249.307C580.194 248.654 582.656 248.277 584.903 247.208Z"
            fill="#373737"
        />
    </g>
    <defs>
        <clipPath id="clip0">
            <rect width="722" height="498" fill="white" transform="matrix(-1 0 0 1 722 0)" />
        </clipPath>
    </defs>
</svg>
