<svg width="657" height="230" viewBox="0 0 657 230" fill="none" xmlns="http://www.w3.org/2000/svg">
<rect y="1" width="223" height="221" fill="#007ACC"/>
<path d="M434 0H657V221H434V0Z" fill="#F0DB4F"/>
<path d="M128.16 104.98V123.6H98.9V202H77.06V123.6H47.8V104.98H128.16ZM168.656 185.34C171.736 185.34 174.256 185.107 176.216 184.64C178.269 184.08 179.903 183.38 181.116 182.54C182.329 181.607 183.169 180.533 183.636 179.32C184.103 178.107 184.336 176.753 184.336 175.26C184.336 172.087 182.843 169.473 179.856 167.42C176.869 165.273 171.736 162.987 164.456 160.56C161.283 159.44 158.109 158.18 154.936 156.78C151.763 155.287 148.916 153.467 146.396 151.32C143.876 149.08 141.823 146.42 140.236 143.34C138.649 140.167 137.856 136.34 137.856 131.86C137.856 127.38 138.696 123.367 140.376 119.82C142.056 116.18 144.436 113.1 147.516 110.58C150.596 108.06 154.329 106.147 158.716 104.84C163.103 103.44 168.049 102.74 173.556 102.74C180.089 102.74 185.736 103.44 190.496 104.84C195.256 106.24 199.176 107.78 202.256 109.46L195.956 126.68C193.249 125.28 190.216 124.067 186.856 123.04C183.589 121.92 179.623 121.36 174.956 121.36C169.729 121.36 165.949 122.107 163.616 123.6C161.376 125 160.256 127.193 160.256 130.18C160.256 131.953 160.676 133.447 161.516 134.66C162.356 135.873 163.523 136.993 165.016 138.02C166.603 138.953 168.376 139.84 170.336 140.68C172.389 141.427 174.629 142.22 177.056 143.06C182.096 144.927 186.483 146.793 190.216 148.66C193.949 150.433 197.029 152.533 199.456 154.96C201.976 157.387 203.843 160.233 205.056 163.5C206.269 166.767 206.876 170.733 206.876 175.4C206.876 184.453 203.703 191.5 197.356 196.54C191.009 201.487 181.443 203.96 168.656 203.96C164.363 203.96 160.489 203.68 157.036 203.12C153.583 202.653 150.503 202.047 147.796 201.3C145.183 200.553 142.896 199.76 140.936 198.92C139.069 198.08 137.483 197.287 136.176 196.54L142.336 179.18C145.229 180.767 148.776 182.213 152.976 183.52C157.269 184.733 162.496 185.34 168.656 185.34Z" fill="#F4F4F4"/>
<path d="M556.26 169.38C556.26 174.14 555.7 178.62 554.58 182.82C553.553 187.02 551.687 190.707 548.98 193.88C546.367 196.96 542.773 199.433 538.2 201.3C533.72 203.073 528.027 203.96 521.12 203.96C514.773 203.96 509.313 203.213 504.74 201.72C500.167 200.133 496.387 198.313 493.4 196.26L500.68 179.32C503.387 180.907 506.28 182.307 509.36 183.52C512.44 184.733 515.8 185.34 519.44 185.34C524.76 185.34 528.587 184.033 530.92 181.42C533.253 178.807 534.42 174.42 534.42 168.26V104.98H556.26V169.38ZM603.762 185.34C606.842 185.34 609.362 185.107 611.322 184.64C613.375 184.08 615.008 183.38 616.222 182.54C617.435 181.607 618.275 180.533 618.742 179.32C619.208 178.107 619.442 176.753 619.442 175.26C619.442 172.087 617.948 169.473 614.962 167.42C611.975 165.273 606.842 162.987 599.562 160.56C596.388 159.44 593.215 158.18 590.042 156.78C586.868 155.287 584.022 153.467 581.502 151.32C578.982 149.08 576.928 146.42 575.342 143.34C573.755 140.167 572.962 136.34 572.962 131.86C572.962 127.38 573.802 123.367 575.482 119.82C577.162 116.18 579.542 113.1 582.622 110.58C585.702 108.06 589.435 106.147 593.822 104.84C598.208 103.44 603.155 102.74 608.662 102.74C615.195 102.74 620.842 103.44 625.602 104.84C630.362 106.24 634.282 107.78 637.362 109.46L631.062 126.68C628.355 125.28 625.322 124.067 621.962 123.04C618.695 121.92 614.728 121.36 610.062 121.36C604.835 121.36 601.055 122.107 598.722 123.6C596.482 125 595.362 127.193 595.362 130.18C595.362 131.953 595.782 133.447 596.622 134.66C597.462 135.873 598.628 136.993 600.122 138.02C601.708 138.953 603.482 139.84 605.442 140.68C607.495 141.427 609.735 142.22 612.162 143.06C617.202 144.927 621.588 146.793 625.322 148.66C629.055 150.433 632.135 152.533 634.562 154.96C637.082 157.387 638.948 160.233 640.162 163.5C641.375 166.767 641.982 170.733 641.982 175.4C641.982 184.453 638.808 191.5 632.462 196.54C626.115 201.487 616.548 203.96 603.762 203.96C599.468 203.96 595.595 203.68 592.142 203.12C588.688 202.653 585.608 202.047 582.902 201.3C580.288 200.553 578.002 199.76 576.042 198.92C574.175 198.08 572.588 197.287 571.282 196.54L577.442 179.18C580.335 180.767 583.882 182.213 588.082 183.52C592.375 184.733 597.602 185.34 603.762 185.34Z" fill="#373737"/>
<rect x="223" y="107" width="211" height="9" fill="url(#paint0_linear)"/>
<defs>
<linearGradient id="paint0_linear" x1="234" y1="112" x2="423.5" y2="112" gradientUnits="userSpaceOnUse">
<stop stop-color="#007ACC"/>
<stop offset="1" stop-color="#F0DB4F"/>
</linearGradient>
</defs>
</svg>
