<svg width="1000" height="750" fill="none" xmlns="http://www.w3.org/2000/svg"><path fill="#03A8CC" d="M0 0h1000v750H0z"/><path d="m364.368 512.33-127.863-69.577 127.863-73.554V512.33Z" fill="#40ADBD"/><path d="m363.489 512.33-4.846-284.353L482.69 292.47v144.619L363.489 512.33Z" fill="#7FD8EC"/><path d="M122 237.194 243.184 165l119.275 64.595L122 376.833V237.194Z" fill="#7FECC0"/><path d="m245.092 585.804 119.276-74.428L122 375.879v143.13l123.092 66.795Z" fill="#7FECEC"/><path d="m362.459 371.435-3.909-143.458-118.229 73.173v140.569l122.138-70.284Z" fill="#4FD6DB"/><path d="M242.23 300.497v143.131L122 375.931l120.23-75.434Z" fill="#4ADBB5"/><path d="M315.33 374h-26.84c-9.166 0-15.986-1.833-20.46-5.5-4.4-3.667-6.6-9.313-6.6-16.94v-34.21c0-7.627 2.2-13.273 6.6-16.94 4.474-3.74 11.294-5.61 20.46-5.61h26.84c1.394 0 2.384.33 2.97.99.66.587.99 1.577.99 2.97v13.31c0 1.393-.33 2.42-.99 3.08-.586.587-1.576.88-2.97.88h-22.11c-2.273 0-3.96.477-5.06 1.43-1.1.88-1.65 2.237-1.65 4.07v26.18c0 1.833.55 3.19 1.65 4.07 1.1.807 2.787 1.21 5.06 1.21h22.11c1.394 0 2.384.33 2.97.99.66.587.99 1.577.99 2.97v13.09c0 1.393-.33 2.42-.99 3.08-.586.587-1.576.88-2.97.88Zm45.093-56.1-5.17 16.72h17.27l-5.17-16.72c-.294-.66-.624-1.137-.99-1.43a1.495 1.495 0 0 0-1.1-.44h-2.75c-.44 0-.844.147-1.21.44-.294.293-.587.77-.88 1.43Zm-6.27 52.14c0 1.393-.33 2.42-.99 3.08-.587.587-1.577.88-2.97.88h-16.17c-1.394 0-2.42-.293-3.08-.88-.587-.66-.88-1.687-.88-3.08V341c0-2.2.33-4.73.99-7.59.733-2.86 1.833-6.197 3.3-10.01l9.57-24.97c.44-1.247 1.1-2.163 1.98-2.75.953-.587 2.163-.88 3.63-.88h29.59c1.393 0 2.53.293 3.41.88.953.587 1.65 1.503 2.09 2.75l9.57 24.97c1.466 3.813 2.53 7.15 3.19 10.01.733 2.86 1.1 5.39 1.1 7.59v29.04c0 1.393-.33 2.42-.99 3.08-.587.587-1.577.88-2.97.88h-16.61c-1.467 0-2.567-.293-3.3-.88-.66-.66-.99-1.687-.99-3.08v-15.4h-19.47v15.4Zm78.371 3.96h-16.5c-1.393 0-2.42-.293-3.08-.88-.587-.66-.88-1.687-.88-3.08v-71.28c0-1.393.293-2.383.88-2.97.66-.66 1.687-.99 3.08-.99h11.44c1.393 0 2.567.22 3.52.66 1.027.44 2.017 1.21 2.97 2.31l21.34 24.42v-23.43c0-1.393.293-2.383.88-2.97.66-.66 1.687-.99 3.08-.99h16.5c1.393 0 2.383.33 2.97.99.66.587.99 1.577.99 2.97v71.28c0 1.393-.33 2.42-.99 3.08-.587.587-1.577.88-2.97.88h-16.5c-1.393 0-2.42-.293-3.08-.88-.587-.66-.88-1.687-.88-3.08v-13.53l-18.81-22.77v36.3c0 1.393-.33 2.42-.99 3.08-.587.587-1.577.88-2.97.88Zm109.222 0h-28.6c-1.393 0-2.566-.257-3.52-.77-.88-.513-1.576-1.467-2.09-2.86l-10.78-26.95c-.66-1.613-1.21-3.007-1.65-4.18a47.419 47.419 0 0 1-1.1-3.52 25.606 25.606 0 0 1-.66-3.41 78.801 78.801 0 0 1-.11-4.51v-29.04c0-1.393.294-2.383.88-2.97.66-.66 1.687-.99 3.08-.99h17.49c1.394 0 2.457.33 3.19.99.734.587 1.1 1.577 1.1 2.97v30.36c0 .733.074 1.467.22 2.2.147.733.367 1.503.66 2.31l5.17 15.4c.22.733.477 1.247.77 1.54.294.22.734.33 1.32.33h1.21c.587 0 1.027-.11 1.32-.33.294-.293.55-.807.77-1.54l5.17-15.51c.294-.807.514-1.577.66-2.31.147-.733.22-1.467.22-2.2v-30.25c0-1.393.294-2.383.88-2.97.66-.66 1.687-.99 3.08-.99h17.27c1.394 0 2.384.33 2.97.99.66.587.99 1.577.99 2.97v29.04c0 1.76-.073 3.263-.22 4.51a17.347 17.347 0 0 1-.55 3.41 46.95 46.95 0 0 1-1.1 3.52c-.44 1.173-.99 2.567-1.65 4.18l-10.78 26.95c-.513 1.393-1.246 2.347-2.2 2.86-.88.513-2.016.77-3.41.77Zm61.128-56.1-5.17 16.72h17.27l-5.17-16.72c-.294-.66-.624-1.137-.99-1.43a1.495 1.495 0 0 0-1.1-.44h-2.75c-.44 0-.844.147-1.21.44-.294.293-.587.77-.88 1.43Zm-6.27 52.14c0 1.393-.33 2.42-.99 3.08-.587.587-1.577.88-2.97.88h-16.17c-1.394 0-2.42-.293-3.08-.88-.587-.66-.88-1.687-.88-3.08V341c0-2.2.33-4.73.99-7.59.733-2.86 1.833-6.197 3.3-10.01l9.57-24.97c.44-1.247 1.1-2.163 1.98-2.75.953-.587 2.163-.88 3.63-.88h29.59c1.393 0 2.53.293 3.41.88.953.587 1.65 1.503 2.09 2.75l9.57 24.97c1.466 3.813 2.53 7.15 3.19 10.01.733 2.86 1.1 5.39 1.1 7.59v29.04c0 1.393-.33 2.42-.99 3.08-.587.587-1.577.88-2.97.88h-16.61c-1.467 0-2.567-.293-3.3-.88-.66-.66-.99-1.687-.99-3.08v-15.4h-19.47v15.4Zm94.651 3.96h-34.76c-1.393 0-2.42-.293-3.08-.88-.586-.66-.88-1.687-.88-3.08v-12.87c0-1.393.294-2.383.88-2.97.66-.66 1.687-.99 3.08-.99h29.59c.954 0 1.65-.293 2.09-.88.514-.66.77-1.43.77-2.31 0-1.247-.256-2.163-.77-2.75-.44-.587-1.136-.917-2.09-.99l-16.5-2.31c-5.133-.733-9.276-2.42-12.43-5.06-3.08-2.64-4.62-7.04-4.62-13.2v-11.55c0-6.233 2.017-11 6.05-14.3 4.034-3.373 9.607-5.06 16.72-5.06h30.8c1.394 0 2.384.33 2.97.99.66.587.99 1.577.99 2.97v13.09c0 1.393-.33 2.42-.99 3.08-.586.587-1.576.88-2.97.88h-25.63c-.953 0-1.686.33-2.2.99-.513.587-.77 1.357-.77 2.31 0 .953.257 1.76.77 2.42.514.66 1.247 1.027 2.2 1.1l16.39 2.2c5.134.733 9.277 2.42 12.43 5.06 3.154 2.64 4.73 7.04 4.73 13.2v11.55c0 6.233-2.053 11.037-6.16 14.41-4.033 3.3-9.57 4.95-16.61 4.95ZM766.802 390.495c.911 3.4 1.026 7.385.346 11.957-.68 4.572-2.096 9.176-4.25 13.811-2.077 4.615-5.169 8.218-9.279 10.81-1.575.919-3.484 1.679-5.725 2.279-2.163.58-4.745.526-7.745-.161l-3.651 30.422c-.496 2.783-1.143 4.696-1.941 5.738-.797 1.042-1.66 1.687-2.587 1.935l-1.623.435c-.232.062-.958.133-2.179.211-1.299.1-2.247.271-2.844.514 1.265-2.078 3.522-10.965 6.77-26.661 3.192-15.597 4.609-25.916 4.253-30.955-.519 1.464-1.154 2.338-1.906 2.622-.464.125-.578-.3-.342-1.275.215-1.051.522-2.997.921-5.837.5-3.695.378-6.934-.367-9.716-.767-2.859-1.753-4.375-2.959-4.549 4.43-2.015 7.041-3.088 7.835-3.217.772-.208 1.319-.023 1.639.554.397.556.7 1.221.907 1.993 1.263 4.714 1.589 10.259.978 16.634l1.324-4.33c1.581-5.228 2.814-8.664 3.699-10.309.961-1.665 1.99-3.39 3.085-5.175 1.661-2.764 3.535-4.426 5.622-4.985a6.569 6.569 0 0 1 1.8-.234c4.133-.03 6.873 2.466 8.219 7.489Zm-5.875.331c-.331-1.236-.902-2.284-1.712-3.144-.753-.957-1.671-1.291-2.753-1.001-2.704.724-5.2 4.085-7.486 10.081-2.209 5.975-4.997 16.122-8.366 30.442 1.274.736 2.8.865 4.577.389 1.777-.476 3.926-2.502 6.447-6.076 4.018-5.714 6.906-12.244 8.665-19.59 1.123-4.773 1.332-8.473.628-11.101Zm18.869 6.001c.005.33-.053 1.505-.174 3.525a82.547 82.547 0 0 0-.225 5.651c.049 1.726.301 3.439.756 5.139a10.166 10.166 0 0 0 2.401 4.326c1.146 1.184 2.569 1.548 4.269 1.093 2.782-.746 4.989-3.325 6.623-7.738 1.612-4.49 3.111-10.027 4.494-16.609.328-1.248.794-1.828 1.397-1.741.469.206.66.61.574 1.213-.108.526-.32 1.742-.638 3.649-.26 1.809-.491 3.113-.691 3.912-.143.701-.451 2.026-.923 3.975-.415 1.85-.856 3.294-1.324 4.33-.411.938-1.02 2.22-1.827 3.844-.751 1.526-1.546 2.733-2.384 3.62-2.25 2.425-4.572 3.958-6.967 4.6-2.396.642-4.385.637-5.968-.016-1.603-.73-2.715-1.633-3.335-2.709-.563-1.174-.969-2.225-1.217-3.152a74.25 74.25 0 0 1-.847-3.625 38.252 38.252 0 0 1-.535-7.559c.152-2.525.225-3.953.219-4.283.059-6.89.697-14.556 1.913-22.998 1.294-8.463 2.554-14.888 3.78-19.275 1.283-4.485 2.395-7.599 3.336-9.342 1.882-3.486 4.098-5.57 6.648-6.254 1.777-.476 3.317.478 4.618 2.862.202.443.396 1.013.582 1.708.704 2.627.667 6.199-.111 10.714-2.691 16.54-7.505 30.253-14.444 41.14Zm-.067-3.957c2.865-5.075 5.411-11.182 7.639-18.322 2.228-7.14 3.661-13.073 4.299-17.799.695-4.824.836-8.009.422-9.555-.414-1.545-.892-2.245-1.433-2.101-.773.208-1.827 2.146-3.162 5.817-1.356 3.594-2.823 9.867-4.399 18.82-1.52 8.855-2.642 16.568-3.366 23.14Zm18.391 15.819c-.89-3.323-.538-7.724 1.059-13.204-1.237.331-1.75-.194-1.541-1.575l1-4.616c1.281-5.727 2.306-10.557 3.074-14.49.338-1.83 1.628-3.045 3.869-3.645l7.07-1.895c-2.243 2.755-4.018 7.413-5.324 13.975-1.25 6.463-2.202 11.564-2.858 15.3-.675 3.66-.786 6.34-.33 8.04.455 1.7 1.047 2.825 1.774 3.376.805.53 1.709.66 2.714.391 1.468-.394 3.102-2.488 4.901-6.283 2.812-5.888 5.866-17.515 9.164-34.88.415-1.851 1.705-3.066 3.869-3.646l6.259-1.677c-1.348 1.769-2.338 3.484-2.97 5.144-.555 1.64-1.206 4.464-1.953 8.474-2.152 10.516-3.095 17.353-2.828 20.511.058 1.144.211 2.18.46 3.107.662 2.473 1.864 3.559 3.606 3.258 4.173-1.118 7.582-8.948 10.229-23.488.174-1.206.524-1.755 1.049-1.648.526.108.841.355.944.741.104.386-.006 1.368-.328 2.946a201.793 201.793 0 0 1-1 4.615c-.266 1.48-.784 3.565-1.554 6.256-.713 2.593-1.473 4.701-2.28 6.326-2.103 4.207-4.622 6.704-7.559 7.491-2.859.766-5.171.019-6.936-2.241-.774-1.035-1.4-2.441-1.876-4.218-.476-1.777-.68-4.083-.611-6.918-2.991 11.403-6.882 17.746-11.673 19.03-4.172 1.118-7.072.031-8.7-3.26-.335-.324-.575-.756-.72-1.297Zm56.552-10.308c1.046-.115 1.762-.224 2.149-.328 3.091-.828 5.657-3.462 7.697-7.901 1.085-2.444 2.626-8.282 4.625-17.514.051-.428.27-.693.656-.797.675-.263 1.095-.086 1.26.532.042.155-.027.67-.206 1.546a67.552 67.552 0 0 0-.338 2.451c-.122.778-.345 1.956-.668 3.533-.323 1.578-.641 2.864-.954 3.859a65.155 65.155 0 0 1-1.016 3.626c-.441 1.444-.955 2.617-1.541 3.519l-1.751 3.203a11.38 11.38 0 0 1-3.891 4.024c-2.611 1.693-5.372 2.516-8.284 2.468-1.57 1.249-3.051 2.06-4.442 2.432-5.486 1.47-9.389.197-11.707-3.82-.501-.942-.938-2.109-1.311-3.5-.393-1.468-.302-2.983.273-4.545.653-1.583 1.509-2.558 2.571-2.925 1.932-8.552 3.482-16.214 4.649-22.987 1.331-7.396 4.044-11.643 8.139-12.741 1.082-.29 2.198-.299 3.347-.027 1.207.174 1.738.611 1.594 1.312-.066.681-.576.941-1.529.783-.954-.159-1.74-.155-2.358.01-.618.166-1.128.427-1.529.783-2.296 1.94-2.896 4.958-1.798 9.054.579 2.163 1.365 3.858 2.356 5.083.991 1.226 2.09 2.546 3.297 3.962 2.854 3.542 4.623 6.588 5.306 9.138.684 2.55.545 5.279-.415 8.186-.96 2.908-2.354 5.435-4.181 7.581Zm-4.158.244c2.696-3.538 3.257-8.244 1.684-14.117-.642-2.395-1.793-5.607-3.452-9.635-1.659-4.027-2.685-6.776-3.078-8.244-.394-1.468-.624-2.483-.692-3.044-2.726 13.319-4.442 21.44-5.15 24.363 1.623-.435 2.745.506 3.366 2.825 1.222 4.559 3.662 7.176 7.322 7.852Zm-9.532-.8c.124.464.298.956.52 1.476 1.177 1.921 2.886 2.581 5.127 1.98.927-.248 1.659-.61 2.194-1.085-3.335-1.011-5.657-3.494-6.966-7.451-1.018 1.764-1.31 3.457-.875 5.08Z" fill="#000"/></svg>