<svg width="1000" height="750" fill="none" xmlns="http://www.w3.org/2000/svg"><path fill="#F4F4F4" d="M0 0h1000v750H0z"/><path fill="#fff" d="M526.177 207.823 613 121l84.5 84.5-86.823 86.823z"/><path d="m613.5 120-83 86h-57l83-86h57L572 79.5 444 206h-54L515.5 79.5H572l41.5 40.5z" fill="#fff"/><path d="M530 373.5 699 206l-85.5-86m0 0-83 86h-57l83-86h57zm0 0L572 79.5m0 0L444 206h-54L515.5 79.5H572z" stroke="#11B0D1" stroke-width="3"/><path d="M359 205.5 528.5 37h-56l-169 168.5H359z" fill="#fff" stroke="#11B0D1" stroke-width="3"/><path d="M473.377 374.5 300 206.5h59.5l171.5 168h-57.623zM512.562 333.5 386 207.5h58.413L572 331.516l-1.537 1.984h-57.901zM556 292.5l-86-85h61.243l83.257 81-4 4H556z" fill="#11B0D1"/><g clip-path="url(#a)"><path d="m208.672 708.023-15.569-1.17 5.19 26.315 17.644-8.187-7.265-16.958z" fill="#FFB9B9"/><path d="m351.385 658.901-36.326-39.766-20.759 18.129-40.998 55.554 4.671 8.187 49.82-38.011 33.732 49.707 32.176-18.128-22.316-35.672z" fill="#2F2E41"/><path opacity=".1" d="m351.385 658.901-36.326-39.766-20.759 18.129-40.998 55.554 4.671 8.187 49.82-38.011 33.732 49.707 32.176-18.128-22.316-35.672z" fill="#000"/><path d="m354.499 685.216-4.671 4.093-37.884-14.619-8.822-4.094-17.644 4.094s0-16.374 16.606-15.789l17.126 4.678 20.239 1.754 15.05 19.883z" fill="#FFB9B9"/><path d="m388.231 728.49-11.417 8.187h-13.493l-62.794-26.315-91.855 18.713-2.595-22.222 84.071-41.519 73.693 27.484 24.39 35.672z" fill="#2F2E41"/><path d="m314.539 624.398-7.784 1.755-1.696-2.23c-1.343-1.766-2.194-3.939-2.446-6.246a13.139 13.139 0 0 1 1.028-6.729l21.797-32.163s6.227-15.789 16.087-9.356c9.86 6.432-8.303 16.958-8.303 16.958l-10.898 19.298 1.038 9.942-8.823 8.771z" fill="#FFB9B9"/><path d="M363.84 586.387c11.178 0 20.24-10.21 20.24-22.806s-9.062-22.807-20.24-22.807c-11.177 0-20.239 10.211-20.239 22.807 0 12.596 9.062 22.806 20.239 22.806z" fill="#FFB9B9"/><path d="m354.759 580.247 9.341 25.146 22.315-10.526s-7.265-19.883-7.265-20.468c0-.584-24.391 5.848-24.391 5.848z" fill="#FFB9B9"/><path d="M416.208 654.638c0 13.764-1.925 27.442-5.703 40.531l-1.515 5.251-7.266 37.427-7.784 2.339-5.709-8.187-11.417-9.357-8.303-15.204-7.12-13.368-2.221-4.176-7.785-43.859-29.58-18.713-9.861-1.754 2.076-6.433 8.822-13.45 8.823-1.169 2.595-2.339 2.075 1.169 8.304-5.263 2.595 1.17 15.174 1.59 9.217-2.175 13.254-8.017 5.428 1 18.683 17.543c4.776 14.546 7.22 29.933 7.218 45.444z" fill="#575A89"/><path d="M197.882 717.078s4.648-8.878 2.685-9.914c-1.963-1.036-10.301-5.168-10.301-5.168l-12.227-4.566s-17.643-29.547-18.031-3.852c-.387 25.694 12.847 31.871 12.847 31.871s11.802 28.622 18.488 24.058 13.376-20.058 13.376-20.058-12.056-7.303-6.837-12.371z" fill="#2F2E41"/><path opacity=".1" d="m410.547 649.544-19.721 14.62-29.435 29.905-2.221-4.175-6.228-35.087h1.557l16.088-33.332 39.96 28.069z" fill="#000"/><path d="m370.587 617.966-16.088 33.332h-5.708l-3.633 11.696-8.303 2.34 22.315 27.484 31.656-32.163 19.721-14.62-39.96-28.069z" fill="#575A89"/><path d="m348.098 546.623-2.193.951a3.297 3.297 0 0 1-.848-.973 3.72 3.72 0 0 1-.447-1.266 3.877 3.877 0 0 1 .023-1.363c.088-.449.254-.872.49-1.247l-4.053-.214c2.602-3.904 5.909-7.141 9.704-9.497 3.794-2.356 7.99-3.777 12.308-4.169a27.425 27.425 0 0 1 12.743 1.894c4.08 1.64 7.805 4.239 10.928 7.623.184-.716 2.195.677 3.016 2.09.276-1.165 2.162 4.467 2.829 8.448.309-1.325 1.496.815.456 2.868.659-.108.957 1.792.447 2.85.721-.381.599 1.887-.183 3.403 1.029-.103-8.114 15.887-11.816 25.232-1.075-5.566-2.283-11.426-5.749-15.572-.589-.704-1.235-1.346-1.879-1.987l-3.483-3.465c-4.051-4.03-7.736-9.003-13.133-10.509-3.709-1.034-6.054-1.268-4.033-5.977-1.826.858-3.531 2.135-5.373 2.933.025-.658.282-1.394.246-2.053z" fill="#2F2E41"/><path d="M373.96 570.306c2.007 0 3.633-1.833 3.633-4.094 0-2.26-1.626-4.093-3.633-4.093-2.006 0-3.632 1.833-3.632 4.093 0 2.261 1.626 4.094 3.632 4.094z" fill="#FFB9B9"/><path d="M289.497 474.206h-17.564v19.792h17.564v-19.792z" fill="#11B0D1"/><path d="M300.16 482.689h-21.327v-24.033h21.327v24.033zm-20.4-1.045h19.473V459.7H279.76v21.944z" fill="#3F3D56"/><path d="m211.02 554.409-4.823-19.031-16.889 5.435 4.823 19.031 16.889-5.435z" fill="#11B0D1"/><path d="m206.71 568.293-5.856-23.109 20.508-6.599 5.856 23.109-20.508 6.599zM202 545.901l5.347 21.1 18.724-6.025-5.347-21.1L202 545.901z" fill="#3F3D56"/><path d="m206.655 465.771 11.992-14.46-12.832-13.514-11.993 14.46 12.833 13.514z" fill="#11B0D1"/><path d="m193.874 468.759 14.563-17.559 15.582 16.41-14.563 17.559-15.582-16.41zm14.607-16.082-13.296 16.032 14.227 14.983 13.296-16.032-14.227-14.983zM803.742 435.79H640.541V432h-74.002v3.79H402.665a9.972 9.972 0 0 0-4.224.947 11.048 11.048 0 0 0-3.582 2.697 12.646 12.646 0 0 0-2.393 4.036 13.834 13.834 0 0 0-.84 4.76v251.818c0 1.634.286 3.251.84 4.76a12.646 12.646 0 0 0 2.393 4.036 11.062 11.062 0 0 0 3.582 2.697 9.972 9.972 0 0 0 4.224.947h401.077c2.928 0 5.736-1.311 7.806-3.644 2.07-2.333 3.233-5.497 3.233-8.796V448.23a13.81 13.81 0 0 0-.84-4.76 12.646 12.646 0 0 0-2.393-4.036 11.048 11.048 0 0 0-3.582-2.697 9.969 9.969 0 0 0-4.224-.947z" fill="#3F3D56"/><path d="M799.981 457.775H406.427v250.164h393.554V457.775zM602.867 450.952c2.23 0 4.037-2.037 4.037-4.549 0-2.512-1.807-4.548-4.037-4.548-2.229 0-4.036 2.036-4.036 4.548s1.807 4.549 4.036 4.549z" fill="#11B0D1"/><path opacity=".1" d="M687.431 707.939H406.427V457.775l281.004 250.164z" fill="#000"/><path d="M468.006 689.219c20.893 0 37.83-19.085 37.83-42.628s-16.937-42.628-37.83-42.628c-20.893 0-37.83 19.085-37.83 42.628s16.937 42.628 37.83 42.628z" fill="#F2F2F2"/><path d="M476.428 678.63c-9.307 0-18.405-3.11-26.144-8.936-7.738-5.827-13.769-14.108-17.331-23.797-3.562-9.689-4.493-20.351-2.678-30.637 1.816-10.285 6.298-19.734 12.879-27.149 6.581-7.416 14.965-12.466 24.093-14.512 9.128-2.046 18.59-.996 27.188 3.017 8.599 4.014 15.948 10.81 21.118 19.53 5.171 8.72 7.931 18.972 7.931 29.459-.014 14.058-4.976 27.536-13.798 37.477-8.822 9.941-20.783 15.532-33.258 15.548zm0-105.357c-9.186 0-18.165 3.069-25.802 8.82-7.637 5.75-13.59 13.923-17.105 23.486-3.515 9.562-4.434 20.084-2.642 30.236 1.792 10.151 6.215 19.476 12.71 26.794 6.494 7.319 14.77 12.303 23.778 14.323 9.009 2.019 18.347.983 26.833-2.978 8.486-3.961 15.739-10.669 20.842-19.275 5.103-8.606 7.827-18.724 7.827-29.074-.014-13.874-4.911-27.176-13.618-36.987-8.706-9.811-20.511-15.329-32.823-15.345zM731.457 592.69h-36.763v8.656h36.763v-8.656zM775.901 525.297H650.25v3.71h125.651v-3.71zM775.901 537.044H650.25v3.71h125.651v-3.71zM775.901 548.792H650.25v3.71h125.651v-3.71zM775.901 560.539H650.25v3.71h125.651v-3.71zM775.901 572.287H650.25v3.709h125.651v-3.709z" fill="#3F3D56"/><path d="M775.9 462.85h-15.363v17.312H775.9V462.85z" fill="#F2F2F2"/><path d="M783.033 488.2h-18.655v-21.022h18.655V488.2zm-17.844-.914h17.033v-19.194h-17.033v19.194zM825.831 703.391h-38.408v-3.119a.675.675 0 0 0-.161-.437.55.55 0 0 0-.178-.134.492.492 0 0 0-.21-.047h-13.168a.495.495 0 0 0-.21.047.55.55 0 0 0-.178.134.675.675 0 0 0-.161.437v3.119h-8.23v-3.119a.675.675 0 0 0-.161-.437.55.55 0 0 0-.178-.134.498.498 0 0 0-.21-.047H751.21a.492.492 0 0 0-.21.047.54.54 0 0 0-.178.134.675.675 0 0 0-.161.437v3.119h-8.231v-3.119a.645.645 0 0 0-.16-.437.56.56 0 0 0-.178-.134.498.498 0 0 0-.21-.047h-13.169a.498.498 0 0 0-.21.047.56.56 0 0 0-.178.134.645.645 0 0 0-.16.437v3.119h-8.231v-3.119a.675.675 0 0 0-.161-.437.54.54 0 0 0-.178-.134.492.492 0 0 0-.21-.047h-13.168a.495.495 0 0 0-.21.047.55.55 0 0 0-.178.134.675.675 0 0 0-.161.437v3.119h-8.23v-3.119a.675.675 0 0 0-.161-.437.55.55 0 0 0-.178-.134.495.495 0 0 0-.21-.047h-13.168a.492.492 0 0 0-.21.047.55.55 0 0 0-.178.134.675.675 0 0 0-.161.437v3.119h-8.231v-3.119a.645.645 0 0 0-.16-.437.56.56 0 0 0-.178-.134.498.498 0 0 0-.21-.047h-13.169a.498.498 0 0 0-.21.047.56.56 0 0 0-.178.134.645.645 0 0 0-.16.437v3.119h-8.231v-3.119a.675.675 0 0 0-.16-.437.554.554 0 0 0-.179-.134.49.49 0 0 0-.209-.047H548.743a.495.495 0 0 0-.21.047.55.55 0 0 0-.178.134.675.675 0 0 0-.161.437v3.119h-8.23v-3.119a.698.698 0 0 0-.042-.236.645.645 0 0 0-.119-.201.56.56 0 0 0-.178-.134.498.498 0 0 0-.21-.047h-13.169a.498.498 0 0 0-.21.047.56.56 0 0 0-.178.134.645.645 0 0 0-.16.437v3.119h-8.231v-3.119a.675.675 0 0 0-.16-.437.56.56 0 0 0-.178-.134.498.498 0 0 0-.21-.047H503.75a.498.498 0 0 0-.21.047.55.55 0 0 0-.178.134.675.675 0 0 0-.161.437v3.119h-8.23v-3.119a.675.675 0 0 0-.161-.437.55.55 0 0 0-.178-.134.495.495 0 0 0-.21-.047h-13.168a.495.495 0 0 0-.21.047.55.55 0 0 0-.178.134.675.675 0 0 0-.161.437v3.119h-8.23v-3.119a.698.698 0 0 0-.042-.236.645.645 0 0 0-.119-.201.56.56 0 0 0-.178-.134.498.498 0 0 0-.21-.047h-13.169a.498.498 0 0 0-.21.047.56.56 0 0 0-.178.134.645.645 0 0 0-.16.437v3.119h-8.231v-3.119a.675.675 0 0 0-.16-.437.56.56 0 0 0-.178-.134.498.498 0 0 0-.21-.047h-13.169a.498.498 0 0 0-.21.047.55.55 0 0 0-.178.134.675.675 0 0 0-.161.437v3.119h-8.23v-3.119a.675.675 0 0 0-.161-.437.55.55 0 0 0-.178-.134.495.495 0 0 0-.21-.047h-13.168a.495.495 0 0 0-.21.047.55.55 0 0 0-.178.134.675.675 0 0 0-.161.437v3.119h-25.24c-3.492 0-6.842 1.563-9.311 4.346-2.47 2.783-3.857 6.557-3.857 10.493v6.709c0 3.936 1.387 7.71 3.857 10.493 2.469 2.783 5.819 4.346 9.311 4.346h437.855c3.493 0 6.842-1.563 9.312-4.346 2.47-2.783 3.857-6.557 3.857-10.493v-6.709c0-3.936-1.387-7.71-3.857-10.493-2.47-2.783-5.819-4.346-9.312-4.346z" fill="#3F3D56"/></g><defs><clipPath id="a"><path fill="#fff" transform="translate(160 432)" d="M0 0h679v318H0z"/></clipPath></defs></svg>