<svg width="722" height="498" fill="none" xmlns="http://www.w3.org/2000/svg"><g clip-path="url(#a)"><path d="M359.656 458.393c-179.159 0-324.396-8.084-324.396-18.056 0-9.972 145.237-18.056 324.396-18.056 179.159 0 324.395 8.084 324.395 18.056 0 9.972-145.236 18.056-324.395 18.056Z" fill="#373737"/><path opacity=".1" d="M359.656 451.986c-152.604 0-276.313-5.346-276.313-11.94 0-6.595 123.709-11.941 276.313-11.941 152.603 0 276.313 5.346 276.313 11.941 0 6.594-123.71 11.94-276.313 11.94Z" fill="#000"/><path d="M585.963 498c-75.131 0-136.037-4.824-136.037-10.775 0-5.952 60.906-10.776 136.037-10.776S722 481.273 722 487.225C722 493.176 661.094 498 585.963 498Z" fill="#373737"/><path opacity=".1" d="M585.963 494.176c-63.995 0-115.873-3.19-115.873-7.125 0-3.936 51.878-7.126 115.873-7.126 63.995 0 115.873 3.19 115.873 7.126 0 3.935-51.878 7.125-115.873 7.125Z" fill="#000"/><path d="M114.115 94.358h482.106v343.649H114.115V94.357Z" fill="#373737"/><path d="M360.653 141.321h118.935c.19 0 .378-.033.553-.099.176-.066.335-.162.469-.284.135-.122.241-.267.314-.426a1.203 1.203 0 0 0 0-1.005 1.312 1.312 0 0 0-.314-.426 1.451 1.451 0 0 0-.469-.284 1.569 1.569 0 0 0-.553-.099H360.653a1.522 1.522 0 0 0-1.019.385c-.27.246-.422.579-.422.926 0 .348.152.681.422.927s.637.384 1.019.385ZM230.46 155.746h187.062c.383 0 .75-.138 1.021-.384.271-.246.423-.58.423-.928 0-.347-.152-.681-.423-.927a1.521 1.521 0 0 0-1.021-.384H230.46c-.19 0-.378.034-.553.1a1.458 1.458 0 0 0-.468.284c-.134.122-.24.266-.313.426-.072.159-.11.329-.11.501 0 .173.038.343.11.502.073.159.179.304.313.426.134.121.293.218.468.284.175.066.363.1.553.1ZM360.076 170.171h118.935c.383 0 .75-.138 1.02-.384.271-.246.423-.58.423-.928 0-.347-.152-.681-.423-.927a1.517 1.517 0 0 0-1.02-.384H360.076c-.383 0-.75.138-1.021.384-.271.246-.423.58-.423.927 0 .348.152.682.423.928s.638.384 1.021.384ZM230.46 170.433h118.935a1.52 1.52 0 0 0 1.02-.384c.271-.246.423-.58.423-.927 0-.348-.152-.682-.423-.928a1.52 1.52 0 0 0-1.02-.384H230.46c-.383 0-.75.138-1.021.384-.271.246-.423.58-.423.928 0 .347.152.681.423.927s.638.384 1.021.384ZM359.787 184.596h118.935c.382 0 .75-.138 1.02-.384.271-.246.423-.58.423-.928 0-.347-.152-.681-.423-.927a1.519 1.519 0 0 0-1.02-.384H359.787c-.383 0-.75.138-1.021.384-.271.246-.423.58-.423.927 0 .348.152.682.423.928s.638.384 1.021.384ZM359.498 199.021h118.935c.383 0 .75-.139 1.021-.384.27-.246.422-.58.422-.928 0-.348-.152-.681-.422-.927a1.521 1.521 0 0 0-1.021-.384H359.498c-.383 0-.75.138-1.02.384a1.252 1.252 0 0 0-.423.927c0 .348.152.682.423.928.27.245.637.384 1.02.384ZM305.516 141.583h34.064c.382 0 .75-.138 1.02-.384.271-.246.423-.579.423-.927 0-.348-.152-.682-.423-.928a1.523 1.523 0 0 0-1.02-.384h-34.064c-.383 0-.75.139-1.021.384-.271.246-.423.58-.423.928 0 .348.152.681.423.927s.638.384 1.021.384ZM305.516 184.596h34.064c.382 0 .75-.138 1.02-.384.271-.246.423-.58.423-.928 0-.347-.152-.681-.423-.927a1.519 1.519 0 0 0-1.02-.384h-34.064c-.383 0-.75.138-1.021.384-.271.246-.423.58-.423.927 0 .348.152.682.423.928s.638.384 1.021.384ZM305.515 198.758h34.064c.19.001.378-.033.554-.099.175-.065.335-.162.469-.284.134-.122.241-.266.314-.426.072-.159.11-.33.11-.502s-.038-.343-.11-.503a1.323 1.323 0 0 0-.314-.425 1.445 1.445 0 0 0-.469-.284 1.556 1.556 0 0 0-.554-.099h-34.064a1.554 1.554 0 0 0-.553.099 1.445 1.445 0 0 0-.469.284 1.323 1.323 0 0 0-.314.425 1.21 1.21 0 0 0 0 1.005c.073.16.18.304.314.426s.294.219.469.284c.176.066.364.1.553.099ZM248.358 198.758h34.063c.383 0 .749-.139 1.019-.385.27-.246.422-.579.422-.926 0-.347-.152-.68-.422-.926a1.515 1.515 0 0 0-1.019-.385h-34.063a1.556 1.556 0 0 0-.554.099 1.445 1.445 0 0 0-.469.284 1.323 1.323 0 0 0-.314.425c-.072.16-.11.331-.11.503s.038.343.11.502c.073.16.18.304.314.426s.294.219.469.284c.176.066.364.1.554.099ZM445.813 155.746h34.063c.383 0 .75-.138 1.021-.384.271-.246.423-.58.423-.928 0-.347-.152-.681-.423-.927a1.521 1.521 0 0 0-1.021-.384h-34.063c-.383 0-.75.138-1.021.384-.271.246-.423.58-.423.927 0 .348.152.682.423.928s.638.384 1.021.384ZM360.509 353.761h118.935c.383 0 .75-.138 1.02-.384.271-.246.423-.58.423-.927 0-.348-.152-.682-.423-.928a1.517 1.517 0 0 0-1.02-.384H360.509c-.383 0-.75.138-1.021.384-.27.246-.423.58-.423.928 0 .347.153.681.423.927.271.246.638.384 1.021.384ZM361.086 382.611h118.935c.383 0 .75-.138 1.021-.384.27-.246.422-.58.422-.928 0-.347-.152-.681-.422-.927a1.521 1.521 0 0 0-1.021-.384H361.086c-.383 0-.75.138-1.021.384-.27.246-.422.58-.422.927 0 .348.152.682.422.928.271.246.638.384 1.021.384ZM360.797 397.036h118.935c.19 0 .378-.034.554-.099a1.48 1.48 0 0 0 .469-.284c.134-.122.241-.267.314-.426.072-.159.11-.33.11-.503 0-.172-.038-.343-.11-.502a1.327 1.327 0 0 0-.314-.426 1.462 1.462 0 0 0-.469-.284 1.578 1.578 0 0 0-.554-.099H360.797c-.19 0-.378.033-.553.099a1.462 1.462 0 0 0-.469.284 1.312 1.312 0 0 0-.314.426 1.202 1.202 0 0 0 0 1.005c.073.159.179.304.314.426.134.121.294.218.469.284.175.065.363.099.553.099ZM309.99 382.873h34.064c.383 0 .75-.138 1.021-.384.27-.246.423-.579.423-.927 0-.348-.153-.682-.423-.928a1.526 1.526 0 0 0-1.021-.384H309.99c-.383 0-.75.139-1.02.384-.271.246-.423.58-.423.928 0 .348.152.681.423.927.27.246.637.384 1.02.384ZM309.99 397.036h34.064c.383 0 .75-.138 1.021-.384.27-.246.423-.58.423-.928 0-.347-.153-.681-.423-.927a1.521 1.521 0 0 0-1.021-.384H309.99c-.383 0-.75.138-1.02.384-.271.246-.423.58-.423.927 0 .348.152.682.423.928.27.246.637.384 1.02.384ZM252.832 382.873h34.064c.383 0 .75-.138 1.021-.384.27-.246.422-.579.422-.927 0-.348-.152-.682-.422-.928a1.526 1.526 0 0 0-1.021-.384h-34.064c-.383 0-.75.139-1.021.384-.27.246-.422.58-.422.928 0 .348.152.681.422.927.271.246.638.384 1.021.384ZM230.315 368.186h187.063c.383 0 .75-.138 1.021-.384.27-.246.422-.58.422-.928 0-.347-.152-.681-.422-.927a1.521 1.521 0 0 0-1.021-.384H230.315c-.383 0-.75.138-1.021.384-.27.246-.422.58-.422.927 0 .348.152.682.422.928.271.246.638.384 1.021.384ZM445.669 368.186h34.063c.383 0 .75-.138 1.021-.384.271-.246.423-.58.423-.928 0-.347-.152-.681-.423-.927a1.521 1.521 0 0 0-1.021-.384h-34.063c-.383 0-.75.138-1.021.384-.271.246-.423.58-.423.927 0 .348.152.682.423.928s.638.384 1.021.384ZM230.316 411.723h187.062c.19 0 .378-.033.554-.099.175-.066.335-.162.469-.284.134-.122.241-.267.314-.426.072-.159.11-.33.11-.502 0-.173-.038-.344-.11-.503a1.327 1.327 0 0 0-.314-.426 1.48 1.48 0 0 0-.469-.284 1.601 1.601 0 0 0-.554-.099H230.316c-.383 0-.75.138-1.021.384-.271.246-.423.58-.423.928 0 .347.152.681.423.927s.638.384 1.021.384ZM445.668 411.723h34.064c.19 0 .378-.033.554-.099.175-.066.335-.162.469-.284.134-.122.241-.267.314-.426.072-.159.11-.33.11-.502 0-.173-.038-.344-.11-.503a1.327 1.327 0 0 0-.314-.426 1.48 1.48 0 0 0-.469-.284 1.601 1.601 0 0 0-.554-.099h-34.064a1.6 1.6 0 0 0-.553.099 1.48 1.48 0 0 0-.469.284 1.312 1.312 0 0 0-.314.426 1.203 1.203 0 0 0 0 1.005c.073.159.179.304.314.426.134.122.294.218.469.284.176.066.364.099.553.099Z" fill="#F4F4F4"/><path d="m389.232 233.641 46.188 41.438-46.188 41.439-10.392-9.441 34.929-31.735-35.218-31.998 10.681-9.703ZM321.104 233.641l-46.188 41.438 46.188 41.439 10.393-9.441-34.931-31.735 35.219-31.998-10.681-9.703ZM583.399 108.337c-3.187 0-5.77-2.347-5.77-5.242s2.583-5.242 5.77-5.242c3.186 0 5.769 2.347 5.769 5.242s-2.583 5.242-5.769 5.242ZM568.012 108.337c-3.186 0-5.77-2.347-5.77-5.242s2.584-5.242 5.77-5.242c3.187 0 5.77 2.347 5.77 5.242s-2.583 5.242-5.77 5.242ZM552.626 108.337c-3.186 0-5.77-2.347-5.77-5.242s2.584-5.242 5.77-5.242c3.187 0 5.77 2.347 5.77 5.242s-2.583 5.242-5.77 5.242Z" fill="#0A5CFF"/><path opacity=".1" d="M114.115 111.832h482.106v1.747H114.115v-1.747Z" fill="#000"/><path d="m56.263 398.246-.556-31.086-23.138-38.458 23.051 33.582-.25-13.978-15.946-27.823 15.88 24.124-.45-25.139-17.075-22.151 17.005 18.198-.28-46.096 1.764 61.023-.145-2.517 17.361-24.144-17.082 28.976 1.617 28.076.048-.745 20.015-25.408-19.954 28.04.202 3.512.037.053-.017.288 4.104 71.232h-5.483l-.658-36.793-19.905-27.972 19.855 25.206ZM643.388 437.478a29.192 29.192 0 0 0 5.243 2.04c3.256.808 6.736.512 10.024 1.201 1.347.283 2.812.874 3.241 2.067.314.876-.028 1.821-.355 2.693-3.634 9.68-5.825 19.959-11.62 28.727-2.436 3.683-5.459 7.017-8.971 9.895-1.317 1.079-2.81 2.134-4.574 2.303a5.075 5.075 0 0 1-2.381-.342 4.597 4.597 0 0 1-1.871-1.38 3.998 3.998 0 0 1-.859-2.047 3.883 3.883 0 0 1 .385-2.161c.52-1.049 1.486-1.862 2.109-2.863a10.125 10.125 0 0 0 1.166-4.072c.573-4.141 1.125-8.468-.454-12.386-1.059-2.628-3.002-4.869-4.62-7.25-1.619-2.382-2.963-5.11-2.603-7.889.246-1.897 1.264-3.633 2.34-5.274 1.078-1.644 3.208-6.062 5.374-6.611 2.248-.569 6.465 2.436 8.426 3.349ZM584.128 470.916c-.034.936.11 1.871.425 2.764.678 1.626 2.36 2.741 3.229 4.291 1.208 2.155.66 4.76-.14 7.067-.502 1.447-1.161 2.952-2.509 3.846a8.852 8.852 0 0 1-3.817 1.111c-11.563 1.454-23.308.62-34.977.924-2.127.056-4.378.124-6.235-.821-1.856-.944-3.004-3.318-1.741-4.874 1.134-1.397 3.375-1.384 5.284-1.466 4.969-.229 9.702-2 13.407-5.018a9.117 9.117 0 0 0 1.881-1.966c.396-.654.726-1.34.983-2.049a87.463 87.463 0 0 1 5.824-11.718c.627-1.057 1.338-2.158 2.504-2.724a7.18 7.18 0 0 1 2.718-.539c2.908-.171 10.439-1.071 12.688.984 2.077 1.898.43 7.777.476 10.188Z" fill="#373737"/><path d="M566.232 236.3c-10.259 0-18.576-7.556-18.576-16.877 0-9.321 8.317-16.877 18.576-16.877s18.576 7.556 18.576 16.877c0 9.321-8.317 16.877-18.576 16.877Z" fill="#FBBEBE"/><path d="M583.006 233.359c1.105 2.687 2.979 5.211 5.706 6.657l-25.691 4.761a22.526 22.526 0 0 0 .36-10.407 5.468 5.468 0 0 1-.154-2.569c.483-1.693 2.581-2.508 4.459-2.897 4.689-.971 8.836-1.492 13.193-3.373 1.332 2.071 1.145 5.439 2.127 7.828Z" fill="#FBBEBE"/><path d="M588.927 233.697a21.847 21.847 0 0 0-8.808-1.617 21.711 21.711 0 0 0-8.703 2.033c-3.293 1.577-6.021 3.957-8.7 6.306-2.47 2.165-5.105 4.643-5.28 7.757-.085 1.509.433 2.984.695 4.476.47 3.085-.128 6.226-1.711 8.989-1.583 2.762-4.072 5.009-7.124 6.428-2.041 3.089-2.462 6.831-2.493 10.434-.119 13.651 4.622 27.469 1.237 40.769-.794 3.123-2.026 6.148-2.713 9.291-.889 4.072-.845 8.259-1.31 12.389a51.258 51.258 0 0 1-3.278 13.103c1.118 1.615 3.445 2.235 5.54 2.104 2.096-.131 4.055-.957 5.925-1.827 9.055-4.209 17.348-9.76 26.726-13.338 6.204-2.366 12.814-3.841 18.832-6.574 6.019-2.734 11.617-7.073 13.457-12.953.796-2.543.845-5.222.889-7.865.183-11.133.353-22.387-2.315-33.255-2.352-9.583-6.886-18.751-7.875-28.529-.322-3.182-.329-6.59-2.286-9.245-2.767-3.754-8.74-4.726-10.705-8.876ZM576.797 219.661c-1.095-1.297-3.206-1.474-4.954-1.09-1.749.384-3.361 1.203-5.128 1.514a3.312 3.312 0 0 1-1.235.077 3.197 3.197 0 0 1-1.164-.384c-.618-.552-.987-1.293-1.036-2.079a36.103 36.103 0 0 1-.43-10.123 2.734 2.734 0 0 0-.102-1.42c-.437-.957-1.771-1.185-2.861-1.492-1.797-.552-3.341-1.633-4.387-3.071-1.047-1.438-1.536-3.151-1.391-4.87.028-.824.409-1.606 1.062-2.179.754-.557 1.808-.592 2.78-.599 4.994-.036 9.987-.035 14.981.003 1.848.015 3.789.056 5.391.893 1.184.619 2.065 1.615 3.129 2.395 2.773 2.033 6.525 2.447 9.899 3.489a10.056 10.056 0 0 1 4.339 2.351c1.122 1.165 1.661 2.897.956 4.306a15.11 15.11 0 0 1-1.209 1.691c-1.991 2.892-.665 6.642-.963 10.042-.371 4.245-7.286 11.131-11.975 12.136-7.57 1.622-3.196-8.803-5.702-11.59ZM587.284 405.787c-.478 3.1-1.091 6.21-.927 9.336.229 4.365 1.961 8.571 2.282 12.93.239 3.257-.315 6.549.183 9.781.319 2.069 1.062 4.064 1.522 6.112a23.02 23.02 0 0 1-.061 10.102c-.768 3.329-2.268 6.483-4.41 9.274a3.367 3.367 0 0 1-1.297 1.142 3.993 3.993 0 0 1-1.608.193c-5.406-.1-10.799-.545-16.136-1.332a1.627 1.627 0 0 1-1.037-.416 1.252 1.252 0 0 1-.225-.555c-.989-4.623 1.268-9.257 1.842-13.938.613-4.997-.707-10.005-2.017-14.89a61.428 61.428 0 0 0-2.223-7.122c-.633-1.571-1.398-3.099-1.947-4.696a32.841 32.841 0 0 1-1.412-7.69 141.782 141.782 0 0 1-.605-12.348 47.175 47.175 0 0 1 1.067-11.655c1.204-4.856 3.67-9.366 6.114-13.821 1.306.284 2.533.814 3.601 1.555a83.062 83.062 0 0 0 9.841 4.939c2.287.965 6.746 1.651 8.197 3.662 1.431 1.983.508 6.028.398 8.215a109.455 109.455 0 0 1-1.142 11.222Z" fill="#373737"/><path opacity=".1" d="M587.284 405.787c-.478 3.1-1.091 6.21-.927 9.336.229 4.365 1.961 8.571 2.282 12.93.239 3.257-.315 6.549.183 9.781.319 2.069 1.062 4.064 1.522 6.112a23.02 23.02 0 0 1-.061 10.102c-.768 3.329-2.268 6.483-4.41 9.274a3.367 3.367 0 0 1-1.297 1.142 3.993 3.993 0 0 1-1.608.193c-5.406-.1-10.799-.545-16.136-1.332a1.627 1.627 0 0 1-1.037-.416 1.252 1.252 0 0 1-.225-.555c-.989-4.623 1.268-9.257 1.842-13.938.613-4.997-.707-10.005-2.017-14.89a61.428 61.428 0 0 0-2.223-7.122c-.633-1.571-1.398-3.099-1.947-4.696a32.841 32.841 0 0 1-1.412-7.69 141.782 141.782 0 0 1-.605-12.348 47.175 47.175 0 0 1 1.067-11.655c1.204-4.856 3.67-9.366 6.114-13.821 1.306.284 2.533.814 3.601 1.555a83.062 83.062 0 0 0 9.841 4.939c2.287.965 6.746 1.651 8.197 3.662 1.431 1.983.508 6.028.398 8.215a109.455 109.455 0 0 1-1.142 11.222Z" fill="#000"/><path d="M612.397 339.582c2.467 6.034-1.159 12.555-4.309 18.32-7.761 14.204-13.151 29.36-18.512 44.451-.401 1.131-.803 2.364-.355 3.48a4.707 4.707 0 0 0 1.809 1.95c3.696 2.55 8.403 3.459 12.806 4.793a60.628 60.628 0 0 1 12.144 5.172c3.191 1.796 6.18 3.87 9.163 5.94l9.495 6.589c.615.377 1.152.85 1.588 1.396.916 1.305.54 3.009.084 4.501a72.11 72.11 0 0 1-4.649 11.528c-.31.816-.902 1.52-1.686 2.008-1.482.723-3.295-.236-4.427-1.367-1.132-1.132-2.111-2.539-3.706-3.025-1.594-.485-3.348.102-5.012-.11-2.692-.343-4.479-2.596-6.419-4.326-7.928-7.065-21.163-6.553-29.883-12.8a37.672 37.672 0 0 0-3.995-2.835c-1.474-.792-3.146-1.227-4.676-1.926-4.652-2.129-7.576-6.529-9.143-11.042-1.567-4.513-2.014-9.277-3.14-13.898-.582-2.388-1.348-4.751-1.607-7.186a34.995 34.995 0 0 1 .163-6.795l3.146-35.364c.256-2.88.513-5.762 1.01-8.615 9.345.303 18.684.645 28.034.745 7.44.08 15.018.553 22.077-1.584Z" fill="#373737"/><path d="M615.832 347.855c-1.267 1.852-4.353 1.814-6.477.799-2.125-1.016-3.776-2.722-5.905-3.729-2.862-1.353-6.249-1.302-9.473-1.219-5.106.131-10.274.27-15.186 1.541-5.081 1.315-10.026 3.847-15.28 3.342-.914-.088-1.914-.326-2.411-1.029a2.976 2.976 0 0 1-.397-1.651l-.172-4.17a3.47 3.47 0 0 1 .365-2.112 3.88 3.88 0 0 1 1.741-1.211c7.478-3.289 16.005-3.901 24.308-4.159 4.22-.132 8.442-.186 12.666-.163 3.585.02 7.888-.451 11.372.419 4.677 1.168 7.222 9.875 4.849 13.342Z" fill="#373737"/><path d="M568.881 238.647c9.797-.079 18.676-5.954 28.472-6.097a8.023 8.023 0 0 1 3.457.542c1.365.625 2.263 1.833 3.3 2.853 2.897 2.85 7.091 4.371 10.067 7.153 2.79 2.608 4.342 6.494 3.241 9.991-1.102 3.497-5.26 6.179-9.155 5.338-1.569-4.615-4.808-8.613-9.191-11.346a48.572 48.572 0 0 0-7.184-3.426c-4.403-1.812-9.326-3.659-13.923-2.301a20.33 20.33 0 0 0-4.75 2.354l-7.664 4.677c.893-3.2 1.696-6.789 3.33-9.738Z" fill="#2397FF"/><path d="M609.392 255.334c1.301 1.474-.574 3.611-.287 5.482.191 1.244 1.317 2.194 1.786 3.375.486 1.223.229 2.578.413 3.868.185.938.458 1.859.817 2.755a45.449 45.449 0 0 1 1.723 8.169l1.714 11.635a40.16 40.16 0 0 1 .543 5.287 14.35 14.35 0 0 0 .29 3.953c.379 1.272 1.22 2.384 1.786 3.597.566 1.213.828 2.681.064 3.8 2.558 1.937 3.319 5.74 1.53 8.292a4.482 4.482 0 0 0-.789 1.319 3.12 3.12 0 0 0 .348 1.946l1.734 4.197c.444 1.075.584 2.711-.65 2.956a9.84 9.84 0 0 1 2.341 3.359 3.66 3.66 0 0 1 .22 1.967 3.814 3.814 0 0 1-.844 1.822c-.43.343-.797.748-1.086 1.198a2.913 2.913 0 0 0 .126 1.889c.259.916.309 1.872.147 2.807a6.568 6.568 0 0 1-1.092 2.629 5.27 5.27 0 0 1-2.354 1.781 5.867 5.867 0 0 1-3.043.321c-3.468-.711-6.585-1.833-10.083-1.25-7.53 1.255-15.085 2.516-22.378 4.632-8.324 2.414-16.384 5.955-25.083 6.698a2.648 2.648 0 0 1-1.678-.237 2.218 2.218 0 0 1-.776-1.449l-2.688-11.454a108.02 108.02 0 0 1-2.472-12.83c-.306-2.785-.393-5.585-.48-8.383l-.693-22.268a20.372 20.372 0 0 1 1.41-9.68l3.986-11.561c2.275-6.597 7.493-12.447 9.351-19.152 1.176-4.243 2.045-8.797 5.198-12.104 4.496-4.715 12.274-5.448 19.081-4.637 3.076.366 6.178.998 8.838 2.447 3.076 1.676 5.342 4.315 7.535 6.894 1.807 2.125 3.646 3.834 5.495 5.93Z" fill="#0A5CFF"/><path d="M593.496 320.831c-.561 2.197-1.739 4.223-2.46 6.381-1.208 3.617-1.106 7.511-2.311 11.128-.507 1.519-1.24 2.976-1.603 4.528-.847 3.617.39 7.359 1.926 10.784 1.536 3.425 3.406 6.802 3.905 10.473.351 2.585-.154 5.504-2.347 7.182-2.277 1.741-5.586 1.624-8.551 1.392a9.777 9.777 0 0 1-3.104-.587c-2.268-.975-3.223-3.413-3.754-5.641-1.776-7.467-1.269-15.206-.752-22.831l1.35-19.94c.26-3.839.538-7.757 1.84-11.443.474-1.341 1.3-4.05 2.648-4.906 1.335-.848 5.148-.886 6.801-.957 7.756-.331 7.669 9.505 6.412 14.437Z" fill="#FBBEBE"/><path d="M584.903 247.208c1.584-.754 3.579-.429 5.11.41a15.174 15.174 0 0 1 3.829 3.378c3.423 3.795 7.046 8.151 6.538 13.036-.19 1.832-.962 3.565-1.485 5.343-2.295 7.793.243 16.035-.049 24.097-.168 4.659-1.284 9.242-2.395 13.793-.227.928-.59 2.003-1.579 2.316-.743.235-1.545-.067-2.28-.321a19.924 19.924 0 0 0-8.579-.895c-2.897.332-5.664 1.293-8.066 2.801-1.837-.89-1.149-3.706-.737-5.56 1.224-5.509-.437-11.191-2.454-16.504-2.017-5.312-4.431-10.618-4.765-16.23-.379-6.358 1.942-12.564 4.231-18.582.5-1.314 1.046-2.691 2.205-3.598a9.188 9.188 0 0 1 3.335-1.385c2.432-.653 4.894-1.03 7.141-2.099Z" fill="#373737"/></g><defs><clipPath id="a"><path fill="#fff" transform="matrix(-1 0 0 1 722 0)" d="M0 0h722v498H0z"/></clipPath></defs></svg>