<svg width="1000" height="750" fill="none" xmlns="http://www.w3.org/2000/svg"><path fill="#36393F" d="M0 0h1000v750H0z"/><path d="M144.617 231v-85.312h26.25c7.5 0 14.199 1.699 20.098 5.097 5.937 3.36 10.566 8.164 13.887 14.414 3.32 6.211 4.98 13.281 4.98 21.211v3.926c0 7.93-1.641 14.98-4.922 21.152-3.242 6.172-7.832 10.957-13.769 14.356-5.938 3.398-12.637 5.117-20.098 5.156h-26.426zm17.578-71.074v56.953h8.496c6.875 0 12.129-2.246 15.762-6.738 3.633-4.493 5.488-10.918 5.567-19.278v-4.511c0-8.672-1.797-15.235-5.391-19.688-3.594-4.492-8.848-6.738-15.762-6.738h-8.672zm88.535 72.246c-9.296 0-16.875-2.852-22.734-8.555-5.82-5.703-8.73-13.301-8.73-22.793v-1.64c0-6.368 1.23-12.051 3.691-17.051 2.461-5.039 5.938-8.906 10.43-11.602 4.531-2.734 9.687-4.101 15.468-4.101 8.672 0 15.489 2.734 20.45 8.203 5 5.469 7.5 13.222 7.5 23.262v6.914h-40.371c.546 4.14 2.187 7.461 4.921 9.961 2.774 2.5 6.27 3.75 10.489 3.75 6.523 0 11.621-2.364 15.293-7.09l8.32 9.316c-2.539 3.594-5.977 6.406-10.312 8.438-4.336 1.992-9.141 2.988-14.415 2.988zm-1.933-52.031c-3.359 0-6.094 1.132-8.203 3.398-2.071 2.266-3.399 5.508-3.985 9.727h23.555v-1.348c-.078-3.75-1.094-6.641-3.047-8.672-1.953-2.07-4.726-3.105-8.32-3.105zm94.805 19.746c0 10.156-2.168 18.086-6.504 23.789-4.336 5.664-10.391 8.496-18.164 8.496-6.875 0-12.364-2.637-16.465-7.91l-.762 6.738h-15.234v-90h16.933v32.285c3.906-4.57 9.043-6.855 15.41-6.855 7.735 0 13.789 2.851 18.164 8.554 4.415 5.664 6.622 13.653 6.622 23.965v.938zm-16.934-1.231c0-6.406-1.016-11.074-3.047-14.004-2.031-2.968-5.059-4.453-9.082-4.453-5.391 0-9.101 2.207-11.133 6.621v25.02c2.071 4.453 5.821 6.68 11.25 6.68 5.469 0 9.063-2.696 10.782-8.086.82-2.579 1.23-6.504 1.23-11.778zM390.828 231c-.781-1.523-1.348-3.418-1.699-5.684-4.102 4.571-9.434 6.856-15.996 6.856-6.211 0-11.367-1.797-15.469-5.391-4.062-3.593-6.094-8.125-6.094-13.593 0-6.719 2.481-11.876 7.442-15.469 5-3.594 12.207-5.41 21.621-5.449h7.793v-3.633c0-2.93-.762-5.274-2.285-7.032-1.485-1.757-3.848-2.636-7.09-2.636-2.852 0-5.098.683-6.739 2.051-1.601 1.367-2.402 3.242-2.402 5.625h-16.933c0-3.672 1.132-7.071 3.398-10.196s5.469-5.566 9.609-7.324c4.141-1.797 8.789-2.695 13.946-2.695 7.812 0 14.004 1.972 18.574 5.918 4.609 3.906 6.914 9.414 6.914 16.523v27.481c.039 6.015.879 10.566 2.52 13.652V231h-17.11zm-14.004-11.777c2.5 0 4.805-.547 6.914-1.641 2.11-1.133 3.672-2.637 4.688-4.512v-10.898h-6.328c-8.477 0-12.989 2.93-13.536 8.789l-.058.996c0 2.109.742 3.848 2.226 5.215 1.485 1.367 3.516 2.051 6.094 2.051zm61.875-67.207v15.586h10.84v12.421h-10.84v31.641c0 2.344.449 4.024 1.348 5.039.898 1.016 2.617 1.524 5.156 1.524 1.875 0 3.535-.137 4.981-.411v12.832a34.855 34.855 0 0 1-10.254 1.524c-11.875 0-17.93-5.996-18.164-17.988v-34.161h-9.258v-12.421h9.258v-15.586h16.933zm49.453 80.156c-9.297 0-16.875-2.852-22.734-8.555-5.82-5.703-8.73-13.301-8.73-22.793v-1.64c0-6.368 1.23-12.051 3.691-17.051 2.461-5.039 5.937-8.906 10.43-11.602 4.531-2.734 9.687-4.101 15.468-4.101 8.672 0 15.489 2.734 20.45 8.203 5 5.469 7.5 13.222 7.5 23.262v6.914h-40.372c.547 4.14 2.188 7.461 4.922 9.961 2.774 2.5 6.27 3.75 10.489 3.75 6.523 0 11.621-2.364 15.293-7.09l8.32 9.316c-2.539 3.594-5.977 6.406-10.313 8.438-4.336 1.992-9.14 2.988-14.414 2.988zm-1.933-52.031c-3.36 0-6.094 1.132-8.203 3.398-2.071 2.266-3.399 5.508-3.985 9.727h23.555v-1.348c-.078-3.75-1.094-6.641-3.047-8.672-1.953-2.07-4.727-3.105-8.32-3.105zm129.375-20.215h-26.133V231h-17.578v-71.074h-25.781v-14.238h69.492v14.238zM642.43 231h-16.992v-63.398h16.992V231zm-17.989-79.805c0-2.539.84-4.629 2.52-6.269 1.719-1.641 4.043-2.461 6.973-2.461 2.89 0 5.195.82 6.914 2.461 1.718 1.64 2.578 3.73 2.578 6.269 0 2.578-.879 4.688-2.637 6.328-1.719 1.641-4.004 2.461-6.855 2.461-2.852 0-5.157-.82-6.914-2.461-1.719-1.64-2.579-3.75-2.579-6.328zm47.871 16.407.528 7.089c4.492-5.507 10.566-8.261 18.222-8.261 8.165 0 13.77 3.222 16.817 9.668 4.453-6.446 10.801-9.668 19.043-9.668 6.875 0 11.992 2.011 15.351 6.035 3.36 3.984 5.039 10 5.039 18.047V231H730.32v-40.43c0-3.593-.703-6.211-2.109-7.851-1.406-1.68-3.887-2.52-7.441-2.52-5.079 0-8.594 2.422-10.547 7.266l.058 43.535h-16.933v-40.371c0-3.672-.723-6.328-2.168-7.969-1.446-1.64-3.907-2.461-7.383-2.461-4.805 0-8.281 1.992-10.43 5.977V231h-16.933v-63.398h15.878zm117.247 64.57c-9.297 0-16.875-2.852-22.735-8.555-5.82-5.703-8.73-13.301-8.73-22.793v-1.64c0-6.368 1.23-12.051 3.691-17.051 2.461-5.039 5.938-8.906 10.43-11.602 4.531-2.734 9.687-4.101 15.469-4.101 8.671 0 15.488 2.734 20.449 8.203 5 5.469 7.5 13.222 7.5 23.262v6.914h-40.371c.547 4.14 2.187 7.461 4.922 9.961 2.773 2.5 6.269 3.75 10.488 3.75 6.523 0 11.621-2.364 15.293-7.09l8.32 9.316c-2.539 3.594-5.976 6.406-10.312 8.438-4.336 1.992-9.141 2.988-14.414 2.988zm-1.934-52.031c-3.359 0-6.094 1.132-8.203 3.398-2.07 2.266-3.399 5.508-3.984 9.727h23.554v-1.348c-.078-3.75-1.094-6.641-3.047-8.672-1.953-2.07-4.726-3.105-8.32-3.105zm73.301 3.339c-2.305-.312-4.336-.468-6.094-.468-6.406 0-10.605 2.168-12.598 6.504V231h-16.933v-63.398h15.996l.469 7.558c3.398-5.82 8.105-8.73 14.121-8.73 1.875 0 3.633.254 5.273.761l-.234 16.289z" fill="#8C9EFF"/><g clip-path="url(#a)"><path fill="#36393F" d="M0 231h743v518.629H0z"/><path fill="#8C9EFF" fill-opacity=".5" d="M232 294h379v456H232z"/><path d="m539.099 717.563-3.861-52.014-11.031 55.003s.146 13.877.511 29.077h14.132c.476-17.376.249-32.066.249-32.066z" fill="#36393F"/><path d="M340.599 736.061a114.169 114.169 0 0 1-2.295-14.787l-1.544-17.993a313.68 313.68 0 0 0-1.987-13.102c-4.917-27.325-9.994-28.313-9.994-28.313-.218.181-.43.382-.648.589a17.165 17.165 0 0 0-1.662 1.901c-8.084 11.139-13.569 40.029-16.45 59.194-1.592 10.587-2.384 18.205-2.384 18.205s.72 3.245 1.703 7.874h36.892a76.735 76.735 0 0 0-1.631-13.568z" fill="#F2F2F2"/><path d="M630.695 231h-518.39C50.537 231 0 285.783 0 352.74v275.149c0 66.957 50.537 121.74 112.305 121.74h164.301l-2.12-10.821s-5.453-38.147 0-67.89a240.885 240.885 0 0 0 3.618-28.274 183.517 183.517 0 0 1 4.829-31.747c.144-.6.306-1.194.457-1.793-1.33-.392-1.941-.705-1.632-.903.852-.545 1.32-2.216 1.554-4.336a222.668 222.668 0 0 1 8.267-41.297c-5.51 3.75-9.169 4.148-11.564 2.695-8.417-2.491-4.923-23.012-4.923-23.012s5.231-44.384 6.969-60.454c.999-9.238 13.798-14.472 25.128-17.314 1.194-2.776 2.054-5.573 1.508-8.508-.037-.197-.09-.388-.138-.581-1.441-3.469-4.369-6.323-5.468-9.915a11.06 11.06 0 0 1-1.017-3.093c-.973-6.159 4.339-11.478 5.871-17.401-1.563-1.636-2.729-3.664-3.397-5.905-2.334-5.189-1.196-11.417 6.299-16.226 1.496-.96 3.082-1.808 4.692-2.621a7.073 7.073 0 0 1 1.906-.947c5.362-2.629 10.753-5.174 13.962-10.293.827-1.319 1.552-2.848 2.889-3.542a5.212 5.212 0 0 1 1.989-.482c10.333-.86 19.69 8.746 29.974 7.369 3.115-.417 6.296-1.837 9.286-.815 1.965.672 3.499 2.308 4.819 4 3.595 4.651 6.197 10.104 7.623 15.972a44.608 44.608 0 0 1 .624 17.97c-1.305 7.344-4.475 14.913-2.19 21.979 1.679 5.192 6.173 9.406 6.205 14.898.027 4.519-2.933 8.125-5.792 11.641.372.412.734.836 1.087 1.27 6.987 8.63 5.667 15.995 4.682 18.944v.002l-3.593 37.586-3.03 25.216s-.749 10.349-7.806 12.619c-2.056 1.03-4.748 1.302-8.288.134-2.297-.758-4.232-1.515-5.875-2.251 1.552 5.375 4.224 16.349 3.791 27-.606 14.871 1.211 16.164 1.211 16.164a2.603 2.603 0 0 1-.385.413c7.198 17.238 7.264 34.925-.22 52.606-8.484 20.043.605 66.596.605 66.596s.647 7.262.938 15.347h130.135c-2.07-21.401-4.557-42.825-5.661-45.219-1.821-3.948.491-68.989 1.354-91.581a33.972 33.972 0 0 1-1.112-.322 22.482 22.482 0 0 1-1.679-.595c-.026 1.15.086 2.299.334 3.417.766 1.937-1.071 3.361-4.193 4.333 1.816 9.605 4.058 27.478-3.529 30.941-7.804 3.562-7.96-18.077-7.532-29.356-.984.04-1.971.061-2.947.061-9.376 0 2.758-117.778 2.207-125.551-.552-7.772 4.412-39.458 4.412-39.458s1.654-6.577 6.618-7.772c4.964-1.196 28.679-16.143 28.679-16.143a18.422 18.422 0 0 1 4.964-5.094v-.884a18.456 18.456 0 0 1 1.968-1.727c-.289-5.224-.941-11.963-1.416-16.516-2.666-2.945-4.467-6.68-5.175-10.734a31.551 31.551 0 0 1-2.888-2.781c-2.277-2.831-3.584-6.426-3.699-10.18a34.695 34.695 0 0 1 1.471-10.991 13.815 13.815 0 0 1 1.278-3.356 11.722 11.722 0 0 1 2.887-3.103c.335-.269.681-.521 1.026-.775a10.258 10.258 0 0 1 3.12-3.84c2.815-2.003 6.438-1.84 9.804-1.749.05.002.101.001.152.002a31.499 31.499 0 0 1 1.88-.27c.368-.079.706-.273.974-.557.268-.285.454-.648.534-1.045l1.367 1.424c.684-.011 1.367.002 2.05.038.302-.75.657-1.474 1.063-2.165l.749 2.317c.686.079 1.37.179 2.05.307l1.608-1.385c.119-.103.546 1.41.761 1.93.369.102.737.212 1.101.334.57-.028 1.203-.144 1.555-.138a9.772 9.772 0 0 1 5.542 1.498 12.656 12.656 0 0 1 3.523 4.408c2.167 3.716 3.512 7.925 3.932 12.297a14.869 14.869 0 0 1 2.182 5.285c.91 6.001-4.351 11.017-5.394 16.993-.556 3.188.079 6.719-1.419 9.528a9.653 9.653 0 0 1-2.527 2.872c-.598.483-1.221.929-1.867 1.333a56.201 56.201 0 0 0 1.141 10.746l.71 2.949a70.593 70.593 0 0 1 3.6 3.029s15.443 7.175 20.958 10.762c4.848 3.153 10.12 3.538 11.699 7.646l.434.126s5.516 66.362 6.067 77.722c.552 11.359 7.17 81.308 6.067 84.298-.408 1.106-3.009 2.376-6.15 3.385 1.833 9.08 4.792 28.827-3.226 32.486-8.128 3.71-7.96-19.915-7.476-30.702-1.084-.106-1.795-.414-1.9-.984-.09-.486-.377-2.681-.793-6.028a536.867 536.867 0 0 1-2.625.436c6.992 23.843-8.494 87.078-11.473 99.455-1.557 6.468-3.235 22.46-4.749 38.643h68.218c61.768 0 112.305-54.783 112.305-121.74V352.74C743 285.783 692.463 231 630.695 231z" fill="#36393F"/><path d="m288.725 678.789 10.297 69.551h228.92l19.803-139.96-259.02 70.409z" fill="#3F3D56"/><path d="m556.459 598.934 2.376 12.88-296.25 77.279v-11.162l293.874-78.997z" fill="#3F3D56"/><path d="m431.304 622.118-1.584 14.597 17.427-2.576-7.13-14.597-8.713 2.576z" fill="#3F3D56"/><path d="M335.459 474.429s34.853-2.576 44.358 26.618c9.505 29.195 31.684 81.573 40.398 89.301 8.713 7.728 18.218 28.335 16.634 35.205" stroke="#3F3D56" stroke-width="5" stroke-miterlimit="10"/><path d="M340.607 474c0 4.031-3.954 7.298-10.297 7.298s-9.505-3.267-9.505-7.298c0-4.031 3.162-7.299 9.505-7.299 6.343 0 10.297 3.268 10.297 7.299z" fill="#8C9EFF"/><path d="M216.365 513.341c-14.571 0-26.383-12.136-26.383-27.106 0-14.971 11.812-27.107 26.383-27.107s26.383 12.136 26.383 27.107c0 14.97-11.812 27.106-26.383 27.106z" fill="#FFB9B9"/><path d="M194.965 490.753s-2.931 20.48-8.208 22.89a38.99 38.99 0 0 0-9.967 7.228l14.657 7.229 28.728-1.807s-2.345-13.252 1.759-19.878c4.104-6.627-26.969-15.662-26.969-15.662zM140.437 587.734s-13.485 35.54 0 69.875c13.485 34.334 19.348 39.756 19.348 39.756l4.104-45.178-4.719-4.398s-2.858-13.707-.535-21.822c2.322-8.115-1.196-33.414-1.196-33.414l-17.002-4.819z" fill="#FFB9B9"/><path d="M241.281 664.837s17.003 39.757 15.244 59.032c-1.759 19.276-15.244 100.596-15.244 100.596s1.759 104.811-3.517 104.811c-5.277 0-30.487 9.638-30.487 3.012 0-6.626-5.277-165.651-5.277-165.651s-29.9 69.875-32.832 75.296c-2.931 5.421-21.692 90.355-28.142 90.355-6.449 0-26.382-6.023-24.624-10.24 1.759-4.217 21.693-98.186 32.832-122.28 11.14-24.095 8.795-115.053 8.795-115.053l18.761-42.165 64.491 22.287z" fill="#373737"/><path d="M224.278 473.887s16.416-1.205 17.589-5.421c1.172-4.217 3.517-7.831 2.345-7.831-1.173 0-1.759-3.012-1.759-3.012s-1.173-.602-1.759 0c-.586.602-1.173-4.217-1.173-4.217s-.586-1.807-1.172-.602c-.587 1.205-.586.602-1.173-1.205-.586-1.807-3.518-3.012-3.518-3.012s-11.139.603-12.898-1.807c-1.759-2.409-21.693-.602-25.797 2.41-4.104 3.012-22.278 13.854-19.347 22.89 2.931 9.035 13.485 28.914 13.485 31.925 0 3.012 4.104 2.41 5.276-.602 1.173-3.012 10.553-6.626 10.553-8.433 0-1.807 5.277-18.674 8.208-17.469 2.932 1.205 6.45 10.843 7.622 9.036 1.173-1.807 3.518-12.65 3.518-12.65z" fill="#3F3D56"/><path d="M143.372 556.411s24.037-36.142 31.073-37.949c7.035-1.807 22.865-6.626 22.865-6.626s15.83 2.41 20.52 4.819c4.69 2.41 22.279 6.626 22.865 13.855.587 7.228-4.69 76.5-1.759 83.126 2.932 6.626 12.899 69.874 8.208 68.67-4.69-1.205-1.172-16.867-21.692-17.469-20.52-.602-31.66-13.252-39.281 1.807-7.622 15.059-29.315 26.504-29.315 26.504a149.45 149.45 0 0 0-2.345-14.457c-1.759-8.433 4.69-28.913 4.69-28.913s-.586-47.587-2.931-53.008c-2.345-5.422-12.898-40.359-12.898-40.359z" fill="#8C9EFF"/><path d="m152.166 555.207-8.794 1.205s.586 12.047-1.759 15.661c-2.345 3.614-6.45 22.288-4.104 22.89 2.345.602 23.451 4.217 23.451 4.217l1.173-27.709-9.967-16.264z" fill="#8C9EFF"/><path d="M247.144 576.891s5.863 39.154 8.794 43.973c2.931 4.819 17.589 72.284 17.589 72.284s24.102 34.437 12.376 33.834c-11.725-.602-24.102-31.425-24.102-31.425s-36.35-68.067-36.35-75.296c0-7.228-8.794-43.37-8.794-43.37h30.487z" fill="#FFB9B9"/><path d="m230.14 523.883 10.553 4.217s13.484 49.394 10.553 53.611c-2.931 4.216-38.108-1.807-38.695-3.615-.586-1.807 6.45-54.213 17.589-54.213z" fill="#8C9EFF"/></g><path d="M779.5 715c76.491 0 138.5-62.009 138.5-138.5S855.991 438 779.5 438 641 500.009 641 576.5 703.009 715 779.5 715z" fill="#8C9EFF"/><path d="M842.474 529.269s-18.015-14.12-39.331-15.743l-1.894 3.841c19.26 4.707 28.079 11.469 37.33 19.747-15.906-8.115-31.649-15.744-59.025-15.744-27.375 0-43.119 7.629-59.024 15.744 9.251-8.278 19.747-15.798 37.33-19.747l-1.894-3.841c-22.344 2.11-39.332 15.743-39.332 15.743s-20.126 29.215-23.588 86.563c20.288 23.426 51.126 23.588 51.126 23.588l6.438-8.602c-10.929-3.787-23.318-10.604-33.976-22.885 12.714 9.63 31.974 19.693 62.974 19.693 31.001 0 50.207-10.009 62.975-19.693-10.658 12.281-23.048 19.098-33.976 22.885l6.438 8.602s30.838-.162 51.126-23.588c-3.571-57.348-23.697-86.563-23.697-86.563zm-88.564 70.819c-7.628 0-13.796-7.033-13.796-15.743 0-8.711 6.168-15.744 13.796-15.744 7.629 0 13.796 7.033 13.796 15.744 0 8.71-6.167 15.743-13.796 15.743zm51.18 0c-7.628 0-13.796-7.033-13.796-15.743 0-8.711 6.168-15.744 13.796-15.744 7.629 0 13.796 7.033 13.796 15.744 0 8.71-6.222 15.743-13.796 15.743z" fill="#fff"/><defs><clipPath id="a"><path fill="#fff" transform="translate(0 231)" d="M0 0h743v518.629H0z"/></clipPath></defs></svg>