<svg width="999" height="1001" fill="none" xmlns="http://www.w3.org/2000/svg"><path fill-rule="evenodd" clip-rule="evenodd" d="M1558.12-38.5 641-568 293.435 34H367.5c8.56 0 15.5 6.94 15.5 15.5 0 8.56-6.94 15.5-15.5 15.5h-91.963l-12.701 22H212.5c-8.56 0-15.5 6.94-15.5 15.5 0 8.56 6.94 15.5 15.5 15.5h32.438l-10.97 19H175c-5.523 0-10 4.477-10 10s4.477 10 10 10h47.421l-28.671 49.66C123.138 328.964 106.863 467.729 137.435 595H76.5c-8.56 0-15.5 6.94-15.5 15.5 0 8.56 6.94 15.5 15.5 15.5h69.378a519.984 519.984 0 0 0 2.188 7H10c-5.523 0-10 4.477-10 10s4.477 10 10 10h144.909a530.988 530.988 0 0 0 30.416 68.151A15.763 15.763 0 0 1 187.5 721h92c8.56 0 15.5 6.94 15.5 15.5 0 8.56-6.94 15.5-15.5 15.5h-76.356a526.72 526.72 0 0 0 40.23 56H188c-9.941 0-18 8.059-18 18s8.059 18 18 18h87.896c32.47 32.764 69.792 61.795 111.665 85.97 147.903 85.39 319.879 91.32 466.49 31.03H980c5.523 0 10-4.477 10-10s-4.477-10-10-10h-82.892c86.411-44.942 161.452-114.237 213.762-204.84L1558.12-38.5Z" fill="url(#a)"/><defs><linearGradient id="a" x1="891.5" y1="81.5" x2="0" y2="1111.5" gradientUnits="userSpaceOnUse"><stop offset=".146" stop-color="#6C00E0"/><stop offset=".807" stop-color="#0A5CFF"/></linearGradient></defs></svg>