<svg width="408" height="776" fill="none" xmlns="http://www.w3.org/2000/svg"><path fill-rule="evenodd" clip-rule="evenodd" d="M186.187 0c2.872 0 5.2 2.23 5.2 4.98v68.762c1.211-.371 2.425-.735 3.641-1.09V38.1c0-4.264 3.609-7.72 8.061-7.72s8.061 3.456 8.061 7.72v30.347c66.191-15.226 138.36-7.12 201.967 28.047l25.827 14.28V87.156c0-2.75 2.329-4.98 5.201-4.98 2.872 0 5.201 2.23 5.201 4.98v29.369l9.881 5.463v-16.155c0-4.264 3.609-7.72 8.061-7.72s8.061 3.456 8.061 7.72v25.069L816 319.241 540.619 776 307 646.836V674a3 3 0 1 1-6 0v-30.481l-3-1.659V654a4 4 0 0 1-8 0v-16.563l-3-1.658V593a2 2 0 1 0-4 0v40.567l-145.264-80.314C106.452 535.957 80.052 513.669 59 488.047V446a4 4 0 0 0-8 0v31.806a262.117 262.117 0 0 1-11-16.032V507a2 2 0 1 1-4 0v-51.757a260.489 260.489 0 0 1-4.796-8.451v41.283c0 2.751-2.329 4.98-5.201 4.98-2.872 0-5.2-2.229-5.2-4.98v-62.727C-10.554 352.331-7.47 266.68 36.94 193.019a265.738 265.738 0 0 1 44.711-55.613V93.631c0-4.951 4.191-8.965 9.362-8.965 5.17 0 9.361 4.014 9.361 8.965v27.578a273.927 273.927 0 0 1 29.124-20.036v37.686a8.061 8.061 0 1 0 16.122 0v-46.6a282.517 282.517 0 0 1 35.366-15.109V4.98c0-2.75 2.328-4.98 5.201-4.98z" fill="url(#a)"/><defs><linearGradient id="a" x1="50.5" y1="52.5" x2="432.5" y2="442.5" gradientUnits="userSpaceOnUse"><stop stop-color="#0A5CFF"/><stop offset="1" stop-color="#6C00E0"/></linearGradient></defs></svg>