<svg width="1000" height="750" fill="none" xmlns="http://www.w3.org/2000/svg"><path fill="#EEE" d="M0 0h1000v750H0z"/><path fill-rule="evenodd" clip-rule="evenodd" d="M498.048 468.027c96.65 0 175-78.35 175-175s-78.35-175-175-175-175 78.35-175 175 78.35 175 175 175Zm0-50c69.036 0 125-55.964 125-125s-55.964-125-125-125-125 55.964-125 125 55.964 125 125 125Z" fill="#048EC4"/><path d="M712.908 78.171c-24.314-24.323-80.529-2.837-144.655 41.26a186.271 186.271 0 0 0-70.205-13.7c-103.279 0-187.298 84.018-187.298 187.295a186.25 186.25 0 0 0 13.7 70.203c-44.093 64.12-65.58 120.328-41.261 144.651 6.963 6.968 16.543 10.174 28.17 10.174 28.984 0 70.719-19.973 116.48-51.433a186.296 186.296 0 0 0 70.209 13.7c103.279 0 187.299-84.019 187.299-187.295a186.27 186.27 0 0 0-13.7-70.204c44.088-64.119 65.579-120.328 41.261-144.651ZM565.96 271.324c-6.782-1.343-13.34 3.037-14.694 9.795L538.78 343.55v.025c-.18.919-.23 1.853-.205 2.782.01.285.055.555.08.839a12.447 12.447 0 0 0 .599 2.822c.215.634.495 1.244.814 1.838.13.24.235.485.375.714a12.655 12.655 0 0 0 1.753 2.253 12.844 12.844 0 0 0 1.928 1.578c.484.325 1.004.56 1.518.809.215.105.415.245.64.335.574.235 1.168.385 1.763.534.19.045.369.13.564.165.799.155 1.603.24 2.413.24.809 0 1.618-.08 2.417-.24.01 0 .02 0 .03-.005l62.433-12.486c6.763-1.354 11.148-7.931 9.794-14.694-1.353-6.763-7.916-11.133-14.694-9.794l-23.265 4.655c24.149-25.922 46.635-52.533 66.094-78.4a161.696 161.696 0 0 1 6.543 45.506c0 89.502-72.822 162.322-162.326 162.322-63.282 0-118.183-36.42-144.944-89.382 18.94-26.386 42.719-55.629 71.354-86.501l-4.116 20.568c-1.354 6.762 3.032 13.34 9.794 14.694.83.165 1.654.245 2.463.245 5.828 0 11.043-4.106 12.232-10.04l12.486-62.431v-.025c.18-.919.23-1.853.205-2.782-.01-.285-.055-.555-.08-.839a12.354 12.354 0 0 0-.34-1.943 12.19 12.19 0 0 0-.259-.879 12.124 12.124 0 0 0-.814-1.838c-.13-.24-.235-.485-.375-.714a12.655 12.655 0 0 0-1.753-2.253 12.363 12.363 0 0 0-2.258-1.758c-.219-.135-.454-.24-.684-.36a12.494 12.494 0 0 0-1.888-.834 14.13 14.13 0 0 0-.819-.244 12.879 12.879 0 0 0-2.038-.355c-.25-.025-.494-.065-.749-.07-.944-.03-1.883.02-2.812.2h-.025l-62.433 12.486c-6.763 1.354-11.148 7.932-9.794 14.694 1.353 6.763 7.916 11.138 14.694 9.794l23.265-4.654c-24.149 25.921-46.635 52.532-66.094 78.399a161.591 161.591 0 0 1-6.543-45.5c0-89.503 72.822-162.322 162.325-162.322 63.282 0 118.183 36.419 144.945 89.381-18.94 26.386-42.719 55.629-71.354 86.501l4.116-20.568c1.353-6.762-3.032-13.34-9.795-14.694ZM300.85 490.22c-10.264-10.264 1.848-48.198 36.446-101.204a188.664 188.664 0 0 0 64.761 64.759c-53.003 34.602-90.933 46.709-101.207 36.445Zm357.951-293.184a188.704 188.704 0 0 0-64.756-64.754c53.008-34.597 90.933-46.704 101.202-36.45 10.269 10.263-1.844 48.192-36.446 101.204ZM169 565.727h44.25c14.7 0 22.05 6.2 22.05 18.6v59.1c0 12.4-7.35 18.6-22.05 18.6H169v-96.3Zm40.05 75.75v-55.2c0-2.2-1.25-3.3-3.75-3.3h-10.05v61.8h10.05c2.5 0 3.75-1.1 3.75-3.3Zm58.395-54.3h18.3c14.7 0 22.05 6.2 22.05 18.6v25.5h-38.25v9.9c0 2.2 1.25 3.3 3.75 3.3h6.6c2.5 0 3.75-1.2 3.75-3.6v-4.2h24.15v6.75c0 12.4-7.35 18.6-22.05 18.6h-18.3c-14.7 0-22.05-6.2-22.05-18.6v-37.65c0-12.4 7.35-18.6 22.05-18.6Zm2.1 30.3h14.1v-9.45c0-2.2-1.25-3.3-3.75-3.3h-6.6c-2.5 0-3.75 1.1-3.75 3.3v9.45Zm84.855 22.5v-13.65c0-2.2-1.25-3.3-3.75-3.3h-14.4c-7.4 0-12.65-1.6-15.75-4.8-3-3.3-4.5-8-4.5-14.1v-19.8c0-12.4 7.3-18.6 21.9-18.6h20.55c14.6 0 21.9 6.2 21.9 18.6v11.55H354.1v-8.1c0-2.2-1.25-3.3-3.75-3.3H346c-2.5 0-3.75 1.1-3.75 3.3v14.25c0 2.2 1.25 3.3 3.75 3.3h14.1c7.4 0 12.65 1.55 15.75 4.65 3.2 3.1 4.8 7.65 4.8 13.65v19.8c0 12.4-7.3 18.6-21.9 18.6h-20.4c-14.7 0-22.05-6.2-22.05-18.6v-11.55h26.25v8.1c0 2.2 1.25 3.3 3.75 3.3h4.35c2.5 0 3.75-1.1 3.75-3.3Zm74.732-34.05h-9.45v34.05c0 2.2 1.25 3.3 3.75 3.3h5.55v18.75h-12.75c-14.7 0-22.05-6.2-22.05-18.6v-37.5h-8.25v-18.75h8.25v-14.7h25.5v14.7h9.45v18.75Zm42.26-18.75h25.05v74.85h-25.5v-8.1c-1.9 5.4-6.3 8.1-13.2 8.1h-2.7c-13.3 0-19.95-6.2-19.95-18.6v-37.65c0-12.4 6.65-18.6 19.95-18.6h2.7c7.7 0 12.25 3.2 13.65 9.6v-9.6Zm-7.05 56.1h2.55c2.7 0 4.05-1.5 4.05-4.5v-28.35c0-3-1.35-4.5-4.05-4.5h-2.55c-2.5 0-3.75 1.1-3.75 3.3v30.75c0 2.2 1.25 3.3 3.75 3.3Zm78.827-56.1h25.05v75.6c0 12.4-7.35 18.6-22.05 18.6h-35.85v-18h28.65c2.5 0 3.75-1.1 3.75-3.3v-10.65c-1.9 5.4-6.3 8.1-13.2 8.1h-2.7c-13.3 0-19.95-6.2-19.95-18.6v-33.15c0-12.4 6.65-18.6 19.95-18.6h2.7c7.7 0 12.25 3.2 13.65 9.6v-9.6Zm-7.05 51.6h2.55c2.7 0 4.05-1.5 4.05-4.5v-23.85c0-3-1.35-4.5-4.05-4.5h-2.55c-2.5 0-3.75 1.1-3.75 3.3v26.25c0 2.2 1.25 3.3 3.75 3.3Zm82.728-51.6h2.7c13.3 0 19.95 6.2 19.95 18.6v56.25h-25.5v-52.8c0-2.2-1.25-3.3-3.75-3.3h-2.55c-2.7 0-4.05 1.5-4.05 4.5v51.6h-25.5v-74.85h25.05v9.6c1.4-6.4 5.95-9.6 13.65-9.6Zm68.756 0h25.05v74.85h-25.5v-8.1c-1.9 5.4-6.3 8.1-13.2 8.1h-2.7c-13.3 0-19.95-6.2-19.95-18.6v-37.65c0-12.4 6.65-18.6 19.95-18.6h2.7c7.7 0 12.25 3.2 13.65 9.6v-9.6Zm-7.05 56.1h2.55c2.7 0 4.05-1.5 4.05-4.5v-28.35c0-3-1.35-4.5-4.05-4.5h-2.55c-2.5 0-3.75 1.1-3.75 3.3v30.75c0 2.2 1.25 3.3 3.75 3.3Zm81.977-37.35h-9.45v34.05c0 2.2 1.25 3.3 3.75 3.3h5.55v18.75h-12.75c-14.7 0-22.05-6.2-22.05-18.6v-37.5h-8.25v-18.75h8.25v-14.7h25.5v14.7h9.45v18.75Zm28.01-18.75h18.3c14.7 0 22.05 6.2 22.05 18.6v25.5h-38.25v9.9c0 2.2 1.25 3.3 3.75 3.3h6.6c2.5 0 3.75-1.2 3.75-3.6v-4.2h24.15v6.75c0 12.4-7.35 18.6-22.05 18.6h-18.3c-14.7 0-22.05-6.2-22.05-18.6v-37.65c0-12.4 7.35-18.6 22.05-18.6Zm2.1 30.3h14.1v-9.45c0-2.2-1.25-3.3-3.75-3.3h-6.6c-2.5 0-3.75 1.1-3.75 3.3v9.45Z" fill="#071D26"/></svg>