<svg width="1000" height="750" fill="none" xmlns="http://www.w3.org/2000/svg"><path fill="url(#a)" d="M0 0h1000v750H0z"/><g filter="url(#b)"><path d="M500 613.358c78.425 0 142-46.074 142-102.909 0-56.835-63.575-102.908-142-102.908s-142 46.073-142 102.908 63.575 102.909 142 102.909ZM500 373.438c78.425 0 142-31.134 142-69.539 0-38.406-63.575-69.539-142-69.539s-142 31.133-142 69.539c0 38.405 63.575 69.539 142 69.539Z" fill="#BAE4F8"/><path d="M641.929 304.475H358.104V510.45h283.825V304.475Z" fill="#BAE4F8"/><path d="M499.999 608.213c74.705 0 135.263-43.77 135.263-97.763 0-53.994-60.558-97.764-135.263-97.764-74.704 0-135.263 43.77-135.263 97.764 0 53.993 60.559 97.763 135.263 97.763ZM500.005 376.096c74.51 0 134.913-29.583 134.913-66.074s-60.403-66.074-134.913-66.074c-74.51 0-134.913 29.583-134.913 66.074s60.403 66.074 134.913 66.074Z" fill="#E7F6FF"/><path d="M635.054 309.621H364.966v195.685h270.088V309.621Z" fill="#E7F6FF"/><path d="M380.065 474.263c0 36.729.823-69.224.438-55.383-.805 30.045-.683 58.2.437 63.87 16.816 46.615 60.615 65.444 112.078 56.502 12.371-3.08 20.088-7.052 27.227-12.074-14.558 7.927-40.841 2.485-52.127-4.445-9.765-5.984-19.616-15.906-20.019-37.131-.315-15.801 2.643-32.95-5.039-47.736-7.962-15.329-39.442-31.97-63.012-35.557" fill="#BA00FF"/><path d="M619.791 313.646c-.297 84.657.298 138.115-.595 175.089-.14 5.617.525 12.494-3.849 28.085-10.797 38.374-48.488 58.708-63.607 64.815-45.234 18.303-84.85 7.209-100.826 1.434-8.715-3.149-48.436-20.735-64.307-60.632-8.102-20.333-6.667-41.436-6.65-52.39.018-7.874 7.962 27.858 42.277 49.136 6.527 4.042 30.762 18.618 70.081 14.768 43.869-4.304 51.498-28.89 52.968-34.314 3.587-13.141 3.867-36.029 3.517-100.844-.245-47.315.927-43.483 8.872-54.42 4.724-6.509 23.063-19.546 46.721-26.65" fill="#8600FF"/><path d="M499.996 300.451c74.376 0 134.669-29.583 134.669-66.074 0-36.492-60.293-66.075-134.669-66.075-74.375 0-134.668 29.583-134.668 66.075 0 36.491 60.293 66.074 134.668 66.074Z" fill="url(#c)"/><path d="M631.672 238.366c1.33 36.379-59.057 65.164-131.746 65.164-72.689 0-132.358-27.892-131.623-64.412" stroke="#E1E1E1" stroke-width="3.5" stroke-miterlimit="10"/><path d="M500.005 272.523c74.51 0 134.913-30.561 134.913-68.262 0-37.7-60.403-68.261-134.913-68.261-74.51 0-134.913 30.561-134.913 68.261 0 37.701 60.403 68.262 134.913 68.262Z" fill="#E1E1E1"/><path d="M500 267.03c70.664 0 127.948-28.102 127.948-62.767 0-34.664-57.284-62.767-127.948-62.767-70.664 0-127.949 28.103-127.949 62.767 0 34.665 57.285 62.767 127.949 62.767Z" fill="url(#d)"/><path d="m631.609 242.041.333-37.604M368.427 240.15l-.122-34.717" stroke="#E1E1E1" stroke-width="3.5" stroke-miterlimit="10"/><path opacity=".2" d="M473.252 305.49c-2.31-.263-6.352-.787-8.575-1.102-7.979-1.103-13.456-2.065-21.435-3.29-2.817-.683-4.602-1.068-5.617-1.365-5.18-1.505-5.775-1.645-8.399-2.345l-61.77 233.815s1.505 4.094 2.677 7.384c3.255 7.139 4.252 9.624 7.84 14.821 3.989 5.792 9.029 11.392 14.348 16.204 5.32 4.812 7.542 6.299 13.019 10.166 1.348.945 5.477 3.325 6.807 4.253.858.105 1.662 1.294 2.31 1.644l71.166-279.45c-4.899-.245-8.224-.333-12.371-.735ZM463.217 604.784c2.362.56 3.307.42 5.477.822.262 0 1.819.42 2.064.42 1.908 0 2.433.333 4.235.595l74.561-304.595c-2.485.559-3.675.822-6.334 1.102-2.275.245-3.395.56-6.947 1.102-.578.088-4.008.613-4.585.683-4.585.28-6.649.42-10.779.787l-73.844 295.269c2.608.77 5.355 1.453 8.47 2.135 3.534.858 4.864 1.138 7.682 1.68Z" fill="#fff"/></g><defs><linearGradient id="a" x1="0" y1="750" x2="615.717" y2="-73.833" gradientUnits="userSpaceOnUse"><stop stop-color="#5E00B4"/><stop offset="1" stop-color="#CF4EFF"/></linearGradient><linearGradient id="c" x1="365.327" y1="234.382" x2="634.682" y2="234.382" gradientUnits="userSpaceOnUse"><stop stop-color="#EFEFEF"/><stop offset="1" stop-color="#CFCFCF"/></linearGradient><linearGradient id="d" x1="392.178" y1="153.98" x2="607.843" y2="254.543" gradientUnits="userSpaceOnUse"><stop stop-color="#F3F3F3"/><stop offset="1" stop-color="#D3D4D6"/></linearGradient><filter id="b" x="298" y="136" width="344" height="537.358" filterUnits="userSpaceOnUse" color-interpolation-filters="sRGB"><feFlood flood-opacity="0" result="BackgroundImageFix"/><feColorMatrix in="SourceAlpha" values="0 0 0 0 0 0 0 0 0 0 0 0 0 0 0 0 0 0 127 0" result="hardAlpha"/><feOffset dx="-30" dy="30"/><feGaussianBlur stdDeviation="15"/><feComposite in2="hardAlpha" operator="out"/><feColorMatrix values="0 0 0 0 0 0 0 0 0 0 0 0 0 0 0 0 0 0 0.09 0"/><feBlend in2="BackgroundImageFix" result="effect1_dropShadow_527_2"/><feBlend in="SourceGraphic" in2="effect1_dropShadow_527_2" result="shape"/></filter></defs></svg>