<svg width="1000" height="750" fill="none" xmlns="http://www.w3.org/2000/svg"><path fill="#373737" d="M0 0h1000v750H0z"/><g clip-path="url(#a)"><path d="M539.941 169.126c5.464-5.07 14.311-5.056 19.758.03 5.447 5.086 5.433 13.319-.032 18.389L535.4 210.057c-22.388 20.77-58.895 21.071-81.661.7-.131-.118-10.268-9.352-43.71-39.818-22.247-20.266-24.464-52.696-3.528-73.522l39.034-38.831c20.778-20.671 59.08-22.93 82.837-5.081l35.452 26.637c6.004 4.511 6.942 12.698 2.095 18.286-4.847 5.587-13.643 6.46-19.647 1.949L510.82 73.74c-12.425-9.335-34.159-8.053-44.879 2.613l-39.035 38.831c-10.192 10.138-9.076 26.471 2.67 37.171l43.503 39.631c11.836 10.591 30.974 10.433 42.595-.347l24.267-22.513z" fill="#FFA116"/><path fill-rule="evenodd" clip-rule="evenodd" d="M480.99 146.597c-7.716 0-13.971-5.821-13.971-13.002 0-7.182 6.255-13.003 13.971-13.003h103.039c7.716 0 13.971 5.821 13.971 13.003 0 7.181-6.255 13.002-13.971 13.002H480.99z" fill="#B3B3B3"/><path fill-rule="evenodd" clip-rule="evenodd" d="M500.287 4.12c5.271-5.245 14.112-5.519 19.747-.612 5.635 4.906 5.929 13.134.658 18.378l-93.786 93.298c-10.192 10.138-9.076 26.471 2.669 37.171l43.311 39.458c5.514 5.024 5.609 13.256.211 18.388-5.397 5.132-14.243 5.22-19.757.196l-43.312-39.458c-22.246-20.268-24.463-52.698-3.526-73.522L500.287 4.12z" fill="#fff"/></g><path d="M205.605 258h19.44v68.16h42.12V342h-61.56v-84zm133.873 51.96c0 .24-.12 1.92-.36 5.04h-48.84c.88 4 2.96 7.16 6.24 9.48 3.28 2.32 7.36 3.48 12.24 3.48 3.36 0 6.32-.48 8.88-1.44 2.64-1.04 5.08-2.64 7.32-4.8l9.96 10.8c-6.08 6.96-14.96 10.44-26.64 10.44-7.28 0-13.72-1.4-19.32-4.2-5.6-2.88-9.92-6.84-12.96-11.88-3.04-5.04-4.56-10.76-4.56-17.16 0-6.32 1.48-12 4.44-17.04 3.04-5.12 7.16-9.08 12.36-11.88 5.28-2.88 11.16-4.32 17.64-4.32 6.32 0 12.04 1.36 17.16 4.08 5.12 2.72 9.12 6.64 12 11.76 2.96 5.04 4.44 10.92 4.44 17.64zm-33.48-19.32c-4.24 0-7.8 1.2-10.68 3.6-2.88 2.4-4.64 5.68-5.28 9.84h31.8c-.64-4.08-2.4-7.32-5.28-9.72-2.88-2.48-6.4-3.72-10.56-3.72zm109.183 19.32c0 .24-.12 1.92-.36 5.04h-48.84c.88 4 2.96 7.16 6.24 9.48 3.28 2.32 7.36 3.48 12.24 3.48 3.36 0 6.32-.48 8.88-1.44 2.64-1.04 5.08-2.64 7.32-4.8l9.96 10.8c-6.08 6.96-14.96 10.44-26.64 10.44-7.28 0-13.72-1.4-19.32-4.2-5.6-2.88-9.92-6.84-12.96-11.88-3.04-5.04-4.56-10.76-4.56-17.16 0-6.32 1.48-12 4.44-17.04 3.04-5.12 7.16-9.08 12.36-11.88 5.28-2.88 11.16-4.32 17.64-4.32 6.32 0 12.04 1.36 17.16 4.08 5.12 2.72 9.12 6.64 12 11.76 2.96 5.04 4.44 10.92 4.44 17.64zm-33.48-19.32c-4.24 0-7.8 1.2-10.68 3.6-2.88 2.4-4.64 5.68-5.28 9.84h31.8c-.64-4.08-2.4-7.32-5.28-9.72-2.88-2.48-6.4-3.72-10.56-3.72zm87.583 48.24c-1.84 1.36-4.12 2.4-6.84 3.12-2.64.64-5.44.96-8.4.96-7.68 0-13.64-1.96-17.88-5.88-4.16-3.92-6.24-9.68-6.24-17.28v-26.52h-9.96v-14.4h9.96v-15.72h18.72v15.72h16.08v14.4h-16.08v26.28c0 2.72.68 4.84 2.04 6.36 1.44 1.44 3.44 2.16 6 2.16 2.96 0 5.48-.8 7.56-2.4l5.04 13.2zm52.028 4.56c-8.56 0-16.32-1.84-23.28-5.52-6.88-3.76-12.32-8.92-16.32-15.48-3.92-6.64-5.88-14.12-5.88-22.44 0-8.32 1.96-15.76 5.88-22.32 4-6.64 9.44-11.8 16.32-15.48 6.96-3.76 14.76-5.64 23.4-5.64 7.28 0 13.84 1.28 19.68 3.84 5.92 2.56 10.88 6.24 14.88 11.04l-12.48 11.52c-5.68-6.56-12.72-9.84-21.12-9.84-5.2 0-9.84 1.16-13.92 3.48-4.08 2.24-7.28 5.4-9.6 9.48-2.24 4.08-3.36 8.72-3.36 13.92 0 5.2 1.12 9.84 3.36 13.92 2.32 4.08 5.52 7.28 9.6 9.6 4.08 2.24 8.72 3.36 13.92 3.36 8.4 0 15.44-3.32 21.12-9.96l12.48 11.52c-4 4.88-8.96 8.6-14.88 11.16-5.92 2.56-12.52 3.84-19.8 3.84zm74.982-.48c-6.8 0-12.92-1.4-18.36-4.2-5.36-2.88-9.56-6.84-12.6-11.88-3.04-5.04-4.56-10.76-4.56-17.16s1.52-12.12 4.56-17.16c3.04-5.04 7.24-8.96 12.6-11.76 5.44-2.88 11.56-4.32 18.36-4.32 6.8 0 12.88 1.44 18.24 4.32 5.36 2.8 9.56 6.72 12.6 11.76 3.04 5.04 4.56 10.76 4.56 17.16s-1.52 12.12-4.56 17.16c-3.04 5.04-7.24 9-12.6 11.88-5.36 2.8-11.44 4.2-18.24 4.2zm0-15.36c4.8 0 8.72-1.6 11.76-4.8 3.12-3.28 4.68-7.64 4.68-13.08s-1.56-9.76-4.68-12.96c-3.04-3.28-6.96-4.92-11.76-4.92s-8.76 1.64-11.88 4.92c-3.12 3.2-4.68 7.52-4.68 12.96 0 5.44 1.56 9.8 4.68 13.08 3.12 3.2 7.08 4.8 11.88 4.8zm113.672-74.64V342h-17.88v-7.44c-4.64 5.6-11.36 8.4-20.16 8.4-6.08 0-11.6-1.36-16.56-4.08-4.88-2.72-8.72-6.6-11.52-11.64-2.8-5.04-4.2-10.88-4.2-17.52 0-6.64 1.4-12.48 4.2-17.52 2.8-5.04 6.64-8.92 11.52-11.64 4.96-2.72 10.48-4.08 16.56-4.08 8.24 0 14.68 2.6 19.32 7.8v-31.32h18.72zm-34.8 74.64c4.72 0 8.64-1.6 11.76-4.8 3.12-3.28 4.68-7.64 4.68-13.08s-1.56-9.76-4.68-12.96c-3.12-3.28-7.04-4.92-11.76-4.92-4.8 0-8.76 1.64-11.88 4.92-3.12 3.2-4.68 7.52-4.68 12.96 0 5.44 1.56 9.8 4.68 13.08 3.12 3.2 7.08 4.8 11.88 4.8zm115.366-17.64c0 .24-.12 1.92-.36 5.04h-48.84c.88 4 2.96 7.16 6.24 9.48 3.28 2.32 7.36 3.48 12.24 3.48 3.36 0 6.32-.48 8.88-1.44 2.64-1.04 5.08-2.64 7.32-4.8l9.96 10.8c-6.08 6.96-14.96 10.44-26.64 10.44-7.28 0-13.72-1.4-19.32-4.2-5.6-2.88-9.92-6.84-12.96-11.88-3.04-5.04-4.56-10.76-4.56-17.16 0-6.32 1.48-12 4.44-17.04 3.04-5.12 7.16-9.08 12.36-11.88 5.28-2.88 11.16-4.32 17.64-4.32 6.32 0 12.04 1.36 17.16 4.08 5.12 2.72 9.12 6.64 12 11.76 2.96 5.04 4.44 10.92 4.44 17.64zm-33.48-19.32c-4.24 0-7.8 1.2-10.68 3.6-2.88 2.4-4.64 5.68-5.28 9.84h31.8c-.64-4.08-2.4-7.32-5.28-9.72-2.88-2.48-6.4-3.72-10.56-3.72z" fill="#F4F4F4"/><g clip-path="url(#b)"><path opacity=".1" d="M651.103 732c56.968 0 103.15-10.037 103.15-22.417 0-12.381-46.182-22.418-103.15-22.418-56.969 0-103.15 10.037-103.15 22.418 0 12.38 46.181 22.417 103.15 22.417zM533.786 376.967c0 81.38 52.612 147.229 117.655 147.229L533.786 376.967z" fill="#FFA116"/><path opacity=".1" d="M535.076 430.789c-38.01.282-74.532-8.055-109.452-17.345-34.921-9.29-69.557-19.737-106.798-24.002-23.972-2.747-51.253-2.315-70.094 8.341-18.132 10.25-23.499 27.052-26.147 42.557-1.994 11.667-2.966 23.908 4.05 34.523 4.846 7.366 13.217 13.414 19.126 20.431 20.555 24.414 7.806 55.835-12.577 81.072-9.557 11.84-20.737 23.2-27.99 35.701-7.253 12.502-10.304 26.64-3.11 38.892 7.134 12.136 23.391 20.853 40.878 26.822 35.528 12.043 76.938 14.441 117.258 15.202 89.257 1.695 178.745-3.456 267.991-8.602 33.025-1.908 66.199-3.826 98.573-8.941 17.976-2.841 36.489-7.006 49.286-15.958 16.252-11.365 19.706-29.773 8.059-42.921-19.539-22.047-71.453-25.9-85.421-49.803-7.688-13.158-.843-28.345 9.133-41.144 21.457-27.443 58.21-52.133 59.096-82.694.591-20.983-18.266-41.331-46.567-50.272-29.683-9.384-70.266-6.668-91.251 11.266-21.613 18.466-60.477 26.63-94.043 26.875z" fill="#FFA116"/><path d="M706.712 379.26v270.265c0 8.039-7.994 14.597-17.858 14.597H310.949c-9.864 0-17.852-6.537-17.852-14.597V379.26c0-8.054 7.988-16.26 17.852-16.26l377.857.891c9.848 0 17.906 7.315 17.906 15.369z" fill="#fff"/><path d="M706.712 379.344v12.512H293.097v-12.512c0-4.334 1.773-8.49 4.931-11.555 3.157-3.065 7.44-4.788 11.906-4.789h379.909a17.296 17.296 0 0 1 6.453 1.238 16.892 16.892 0 0 1 5.472 3.541 16.322 16.322 0 0 1 3.658 5.305 15.907 15.907 0 0 1 1.286 6.26z" fill="#3F3D56"/><path opacity=".8" d="M313.13 383.202c3.288 0 5.953-2.586 5.953-5.777 0-3.19-2.665-5.776-5.953-5.776-3.287 0-5.952 2.586-5.952 5.776 0 3.191 2.665 5.777 5.952 5.777z" fill="#FA5959"/><path opacity=".8" d="M330.446 383.202c3.287 0 5.952-2.586 5.952-5.777 0-3.19-2.665-5.776-5.952-5.776-3.288 0-5.953 2.586-5.953 5.776 0 3.191 2.665 5.777 5.953 5.777z" fill="#FED253"/><path opacity=".8" d="M347.761 383.202c3.287 0 5.952-2.586 5.952-5.777 0-3.19-2.665-5.776-5.952-5.776-3.288 0-5.953 2.586-5.953 5.776 0 3.191 2.665 5.777 5.953 5.777z" fill="#8CCF4D"/><path opacity=".2" d="M476.527 451.992h-28.404c-2.543 0-4.604 2-4.604 4.468v8.383c0 2.467 2.061 4.467 4.604 4.467h28.404c2.542 0 4.604-2 4.604-4.467v-8.383c0-2.468-2.062-4.468-4.604-4.468zM552.729 451.992h-28.404c-2.543 0-4.604 2-4.604 4.468v8.383c0 2.467 2.061 4.467 4.604 4.467h28.404c2.543 0 4.604-2 4.604-4.467v-8.383c0-2.468-2.061-4.468-4.604-4.468z" fill="#FFA116"/><path d="m462.22 468.919 37.65 47.708 38.783-47.932" stroke="#3F3D56" stroke-miterlimit="10"/><path opacity=".1" d="M524.013 515.099h-48.292c-2.543 0-4.604 2-4.604 4.468v17.543c0 2.467 2.061 4.468 4.604 4.468h48.292c2.543 0 4.604-2.001 4.604-4.468v-17.543c0-2.468-2.061-4.468-4.604-4.468z" fill="#000"/><path d="M522.848 515.641h-45.956c-2.543 0-4.604 2.001-4.604 4.468v16.469c0 2.468 2.061 4.468 4.604 4.468h45.956c2.542 0 4.604-2 4.604-4.468v-16.469c0-2.467-2.062-4.468-4.604-4.468z" fill="#FFA116"/><path d="m462.477 451.992-.488-16.865M560.755 435.95l-22.102 16.042-23.246-16.042" stroke="#3F3D56" stroke-miterlimit="10"/><path opacity=".2" d="M476.317 418.626h-28.404c-2.543 0-4.604 2.001-4.604 4.468v8.383c0 2.468 2.061 4.468 4.604 4.468h28.404c2.543 0 4.604-2 4.604-4.468v-8.383c0-2.467-2.061-4.468-4.604-4.468zM574.954 418.626H546.55c-2.542 0-4.604 2.001-4.604 4.468v8.383c0 2.468 2.062 4.468 4.604 4.468h28.404c2.543 0 4.604-2 4.604-4.468v-8.383c0-2.467-2.061-4.468-4.604-4.468zM529.611 418.626h-28.404c-2.543 0-4.604 2.001-4.604 4.468v8.383c0 2.468 2.061 4.468 4.604 4.468h28.404c2.543 0 4.604-2 4.604-4.468v-8.383c0-2.467-2.061-4.468-4.604-4.468z" fill="#FFA116"/><path d="m499.87 541.041-.145 46.138M446.431 620.075l53.186-15.969 53.402 15.854" stroke="#3F3D56" stroke-miterlimit="10"/><path opacity=".2" d="M513.929 587.179h-28.403c-2.543 0-4.605 2-4.605 4.468v8.383c0 2.467 2.062 4.467 4.605 4.467h28.403c2.543 0 4.605-2 4.605-4.467v-8.383c0-2.468-2.062-4.468-4.605-4.468zM662.922 515.266v-27.563c0-2.467-2.061-4.468-4.604-4.468h-8.639c-2.543 0-4.604 2.001-4.604 4.468v27.563c0 2.467 2.061 4.468 4.604 4.468h8.639c2.543 0 4.604-2.001 4.604-4.468zM645.075 544.857v27.563c0 2.467 2.061 4.468 4.604 4.468h8.639c2.542 0 4.604-2.001 4.604-4.468v-27.563c0-2.468-2.062-4.468-4.604-4.468h-8.639c-2.543 0-4.604 2-4.604 4.468zM567.223 619.84h-28.404c-2.542 0-4.604 2.001-4.604 4.468v8.383c0 2.468 2.062 4.468 4.604 4.468h28.404c2.543 0 4.605-2 4.605-4.468v-8.383c0-2.467-2.062-4.468-4.605-4.468zM432.231 637.164h28.404c2.543 0 4.604-2 4.604-4.468v-8.383c0-2.467-2.061-4.468-4.604-4.468h-28.404c-2.543 0-4.604 2.001-4.604 4.468v8.383c0 2.468 2.061 4.468 4.604 4.468zM486.46 637.164h28.404c2.543 0 4.604-2 4.604-4.468v-8.383c0-2.467-2.061-4.468-4.604-4.468H486.46c-2.543 0-4.604 2.001-4.604 4.468v8.383c0 2.468 2.061 4.468 4.604 4.468z" fill="#FFA116"/><path d="m628.329 530.061 16.74 28.408M592.931 529.712h17.573M527.452 528.341l47.964 1.371M645.069 501.482l-16.659 28.454" stroke="#3F3D56" stroke-miterlimit="10"/><path opacity=".2" d="M593.263 543.387v-27.563c0-2.468-2.061-4.468-4.604-4.468h-8.639c-2.543 0-4.604 2-4.604 4.468v27.563c0 2.467 2.061 4.468 4.604 4.468h8.639c2.543 0 4.604-2.001 4.604-4.468zM628.329 543.84v-27.563c0-2.467-2.061-4.468-4.604-4.468h-8.639c-2.543 0-4.604 2.001-4.604 4.468v27.563c0 2.468 2.061 4.468 4.604 4.468h8.639c2.543 0 4.604-2 4.604-4.468zM354.665 515.261v-27.563c0-2.468-2.062-4.468-4.605-4.468h-8.638c-2.543 0-4.605 2-4.605 4.468v27.563c0 2.467 2.062 4.468 4.605 4.468h8.638c2.543 0 4.605-2.001 4.605-4.468zM336.817 544.857v27.563c0 2.467 2.062 4.468 4.605 4.468h8.638c2.543 0 4.604-2.001 4.604-4.468v-27.563c0-2.468-2.061-4.468-4.604-4.468h-8.638c-2.543 0-4.605 2-4.605 4.468z" fill="#FFA116"/><path d="m371.41 530.061-16.745 28.408M406.804 529.712h-17.568M472.288 528.341l-47.965 1.371M354.665 501.482l16.659 28.454" stroke="#3F3D56" stroke-miterlimit="10"/><path opacity=".2" d="M424.323 543.392v-27.563c0-2.467-2.061-4.468-4.604-4.468h-8.639c-2.543 0-4.604 2.001-4.604 4.468v27.563c0 2.467 2.061 4.468 4.604 4.468h8.639c2.543 0 4.604-2.001 4.604-4.468zM389.257 543.84v-27.563c0-2.467-2.061-4.467-4.604-4.467h-8.639c-2.542 0-4.604 2-4.604 4.467v27.563c0 2.468 2.062 4.468 4.604 4.468h8.639c2.543 0 4.604-2 4.604-4.468z" fill="#FFA116"/><path d="M256.033 624.657c0 26.192 16.934 47.39 37.859 47.39l-37.859-47.39z" fill="#46455B"/><path d="M293.892 672.041c0-26.489 18.9-47.921 42.254-47.921l-42.254 47.921zM269.754 627.03c0 24.878 10.798 45.012 24.138 45.012l-24.138-45.012z" fill="#FFA116"/><path d="M293.892 672.041c0-33.845 21.844-61.23 48.835-61.23l-48.835 61.23z" fill="#46455B"/><path opacity=".1" d="M292.248 681.092c5.198 0 9.412-.691 9.412-1.543 0-.853-4.214-1.544-9.412-1.544s-9.413.691-9.413 1.544c0 .852 4.215 1.543 9.413 1.543z" fill="#FFA116"/><path d="M285.93 672.375s5.373-.161 6.984-1.277c1.612-1.116 8.258-2.456 8.661-.662.403 1.793 8.058 8.92 2.004 8.967-6.055.047-14.087-.918-15.699-1.872-1.611-.954-1.95-5.156-1.95-5.156z" fill="#A8A8A8"/><path opacity=".2" d="M303.691 678.777c-6.06.047-14.081-.912-15.698-1.872-1.23-.724-1.719-3.331-1.886-4.535h-.177s.339 4.202 1.956 5.156c1.617.954 9.638 1.918 15.698 1.871 1.751 0 2.353-.62 2.321-1.511-.242.547-.908.881-2.214.891z" fill="#000"/><path d="m711.719 701.236-14.865-20.916s-.28-5.177-1.252-6.391c-.972-1.215-.209-3.9-.209-3.9s1.042-1.481.139-1.611c-.902-.13-.139-3.43-.139-3.43l-.07-5.25s.832-5.041.139-6.256a1.954 1.954 0 0 1-.291-1.087c.013-.381.138-.752.361-1.066 0 0 .833-2.894 0-3.65-.832-.755-.628-5.244-.419-8.805.21-3.561-1.456-5.583-1.456-6.12 0-.537-5.49-5.787-5.49-6.256 0-.469-3.471-2.419-5.555-2.962-2.085-.542-3.127-.938-3.057-1.209.07-.271-3.267-1.345-3.267-1.345s-2.917-.198-4.029-1.611-4.513-1.825-4.604-1.835c0-.094-.048-.188-.065-.282l-.064-.302c.263-.427.505-.865.725-1.319l.194-.412a6.033 6.033 0 0 0 3.416-1.042 4.552 4.552 0 0 0 1.178-1.446 4.421 4.421 0 0 0 .488-1.781 6.919 6.919 0 0 0-.811-3.582c-.613-1.215-1.505-2.466-1.198-3.78.134-.568.483-1.042.666-1.621a4.162 4.162 0 0 0-.5-3.185c-.537-.975-1.257-1.835-1.843-2.784a10.612 10.612 0 0 1-1.466-3.931 6.067 6.067 0 0 0-.537-2.143 4.04 4.04 0 0 0-1.22-1.194 12.438 12.438 0 0 0-7.468-2.195c-1.891.063-3.76.558-5.651.334a21.498 21.498 0 0 1-3.304-.839c-2.327-.668-5.018-.944-7.044.349-2.025 1.293-2.836 3.837-4.212 5.829-1.219 1.762-2.997 3.237-3.921 5.103 0-.036 0-.073.026-.109a6.372 6.372 0 0 0-.537 1.361c-.354 1.465-.059 2.997.306 4.457.194.756.452 1.564 1.123 1.992.672.427 1.612.328 2.429.464-.033.13-.065.255-.092.385a14.993 14.993 0 0 0 1.88 11.075c2.042 3.329 5.304 5.788 9.134 6.885v.407c0 .401-.033.787-.076 1.157 0 0-6.984-1.392-8.859-.453-1.875.938-5.56 1.684-6.113 2.221-.554.537-1.945.135-3.197 3.294-1.252 3.16-1.386 6.392-2.987 7.867-1.601 1.476-2.428 2.492-2.498 3.566-.07 1.074.204 1.345-.419 1.684-.624.339-1.526 1.747-1.252 2.284 0 0 .349 1.345-.763 2.017-.329.225-.591.53-.762.884a2.19 2.19 0 0 0-.21 1.134s-.419 1.48-1.392 1.814c-.972.334-1.612 2.56-1.612 2.56l-3.148 3.514-6.248-6.705a2.668 2.668 0 0 0-1.817-.836 2.681 2.681 0 0 0-1.895.654l-3.014 2.711a6.079 6.079 0 0 0-3.068 1.772 7.788 7.788 0 0 0-1.611 2.294l-1.677 1.47a2.469 2.469 0 0 0-.429 4.567l3.997 4.296v.036a7.11 7.11 0 0 0-3.869 1.528c-5.974 5.109-6.043 9.817-5.141 11.991.903 2.173 8.472 10.426 8.472 10.426s4.4 5.552 10.745 8.503l-.043.047c-.129.13-.252.271-.376.422l-.102.131-.097.13-.112.162-.086.13-.124.193a1.045 1.045 0 0 1-.075.13 3.823 3.823 0 0 0-.14.261l-.048.088c-.059.115-.113.24-.172.365-.059.126-.038.094-.054.136-.016.042-.075.177-.107.271l-.065.172c-.032.084-.059.172-.091.261-.032.088-.038.125-.059.193l-.081.292-.048.182c-.043.156-.075.318-.113.485l-.032.193c0 .109-.043.224-.059.344-.016.12-.027.162-.038.245-.011.083 0 .219-.043.334-.043.114 0 .172-.027.255-.027.083 0 .255 0 .386v.234c0 .209 0 .428-.027.652-.139 7.867.333 9.009.333 9.009s.984 2.507 3.691 2.685c.397.027.796.006 1.188-.063 3.61-.605 12.088-2.018 15.075-1.475 1.794.323 5.119-.157 7.483-.589l.629-.12.43 1.339 1.375-.364 1.166.651.736.412c1.37 4.51 6.936 2.972 6.936 2.972l1.321.74 13.431.334a27.505 27.505 0 0 0 4.749 2.215c.221.063.445.11.672.141 1.242.096 2.489.118 3.734.068 1.031 0 1.826-.068 1.826-.068s-.139-3.529-.333-7.486c5.12-.209 9.671-.522 12.416-.986 7.124-1.22 10.105-7.559 11.207-10.937.328 1.373.561 2.767.698 4.17a29.924 29.924 0 0 0 1.112 3.65c.393.955.907 1.859 1.531 2.69 5.281-1.747 2.085-4.369.973-5.511-1.112-1.141.763-2.085.763-2.085s1.461-.944 1.321-1.819c-.139-.876-.209-1.815 4.513-1.747 4.722.068 4.518-3.764 4.518-3.764zm-73.354-42.942c.059.386.719 4.525 1.316 5.615.165.727.217 1.473.156 2.215a189.556 189.556 0 0 0-5.717-.333.636.636 0 0 1 .151.349l-.441-.099c-.204-.047-.419-.094-.639-.151l5.157-7.607.017.011zm-10.208 15.77 4.835.746.408.062a15.363 15.363 0 0 0-.252 2.221c0 .068.107.151.263.25a5.916 5.916 0 0 0-.091 1.111c.075.375 2.342 1.178 4.942 1.845-.037.136-.075.261-.107.386-2.294-1.173-5.91-1.72-6.329-2.607-.419-.886-12.684-5.02-12.684-5.02s-.451-.235-1.225-.594l3.224.594.891-.089c2.012.492 4.054.858 6.114 1.095h.011z" fill="url(#c)"/><path d="M695.909 704.161s-1.929 11.287-11.707 12.96c-9.778 1.674-42.41 1.335-42.41 1.335s-18.658-2.607-25.406-17.903c-6.747-15.296-11.083-21.374-5.302-21.651 5.78-.276 36.973 10.224 38.762 10.359 1.789.136 47.782-23.251 46.063 14.9z" fill="#65617D"/><path opacity=".05" d="M695.909 704.161s-1.929 11.287-11.707 12.96c-9.778 1.674-42.41 1.335-42.41 1.335s-18.658-2.607-25.406-17.903c-6.747-15.296-11.083-21.374-5.302-21.651 5.78-.276 36.973 10.224 38.762 10.359 1.789.136 47.782-23.251 46.063 14.9z" fill="#000"/><path d="M608.398 716.72s.972 2.486 3.653 2.669c.393.027.789.006 1.177-.063 3.583-.604 11.98-2.007 14.94-1.47 1.784.318 5.077-.156 7.425-.584a60.818 60.818 0 0 0 2.686-.552s-2.751-8.863-3.1-9.155c-.349-.292-12.389-7.299-12.389-7.299l-9.557-.646a5.069 5.069 0 0 0-3.223 1.846c-1.005 1.183-1.87 3.128-1.929 6.308-.167 7.809.317 8.946.317 8.946z" fill="#3F3D56"/><path opacity=".05" d="M608.397 716.72s.973 2.486 3.653 2.669a38.604 38.604 0 0 1-2.589-3.649l.048-6.481a11.097 11.097 0 0 1 .7-5.243 11.408 11.408 0 0 1 3.061-4.375h-.038s-5.023.333-5.162 8.153c-.14 7.82.327 8.926.327 8.926z" fill="#000"/><path opacity=".1" d="m649.765 702.555 8.881-6.746 13.968-13.362s-1.51-.073-3.788-.167c-.537.35-2.149 1.45-2.213 2.79-.065 1.637-3.761.114-5.706 1.042-1.944.928-11.335 12.658-12.99 12.575-1.655-.084-2.96-.814-3.648.323l-.048.073 5.544 3.472zM610.009 701.46c.317.146.64.292.962.428 6.748 2.805 15.08 8.685 15.698 9.754.382.652 5.211 3.498 8.94 5.63 1.558-.286 2.686-.552 2.686-.552s-2.751-8.863-3.1-9.155c-.349-.292-12.389-7.299-12.389-7.299l-9.573-.646a5.08 5.08 0 0 0-3.224 1.84z" fill="#000"/><path d="M591.254 682.312c.897 2.137 8.403 10.353 8.403 10.353s4.749 6.017 11.497 8.821c6.747 2.805 15.074 8.686 15.698 9.755.397.688 5.775 3.831 9.563 5.99l.848.479 1.881 1.043.994.558s2.304-1.799 4.604-3.608c2.299-1.809 4.518-3.576 4.556-3.649.064-.198.961-2.471.752-2.607-.108-.068-.581-.996-1.445-2.085a9.74 9.74 0 0 0-3.509-2.815c-3.169-1.403-4.545-4.599-4.545-4.599s-.301-.208-.757-.49a9.322 9.322 0 0 0-3.1-1.339c-1.515-.183-4.336-3.191-4.336-3.191s-1.928-1.204-2.686-2.737c-.757-1.533-11.4-8.581-12.389-9.243l25.885 16.135 6.194 3.863 8.886-6.746 13.968-13.362s-1.88-.088-4.609-.203c-6.796-.287-18.857-.735-20.383-.401-1.232.279-2.502.36-3.761.239 0 0-3.438.152-5.711-1.011-2.272-1.163-5.856-1.71-6.269-2.57-.414-.86-12.599-5.01-12.599-5.01s-16.59-8.55-22.515-3.472c-5.926 5.077-6.007 9.764-5.115 11.902z" fill="#65617D"/><path d="m644.752 633.275 2.149 6.876 2.756 15.505 10.117.667 2.933-4.692 2.923-4.692s1.821-6.256 3.132-12.324c1.155-5.359 1.912-10.562.655-11.125-1.117-.522-1.853-2.31-2.331-4.249a15.78 15.78 0 0 1-.167-.725 37.368 37.368 0 0 1-.672-4.984s-21.204-1.069-18.266 7.419c.53 1.448.801 2.973.801 4.509-.005.384-.03.766-.075 1.147a9.413 9.413 0 0 1-1.261 3.734 9.696 9.696 0 0 1-2.694 2.934z" fill="#EE8E9E"/><path d="m640.342 632.139.763 11.688 1.719 9.957 1.929 4.609 1.719 25.222s16.6 1.861 20.64-.031c.29-.12.542-.313.731-.558 4.873-7.142 3.277-27.839 3.277-27.839l1.859-13.362-1.241-6.934-2.992-.313-2.305-.234s-.537.62-1.273 1.564c-2.042 2.606-5.797 7.757-5.545 9.905.344 2.94-.413 5.943-1.611 6.413-1.198.469-2.149 1.272-2.337.469-.188-.803-.414-1.001-.21-2.138.204-1.136-.897-4.614-.897-4.614s-1.859-4.071-1.719-5.812c.139-1.742-.204-3.738-.758-4.208-.553-.469-1.305-.933-.687-3.07.617-2.138-2.714-6.282-2.714-6.282l-8.348 5.568z" fill="#E3E8F4"/><path opacity=".1" d="m662.272 661.339.693 19.977 3.975 2.138c.289-.121.54-.311.731-.553 4.873-7.148 3.277-27.845 3.277-27.845l1.859-13.361-1.241-6.934-2.992-.313c1.155-5.359 1.912-10.562.655-11.125-1.118-.521-1.854-2.31-2.332-4.249l-2.149 14.133s.178 1.278.242 2.607a7.233 7.233 0 0 1-.172 2.487c-.483 1.204-.139 3.342-.139 3.342-1.241 2.121-1.865 6.052-2.149 9.848-.409 5.036-.258 9.848-.258 9.848z" fill="#000"/><path d="M666.957 618.756s3.47.417 4.572 1.825c1.101 1.407 3.991 1.6 3.991 1.6s3.304 1.043 3.224 1.335c-.081.292.961.672 3.024 1.204 2.063.532 5.513 2.471 5.513 2.94 0 .469 5.463 5.678 5.463 6.215 0 .537 1.655 2.538 1.445 6.078-.209 3.54-.413 8.018.414 8.753.827.736 0 3.608 0 3.608-.222.312-.347.68-.36 1.059-.012.379.089.754.29 1.079.688 1.204-.134 6.214-.134 6.214l.064 5.213s-.757 3.274.14 3.41c.897.135-.14 1.605-.14 1.605s-.757 2.67.21 3.874c.967 1.204 1.241 6.345 1.241 6.345l14.731 20.78s.21 3.806-4.475 3.743c-4.685-.062-4.615.866-4.475 1.736.139.871-1.306 1.804-1.306 1.804s-1.859.933-.757 2.085c1.101 1.152 4.265 3.744-.967 5.48a12.258 12.258 0 0 1-1.515-2.675 29.601 29.601 0 0 1-1.102-3.608s-.483-5.077-1.445-5.734c-.962-.657-.827-3.874-.827-3.874s1.38-2.606-.538-3.675c-1.917-1.069-29.881-16.104-29.881-16.104l-.698-20.004s-.484-14.764 2.407-19.711c0 0-.344-2.138.139-3.342.484-1.204-.07-5.078-.07-5.078l1.822-14.18z" fill="#3F3D56"/><path opacity=".1" d="M648.921 626.774s-6.925-1.387-8.783-.448c-1.859.938-5.507 1.668-6.06 2.205-.554.537-1.924.13-3.165 3.274-1.241 3.143-1.375 6.344-2.96 7.82-1.585 1.475-2.412 2.471-2.482 3.54-.07 1.068.21 1.334-.408 1.673-.618.339-1.515 1.736-1.241 2.268.274.532 14.317 12.293 14.317 12.293s.693 4.478 1.311 5.615c.618 1.136-.688 16.766-2.063 17.84-1.375 1.074 9.294.969 9.294.969s.478-10.259.892-10.791c.414-.532-.274-11.469-.274-11.469s-.07-9.353.827-11.824c.898-2.471.795-10.688.795-10.688s.79-4.931 1.752-6.084c.962-1.152-1.752-6.193-1.752-6.193z" fill="#000"/><path d="M648.691 626.571s-6.92-1.382-8.779-.449c-1.859.934-5.491 1.663-6.039 2.185-.548.521-1.928.135-3.169 3.274-1.241 3.138-1.376 6.35-2.96 7.82-1.585 1.47-2.407 2.471-2.477 3.54-.07 1.068.204 1.334-.414 1.668-.618.334-1.515 1.736-1.241 2.273.274.537 14.334 12.314 14.334 12.314s.687 4.473 1.311 5.609c.623 1.137-.693 16.772-2.069 17.84-1.375 1.069 9.294.97 9.294.97s.484-10.255.898-10.792c.413-.537-.28-11.469-.28-11.469s-.064-9.353.828-11.824c.891-2.471.763-10.713.763-10.713s.789-4.932 1.751-6.079c.962-1.147-1.751-6.167-1.751-6.167z" fill="#3F3D56"/><path opacity=".1" d="M647.987 620.914c.53 1.448.8 2.973.8 4.51 3.385.977 7.01.824 10.294-.435 3.285-1.259 6.039-3.551 7.822-6.509a37.412 37.412 0 0 1-.672-4.984s-21.205-1.069-18.244 7.418z" fill="#000"/><path d="M637.521 610.357c.001 3.92 1.552 7.69 4.332 10.532 2.781 2.843 6.58 4.542 10.614 4.746 4.033.205 7.994-1.101 11.065-3.647 3.071-2.546 5.018-6.138 5.439-10.036.422-3.899-.714-7.805-3.174-10.914-2.459-3.109-6.055-5.184-10.044-5.796a16.143 16.143 0 0 0-11.397 2.505c-3.329 2.221-5.652 5.596-6.491 9.43a14.925 14.925 0 0 0-.344 3.18z" fill="#EE8E9E"/><path d="m627.4 645.766-3.761 1.137s.349 1.334-.757 2.002a2.258 2.258 0 0 0-.755.88c-.169.352-.24.74-.207 1.127 0 0-.414 1.47-1.375 1.804-.962.333-1.585 2.539-1.585 2.539l-3.17 3.539s-1.166.934-.962 1.403c.205.469-1.241.599-1.241.599l.72 11.897 6.544 1.199 4.061-.401 3.304-1.199 2.891-1.674 1.311-3.274 5.78-8.55-10.798-13.028z" fill="#3F3D56"/><path d="M614.527 661.735s-8.402-11.762-14.666-5.412c-6.265 6.35 2.546 16.636 4.614 16.302 2.069-.333 11.911-.87 11.911-.87l-1.859-10.02z" fill="#EE8E9E"/><path d="m634.593 656.806-37.683-18.664a.84.84 0 0 0-1.113.35l-14.766 28.074a.792.792 0 0 0 .36 1.08l37.683 18.664a.839.839 0 0 0 1.113-.35l14.767-28.074a.791.791 0 0 0-.361-1.08z" fill="#3F3D56"/><path d="m630.833 658.297-32.913-16.301-12.658 24.067 32.912 16.301 12.659-24.067z" fill="#FFA116"/><path d="M590.346 653.972a.598.598 0 0 0 .607-.589.597.597 0 0 0-.607-.589.598.598 0 0 0-.607.589c0 .325.272.589.607.589zM625.97 672.062c.552 0 1-.434 1-.969 0-.536-.448-.97-1-.97-.551 0-.999.434-.999.97 0 .535.448.969.999.969z" fill="#E6E8EC"/><path d="M609.085 664.206c-.064 8.821 18.728 10.687 18.728 10.687l4.803.74 2.149.334.897-8.623s-.983-.141-2.213-.417c-1.821-.412-4.18-1.126-4.674-2.122-.822-1.668-19.62-9.42-19.69-.599z" fill="#EE8E9E"/><path opacity=".1" d="M637.865 607.177c.437.034.847.219 1.155.521.538.548.538 1.517 1.252 1.851.258.112.545.145.822.094 1.832-.25 2.89-2.257 4.647-2.81a4.783 4.783 0 0 1 3.079.261c.393.115.746.333 1.02.63.591.741.178 1.83.452 2.722.376 1.241 1.901 1.736 3.223 1.897 1.322.162 2.81.251 3.696 1.22.293.365.503.786.616 1.235.113.45.127.917.04 1.372a1.974 1.974 0 0 0 0 .954c.365 1.006 2.149.855 2.616.063.344-.574.242-1.043 1.042-1.21a3.494 3.494 0 0 1 1.687.282c1.401.466 2.877.685 4.357.646a14.935 14.935 0 0 0 1.498-6.235c.04-2.158-.39-4.3-1.263-6.285a15.3 15.3 0 0 0-3.803-5.232 15.866 15.866 0 0 0-5.675-3.265 16.208 16.208 0 0 0-12.843 1.216 15.604 15.604 0 0 0-4.919 4.268 15.08 15.08 0 0 0-2.688 5.847l-.011-.042z" fill="#000"/><path d="M657.856 616.686a2.02 2.02 0 0 1 0-.959 3.177 3.177 0 0 0-.04-1.372 3.235 3.235 0 0 0-.616-1.235c-.886-.969-2.374-1.042-3.696-1.22-1.322-.177-2.847-.657-3.223-1.897-.274-.892.139-1.981-.452-2.717a2.244 2.244 0 0 0-1.021-.636 4.786 4.786 0 0 0-3.078-.26c-1.757.552-2.815 2.56-4.647 2.81a1.43 1.43 0 0 1-.822-.094c-.693-.334-.72-1.303-1.252-1.851-.838-.86-2.423-.302-3.449-.943-.666-.417-.924-1.231-1.112-1.976-.36-1.455-.655-2.977-.301-4.432.597-2.486 2.885-4.17 4.346-6.313 1.365-1.976 2.149-4.478 4.175-5.792 2.025-1.314 4.674-1.011 6.984-.344 1.065.364 2.159.641 3.272.829 1.859.224 3.728-.266 5.603-.329 2.646-.08 5.245.686 7.398 2.18.485.309.897.714 1.209 1.188.312.671.494 1.392.537 2.127.221 1.383.716 2.71 1.456 3.91.575.939 1.305 1.788 1.827 2.763a4.16 4.16 0 0 1 .494 3.165c-.177.547-.537 1.043-.661 1.611-.306 1.303.58 2.549 1.187 3.753a6.892 6.892 0 0 1 .806 3.561 4.373 4.373 0 0 1-.484 1.768 4.52 4.52 0 0 1-1.171 1.433 6.032 6.032 0 0 1-3.486 1.043c-1.51.045-3.016-.18-4.443-.662a3.496 3.496 0 0 0-1.687-.282c-.801.157-.699.636-1.042 1.21-.462.813-2.246.964-2.611-.037z" fill="#3F3D56"/><path opacity=".1" d="m649.362 702.957 8.886-6.747 13.968-13.361s-1.88-.089-4.609-.204a2.911 2.911 0 0 0-.978 1.825c-.064 1.632-3.76.115-5.705 1.043-1.945.928-11.352 12.652-13.007 12.579-1.655-.073-2.96-.813-3.648.324l-.048.073c-.282.308-.659.52-1.075.604l6.216 3.864z" fill="#000"/><path d="m631.461 702.487 4.464 13.826.699 2.169 2.149-.563 4.685-1.251 20.866-5.563c2.623-.11 5.19-.774 7.521-1.945a23.387 23.387 0 0 1 12.969-2.742c2.756.25 5.824-.902 8.37-5.469 0 0 5.781-16.568-8.816-21.312-14.596-4.744-15.29 2.524-15.29 2.524l-.198.119c-.538.35-2.149 1.45-2.214 2.79-.064 1.637-3.76.114-5.705 1.042-1.945.928-11.39 12.658-13.044 12.575-1.655-.084-2.961-.813-3.648.323l-.049.073c-.51.683-2.046.839-3.057.871h-.956l-.129.036-1.074.308-7.543 2.189z" fill="#65617D"/><path opacity=".1" d="m632.616 675.633 2.149.334.897-8.623s-.983-.141-2.213-.417c.322 1.199-.414 5.849-.833 8.706z" fill="#000"/><path opacity=".1" d="M688.914 635.36s6.404-1.803 4.835 15.838c-1.569 17.642-13.431 28.794-13.431 28.794s-13.63 5.813-19.76 4.879c-3.511-.55-7.049-.929-10.599-1.136a15.956 15.956 0 0 0-6.2-1.606c-3.438-.13-10.67-2.205-10.809-2.872-.14-.668 1.794-10.49.967-11.225 0 0 9.638.386 10.599 1.043.962.657 2.343.193 3.374 0 1.032-.193 4.201-2.862 10.466-.521 0 0 2.149.198 2.96-.334.811-.532 2.149-.135 2.149-.135a6.234 6.234 0 0 0 1.499-.736c.204-.265 1.859 0 1.859 0a.742.742 0 0 0 .887-.187.714.714 0 0 0 .144-.282 4.322 4.322 0 0 1 .962-1.47s1.859-10.156 5.372-13.961c0 0 1.032-.871.758-1.94-.274-1.068 5.705-16.286 13.968-14.149z" fill="#000"/><path d="M688.747 634.005s6.404-1.804 4.835 15.838-13.431 28.793-13.431 28.793-13.635 5.813-19.76 4.88c-6.124-.933-10.626-1.137-10.626-1.137a15.944 15.944 0 0 0-6.195-1.605c-3.443-.131-10.669-2.205-10.809-2.873-.14-.667 1.789-10.489.962-11.224 0 0 9.638.386 10.605 1.043.967.656 2.342.187 3.374 0 1.031-.188 4.201-2.868 10.465-.522 0 0 2.149.198 2.96-.333.812-.532 2.149-.136 2.149-.136a6.125 6.125 0 0 0 1.494-.735c.204-.266 1.859 0 1.859 0a.745.745 0 0 0 .887-.188.704.704 0 0 0 .144-.281c.22-.547.549-1.047.967-1.47 0 0 1.859-10.156 5.373-13.962 0 0 1.037-.87.757-1.939-.279-1.069 5.727-16.287 13.99-14.149z" fill="#3F3D56"/><path opacity=".1" d="m639.02 700.293 9.09 10.676c.038-.031.059-.052.059-.062.07-.198.962-2.471.758-2.607-.204-.135-1.789-3.477-4.959-4.879a9.305 9.305 0 0 1-3.89-3.441l-1.058.313z" fill="#000"/><path opacity=".1" d="m639.144 718.769.994.557s2.304-1.798 4.604-3.607c2.299-1.809 4.518-3.577 4.556-3.65.064-.198.961-2.471.752-2.606-.108-.068-.581-.996-1.446-2.086-6.167-1.678-2.24 2.477-1.719 2.664 0 0-7.521-1.668-7.919 6.256a9.122 9.122 0 0 0 .178 2.472z" fill="#000"/><path d="m646.746 722.147 1.31.735 13.286.334a27.197 27.197 0 0 0 4.707 2.194c.217.067.44.116.666.146 1.231.093 2.467.116 3.701.068 1.021 0 1.805-.068 1.805-.068s-.628-16.265-1.074-17.975c-.226-.819-1.343-.636-2.439-.23a16.4 16.4 0 0 0-2.38 1.168s-5.646.521-6.544 1.006c-.897.485-3.438-.271-5.023 0-1.585.271-4.405-1.809-4.405-1.809-7.715-2.471-3.374 2.138-2.826 2.336 0 0-7.521-1.668-7.914 6.256-.392 7.924 7.13 5.839 7.13 5.839z" fill="#3F3D56"/><path d="M665.957 715.849c.145 3.368 2.848 7.549 4.459 9.759 1.021 0 1.805-.067 1.805-.067s-.628-16.266-1.074-17.976c-.226-.818-1.343-.636-2.439-.229-1.359 2.424-2.869 5.802-2.751 8.513z" fill="#565387"/><path opacity=".1" d="M665.957 715.849c.145 3.368 2.848 7.549 4.459 9.759 1.021 0 1.805-.067 1.805-.067s-.628-16.266-1.074-17.976c-.226-.818-1.343-.636-2.439-.229-1.359 2.424-2.869 5.802-2.751 8.513z" fill="#000"/><path opacity=".05" d="M663.685 716.297c.913 3.248.902 6.892 2.364 9.098.217.066.44.115.666.146 1.231.093 2.467.115 3.701.067 1.021 0 1.806-.067 1.806-.067s-.629-16.266-1.075-17.976c-.226-.818-1.343-.636-2.439-.229-.825.325-1.621.715-2.38 1.168 0 0-3.814 3.633-2.643 7.793z" fill="#000"/><path opacity=".1" d="M617.842 683.333s6.603 2.086 12.196 9.468l-12.196-9.468z" fill="#000"/><g opacity=".1" fill="#000"><path opacity=".1" d="M671.475 603.163c0 .052 0 .099-.038.146-.067.19-.144.376-.231.558.068-.242.158-.478.269-.704zM634.131 599.925c.125-.468.305-.922.538-1.35-.038.115-.07.229-.103.349-.349 1.455-.059 2.977.307 4.427.188.75.446 1.564 1.112 1.981 1.026.636 2.611.083 3.449.943.537.522.537 1.517 1.252 1.851.257.112.544.144.822.094 1.826-.25 2.89-2.258 4.647-2.81a4.787 4.787 0 0 1 3.078.26c.394.117.747.337 1.021.636.585.736.177 1.825.446 2.717.381 1.24 1.907 1.73 3.223 1.897 1.316.167 2.81.251 3.696 1.22.293.365.503.786.616 1.235.113.45.127.917.04 1.372a1.903 1.903 0 0 0 0 .954c.365 1.001 2.149.855 2.616.062.344-.573.237-1.042 1.042-1.214a3.554 3.554 0 0 1 1.687.286c1.431.475 2.938.694 4.449.647a6.032 6.032 0 0 0 3.486-1.043 3.945 3.945 0 0 0 1.075-1.261 4.27 4.27 0 0 1-1.488 2.262 6.037 6.037 0 0 1-3.487 1.043 12.712 12.712 0 0 1-4.459-.688 3.494 3.494 0 0 0-1.687-.282c-.801.157-.698.636-1.042 1.21-.468.792-2.251.943-2.617-.058a2.045 2.045 0 0 1 0-.959 3.171 3.171 0 0 0-.039-1.371 3.232 3.232 0 0 0-.616-1.236c-.886-.969-2.375-1.042-3.696-1.219-1.322-.178-2.848-.657-3.224-1.898-.274-.892.14-1.981-.451-2.716a2.254 2.254 0 0 0-1.021-.636 4.78 4.78 0 0 0-3.078-.261c-1.757.553-2.821 2.56-4.647 2.81a1.42 1.42 0 0 1-.822-.094c-.693-.333-.72-1.303-1.252-1.851-.838-.86-2.423-.302-3.449-.943-.666-.417-.924-1.231-1.112-1.976-.371-1.413-.661-2.935-.312-4.39z"/></g><path opacity=".1" d="M672.544 653.399c-1.263 1.652-2.686 3.18-3.82 4.926-1.133 1.747-1.902 3.79-1.671 5.834 1.155-1.147 1.682-2.737 2.413-4.171 1.23-2.44 3.073-4.509 4.631-6.777.295-.428 2.197-2.904 1.235-3.024-.795-.088-2.358 2.649-2.788 3.212z" fill="#000"/></g><defs><clipPath id="a"><path fill="#fff" transform="translate(392)" d="M0 0h206v226H0z"/></clipPath><clipPath id="b"><path fill="#fff" transform="translate(198 363)" d="M0 0h593v369H0z"/></clipPath><linearGradient id="c" x1="651.28" y1="725.129" x2="651.28" y2="585.505" gradientUnits="userSpaceOnUse"><stop stop-color="gray" stop-opacity=".25"/><stop offset=".54" stop-color="gray" stop-opacity=".12"/><stop offset="1" stop-color="gray" stop-opacity=".1"/></linearGradient></defs></svg>