<svg width="1000" height="750" fill="none" xmlns="http://www.w3.org/2000/svg"><path fill="#000" d="M0 0h1000v750H0z"/><g clip-path="url(#a)" fill="#fff"><path d="M136 176.958v156.603h113.28v-28.899h-78.005V176.958H136ZM316.368 313.122c21.698 0 28.22-18.224 28.22-36.189 0-18.225-6.522-36.45-28.22-36.45-21.564 0-28.087 18.225-28.087 36.45 0 17.965 6.523 36.189 28.087 36.189Zm0-96.071c36.607 0 60.168 23.692 60.168 59.882 0 35.929-23.561 59.621-60.168 59.621-36.34 0-59.901-23.692-59.901-59.621 0-36.19 23.561-59.882 59.901-59.882ZM449.375 240.615c-18.902 0-27.154 17.313-27.154 36.45 0 18.875 8.252 36.188 27.154 36.188 18.903 0 27.155-17.313 27.155-36.188-.132-19.137-8.386-36.45-27.155-36.45Zm-57.904-63.657h31.814v57.018h.399c7.854-11.586 22.23-16.923 36.607-16.923 23.161 0 48.054 18.225 48.054 59.621 0 41.657-24.893 59.881-48.054 59.881-17.039 0-31.149-5.077-38.07-17.573h-.4v14.579h-30.217V176.958h-.133ZM555.572 176.958h-31.814v156.603h31.814V176.958ZM647.286 278.107c-5.324 4.556-16.639 4.817-26.49 6.639-9.849 1.952-18.901 5.207-18.901 16.663 0 11.586 9.184 14.449 19.568 14.449 24.892 0 25.823-19.266 25.823-26.165v-11.586Zm-73.478-23.042c1.73-29.159 28.486-37.881 54.443-37.881 23.162 0 50.85 5.077 50.85 32.284v58.97c0 10.284 1.064 20.568 3.993 25.254h-32.346c-1.065-3.515-1.997-7.289-2.264-10.934-10.117 10.283-24.892 14.059-39.002 14.059-21.964 0-39.535-10.804-39.535-33.977 0-25.644 19.701-31.763 39.535-34.496 19.568-2.864 37.671-2.213 37.671-14.971 0-13.408-9.451-15.361-20.633-15.361-12.113 0-19.966 4.817-21.031 17.053h-31.681ZM827.401 333.562h-32.746l-20.633-76.154h-.4l-19.834 76.154H720.91l-36.873-113.385h33.678l21.298 76.934h.4l19.301-76.934h31.016l19.7 76.805h.533l21.297-76.805h32.747l-36.606 113.385ZM230.644 373.854c11.315 3.646 20.5 10.284 27.555 20.047 5.59 7.811 9.451 16.403 11.448 25.515 1.996 9.113 3.061 17.835 3.061 26.166 0 20.958-4.26 38.793-12.912 53.372-11.714 19.658-29.685 29.421-54.177 29.421H136V370.34h69.619c9.983.259 18.369 1.302 25.025 3.514Zm-61.898 23.953v102.97h31.149c15.973 0 27.022-7.68 33.278-23.041 3.461-8.461 5.191-18.485 5.191-30.071 0-16.012-2.529-28.378-7.72-36.971-5.192-8.591-15.441-12.887-30.749-12.887h-31.149ZM323.015 397.54h-31.681v-28.119h31.681v28.119Zm-31.547 13.929h31.681v116.769h-31.681V411.469ZM407.841 411.339c7.588 3.123 13.711 8.721 18.37 16.923v-16.793h30.482V522.25c0 15.1-2.528 26.425-7.72 34.106-8.918 13.147-25.957 19.657-51.249 19.657-15.308 0-27.688-2.864-37.271-8.722-9.585-5.858-14.909-14.58-15.974-26.295h33.944c.932 3.514 2.263 6.117 4.259 7.679 3.328 2.735 9.052 4.166 17.039 4.166 11.181 0 18.769-3.645 22.497-11.065 2.528-4.687 3.727-12.627 3.727-23.823v-7.55c-2.929 4.947-6.257 8.722-9.585 11.196-6.256 4.686-14.243 6.899-24.226 6.899-15.309 0-27.555-5.207-36.74-15.752-9.185-10.544-13.71-24.733-13.71-42.828 0-17.313 4.393-31.893 13.177-43.74 8.786-11.845 21.299-17.703 37.539-17.703 5.857.259 11.048 1.171 15.441 2.864Zm10.649 83.704c5.059-5.338 7.587-13.929 7.587-25.776 0-11.065-2.396-19.526-7.187-25.254-4.793-5.728-11.182-8.722-19.169-8.722-10.915 0-18.37 5.077-22.629 15.101-2.13 5.336-3.329 11.976-3.329 19.787 0 6.769 1.199 12.757 3.462 18.094 4.26 9.893 11.713 14.841 22.629 14.841 7.454 0 13.578-2.604 18.636-8.071ZM513.388 397.54h-31.681v-28.119h31.681v28.119Zm-31.681 13.929h31.681v116.769h-31.681V411.469ZM526.824 434.377v-21.74h16.639v-32.544h30.882v32.544h19.435v21.74h-19.435v61.705c0 4.816.666 7.81 1.864 8.981 1.198 1.172 5.059 1.823 11.448 1.823h3.062c1.065 0 2.129-.13 3.061-.13v22.781l-14.776.521c-14.776.52-24.759-1.952-30.217-7.551-3.461-3.515-5.191-8.852-5.191-16.142v-71.988h-16.772ZM656.592 457.29c5.857-.65 9.983-1.562 12.513-2.733 4.525-1.823 6.789-4.687 6.789-8.722 0-4.817-1.731-8.071-5.192-9.894-3.461-1.822-8.52-2.733-15.175-2.733-7.455 0-12.779 1.823-15.841 5.337-2.262 2.603-3.727 6.249-4.392 10.674H605.21c.665-10.153 3.594-18.615 8.785-25.123 8.254-10.285 22.497-15.362 42.73-15.362 13.179 0 24.759 2.474 35.009 7.551 10.249 5.076 15.308 14.58 15.308 28.639v53.503c0 3.644.133 8.2.267 13.538.266 4.035.798 6.77 1.863 8.201 1.065 1.433 2.529 2.604 4.659 3.515v4.556h-33.944c-.932-2.343-1.597-4.556-1.997-6.638-.399-2.084-.665-4.427-.931-7.03-4.393 4.556-9.319 8.461-15.043 11.716-6.789 3.775-14.376 5.728-22.895 5.728-10.916 0-19.834-2.994-26.889-9.113-7.055-5.988-10.65-14.579-10.65-25.644 0-14.321 5.724-24.735 17.04-31.113 6.255-3.515 15.441-5.989 27.554-7.551l10.516-1.302Zm19.036 14.19c-1.998 1.172-3.995 2.213-5.991 2.994-1.997.781-4.793 1.432-8.386 2.083l-7.055 1.302c-6.656 1.171-11.448 2.473-14.376 4.166-4.926 2.733-7.322 7.16-7.322 13.017 0 5.207 1.465 8.982 4.526 11.326 3.062 2.343 6.656 3.515 10.916 3.515 6.789 0 13.045-1.954 18.902-5.728 5.724-3.906 8.786-10.935 8.918-21.089V471.48h-.132ZM761.492 528.245h-31.148V370.34h31.148v157.905Z"/></g><defs><clipPath id="a"><path fill="#fff" transform="translate(136 168)" d="M0 0h728v413H0z"/></clipPath></defs></svg>