<svg width="1000" height="750" fill="none" xmlns="http://www.w3.org/2000/svg"><path fill="url(#a)" d="M0 0h1000v750H0z"/><g clip-path="url(#b)"><path opacity=".1" d="M62.467 273.029c-1.762.728-3.57 1.664-4.537 3.304-1.025 1.732-.903 3.883-.712 5.887 1.663 17.381 6.045 35.867-1.521 51.612-3.673 7.638-9.816 13.759-14.702 20.696-4.886 6.937-8.575 15.598-6.306 23.758 2.77 9.972 13.109 15.5 20.078 23.174 4.561 5.017 7.76 11.113 12.016 16.392 4.256 5.278 10.088 9.928 16.883 10.238 9.772.448 17.722-7.968 27.303-9.918 9.816-1.996 19.7 3.084 27.659 9.164 7.958 6.081 15.197 13.447 24.471 17.243 10.24 4.196 21.785 3.554 32.566 6.075 9.815 2.298 18.851 7.184 28.596 9.789 9.744 2.605 21.166 2.448 28.716-4.206 9.84-8.702 9.066-24.202 15.35-35.712 5.838-10.695 17.265-17.08 24.956-26.535 13.84-17.017 13.388-43.027 1.636-61.534-11.751-18.508-33.037-29.714-54.803-32.632-9.816-1.313-19.923-1.134-29.36-4.122-25.259-7.995-40.29-36.639-66.078-42.6-16.392-3.783-32.334 2.768-46.297 10.831-12.12 6.999-23.301 3.877-35.914 9.096z" fill="#7CA2F3"/><path d="M87.08 329.181s-9.305 8.759-19.293 9.02a19.412 19.412 0 0 0-11.552 4.098 32.504 32.504 0 0 0-4.319 4.098" stroke="#535461" stroke-width="2" stroke-miterlimit="10"/><path d="M45.618 346.612c1.341-.68 6.462-.229 6.462-.229s-2.656 4.392-3.997 5.072a2.734 2.734 0 0 1-3.824-1.113 2.716 2.716 0 0 1 1.37-3.73h-.011zM51.008 338.848c1.497.158 5.549 3.312 5.549 3.312s-4.635 2.246-6.119 2.091a2.725 2.725 0 0 1-2.304-2.973 2.718 2.718 0 0 1 .949-1.79 2.733 2.733 0 0 1 1.925-.64zM63.79 332.591c1.21.889 3.114 5.653 3.114 5.653s-5.129-.389-6.34-1.275a2.718 2.718 0 0 1-.483-3.725 2.73 2.73 0 0 1 3.71-.653zM74.53 330.032c1.344.672 4.027 5.047 4.027 5.047s-5.12.481-6.465-.19a2.735 2.735 0 0 1-1.472-1.566 2.714 2.714 0 0 1 .805-3.004 2.725 2.725 0 0 1 2.06-.625 2.74 2.74 0 0 1 1.045.338zM59.406 347.112c.447-1.433-.861-6.393-.861-6.393s-3.894 3.35-4.341 4.783a2.714 2.714 0 0 0 .795 2.999 2.738 2.738 0 0 0 2.05.634 2.731 2.731 0 0 0 1.875-1.042c.226-.291.39-.625.482-.981zM71.93 343.949c0-1.501-2.741-5.841-2.741-5.841s-2.71 4.351-2.708 5.858c.003.721.292 1.412.805 1.92a2.733 2.733 0 0 0 3.856-.012c.51-.511.795-1.204.793-1.925h-.006zM83.678 339.229c.25-1.48-1.712-6.219-1.712-6.219s-3.411 3.839-3.66 5.319a2.713 2.713 0 0 0 .524 1.953 2.732 2.732 0 0 0 3.712.624c.58-.392.987-.992 1.136-1.675v-.002z" fill="#7CA2F3"/><path d="M99.173 305.986s-11.209-6.14-14.54-15.546a19.333 19.333 0 0 0-7.463-9.705 32.606 32.606 0 0 0-5.246-2.829" stroke="#535461" stroke-width="2" stroke-miterlimit="10"/><path d="M69.797 271.992c1.06 1.063 2.203 6.064 2.203 6.064s-5.006-1.169-6.067-2.235a2.716 2.716 0 0 1 .105-3.749 2.73 2.73 0 0 1 3.759-.08zM78.863 274.719c.31 1.469-1.454 6.285-1.454 6.285s-3.563-3.696-3.874-5.167a2.71 2.71 0 0 1 1.074-2.907 2.736 2.736 0 0 1 3.106-.018 2.73 2.73 0 0 1 1.15 1.805l-.002.002zM88.76 284.941c-.474 1.422-4.436 4.694-4.436 4.694s-1.205-4.985-.73-6.41a2.732 2.732 0 0 1 5.03-.362c.324.646.378 1.393.15 2.078h-.014zM94.507 294.336c-.226 1.482-3.577 5.374-3.577 5.374s-2.034-4.71-1.807-6.192a2.716 2.716 0 0 1 2.027-2.354 2.73 2.73 0 0 1 2.919 1.073 2.72 2.72 0 0 1 .438 2.097v.002zM73.557 285.232c1.505-.016 5.835-2.784 5.835-2.784s-4.393-2.665-5.898-2.649a2.729 2.729 0 0 0-1.919.819 2.713 2.713 0 0 0 .045 3.845 2.733 2.733 0 0 0 1.937.775v-.006zM80.417 296.147c1.428-.465 4.73-4.397 4.73-4.397s-4.992-1.232-6.42-.767a2.739 2.739 0 0 0-1.66 1.339 2.715 2.715 0 0 0 1.219 3.723 2.724 2.724 0 0 0 2.13.105v-.003zM88.542 305.844c1.489-.217 5.41-3.535 5.41-3.535s-4.712-2.056-6.198-1.838a2.737 2.737 0 0 0-1.872 1.035 2.719 2.719 0 0 0-.174 3.089 2.727 2.727 0 0 0 2.837 1.252l-.003-.003z" fill="#7CA2F3"/><path d="M176.31 454.969c54.511 0 98.701-44.072 98.701-98.438 0-54.365-44.19-98.437-98.701-98.437-54.512 0-98.702 44.072-98.702 98.437 0 54.366 44.19 98.438 98.702 98.438z" fill="url(#c)"/><path d="M176.31 453.337c53.608 0 97.065-43.341 97.065-96.806 0-53.464-43.457-96.806-97.065-96.806s-97.065 43.342-97.065 96.806c0 53.465 43.457 96.806 97.065 96.806z" fill="#fff"/><path d="M176.31 433.487c42.615 0 77.162-34.454 77.162-76.956 0-42.501-34.547-76.955-77.162-76.955-42.615 0-77.162 34.454-77.162 76.955 0 42.502 34.547 76.956 77.162 76.956z" fill="#EEE"/><path opacity=".3" d="M178.491 293.172h-4.363v67.982h4.363v-67.982z" fill="#535461"/><g opacity=".1" fill="#000"><path opacity=".1" d="M242.565 354.9h-61.62v5.438h61.62V354.9zM137.44 334.553l-2.529 4.817 38.772 20.25 2.529-4.818-38.772-20.249z"/><path opacity=".1" d="M176.31 365.777c4.518 0 8.18-3.652 8.18-8.158 0-4.505-3.662-8.158-8.18-8.158-4.517 0-8.18 3.653-8.18 8.158 0 4.506 3.663 8.158 8.18 8.158z"/></g><path d="M242.565 353.812h-61.62v5.439h61.62v-5.439zM176.231 353.721l-38.773-20.25-2.529 4.818 38.772 20.25 2.53-4.818z" fill="#535461"/><path d="M176.309 364.689c4.518 0 8.18-3.652 8.18-8.158 0-4.505-3.662-8.157-8.18-8.157-4.517 0-8.179 3.652-8.179 8.157 0 4.506 3.662 8.158 8.179 8.158z" fill="#535461"/><path opacity=".1" d="M105.141 365.777c0-42.502 34.546-76.955 77.162-76.955a77.2 77.2 0 0 1 34.463 8.082 76.987 76.987 0 0 1 27.2 22.602c-13.131-23.799-38.488-39.93-67.662-39.93-42.616 0-77.161 34.453-77.161 76.955a76.471 76.471 0 0 0 15.506 46.271 76.444 76.444 0 0 1-9.508-37.025zM215.597 380.2s-.576 1.15-1.364 2.532a33.93 33.93 0 0 1-3.484-2.138l-.24-.168-.128-.093 1.363-1.501 3.853 1.368z" fill="#000"/><path opacity=".1" d="M217.227 301.105a6.62 6.62 0 0 1-6.369 2.485c-.068-1.392-.357-2.782-1.115-3.63-1.993-2.236 6.475-1.863 6.475-1.863a21 21 0 0 0 1.009 3.008zM203.641 313.004a29.3 29.3 0 0 1-1.173 2.855c-.169-1.229-.864-4.372-3.615-5.387.545-.742.927-1.191.927-1.191l3.861 3.723zM207.221 295.378c1 0 1.786-1.058 2.786-1.004.518.028.963.357 1.391.653a16.985 16.985 0 0 0 5.319 2.447c.739.196 1.522.343 2.263.163.742-.179 1.437-.761 1.522-1.52a2.586 2.586 0 0 0-.131-.987 12.208 12.208 0 0 0-5.328-7.013c-1.036-.633-2.301-1.117-3.449-.72-1.036.356-1.704 1.324-2.454 2.121a9.331 9.331 0 0 1-1.908 1.544c-.546.329-1.364.544-1.677 1.148-.592 1.126.338 3.157 1.666 3.168z" fill="#000"/><path opacity=".05" d="M204.203 323.498s6.102 2.235 10.088.497l1.993.125s3.313 2.317 6.816 1.281M233.096 319.772s-.996 2.361-.499 3.106l.499-3.106zM193.367 319.027s.499 2.361 0 3.106v-3.106z" fill="#000"/></g><path d="M404.72 429.23c-5.213 0-10.03-1.473-14.45-4.42a112.923 112.923 0 0 1-12.75-9.52 46.824 46.824 0 0 1-8.33 3.23 32.015 32.015 0 0 1-8.67 1.19c-5.213 0-9.18-1.02-11.9-3.06-2.607-1.927-4.42-4.08-5.44-6.46-.907-2.38-1.36-4.193-1.36-5.44 0-1.927.907-3.853 2.72-5.78 1.927-2.04 5.157-3.06 9.69-3.06 4.647 0 9.18 1.133 13.6 3.4 4.42 2.153 8.897 4.647 13.43 7.48 5.1-4.533 9.577-10.313 13.43-17.34 3.967-7.027 7.253-14.563 9.86-22.61 2.72-8.047 4.76-15.923 6.12-23.63 1.473-7.82 2.21-14.733 2.21-20.74 0-9.293-1.757-16.83-5.27-22.61-3.513-5.78-9.237-8.67-17.17-8.67-6.573 0-12.693 1.983-18.36 5.95-5.667 3.853-10.823 9.067-15.47 15.64-4.533 6.573-8.443 13.94-11.73 22.1a144.838 144.838 0 0 0-7.65 24.99c-1.7 8.613-2.55 16.83-2.55 24.65 0 2.38.113 4.76.34 7.14.227 2.38.567 4.76 1.02 7.14-3.513 0-6.233-1.133-8.16-3.4-1.813-2.267-3.117-5.157-3.91-8.67-.68-3.627-1.02-7.48-1.02-11.56 0-8.5 1.133-16.943 3.4-25.33 2.267-8.5 5.44-16.547 9.52-24.14 4.193-7.593 9.067-14.28 14.62-20.06 5.667-5.893 11.843-10.54 18.53-13.94 6.8-3.4 13.883-5.1 21.25-5.1 10.88 0 19.323 3.74 25.33 11.22 6.12 7.367 9.18 17.397 9.18 30.09 0 7.14-.963 14.62-2.89 22.44-1.927 7.707-4.647 15.3-8.16 22.78-3.4 7.367-7.423 14.223-12.07 20.57-4.647 6.347-9.747 11.673-15.3 15.98a80.191 80.191 0 0 0 11.9 5.44c4.193 1.587 8.613 2.38 13.26 2.38 2.493 0 4.307-.227 5.44-.68 1.247-.453 2.72-.907 4.42-1.36-1.133 3.967-2.72 6.913-4.76 8.84-1.927 2.04-3.967 3.343-6.12 3.91-2.04.68-3.967 1.02-5.78 1.02zm-44.2-13.77c2.38 0 4.647-.34 6.8-1.02a26.48 26.48 0 0 0 6.46-2.55c-3.513-3.06-7.027-5.723-10.54-7.99-3.4-2.38-6.97-3.57-10.71-3.57-2.607 0-4.307.567-5.1 1.7-.793 1.02-1.19 1.983-1.19 2.89 0 1.02.397 2.38 1.19 4.08.793 1.587 2.21 3.06 4.25 4.42 2.04 1.36 4.987 2.04 8.84 2.04zm82.785-1.36c-3.854 0-6.97-1.7-9.35-5.1-2.267-3.513-3.4-7.537-3.4-12.07 0-3.287.51-7.083 1.53-11.39a127.963 127.963 0 0 1 4.08-12.75c1.586-4.193 3.23-7.65 4.93-10.37 1.7-2.72 3.173-4.08 4.42-4.08.566 0 1.53.34 2.89 1.02 1.36.567 2.493 1.36 3.4 2.38-1.247 1.927-2.777 4.873-4.59 8.84-1.814 3.967-3.4 8.217-4.76 12.75-1.36 4.533-2.04 8.727-2.04 12.58 0 .907.113 2.323.34 4.25.226 1.813.793 3.457 1.7 4.93.906 1.473 2.266 2.21 4.08 2.21 2.153 0 4.363-1.077 6.63-3.23 2.266-2.267 4.533-5.157 6.8-8.67 2.38-3.513 4.646-7.31 6.8-11.39 2.153-4.08 4.136-7.99 5.95-11.73a922.731 922.731 0 0 0 4.76-9.35c.68.113 1.643.34 2.89.68 1.36.34 2.55.793 3.57 1.36 1.133.567 1.7 1.36 1.7 2.38 0 .453-.567 1.983-1.7 4.59a406.873 406.873 0 0 0-4.08 9.35 127.577 127.577 0 0 0-3.91 11.05c-1.134 3.74-1.7 7.027-1.7 9.86 0 2.04.396 3.683 1.19 4.93.906 1.247 2.38 1.87 4.42 1.87 2.38 0 5.27-1.077 8.67-3.23 3.4-2.153 6.856-5.27 10.37-9.35 3.513-4.193 6.63-9.18 9.35-14.96l2.21 1.53c-2.38 6.12-5.497 11.56-9.35 16.32-3.854 4.647-7.934 8.273-12.24 10.88-4.307 2.607-8.5 3.91-12.58 3.91-4.534 0-7.65-1.247-9.35-3.74-1.7-2.38-2.55-5.327-2.55-8.84 0-1.36.113-2.72.34-4.08.226-1.473.51-2.947.85-4.42-3.174 5.553-6.63 10.483-10.37 14.79-3.627 4.193-7.594 6.29-11.9 6.29zm94.431-78.54c-1.814 0-3.457-.453-4.93-1.36-1.36-.907-2.04-2.323-2.04-4.25 0-2.38 1.36-4.42 4.08-6.12 2.833-1.813 5.61-2.72 8.33-2.72 1.7 0 3.06.397 4.08 1.19 1.02.793 1.53 2.153 1.53 4.08 0 2.153-1.19 4.25-3.57 6.29-2.267 1.927-4.76 2.89-7.48 2.89zm-20.4 77.86c-4.42 0-7.707-1.417-9.86-4.25-2.154-2.72-3.23-6.063-3.23-10.03 0-2.607.453-5.893 1.36-9.86 1.02-3.967 2.323-8.103 3.91-12.41 1.586-4.42 3.4-8.557 5.44-12.41 2.153-3.853 4.42-6.97 6.8-9.35 2.38-2.493 4.703-3.74 6.97-3.74 1.02 0 1.87.34 2.55 1.02.793.567 1.19 1.473 1.19 2.72 0 1.36-.907 3.57-2.72 6.63-1.7 3.06-3.74 6.573-6.12 10.54a93.036 93.036 0 0 0-6.29 12.58c-1.7 4.307-2.55 8.443-2.55 12.41 0 4.08.68 6.8 2.04 8.16 1.36 1.36 3.456 2.04 6.29 2.04 3.853 0 7.933-1.927 12.24-5.78 4.42-3.853 9.066-10.597 13.94-20.23l1.53 1.7c-3.287 9.747-8.047 17.227-14.28 22.44-6.12 5.213-12.524 7.82-19.21 7.82zm46.956 5.1c-5.44 0-9.974-1.813-13.6-5.44-3.627-3.627-5.44-9.067-5.44-16.32 0-5.667 1.076-11.163 3.23-16.49 2.266-5.44 5.213-10.313 8.84-14.62 3.626-4.307 7.65-7.707 12.07-10.2 4.42-2.607 8.783-3.91 13.09-3.91 4.646 0 7.82 1.36 9.52 4.08 1.7 2.72 2.55 5.553 2.55 8.5 0 3.287-.794 6.177-2.38 8.67-1.474 2.493-3.514 3.74-6.12 3.74-1.927 0-3.57-.85-4.93-2.55 1.7-.907 3.173-2.72 4.42-5.44 1.246-2.833 1.87-5.497 1.87-7.99 0-1.36-.284-2.38-.85-3.06-.454-.793-1.417-1.19-2.89-1.19-3.06 0-6.234 1.36-9.52 4.08-3.174 2.72-6.177 6.233-9.01 10.54a76.205 76.205 0 0 0-6.8 13.6c-1.7 4.76-2.55 9.237-2.55 13.43 0 3.513.85 6.743 2.55 9.69 1.7 2.947 4.986 4.42 9.86 4.42 4.533 0 9.066-1.247 13.6-3.74 4.646-2.493 8.953-6.063 12.92-10.71 3.966-4.647 7.14-10.087 9.52-16.32l2.21 1.7c-2.607 6.8-6.177 12.92-10.71 18.36-4.534 5.327-9.52 9.52-14.96 12.58-5.44 3.06-10.937 4.59-16.49 4.59zm87.251-3.06c-3.174 0-5.894-1.077-8.16-3.23-2.267-2.153-4.08-4.873-5.44-8.16a63.146 63.146 0 0 1-2.89-10.03c-.567-3.513-.85-6.573-.85-9.18 1.246 0 3.06-.283 5.44-.85 2.38-.68 4.816-1.643 7.31-2.89 2.493-1.36 4.59-3.06 6.29-5.1 1.813-2.153 2.72-4.647 2.72-7.48 0-2.38-.85-4.25-2.55-5.61-1.7-1.36-3.684-2.04-5.95-2.04-3.514 0-6.8 1.247-9.86 3.74-3.06 2.38-5.837 5.553-8.33 9.52-2.38 3.853-4.534 7.99-6.46 12.41-1.927 4.42-3.57 8.613-4.93 12.58a2535.66 2535.66 0 0 1-3.4 9.86c-.68 2.04-1.644 3.4-2.89 4.08-1.247.793-2.55 1.19-3.91 1.19-1.927 0-3.344-.793-4.25-2.38-.794-1.587-1.304-3.57-1.53-5.95-.114-2.493-.17-5.043-.17-7.65 0-5.893.963-12.693 2.89-20.4 1.926-7.707 4.476-15.697 7.65-23.97a314.43 314.43 0 0 1 10.71-24.31c3.853-7.82 7.706-14.903 11.56-21.25 3.853-6.347 7.423-11.39 10.71-15.13 3.286-3.74 5.95-5.61 7.99-5.61 1.586 0 2.833 1.077 3.74 3.23 1.02 2.153 1.53 4.76 1.53 7.82 0 3.853-.85 8.217-2.55 13.09-1.7 4.76-4.137 9.577-7.31 14.45-3.06 4.873-6.744 9.463-11.05 13.77-4.194 4.307-8.784 7.99-13.77 11.05-3.74 9.18-6.574 18.133-8.5 26.86-1.814 8.613-2.72 15.867-2.72 21.76 1.813-4.533 3.966-9.52 6.46-14.96a132.036 132.036 0 0 1 8.84-15.64c3.286-4.987 6.856-9.067 10.71-12.24 3.853-3.173 7.876-4.76 12.07-4.76 4.193 0 7.763 1.473 10.71 4.42 2.946 2.947 4.42 6.517 4.42 10.71 0 3.627-.964 6.743-2.89 9.35-1.814 2.493-4.08 4.533-6.8 6.12-2.607 1.473-5.27 2.607-7.99 3.4-2.607.68-4.76 1.02-6.46 1.02.113.907.453 2.55 1.02 4.93.566 2.38 1.36 4.873 2.38 7.48 1.133 2.607 2.493 4.873 4.08 6.8 1.586 1.813 3.513 2.72 5.78 2.72 4.873 0 9.406-2.663 13.6-7.99 4.193-5.44 8.046-12.013 11.56-19.72l1.7 1.7c-1.587 5.553-4.024 10.823-7.31 15.81-3.287 4.873-6.97 8.84-11.05 11.9-3.967 3.173-7.934 4.76-11.9 4.76zm-24.82-71.23c5.213-4.193 9.746-8.953 13.6-14.28 3.966-5.327 7.026-10.427 9.18-15.3 2.153-4.987 3.23-8.897 3.23-11.73 0-1.02-.17-1.53-.51-1.53-1.134 0-3.117 1.983-5.95 5.95-2.72 3.967-5.837 9.237-9.35 15.81-3.514 6.46-6.914 13.487-10.2 21.08zm68.049 73.44c-5.327 0-9.577-1.19-12.75-3.57-3.06-2.267-5.213-5.1-6.46-8.5-1.36-3.4-2.04-6.8-2.04-10.2 0-3.4.453-6.007 1.36-7.82.907-1.813 1.983-3.173 3.23-4.08 1.36-.907 2.607-1.587 3.74-2.04 1.247-.453 2.097-.907 2.55-1.36 3.4-3.74 6.517-7.65 9.35-11.73a91.257 91.257 0 0 0 7.48-12.92v-2.04c0-4.193.68-7.14 2.04-8.84 1.473-1.813 3.003-2.72 4.59-2.72 1.813 0 2.72.737 2.72 2.21 0 .567-.17 1.473-.51 2.72-.34 1.247-.51 2.833-.51 4.76 0 3.74.737 7.82 2.21 12.24a402.736 402.736 0 0 1 4.42 13.77c1.473 4.76 2.21 9.747 2.21 14.96 0 2.947-.34 5.723-1.02 8.33 3.967-.68 7.707-2.437 11.22-5.27 3.513-2.947 6.913-7.593 10.2-13.94l1.53 1.7c-2.153 6.233-5.383 10.993-9.69 14.28-4.307 3.173-9.01 5.157-14.11 5.95-1.813 4.873-4.703 8.443-8.67 10.71-3.853 2.267-8.217 3.4-13.09 3.4zm11.9-17c.227-1.133.397-2.323.51-3.57.113-1.247.17-2.72.17-4.42 0-5.327-.68-10.597-2.04-15.81a412.98 412.98 0 0 1-3.23-14.96 157.921 157.921 0 0 1-8.33 12.41c-2.833 3.853-5.553 7.083-8.16 9.69 1.7 3.627 4.307 7.027 7.82 10.2 3.627 3.173 8.047 5.327 13.26 6.46zm-11.56 11.05c1.36 0 3.173-.453 5.44-1.36 2.267-.907 4.023-3.23 5.27-6.97-4.76-.907-9.01-2.777-12.75-5.61-3.627-2.833-6.347-5.667-8.16-8.5-2.493.113-3.74 2.097-3.74 5.95 0 4.08 1.19 7.877 3.57 11.39 2.493 3.4 5.95 5.1 10.37 5.1zm54.863 5.1c-10.086 0-15.13-5.61-15.13-16.83 0-4.987.907-11.107 2.72-18.36 1.927-7.367 4.307-14.903 7.14-22.61a37.512 37.512 0 0 0-3.23-.51 21.58 21.58 0 0 1-2.89-.85v-3.06c.907.113 1.984.227 3.23.34 1.247.113 2.664.227 4.25.34 2.38-6.12 4.93-12.013 7.65-17.68 2.72-5.78 5.384-10.88 7.99-15.3 2.72-4.533 5.27-8.103 7.65-10.71 2.494-2.72 4.59-4.08 6.29-4.08.907 0 1.7.34 2.38 1.02.794.567 1.19 1.473 1.19 2.72 0 1.927-1.19 5.1-3.57 9.52-2.38 4.307-5.326 9.463-8.84 15.47-3.513 6.007-6.913 12.523-10.2 19.55h6.29c3.74 0 7.65-.057 11.73-.17a156.25 156.25 0 0 0 12.58-.85v3.06c-12.353 1.36-22.326 2.04-29.92 2.04h-2.55a150.241 150.241 0 0 0-6.63 18.53c-1.813 6.347-2.72 12.523-2.72 18.53 0 4.873.737 8.387 2.21 10.54 1.474 2.04 3.91 3.06 7.31 3.06 5.894 0 11.674-2.607 17.34-7.82 5.667-5.213 10.654-12.297 14.96-21.25l2.21 1.7c-2.72 6.347-6.176 12.07-10.37 17.17-4.08 5.1-8.613 9.123-13.6 12.07-4.986 2.947-10.143 4.42-15.47 4.42zm42.187.17c-3.513 0-6.46-1.19-8.84-3.57-2.493-2.267-3.74-5.78-3.74-10.54 0-4.08.907-8.443 2.72-13.09 1.813-4.76 4.307-9.407 7.48-13.94 3.173-4.647 6.743-8.84 10.71-12.58 4.08-3.853 8.33-6.913 12.75-9.18 4.533-2.267 9.01-3.4 13.43-3.4s8.103 1.19 11.05 3.57c2.947 2.267 4.42 5.327 4.42 9.18 0 2.833-.793 4.76-2.38 5.78-1.473 1.02-3.457 1.53-5.95 1.53.567-2.04.85-4.023.85-5.95 0-2.607-.623-4.817-1.87-6.63-1.247-1.927-3.4-2.89-6.46-2.89-3.173 0-6.403 1.133-9.69 3.4-3.287 2.153-6.46 5.1-9.52 8.84-3.06 3.627-5.78 7.593-8.16 11.9s-4.25 8.557-5.61 12.75c-1.36 4.193-2.04 7.933-2.04 11.22 0 4.42 1.53 6.63 4.59 6.63 2.607 0 5.44-1.19 8.5-3.57 3.06-2.493 6.177-5.61 9.35-9.35a187.38 187.38 0 0 0 9.35-11.9c2.947-4.08 5.553-7.82 7.82-11.22.453-.68.737-1.02.85-1.02 1.02.113 2.38.567 4.08 1.36 1.7.68 2.55 1.643 2.55 2.89 0 1.02-.51 2.437-1.53 4.25-1.02 1.7-2.153 3.683-3.4 5.95a79.109 79.109 0 0 0-3.4 6.97c-1.02 2.267-1.53 4.42-1.53 6.46 0 1.7.453 3.4 1.36 5.1.907 1.587 2.38 2.38 4.42 2.38 3.06 0 7.083-2.21 12.07-6.63 4.987-4.533 10.03-11.277 15.13-20.23l1.7 1.7c-2.38 6.12-5.44 11.503-9.18 16.15-3.74 4.647-7.763 8.273-12.07 10.88-4.193 2.607-8.33 3.91-12.41 3.91-4.193 0-7.31-1.247-9.35-3.74-1.927-2.493-2.89-5.213-2.89-8.16 0-1.473.17-3.117.51-4.93-4.873 6.573-9.35 11.503-13.43 14.79-3.967 3.287-8.047 4.93-12.24 4.93zm95.293-3.57c-3.853 0-6.913-1.02-9.18-3.06-2.153-2.04-3.23-4.703-3.23-7.99 0-3.4.793-6.97 2.38-10.71a770.536 770.536 0 0 0 4.59-11.05c1.587-3.74 2.38-7.083 2.38-10.03 0-3.627-1.077-6.29-3.23-7.99a63.172 63.172 0 0 0-6.29-4.93c-2.607 6.687-5.327 13.033-8.16 19.04s-5.157 10.54-6.97 13.6l-1.53-2.89c1.587-2.947 3.627-7.253 6.12-12.92 2.607-5.667 5.157-12.127 7.65-19.38-1.133-1.133-1.7-2.493-1.7-4.08 0-3.4.963-6.177 2.89-8.33 1.927-2.153 3.343-3.23 4.25-3.23 1.247 0 1.927.567 2.04 1.7.227 1.02.34 1.813.34 2.38s-.34 1.7-1.02 3.4c-.567 1.587-.85 2.55-.85 2.89 0 1.587.85 3.06 2.55 4.42a186.578 186.578 0 0 1 6.12 4.42c2.267 1.587 4.25 3.57 5.95 5.95 1.813 2.267 2.72 5.213 2.72 8.84 0 3.4-.737 6.857-2.21 10.37a167.098 167.098 0 0 1-4.25 10.03c-1.36 3.173-2.04 5.95-2.04 8.33 0 2.04.51 3.4 1.53 4.08 1.02.68 2.21 1.02 3.57 1.02 2.72 0 5.497-.85 8.33-2.55 2.947-1.7 5.78-3.853 8.5-6.46a69.9 69.9 0 0 0 7.31-8.16c2.153-2.947 3.74-5.667 4.76-8.16l2.21 1.7c-2.153 4.76-5.1 9.463-8.84 14.11-3.74 4.533-7.933 8.273-12.58 11.22-4.533 2.947-9.237 4.42-14.11 4.42zm44.141 3.4c-10.086 0-15.13-5.61-15.13-16.83 0-4.987.907-11.107 2.72-18.36 1.927-7.367 4.307-14.903 7.14-22.61a37.512 37.512 0 0 0-3.23-.51 21.58 21.58 0 0 1-2.89-.85v-3.06c.907.113 1.984.227 3.23.34 1.247.113 2.664.227 4.25.34 2.38-6.12 4.93-12.013 7.65-17.68 2.72-5.78 5.384-10.88 7.99-15.3 2.72-4.533 5.27-8.103 7.65-10.71 2.494-2.72 4.59-4.08 6.29-4.08.907 0 1.7.34 2.38 1.02.794.567 1.19 1.473 1.19 2.72 0 1.927-1.19 5.1-3.57 9.52-2.38 4.307-5.326 9.463-8.84 15.47-3.513 6.007-6.913 12.523-10.2 19.55h6.29c3.74 0 7.65-.057 11.73-.17a156.25 156.25 0 0 0 12.58-.85v3.06c-12.353 1.36-22.326 2.04-29.92 2.04h-2.55a150.241 150.241 0 0 0-6.63 18.53c-1.813 6.347-2.72 12.523-2.72 18.53 0 4.873.737 8.387 2.21 10.54 1.474 2.04 3.91 3.06 7.31 3.06 5.894 0 11.674-2.607 17.34-7.82 5.667-5.213 10.654-12.297 14.96-21.25l2.21 1.7c-2.72 6.347-6.176 12.07-10.37 17.17-4.08 5.1-8.613 9.123-13.6 12.07-4.986 2.947-10.143 4.42-15.47 4.42z" fill="#F4F4F4"/><defs><linearGradient id="a" x1="45.5" y1="73" x2="941" y2="678" gradientUnits="userSpaceOnUse"><stop stop-color="#3E6CD0"/><stop offset="1" stop-color="#770095"/></linearGradient><linearGradient id="c" x1="176.31" y1="454.969" x2="176.31" y2="258.094" gradientUnits="userSpaceOnUse"><stop stop-color="gray" stop-opacity=".25"/><stop offset=".54" stop-color="gray" stop-opacity=".12"/><stop offset="1" stop-color="gray" stop-opacity=".1"/></linearGradient><clipPath id="b"><path fill="#fff" transform="translate(34 252)" d="M0 0h283v210.006H0z"/></clipPath></defs></svg>