<svg width="1000" height="750" fill="none" xmlns="http://www.w3.org/2000/svg"><path fill="#EEE" d="M0 0h1000v750H0z"/><g filter="url(#a)"><path d="m166.517 294.696 215.055-119.908a17.253 17.253 0 0 1 8.347-2.138c2.937 0 5.82.738 8.347 2.138l398.162 220.095c2.425 1.348 4.438 3.258 5.845 5.547a14.625 14.625 0 0 1 2.188 7.519 14.6 14.6 0 0 1-2.031 7.558c-1.359 2.314-3.332 4.261-5.728 5.652l-200.785 116.1c-4.202 2.433-9.028 3.755-13.967 3.824-4.938.069-9.805-1.117-14.082-3.431l-401.15-216.475c-2.471-1.341-4.525-3.263-5.959-5.576a14.637 14.637 0 0 1-2.221-7.611 14.617 14.617 0 0 1 2.105-7.64c1.399-2.332 3.424-4.281 5.874-5.654Z" fill="#3F88C5" fill-opacity=".76"/><path d="M327.316 200.518c-.682.511-1.429.942-2.223 1.281a.333.333 0 0 1-.17.401.38.38 0 0 1-.158.042h-1.185a9.439 9.439 0 0 1-3.81.052 9.148 9.148 0 0 1-3.48-1.452 22.315 22.315 0 0 1-4.884-2.766c-3.645-2.697-7.29-6.692-11.427-9.492 0 .785.109 1.57.2 2.322l.893 7.529 1.586 13.352c0 .239 0 .939.127 1.143 6.889 8.332 25.789 5.396 25.789 5.396s11.19-27.079-1.258-17.808Z" fill="#3F88C5"/><path d="m613.923 424.95-48.916 33.464 71.752 42.035 46.2-29.196" fill="url(#b)"/><path d="m329.012 299.937-22.235 15.776 26.007 16.442 26.026-20.164M250.025 274.293l-39.458 23.51 54.366 29.588 45.58-28.393" fill="#0D60A5"/><path d="M344.812 284.059s-1.986 10.363 1.239 11.576c3.226 1.212 16.403 10.824 14.398 14.683-4.501 8.844-31.42-10.381-31.42-10.381l3.335-21.922" fill="#032B43"/><path d="M327.809 244.431c0 1.998-1.823 36.469-1.823 36.469s14.963 12.925 26.099 12.105l5.467-33.464" fill="#032B43"/><path d="M301.491 272.381s19.865 2.134 31.566-9.186c6.798-6.59 19.647-17.842 19.647-17.842l-47.386-3.261" fill="#032B43"/><path d="M338.124 123.619s-1.695 14.034 6.269 18.064c7.509 3.79 8.985-10.142 8.985-10.142l30.418 16.322V77.179l-55.131-29.452s-16.256-4.132-19.045 8.247l1.002 52.688 27.502 14.957ZM434.425 175.454s-.893-11.49 12.994-9.356c13.888 2.134 8.894 22.656 8.894 22.656" fill="#3F88C5" fill-opacity=".76"/><path d="M633.15 427.511c-.547-.632-16.403-4.047-19.228-2.544-2.825 1.502 1.003 5.548 8.183 9.509 7.181 3.962 13.341 7.41 16.239 6.557 2.898-.854 6.032-2.408 6.032-3.961v-15.691M668.543 455.887c0 .905 1.913 4.524 0 5.412-1.914.888-14.872 3.722-17.514 7.137-2.643 3.415-1.714 6.027 0 6.949 1.713.922 31.93-4.132 31.93-4.132l-3.645-19.276" fill="#032B43"/><path d="M659.923 302.225s-1.731-6.727-12.065-9.749c-10.334-3.022-8.948 18.456-8.948 18.456" fill="#1D3F75"/><path d="M640.203 335.518c-1.075.444-27.192 18.542-24.968 46.321 1.348 16.766 14.379 44.903 14.379 44.903s21.032 12.532 34.628 9.357" fill="#3F88C5"/><path d="M634.59 343.526s-6.98 28.427-4.392 46.098c2.587 17.672 29.706 68.465 29.706 68.465a77.7 77.7 0 0 0 28.158-2.527s-16.403-59.996-17.915-66.586c-1.513-6.591 0-42.565 0-42.565" fill="#3F88C5"/><path d="M644.487 294.456s-32.951-13.232-43.576-19.019c0 0-2.807 10.517-2.242 11.951.565 1.434 27.994 28.103 42.227 30.374M255.108 255.409s-6.05-4.183-8.328-3.517c-2.279.666-3.153 24.279-1.568 25.73 1.586 1.451 6.871 6.829 9.896 5.702 3.026-1.126 4.775-5.702 4.775-5.702" fill="#032B43"/><path d="m310.731 240.931-36.049 2.066 6.798 23.749-23.237-16.442c-4.519 4.525-3.772 9.34-4.009 15.367a32.837 32.837 0 0 0 1.276 11.456c.127.41.273.802.437 1.195 2.169 1.861 4.684 3.5 6.415 4.781 4.174 3.09 8.22 6.317 12.32 9.493 5.796 4.473 11.318 8.758 18.663 10.807 7.344 2.049 20.193-3.09 21.687-11.115 2.607-14.376-2.15-37.032-4.301-51.357Z" fill="#032B43"/><path d="m594.258 309.481-6.852-2.936c-1.222-.53-2.279 1.178-1.057 1.707l6.852 2.937c1.294.512 2.278-1.178 1.057-1.708Z" fill="#606060"/><path d="m327.518 117.831 73.155 40.072v19.054s-13.158-7.666-14.343 3.141c-1.221 11.115 14.343 15.537 14.343 15.537l-.51 29.332-30.818-16.219s.601-12.737-9.113-16.767c-10.261-4.217-9.422 6.83-9.422 6.83l-23.857-12.686.565-68.294ZM400.672 127.785v-24.689s-8.11-.461-10.114-6.829c-2.005-6.368 2.679-11.832 10.114-9.356V57.1l93.695 51.015v34.523s15.528 1.28 15.09 11.951c-.437 10.671-15.09 3.603-15.09 3.603v20.266l-39.931-22.486s3.645-14.683-9.422-19.498c-9.459-3.415-10.589 8.895-10.589 8.895l-33.753-17.585Z" fill="#032B43"/><path d="M400.162 224.95v23.801s-14.124-8.537-18.698-.53c-4.575 8.008 16.202 16.442 16.202 16.442v27.796l96.701 52.296v-68.687l-94.205-51.118Z" fill="#032B43"/><path d="m610.588 259.729.838-59.552s1.823-9.357-6.196-13.659l-92.584-50.111v34.523s17.661 5.122 14.763 13.658c-2.898 8.537-14.763 1.878-14.763 1.878v20.284l97.942 52.979ZM326.953 186.125l23.783 12.72s-.802-12.14 9.423-6.83c10.224 5.31 9.112 16.767 9.112 16.767l33.589 17.739v69.199l-69.784-38.074c-3.345-2.5-5.558-6.092-6.196-10.056-.766-6.454.073-61.465.073-61.465Z" fill="#3F88C5" fill-opacity=".76"/><path d="m400.162 224.95 35.211 19.088s-6.105 13.335 4.957 18.474c11.063 5.139 11.701-9.015 11.701-9.015l42.336 22.571v-25.61s-14.161-.939-16.767-10.244 11.628-8.656 16.767-5.549v-26.123l-30.654-17.295-63.04-33.396v19.105s-12.612-8.161-15.419 1.059c-2.806 9.22 4.411 15.844 15.419 17.62l-.511 29.332M494.367 287.627v28.923s-14.744-7.035-17.405.307c-2.661 7.342 17.405 16.322 17.405 16.322v23.169l75.615 40.977s17.332 9.117 20.795-8.725l.401-49.513-39.147-20.932s2.679-17.654-9.496-22.776c-12.174-5.122-10.935 11.866-10.935 11.866l-37.233-19.618Z" fill="#3F88C5" fill-opacity=".76"/><path d="m494.367 208.542 43.03 22.999s-1.568-12.874 11.627-9.254c13.195 3.619 9.987 21.325 9.987 21.325l33.298 17.893-1.112 65.869-39.147-20.932s1.822-18.986-9.496-22.776c-11.317-3.79-10.935 11.866-10.935 11.866l-37.27-19.464v-25.61c-9.459-.154-20.047-6.386-16.767-14.171 3.281-7.786 16.767-1.707 16.767-1.707v-26.038M439.692 211.889c-.802 7.154-2.296 14.239-3.262 21.376 4.756 1.827 14.671 6.966 14.671 6.966l-1.823-24.842-9.586-3.5Z" fill="#032B43"/><path d="M446.502 217.953c4.85-.729 7.93-6.293 6.88-12.429-1.05-6.136-5.833-10.519-10.683-9.79-4.85.728-7.931 6.293-6.88 12.429 1.05 6.135 5.833 10.518 10.683 9.79Z" fill="#032B43"/><path d="M668.817 344.909a498.922 498.922 0 0 1-10.316-34.284c-.328-1.229-2.351-.7-2.023.53a485.5 485.5 0 0 0 10.316 34.283c.401 1.178 2.424.649 2.023-.529Z" fill="#606060"/><path d="M278.274 183.547c-1.385-2.271-5.687-5.242-8.202-2.629a2.648 2.648 0 0 0-.624 2 2.717 2.717 0 0 0 1.044 1.841 12.839 12.839 0 0 0 5.066 1.946 1.385 1.385 0 0 0 1.185-.199c.167-.118.302-.271.393-.447.092-.176.138-.37.135-.566.224-.033.436-.116.618-.243s.329-.293.427-.484a1.232 1.232 0 0 0-.042-1.219Z" fill="#FBB5AD"/><path d="m309.037 226.453-36.961-8.537s1.148 15.025 2.588 25.047c6.616 2.783 14.671 2.731 21.688 1.707a48.736 48.736 0 0 0 14.361-3.824 32.814 32.814 0 0 0 4.228-2.459c-.565-3.551-5.449-8.264-5.904-11.934Z" fill="#3F88C5"/><path d="M317.475 233.743c0 2.715-.765 9.408-.929 12.122-15.565-3.892-49.208-14.444-51.541-36.178a18.61 18.61 0 0 1 1.094-8.742 42.234 42.234 0 0 1 7.764-7.649c3.973-3.415 8.893-6.949 14.361-7.854 6.725-1.127 12.028 2.971 16.858 7.239 1.823 3.944-3.426 7.803-2.734 11.815l9.404 26.464 5.741 2.766" fill="#3F88C5"/><path d="M288.316 176.205s4.082 17.774-2.169 20.028c-6.251 2.253-12.63-1.844-13.742-5.122a23.705 23.705 0 0 1-.437-8.537s4.738-6.317 16.348-6.369Z" fill="#FBB5AD"/><path d="M289.062 173.03c.201-4.32-6.233-7.052-9.203-3.415a6.85 6.85 0 0 0-2.562-1.297 7.119 7.119 0 0 0-2.906-.154c-2.734.444-3.645 2.253-3.463 4.661a5.3 5.3 0 0 0-2.269.476 4.962 4.962 0 0 0-1.795 1.385 4.019 4.019 0 0 0-.816 2.416c0 .864.285 1.708.816 2.416a4.514 4.514 0 0 0-2.282 1.868 4.075 4.075 0 0 0-.543 2.793c.086.9.418 1.765.966 2.509a3.827 3.827 0 0 0-.273.854 3.915 3.915 0 0 0 .364 2.365 4.256 4.256 0 0 0 1.695 1.784 5.345 5.345 0 0 0 2.898.82 3.785 3.785 0 0 0 1.514 1.488 4.123 4.123 0 0 0 2.131.492 3.906 3.906 0 0 0 2.489-.977 3.442 3.442 0 0 0 1.156-2.284 3.21 3.21 0 0 0-.201-1.434 7.844 7.844 0 0 0 .456-5.703c.277-.086.541-.206.784-.358a3.418 3.418 0 0 0 1.476-2.049 5.586 5.586 0 0 0 2.716.222c.421-.089.81-.279 1.13-.552.319-.272.558-.617.692-1.002a6.533 6.533 0 0 0 3.606-.139 6.118 6.118 0 0 0 2.9-2.012 3.815 3.815 0 0 0 .306-2.848 4.059 4.059 0 0 0-1.782-2.325Z" fill="#D86212"/><path d="M278.345 188.396a4.104 4.104 0 0 0-.677-1.59 4.405 4.405 0 0 0-1.291-1.21 2.44 2.44 0 0 0-.828-.433 2.559 2.559 0 0 0-.942-.096 2.508 2.508 0 0 0-.908.254 2.371 2.371 0 0 0-.73.565 2.44 2.44 0 0 0-.435 1.507c.026.533.229 1.044.58 1.464.839 1.024 2.206 1.041 3.39 1.485.711.273 1.13-.393.984-.956a.973.973 0 0 0 .369-.091.903.903 0 0 0 .297-.224.833.833 0 0 0 .191-.675Z" fill="#FBB5AD"/><path d="M287.113 183.94c0-.41-.766-.24-.675.17l.584 2.783c.13.419.222.847.273 1.281 0 .768-.401.905-1.021 1.263a.327.327 0 0 0-.161.197.307.307 0 0 0 .034.247.348.348 0 0 0 .21.152.372.372 0 0 0 .264-.032c.802-.461 1.476-.683 1.421-1.708a34.406 34.406 0 0 0-.929-4.353ZM288.713 183.188a.353.353 0 0 0-.243.095.31.31 0 0 0 0 .456.36.36 0 0 0 .487 0 .315.315 0 0 0 .1-.228.312.312 0 0 0-.1-.228.355.355 0 0 0-.244-.095ZM281.97 185.323a.352.352 0 0 0-.243.094.31.31 0 0 0 0 .456c.064.06.152.094.243.094a.357.357 0 0 0 .243-.094.31.31 0 0 0 0-.456.352.352 0 0 0-.243-.094ZM285.544 191.247a2.553 2.553 0 0 1-1.688.067 2.383 2.383 0 0 1-1.319-.989.345.345 0 0 0-.21-.152.372.372 0 0 0-.264.033.33.33 0 0 0-.161.197.305.305 0 0 0 .034.246 3.086 3.086 0 0 0 1.749 1.293 3.302 3.302 0 0 0 2.224-.132c.401-.136.055-.7-.365-.563Z" fill="#56403D"/><path d="M328.41 229.884a4.522 4.522 0 0 0-2.273.654 4.12 4.12 0 0 0-1.554 1.685c-.565.905-.93 1.879-1.568 2.749-1.038 1.4-1.822.854-3.353.205-1.531-.649-3.044 1.537-1.403 2.254a10.14 10.14 0 0 0 4.173 1.349 3.571 3.571 0 0 0 1.278-.535c.383-.259.705-.588.946-.968.059.213.179.407.347.561.168.154.377.262.606.313.228.051.467.042.691-.024.224-.067.424-.189.579-.355a14.031 14.031 0 0 0 3.499-4.763c.133-.326.185-.675.153-1.022a2.213 2.213 0 0 0-.335-.984 2.4 2.4 0 0 0-.757-.75 2.576 2.576 0 0 0-1.029-.369Z" fill="#FBB5AD"/><path d="M336.921 240.385a3475.462 3475.462 0 0 0-19.446-6.044c-.401 3.073-.602 6.146-.857 9.219a46.343 46.343 0 0 0 9.532 8.23 1.66 1.66 0 0 0 1.542-.006 1.52 1.52 0 0 0 .57-.523c.138-.217.214-.464.221-.718a4.536 4.536 0 0 0-.511-1.707 21.679 21.679 0 0 0 4.21 2.032c.327.072.67.044.978-.08.309-.123.567-.337.736-.608a1.397 1.397 0 0 0-.201-1.737l-1.294-.99a13.91 13.91 0 0 0 3.281.137c1.64-.137 2.223-2.459.419-2.852a23.123 23.123 0 0 1-2.151-.563 7.77 7.77 0 0 0 3.645-1.417c.984-.683.31-1.998-.674-2.373ZM329.959 191.776a8.883 8.883 0 0 0-3.085 1.752 8.223 8.223 0 0 0-2.071 2.766 7.761 7.761 0 0 0-.707 3.314 7.767 7.767 0 0 0 .778 3.3c.088.217.25.4.461.521.211.12.46.172.705.145a7.508 7.508 0 0 1 .89-3.196 8.008 8.008 0 0 1 2.209-2.575c1.385-1.075 3.116-2.066 3.645-3.414.856-1.981-.82-3.244-2.825-2.613ZM604.573 306.271a45.557 45.557 0 0 1-10.935-7.205c.201-3.414.419-10.944-3.645-10.244-1.968.376-1.822 2.493-1.822 3.961a33.695 33.695 0 0 0 .218 3.876c-4.629 1.707-12.01-.7-14.58 3.671a1.252 1.252 0 0 0 0 1.315c.129.177.282.338.456.478a5.198 5.198 0 0 0-1.823 1.4 1.35 1.35 0 0 0-.365.5 1.288 1.288 0 0 0-.094.6c.018.204.085.401.196.578.111.176.263.326.446.439.274.191.574.346.893.461a1.341 1.341 0 0 0 0 .358c0 1.486 1.239 2.134 3.153 2.305a3.497 3.497 0 0 0 1.702 1.798 3.86 3.86 0 0 0 2.544.302 48.308 48.308 0 0 0 7.873-1.366 79.958 79.958 0 0 1 8.147 3.688c.282.139.607.185.92.13.314-.054.599-.206.809-.431.21-.224.334-.509.351-.807a1.27 1.27 0 0 0-.258-.838c.301-.171.52-.443.612-.761a1.208 1.208 0 0 0-.12-.946c.199-.246.306-.546.306-.854 0-.308-.107-.608-.306-.854.233-.014.458-.083.655-.199.198-.116.361-.277.475-.467.875.478 1.823.939 2.68 1.366 1.694.751 3.116-1.502 1.512-2.254Z" fill="#FBB5AD"/><path d="M585.383 300.518a47.342 47.342 0 0 1-11.154 1.075.358.358 0 0 0-.245.095.313.313 0 0 0 0 .459.358.358 0 0 0 .245.095 48.133 48.133 0 0 0 11.336-1.093c.437-.017.237-.631-.182-.631ZM583.706 305.093a35.668 35.668 0 0 1-9.933.837c-.455 0-.455.632 0 .649 3.405.191 6.82-.097 10.133-.854.438-.085.237-.734-.2-.632ZM583.049 307.723a24.783 24.783 0 0 1-6.214.853.363.363 0 0 0-.245.095.316.316 0 0 0-.102.23c0 .086.037.168.102.229a.358.358 0 0 0 .245.095 25.495 25.495 0 0 0 6.397-.888.334.334 0 0 0 .163-.158.3.3 0 0 0 .018-.22.324.324 0 0 0-.136-.18.364.364 0 0 0-.228-.056Z" fill="#56403D"/><path d="M631.911 327.391c-.346 3.005.966 9.971 2.679 16.135 5.996 3.06 12.727 4.635 19.556 4.575a54.501 54.501 0 0 0 16.001-1.707c-.82-14.888-6.944-48.694-14.58-48.011-9.641.871-19.154 11.559-19.154 11.559-17.897 2.459-41.317-13.659-41.317-13.659l-4.92 14.154c11.154 10.349 26.048 16.399 41.735 16.954Z" fill="#032B43"/><path d="M600.947 277.025c-3.645-4.132-6.033-7.24-11.118-9.784-1.512-.751-3.809.905-2.587 2.425a38.738 38.738 0 0 0 5.084 4.695V274.805a9.775 9.775 0 0 0 .401 7.478c1.527 2.125 3.569 3.88 5.96 5.122.784-3.449 1.622-6.898 2.26-10.38Z" fill="#FBB5AD"/><path d="m728.594 402.31-36.14 20.078s1.148 13.454 28.796 24.33l41.589-24.244" fill="url(#c)"/><path d="M748.076 427.442c12.069 0 21.852-8.523 21.852-19.037s-9.783-19.037-21.852-19.037c-12.068 0-21.851 8.523-21.851 19.037s9.783 19.037 21.851 19.037Z" fill="#0D60A5"/><path d="M748.058 405.452c9.039 0 16.366-3.716 16.366-8.298 0-4.583-7.327-8.298-16.366-8.298-9.038 0-16.366 3.715-16.366 8.298 0 4.582 7.328 8.298 16.366 8.298Z" fill="#0D60A5"/><path d="M747.221 330.294v65.05c.039.321.203.617.46.831.257.215.589.334.934.334.345 0 .677-.119.934-.334.257-.214.421-.51.46-.831v-65.05a1.29 1.29 0 0 0-.46-.832 1.461 1.461 0 0 0-.934-.333c-.345 0-.677.119-.934.333a1.29 1.29 0 0 0-.46.832Z" fill="#136F63"/><path d="M753.8 327.835a5.997 5.997 0 0 0 .757-2.443 5.907 5.907 0 0 0-.338-2.525c-.638-1.707-1.568-3.517-2.315-5.276-.747-1.758-1.421-3.295-2.242-4.9-.82.393-6.688 8.656-6.925 12.139-.237 3.483 4.629 6.386 4.629 6.386l1.476.871c.274.153 2.807-1.81 3.099-2.049a7.493 7.493 0 0 0 1.859-2.203ZM749.407 346.821c6.197-.563 10.461-5.446 13.377-10.517-6.542.324-12.575 4.2-13.377 10.517ZM748.952 346.616c-1.822-5.549-7.873-8.537-13.76-10.073 1.695 5.941 6.926 10.671 13.76 10.073ZM748.605 362.802c7.874-.717 13.323-6.932 17.041-13.386-8.366.41-16.056 5.344-17.041 13.386ZM748.005 362.512c-2.388-7.069-10.006-10.757-17.515-12.823 2.151 7.581 8.912 13.608 17.515 12.823ZM749.207 381.532c8.985-.82 15.181-7.905 19.41-15.247-9.514.461-18.28 6.078-19.41 15.247ZM748.514 381.224c-2.715-8.058-11.409-12.259-20.047-14.615 2.551 8.622 10.242 15.486 20.047 14.615Z" fill="#136F63"/><path d="M388.37 392.561c-3.117 2.698-9.495-6.829-13.359-5.583a69.53 69.53 0 0 1-18.553 3.415c-5.869.29-11.865-.274-16.858-3.415-2.273-1.572-4.1-3.64-5.325-6.025a15.37 15.37 0 0 1-1.7-7.657 15.485 15.485 0 0 1 2.319-7.514c1.415-2.29 3.406-4.222 5.799-5.627l-6.816-3.295-23.31 15.196s1.932 31.961 64.954 27.488l73.174 39.133 18.735-13.267-79.06-32.849Z" fill="#0D60A5"/><path d="M359.921 393.927c-20.194 0-36.013-9.595-36.013-21.854 0-12.259 15.819-21.854 36.013-21.854 20.193 0 36.012 9.595 36.012 21.854 0 12.259-15.819 21.854-36.012 21.854Zm0-34.062c-15.145 0-25.716 6.437-25.716 12.191 0 5.753 10.607 12.122 25.716 12.122 15.108 0 25.715-6.437 25.715-12.191 0-5.753-10.552-12.122-25.715-12.122Z" fill="#032B43"/><path d="M384.743 381.19c1.185-1.007 50.666 26.771 50.666 26.771l32.021 17.432-6.962 5.122a5.68 5.68 0 0 1-3.015 1.089 5.764 5.764 0 0 1-3.145-.696l-77.055-41.813 7.49-7.905Z" fill="#032B43"/><path d="m466.61 413.408-12.976 8.076 6.834 8.946 13.942-8.264c.073-4.251-3.299-8.502-7.8-8.758ZM451.155 404.222a8.767 8.767 0 0 0-3.097-1.59 9.117 9.117 0 0 0-3.518-.288l-12.375 7.7 6.834 8.947 15.273-9.049c-.23-2.207-1.344-4.251-3.117-5.72Z" fill="#032B43"/><path d="M647.347 431.13c-8.558-23.122-12.596-47.5-11.919-71.965a.395.395 0 0 0-.128-.289.455.455 0 0 0-.619 0 .395.395 0 0 0-.128.289c-.676 24.534 3.374 48.982 11.956 72.17.2.495 1.038.29.838-.205Z" fill="#fff"/><path d="M639.693 309.464a48.478 48.478 0 0 1-19.519-1.895c-.529-.171-.766.615-.237.785a49.163 49.163 0 0 0 19.756 1.93c.546-.051.565-.871 0-.82ZM631.911 327.391h4.921l-2.242 16.135s-2.405-11.781-2.679-16.135Z" fill="#204472"/><path d="M648.733 291.264c-3.08 1.536-6.907-.956-9.458-2.493-3.099-1.861-6.215-5.122-4.447-8.793.273-.546-.675-.871-.948-.324-1.823 3.824 1.039 7.495 4.319 9.578 2.916 1.861 7.29 4.661 10.935 2.868.602-.256.183-1.109-.401-.836Z" fill="#009245"/><path d="M633.916 276.99s-7.509 19.191-.474 23.015c7.727 4.2 15.728-2.902 15.728-2.902s7.691-16.596 0-20.898c-7.691-4.303-14.051-1.588-15.254.785Z" fill="#FBB5AD"/><path d="M635.191 291.981a1.544 1.544 0 0 1-.528-.273 56.002 56.002 0 0 1 2.861-5.122.525.525 0 0 0 .071-.197.518.518 0 0 0-.281-.529.609.609 0 0 0-.629.04.551.551 0 0 0-.145.156 56.31 56.31 0 0 0-3.044 5.43.54.54 0 0 0 0 .649c.345.389.8.679 1.313.836.783.359 1.075-.683.382-.99Z" fill="#56403D"/><path d="M659.522 286.739c.893-4.029-1.075-6.829-3.863-10.005-.219-.25-.456-.501-.711-.751a6.329 6.329 0 0 0 2.351-1.383.546.546 0 0 0 .168-.228.512.512 0 0 0-.094-.529.588.588 0 0 0-.238-.165 3.882 3.882 0 0 0-2.843.273 7.567 7.567 0 0 0-.838-2.68.56.56 0 0 0-.193-.206.612.612 0 0 0-.562-.049.592.592 0 0 0-.23.169c-.304.316-.53.691-.662 1.098a2.714 2.714 0 0 0-.103 1.258c-3.404-1.993-7.464-2.763-11.427-2.168a9.875 9.875 0 0 0-4.01 1.707 6.03 6.03 0 0 0-3.098-.512 5.392 5.392 0 0 0-3.054 1.241 4.816 4.816 0 0 0-1.63 2.72 4.171 4.171 0 0 0 1.167 3.099c.808.85 1.94 1.368 3.152 1.443a7.756 7.756 0 0 0 3.646-.308c-1.076.82-1.932 2.049 0 3.244 3.444 2.101 6.05.615 5.595 2.442-.365 1.502 1.439 3.022 2.952 3.568 0 .256 0 .939.109 1.844a5.073 5.073 0 0 1 2.406.683.64.64 0 0 1 .562-.016c.088.04.165.1.222.174a.546.546 0 0 1 .109.252c.244 2.493-.524 4.98-2.15 6.966a22.293 22.293 0 0 0 7.29-4.166c2.895-2.389 4.974-5.525 5.977-9.015Zm-6.706-13.949v.273a.491.491 0 0 0 0 .171v.546a1.83 1.83 0 0 1 0-.99Z" fill="#000"/><path d="M638.49 293.688a3.288 3.288 0 0 1-2.165.925 3.324 3.324 0 0 1-2.246-.737c-.382-.29-.82.29-.437.581a4.111 4.111 0 0 0 2.716.868 4.067 4.067 0 0 0 2.624-1.09c.346-.325-.146-.871-.492-.547ZM638.618 290.632a.61.61 0 0 0-.439.015.551.551 0 0 0-.299.301.504.504 0 0 0 .016.411c.063.13.178.231.321.28.143.05.3.045.439-.014a.558.558 0 0 0 .299-.301.506.506 0 0 0-.016-.412.56.56 0 0 0-.321-.28ZM632.513 287.03a.61.61 0 0 0-.439.014.56.56 0 0 0-.3.301.51.51 0 0 0 .016.412c.063.129.179.23.322.28.142.05.3.044.439-.015a.551.551 0 0 0 .299-.301.508.508 0 0 0-.016-.411.556.556 0 0 0-.321-.28Z" fill="#56403D"/><path d="M644.176 293.108s4.866-6.693 6.124-3.5c1.257 3.192-6.579 6.505-6.579 6.505" fill="#FBB5AD"/><path d="M313.612 250.185c-.201-1.025-1.823-.598-1.677.427a201.15 201.15 0 0 1 3.317 23.203c0 1.041 1.823 1.041 1.823 0a204.933 204.933 0 0 0-3.463-23.63ZM288.57 289.488a164.306 164.306 0 0 1-6.106-21.615c-.218-1.024-1.822-.598-1.676.427a164.302 164.302 0 0 0 6.105 21.615c.365.99 2.041.563 1.677-.427Z" fill="#3F88C5" fill-opacity=".6"/><path d="M304.572 242.809c-12.428-3.481-23.639-10.006-32.477-18.9-.565-.581-1.495.29-.912.853 8.998 9.039 20.403 15.668 33.042 19.208a.683.683 0 0 0 .426-.11.615.615 0 0 0 .256-.337.584.584 0 0 0-.032-.413.633.633 0 0 0-.303-.301ZM318.241 233.026a113.227 113.227 0 0 1-24.258-12.754c-.674-.461-1.33.598-.656 1.059a114.58 114.58 0 0 0 24.567 12.839c.766.324 1.112-.837.347-1.144ZM310.185 222.236l-6.015-17.074c-.255-.734-1.512-.427-1.257.324l6.014 17.074c.201.751 1.458.427 1.258-.324Z" fill="#095349"/><path d="M579.804 423.607c1.188-1.927-45.039-29.013-103.25-60.498-58.212-31.485-106.364-55.446-107.552-53.519-1.188 1.927 45.039 29.013 103.25 60.498 58.212 31.485 106.364 55.446 107.552 53.519Z" fill="#0D60A5"/></g><g clip-path="url(#d)" fill="#3F88C5"><path fill-rule="evenodd" clip-rule="evenodd" d="M881.613 83.334c-6.838-5.01-13.418-22.8-23.708-25.278-2.043-.491-4.73-.515-6.646.362-2.699 1.235-5.467 4.041-6.62 6.735-1.406 3.285-1.03 6.417.668 9.47 3.315 5.963 12.369 16.462 14.639 19.499 4.053 5.423 12.091 18.583 20.035 18.583 9.153 0 30.351-25.467 38.619-31.003V163.29c-.315 9.151 2.589 15.146 11.966 15.774 5.435 0 11.737-3.979 11.423-10.878V56.137c0-5.018-6.86-11.966-12.511-11.966h-1.087c-5.916 0-20.179 14.632-24.353 18.617-5.593 5.338-16.686 16.703-22.425 20.546Z"/><path fill-rule="evenodd" clip-rule="evenodd" d="m765.213 139.358-.567-20.669h30.483V97.476h-30.46v-30.46H744v76.693c0 20.167 18.128 32.092 36.443 32.092h40.795c10.255 0 8.158-15.613 8.158-26.108v-34.267c1.854 1.241 15.977 19.434 18.591 22.747 4.111 5.208 15.172 21.593 21.116 20.223 5.446 0 19.059-15.409 23.245-19.182 3.301-2.976 15.462-12.728 19.181-18.731 2.281-3.681.84-8.262-2.315-11.016-1.223-1.068-2.245-1.755-3.384-2.106-2.291-.707-4.803-.218-6.779 1.045-7.413 4.737-23.98 22.789-28.86 26.057-5.766-8.61-15.767-20.1-22.696-28.433-3.053-3.671-11.098-15.476-17.783-21.825-2.268-2.155-4.136-3.449-6.253-3.92-6.435-1.428-13.512 3.214-13.644 10.12v65.815h-19.581c-12.151 0-24.776-5.872-25.021-16.862Z"/><path d="M754.058 56.781c5.462 0 9.89-4.428 9.89-9.89 0-5.463-4.428-9.891-9.89-9.891-5.463 0-9.891 4.428-9.891 9.89 0 5.463 4.428 9.891 9.891 9.891Z"/></g><path d="M193.28 583.84v15.96H168.2V667h-18.72v-67.2H124.4v-15.96h68.88Zm25.928 70.68c1.76 0 3.44-.04 5.04-.12 1.6-.08 2.88-.2 3.84-.36v-13.56c-.72-.16-1.8-.32-3.24-.48-1.44-.16-2.76-.24-3.96-.24-1.68 0-3.28.12-4.8.36-1.44.16-2.72.52-3.84 1.08-1.12.56-2 1.32-2.64 2.28-.64.96-.96 2.16-.96 3.6 0 2.8.92 4.76 2.76 5.88 1.92 1.04 4.52 1.56 7.8 1.56Zm-1.44-52.32c5.28 0 9.68.6 13.2 1.8 3.52 1.2 6.32 2.92 8.4 5.16 2.16 2.24 3.68 4.96 4.56 8.16.88 3.2 1.32 6.76 1.32 10.68v37.2c-2.56.56-6.12 1.2-10.68 1.92-4.56.8-10.08 1.2-16.56 1.2-4.08 0-7.8-.36-11.16-1.08-3.28-.72-6.12-1.88-8.52-3.48a16.65 16.65 0 0 1-5.52-6.48c-1.28-2.64-1.92-5.88-1.92-9.72 0-3.68.72-6.8 2.16-9.36 1.52-2.56 3.52-4.6 6-6.12 2.48-1.52 5.32-2.6 8.52-3.24 3.2-.72 6.52-1.08 9.959-1.08 2.321 0 4.361.12 6.121.36 1.84.16 3.32.4 4.44.72v-1.68c0-3.04-.92-5.48-2.76-7.32-1.84-1.84-5.04-2.76-9.6-2.76-3.04 0-6.04.24-9 .72-2.96.4-5.52 1-7.68 1.8l-2.28-14.4c1.04-.32 2.32-.64 3.84-.96 1.6-.4 3.32-.72 5.16-.96 1.84-.32 3.76-.56 5.76-.72 2.08-.24 4.16-.36 6.24-.36Zm68.848 66c-5.2-.08-9.44-.64-12.72-1.68-3.2-1.04-5.76-2.48-7.68-4.32-1.84-1.92-3.12-4.2-3.84-6.84-.64-2.72-.96-5.76-.96-9.12v-69.48l17.88-2.88v68.76c0 1.6.12 3.04.36 4.32.24 1.28.68 2.36 1.32 3.24.72.88 1.72 1.6 3 2.16s3 .92 5.16 1.08l-2.52 14.76Zm9.768-32.28c0-5.6.84-10.48 2.52-14.64 1.76-4.24 4.04-7.76 6.84-10.56 2.8-2.8 6-4.92 9.6-6.36 3.68-1.44 7.44-2.16 11.28-2.16 8.96 0 16.04 2.76 21.24 8.28 5.2 5.44 7.8 13.48 7.8 24.12 0 1.04-.04 2.2-.12 3.48-.08 1.2-.16 2.28-.24 3.24h-40.56c.4 3.68 2.12 6.6 5.16 8.76s7.12 3.24 12.24 3.24c3.28 0 6.48-.28 9.6-.84 3.2-.64 5.8-1.4 7.8-2.28l2.4 14.52c-.96.48-2.24.96-3.84 1.44-1.6.48-3.4.88-5.4 1.2-1.92.4-4 .72-6.24.96s-4.48.36-6.72.36c-5.68 0-10.64-.84-14.88-2.52-4.16-1.68-7.64-3.96-10.44-6.84-2.72-2.96-4.76-6.44-6.12-10.44-1.28-4-1.92-8.32-1.92-12.96Zm42-6.84c-.08-1.52-.36-3-.84-4.44a9.897 9.897 0 0 0-2.04-3.84c-.88-1.12-2.04-2.04-3.48-2.76-1.36-.72-3.08-1.08-5.16-1.08-2 0-3.72.36-5.16 1.08-1.44.64-2.64 1.52-3.6 2.64s-1.72 2.44-2.28 3.96c-.48 1.44-.84 2.92-1.08 4.44h23.64Zm31.079-23.04c3.04-.88 6.96-1.68 11.76-2.4 4.8-.8 9.84-1.2 15.119-1.2 5.361 0 9.801.72 13.321 2.16 3.6 1.36 6.44 3.32 8.52 5.88 2.08 2.56 3.56 5.6 4.44 9.12.88 3.52 1.32 7.44 1.32 11.76V667h-17.88v-33.48c0-5.76-.76-9.84-2.28-12.24-1.52-2.4-4.36-3.6-8.52-3.6-1.28 0-2.64.08-4.08.24-1.44.08-2.72.2-3.84.36V667h-17.88v-60.96Zm70.064-17.88 17.88-2.88v18.6h21.48v14.88h-21.48v22.2c0 3.76.64 6.76 1.92 9 1.36 2.24 4.04 3.36 8.04 3.36 1.92 0 3.88-.16 5.88-.48 2.08-.4 3.96-.92 5.64-1.56l2.52 13.92c-2.16.88-4.56 1.64-7.2 2.28-2.64.64-5.88.96-9.72.96-4.88 0-8.92-.64-12.12-1.92-3.2-1.36-5.76-3.2-7.68-5.52-1.92-2.4-3.28-5.28-4.08-8.64-.72-3.36-1.08-7.08-1.08-11.16v-53.04Zm88.6 45.36c0-5.76-.76-9.84-2.28-12.24-1.44-2.4-3.96-3.6-7.56-3.6-1.12 0-2.28.08-3.48.24-1.2.08-2.36.2-3.48.36V667h-17.88v-60.96c1.52-.4 3.28-.8 5.28-1.2 2.08-.48 4.24-.88 6.48-1.2 2.32-.4 4.68-.68 7.08-.84 2.4-.24 4.76-.36 7.08-.36 4.56 0 8.24.6 11.04 1.8 2.88 1.12 5.24 2.48 7.08 4.08 2.56-1.84 5.48-3.28 8.76-4.32 3.36-1.04 6.44-1.56 9.24-1.56 5.04 0 9.16.72 12.36 2.16 3.28 1.36 5.88 3.32 7.8 5.88s3.24 5.6 3.96 9.12c.72 3.52 1.08 7.44 1.08 11.76V667h-17.88v-33.48c0-5.76-.76-9.84-2.28-12.24-1.44-2.4-3.96-3.6-7.56-3.6-.96 0-2.32.24-4.08.72-1.68.48-3.08 1.08-4.2 1.8.56 1.84.92 3.8 1.08 5.88.16 2 .24 4.16.24 6.48V667h-17.88v-33.48Zm92.916 21c1.76 0 3.44-.04 5.04-.12 1.6-.08 2.88-.2 3.84-.36v-13.56c-.72-.16-1.8-.32-3.24-.48-1.44-.16-2.76-.24-3.96-.24-1.68 0-3.28.12-4.8.36-1.44.16-2.72.52-3.84 1.08-1.12.56-2 1.32-2.64 2.28-.64.96-.96 2.16-.96 3.6 0 2.8.92 4.76 2.76 5.88 1.92 1.04 4.52 1.56 7.8 1.56Zm-1.44-52.32c5.28 0 9.68.6 13.2 1.8 3.52 1.2 6.32 2.92 8.4 5.16 2.16 2.24 3.68 4.96 4.56 8.16.88 3.2 1.32 6.76 1.32 10.68v37.2c-2.56.56-6.12 1.2-10.68 1.92-4.56.8-10.08 1.2-16.56 1.2-4.08 0-7.8-.36-11.16-1.08-3.28-.72-6.12-1.88-8.52-3.48a16.65 16.65 0 0 1-5.52-6.48c-1.28-2.64-1.92-5.88-1.92-9.72 0-3.68.72-6.8 2.16-9.36 1.52-2.56 3.52-4.6 6-6.12 2.48-1.52 5.32-2.6 8.52-3.24 3.2-.72 6.52-1.08 9.96-1.08 2.32 0 4.36.12 6.12.36 1.84.16 3.32.4 4.44.72v-1.68c0-3.04-.92-5.48-2.76-7.32-1.84-1.84-5.04-2.76-9.6-2.76-3.04 0-6.04.24-9 .72-2.96.4-5.52 1-7.68 1.8l-2.28-14.4c1.04-.32 2.32-.64 3.84-.96 1.6-.4 3.32-.72 5.16-.96 1.84-.32 3.76-.56 5.76-.72 2.08-.24 4.16-.36 6.24-.36Zm61.529 24.48c1.76-1.92 3.56-3.92 5.4-6 1.92-2.08 3.76-4.12 5.52-6.12 1.76-2.08 3.4-4.04 4.92-5.88 1.6-1.84 2.96-3.44 4.08-4.8h21.24c-4.24 4.88-8.4 9.56-12.48 14.04-4 4.4-8.4 8.96-13.2 13.68 2.4 2.16 4.88 4.76 7.44 7.8 2.56 2.96 5.04 6.04 7.44 9.24 2.4 3.2 4.6 6.4 6.6 9.6 2 3.2 3.68 6.12 5.04 8.76h-20.52c-1.28-2.08-2.76-4.36-4.44-6.84-1.6-2.56-3.32-5.08-5.16-7.56-1.84-2.56-3.8-5-5.88-7.32-2-2.32-4-4.28-6-5.88V667h-17.88v-90.24l17.88-2.88v52.8Zm44.276 9.24c0-5.6.84-10.48 2.52-14.64 1.76-4.24 4.04-7.76 6.84-10.56 2.8-2.8 6-4.92 9.6-6.36 3.68-1.44 7.44-2.16 11.28-2.16 8.96 0 16.04 2.76 21.24 8.28 5.2 5.44 7.8 13.48 7.8 24.12 0 1.04-.04 2.2-.12 3.48-.08 1.2-.16 2.28-.24 3.24h-40.56c.4 3.68 2.12 6.6 5.16 8.76s7.12 3.24 12.24 3.24c3.28 0 6.48-.28 9.6-.84 3.2-.64 5.8-1.4 7.8-2.28l2.4 14.52c-.96.48-2.24.96-3.84 1.44-1.6.48-3.4.88-5.4 1.2-1.92.4-4 .72-6.24.96s-4.48.36-6.72.36c-5.68 0-10.64-.84-14.88-2.52-4.16-1.68-7.64-3.96-10.44-6.84-2.72-2.96-4.76-6.44-6.12-10.44-1.28-4-1.92-8.32-1.92-12.96Zm42-6.84c-.08-1.52-.36-3-.84-4.44a9.897 9.897 0 0 0-2.04-3.84c-.88-1.12-2.04-2.04-3.48-2.76-1.36-.72-3.08-1.08-5.16-1.08-2 0-3.72.36-5.16 1.08-1.44.64-2.64 1.52-3.6 2.64s-1.72 2.44-2.28 3.96c-.48 1.44-.84 2.92-1.08 4.44h23.64Zm69.118-9.36c-1.6-.4-3.48-.8-5.64-1.2-2.16-.48-4.48-.72-6.96-.72-1.12 0-2.48.12-4.08.36-1.52.16-2.68.36-3.48.6V667h-17.88v-59.76c3.2-1.12 6.96-2.16 11.28-3.12 4.4-1.04 9.28-1.56 14.64-1.56.96 0 2.12.08 3.48.24 1.36.08 2.72.24 4.08.48 1.36.16 2.72.4 4.08.72 1.36.24 2.52.56 3.48.96l-3 14.76Z" fill="#032B43"/><defs><linearGradient id="b" x1="670.858" y1="421.757" x2="625.175" y2="469.592" gradientUnits="userSpaceOnUse"><stop stop-color="#005CA9"/><stop offset="1" stop-color="#3F88C5"/></linearGradient><linearGradient id="c" x1="24923.9" y1="9998.49" x2="24141.8" y2="10981.7" gradientUnits="userSpaceOnUse"><stop stop-color="#0D4472"/><stop offset="1" stop-color="#568CBA"/></linearGradient><clipPath id="d"><path fill="#fff" transform="translate(744 37)" d="M0 0h198v142.064H0z"/></clipPath><filter id="a" x="77" y="21" width="829" height="612.206" filterUnits="userSpaceOnUse" color-interpolation-filters="sRGB"><feFlood flood-opacity="0" result="BackgroundImageFix"/><feColorMatrix in="SourceAlpha" values="0 0 0 0 0 0 0 0 0 0 0 0 0 0 0 0 0 0 127 0"/><feOffset dx="10" dy="30"/><feGaussianBlur stdDeviation="25"/><feColorMatrix values="0 0 0 0 0 0 0 0 0 0 0 0 0 0 0 0 0 0 0.25 0"/><feBlend in2="BackgroundImageFix" result="effect1_dropShadow"/><feBlend in="SourceGraphic" in2="effect1_dropShadow" result="shape"/></filter></defs></svg>