<svg width="1000" height="750" fill="none" xmlns="http://www.w3.org/2000/svg"><path fill="#9DC743" d="M0 0h1000v750H0z"/><g clip-path="url(#a)" fill="#6B8A28"><path d="m252.238 66.023-4.113 8.227 2.641 1.523c1.472.813 20.617 11.782 42.554 24.325l39.864 22.8-.102 6.5c-.152 7.973-1.219 15.793-3.199 23.969-6.297 25.797-21.735 46.465-45.297 60.735l-3.91 2.386-41.031-23.461c-22.547-12.898-41.743-23.867-42.657-24.425l-1.625-.965-2.082 4.062-2.031 4.113 2.285 6.399c8.684 23.816 22.039 45.348 36.969 59.465 23.816 22.496 55.199 34.226 95.316 35.496 10.766.355 13.153.812 19.145 4.012 11.629 6.144 26.508 17.773 48.902 38.086 11.985 10.867 17.926 16.605 36.613 35.191l16.606 16.453 32.602-32.602 32.652-32.55-17.52-17.621c-46.972-47.227-74.496-78.965-84.601-97.602-3.098-5.738-3.504-7.973-3.86-20.059-.711-24.984-4.062-42.148-11.019-57.078-6.805-14.523-18.485-27.066-32.856-35.191-21.937-12.442-51.746-18.79-94.148-20.008l-11.984-.355-4.114 8.175Z"/><path d="M723.691 106.547c-22.039 15.437-40.421 28.59-40.777 29.25-.355.66-2.336 8.125-4.469 16.656l-3.808 15.438-117.813 117.711-117.761 117.71-16.25-10.156L406.563 383l-8.125 8.125c-7.922 7.922-8.125 8.227-8.125 10.309 0 3.097-.864 8.683-2.032 13.152-4.722 18.383-20.363 35.953-41.945 46.973-10.563 5.433-22.09 9.191-32.094 10.41l-5.23.66-67.082 67.031-67.082 66.981.355 4.367c1.371 18.383 11.883 38.238 28.793 54.59 14.574 14.066 30.52 22.648 47.43 25.39 2.539.407 5.586.762 6.804.762h2.235l66.98-66.98c61.953-62.055 66.93-67.133 66.93-68.708 0-5.484 2.793-16.91 6.195-25.542 10.614-26.711 29.961-46.313 51.543-52.051 2.184-.61 6.602-1.321 9.903-1.676l5.89-.559 7.973-7.922 7.973-7.972-10.207-16.301-10.207-16.352 117.304-117.253c64.543-64.442 117.66-117.508 118.067-117.864.406-.355 7.871-2.386 16.554-4.57 8.684-2.184 16.098-4.266 16.453-4.672.356-.355 13.254-18.637 28.641-40.625l27.93-39.965-10.563-10.562c-5.84-5.79-11.375-11.274-12.289-12.137l-1.726-1.625-40.118 28.133Z"/><path d="m528.285 387.164-32.449 32.551 22.09 22.141c31.179 31.332 46.515 47.48 62.054 65.558 16.86 19.602 27.422 34.988 29.149 42.656.254 1.27.609 7.059.812 12.95.965 36.968 8.43 60.175 24.782 77.289 7.312 7.668 14.269 12.746 24.222 17.671 21.582 10.766 49.36 16.149 88.969 17.317l11.984.355 4.114-8.175 4.113-8.227-2.641-1.523c-1.472-.813-20.617-11.782-42.554-24.325l-39.864-22.8.102-6.247c.609-35.902 17.926-66.523 47.988-84.652l4.418-2.691 41.031 23.461c22.547 12.898 41.743 23.867 42.657 24.425l1.625.965 2.031-4.062 2.031-4.012-1.422-4.266c-3.554-10.46-10.054-24.425-15.945-34.175-20.973-34.735-52.457-54.996-95.062-61.141-8.176-1.168-19.602-2.082-26.813-2.082-7.719 0-13.152-2.133-23.969-9.293-17.215-11.476-39.355-31.332-79.98-71.805-11.324-11.222-20.719-20.464-20.821-20.414-.152 0-14.828 14.676-32.652 32.551Z"/></g><path d="M288.75 470.5c-12.167 0-22.667-1.667-31.5-5-8.833-3.5-16.167-8.25-22-14.25-5.667-6.167-9.917-13.417-12.75-21.75-2.667-8.5-4-17.833-4-28V293.75h39v104.5c0 7 .75 13 2.25 18 1.667 4.833 3.833 8.833 6.5 12 2.833 3 6.167 5.167 10 6.5 4 1.333 8.333 2 13 2 9.5 0 17.167-2.917 23-8.75 6-5.833 9-15.75 9-29.75v-104.5h39V401.5c0 10.167-1.417 19.5-4.25 28s-7.167 15.833-13 22c-5.833 6-13.25 10.667-22.25 14s-19.667 5-32 5Zm105.258-167.75 37.25-6v38.75h44.75v31h-44.75v46.25c0 7.833 1.333 14.083 4 18.75 2.833 4.667 8.416 7 16.75 7 4 0 8.083-.333 12.25-1 4.333-.833 8.25-1.917 11.75-3.25l5.25 29c-4.5 1.833-9.5 3.417-15 4.75-5.5 1.333-12.25 2-20.25 2-10.167 0-18.584-1.333-25.25-4-6.667-2.833-12-6.667-16-11.5-4-5-6.834-11-8.5-18-1.5-7-2.25-14.75-2.25-23.25v-110.5ZM543.592 467h-37.25V335.5h37.25V467Zm3.5-169.5c0 6.833-2.25 12.25-6.75 16.25-4.334 3.833-9.5 5.75-15.5 5.75s-11.25-1.917-15.75-5.75c-4.334-4-6.5-9.417-6.5-16.25s2.166-12.167 6.5-16c4.5-4 9.75-6 15.75-6s11.166 2 15.5 6c4.5 3.833 6.75 9.167 6.75 16Zm84.015 172c-10.833-.167-19.666-1.333-26.5-3.5-6.666-2.167-12-5.167-16-9-3.833-4-6.5-8.75-8-14.25-1.333-5.667-2-12-2-19V279l37.25-6v143.25c0 3.333.25 6.333.75 9s1.417 4.917 2.75 6.75c1.5 1.833 3.584 3.333 6.25 4.5 2.667 1.167 6.25 1.917 10.75 2.25l-5.25 30.75Zm64.352-29.25c6.833 0 11.667-.667 14.5-2s4.25-3.917 4.25-7.75c0-3-1.833-5.583-5.5-7.75-3.667-2.333-9.25-4.917-16.75-7.75-5.833-2.167-11.167-4.417-16-6.75-4.667-2.333-8.667-5.083-12-8.25-3.333-3.333-5.917-7.25-7.75-11.75-1.833-4.5-2.75-9.917-2.75-16.25 0-12.333 4.583-22.083 13.75-29.25 9.167-7.167 21.75-10.75 37.75-10.75 8 0 15.667.75 23 2.25 7.333 1.333 13.167 2.833 17.5 4.5l-6.5 29c-4.333-1.5-9.083-2.833-14.25-4-5-1.167-10.667-1.75-17-1.75-11.667 0-17.5 3.25-17.5 9.75 0 1.5.25 2.833.75 4 .5 1.167 1.5 2.333 3 3.5 1.5 1 3.5 2.167 6 3.5 2.667 1.167 6 2.5 10 4 8.167 3 14.917 6 20.25 9 5.333 2.833 9.5 6 12.5 9.5 3.167 3.333 5.333 7.083 6.5 11.25 1.333 4.167 2 9 2 14.5 0 13-4.917 22.833-14.75 29.5-9.667 6.667-23.417 10-41.25 10-11.667 0-21.417-1-29.25-3-7.667-2-13-3.667-16-5l6.25-30.25c6.333 2.5 12.833 4.5 19.5 6 6.667 1.333 13.25 2 19.75 2Z" fill="#fff"/><defs><clipPath id="a"><path fill="#fff" transform="translate(175 58)" d="M0 0h650v633.75H0z"/></clipPath></defs></svg>