<svg width="1000" height="750" fill="none" xmlns="http://www.w3.org/2000/svg"><path fill="url(#a)" d="M0 0h1000v750H0z"/><path d="M305 261.5C305 154.081 392.081 67 499.5 67S694 154.081 694 261.5 606.919 456 499.5 456 305 368.919 305 261.5Z" fill="#fff"/><path d="M338.744 231.236c16.337 31.472 59.589 37.468 85.54 12.919 11.636-11.019 22.214-32.807 8.698-46.45-13.093-13.214-28.373 1.651-34.649 13.417-8.862 16.584-11.166 36.472-12.106 54.844-.87 16.992-.447 37.943 11.166 51.903 10.366 12.466 26.727 13.53 38.48 2.194 11.847-11.403 17.842-28.598 23.342-43.395 4.302-11.562 9.144-34.187 24.424-36.948 16.924-3.054 16.313 27.422 16.219 36.608-.07 8.937-1.081 19.617-4.936 27.875-1.081 2.285-2.915 5.588-5.877 5.883-1.293.135-1.951-.408-3.103-.724.658.181.024 2.647.165-.136.493-11.132 7.287-24.82 12.905-34.527 4.396-7.625 9.591-14.842 15.679-21.29 5.736-6.087 12.082-12.444 20.85-13.983 22.12-3.846 25.293 21.562 25.34 36.744 0 4.57-.282 9.095-.963 13.62-.588 3.96-.988 11.992-3.808 15.092-5.125 5.633-3.409-8.259-3.103-10.385 2.233-15.16 10.789-30.002 20.944-41.654 4.067-4.683 11.283-12.693 18.594-10.86 4.419 1.108 6.488 5.453 7.945 9.254 4.725 12.285 5.007 26.223 6.629 39.119 1.504 12.127 4.231 28.916 16.948 34.934 16.173 7.647 27.832-11.788 31.217-24.006.964-3.461 1.105-8.62-2.28-11.064-3.22-2.307-6.3-.045-7.499 3.1-2.045 5.294-6.276 15.159-13.304 15.793-6.183.565-9.709-7.987-10.602-11.313-3.173-11.833-2.938-24.617-4.772-36.699-1.786-11.697-4.489-26.381-14.292-34.571-11.847-9.91-25.857-1.516-34.625 7.918-11.095 11.947-20.263 26.812-25.011 42.174-3.949 12.829-9.779 41.315 7.169 48.6 19.041 8.19 23.225-28.553 24.095-38.599 1.692-19.571 1.246-44.21-13.681-59.392-11.989-12.195-30.089-10.928-43.276-1.267-15.726 11.516-27.338 29.662-35.236 46.789-5.759 12.445-12.012 27.785-9.591 41.631 2.68 15.318 19.087 22.468 29.924 8.915 5.853-7.308 8.063-17.015 9.732-25.906 2.068-10.996 2.444-22.422 1.363-33.531-1.457-14.82-3.902-38.328-21.203-44.392-14.08-4.932-27.268 6.584-33.45 17.671-9.849 17.67-13.775 37.807-24.047 55.274-3.338 5.702-7.922 12.874-15.045 14.503-7.968 1.81-14.644-4.48-17.018-11.29-3.385-9.774-3.291-21.132-2.821-31.314.447-9.751 1.481-19.91 4.043-29.368 1.998-7.444 6.37-20.657 14.95-23.281 12.976-3.96 2.657 11.742-.822 15.227-13.352 13.439-33.921 17.308-51.856 10.747-8.298-3.032-15.844-8.802-21.838-15.046-4.325-4.48-7.005 5.814-5.547 8.643Z" fill="url(#b)"/><path d="M192.6 540.65c.5-1.1 1.2-1.95 2.1-2.55 1-.6 2.05-.9 3.15-.9 1.6 0 3 .55 4.2 1.65 1.3 1 1.95 2.25 1.95 3.75 0 .8-.2 1.6-.6 2.4l-43.05 95.7c-.6 1.3-1.5 2.3-2.7 3-1.2.7-2.5 1.05-3.9 1.05s-2.7-.35-3.9-1.05c-1.2-.7-2.1-1.7-2.7-3l-42.9-95.7c-.3-.8-.45-1.55-.45-2.25 0-1.6.65-2.9 1.95-3.9 1.3-1.1 2.75-1.65 4.35-1.65 2.4 0 4.15 1.15 5.25 3.45l38.7 87.45 38.55-87.45Zm38.714 104.1c-1.8 0-3.3-.5-4.5-1.5-1.1-1.1-1.65-2.6-1.65-4.5v-63.3c0-1.9.55-3.35 1.65-4.35 1.2-1.1 2.7-1.65 4.5-1.65 1.8 0 3.25.55 4.35 1.65 1.1 1 1.65 2.45 1.65 4.35v63.3c0 2-.55 3.5-1.65 4.5-1.1 1-2.55 1.5-4.35 1.5Zm0-91.05c-2.4 0-4.35-.7-5.85-2.1-1.5-1.4-2.25-3.25-2.25-5.55 0-2.2.75-4 2.25-5.4 1.5-1.4 3.45-2.1 5.85-2.1 2.4 0 4.35.7 5.85 2.1 1.5 1.4 2.25 3.2 2.25 5.4 0 2.3-.75 4.15-2.25 5.55-1.5 1.4-3.45 2.1-5.85 2.1Zm64.863 15.75c4.2-.3 6.3 1.4 6.3 5.1 0 1.6-.45 2.9-1.35 3.9-.9.9-2.45 1.45-4.65 1.65l-4.5.45c-6.7.6-11.7 3-15 7.2-3.2 4.1-4.8 8.95-4.8 14.55v36.45c0 2-.55 3.5-1.65 4.5-1.1 1-2.55 1.5-4.35 1.5-1.8 0-3.3-.5-4.5-1.5-1.1-1.1-1.65-2.6-1.65-4.5v-63.3c0-1.9.6-3.35 1.8-4.35 1.2-1.1 2.65-1.65 4.35-1.65 1.6 0 2.95.55 4.05 1.65 1.1 1 1.65 2.4 1.65 4.2v8.4c2.1-4.4 5.05-7.75 8.85-10.05 3.9-2.3 8.35-3.65 13.35-4.05l2.1-.15Zm56.341 65.7c3.5.3 5.25 1.9 5.25 4.8 0 1.7-.65 3-1.95 3.9-1.2.8-3.05 1.1-5.55.9l-4.05-.3c-8-.6-13.9-3-17.7-7.2-3.8-4.2-5.7-10.55-5.7-19.05v-37.65h-10.05c-1.7 0-3.05-.4-4.05-1.2-.9-.9-1.35-2.05-1.35-3.45 0-1.5.45-2.7 1.35-3.6 1-.9 2.35-1.35 4.05-1.35h10.05V554c0-1.9.55-3.35 1.65-4.35 1.1-1.1 2.6-1.65 4.5-1.65 1.8 0 3.25.55 4.35 1.65 1.1 1 1.65 2.45 1.65 4.35v16.95h16.65c1.6 0 2.85.45 3.75 1.35 1 .9 1.5 2.1 1.5 3.6 0 1.4-.5 2.55-1.5 3.45-.9.8-2.15 1.2-3.75 1.2h-16.65v38.25c0 5.5 1.1 9.5 3.3 12 2.3 2.4 5.7 3.75 10.2 4.05l4.05.3Zm72.726-65.7c1.9 0 3.35.55 4.35 1.65 1.1 1.1 1.65 2.55 1.65 4.35v63.45c0 1.7-.55 3.1-1.65 4.2-1 1.1-2.45 1.65-4.35 1.65-1.8 0-3.25-.5-4.35-1.5-1-1.1-1.5-2.5-1.5-4.2v-7.5c-2.3 4.4-5.55 7.75-9.75 10.05-4.1 2.3-8.75 3.45-13.95 3.45-8.7 0-15.25-2.4-19.65-7.2-4.4-4.9-6.6-12.1-6.6-21.6v-40.8c0-1.8.55-3.25 1.65-4.35 1.1-1.1 2.6-1.65 4.5-1.65s3.35.55 4.35 1.65c1.1 1.1 1.65 2.55 1.65 4.35v40.5c0 6.5 1.3 11.3 3.9 14.4 2.6 3 6.7 4.5 12.3 4.5 6.4 0 11.55-2.05 15.45-6.15 3.9-4.2 5.85-9.7 5.85-16.5v-36.75c0-1.8.55-3.25 1.65-4.35 1.1-1.1 2.6-1.65 4.5-1.65Zm58.432-.3c18.3 0 27.45 9.6 27.45 28.8v40.8c0 1.8-.55 3.25-1.65 4.35-1 1.1-2.4 1.65-4.2 1.65-1.8 0-3.25-.55-4.35-1.65-1.1-1.1-1.65-2.55-1.65-4.35v-7.2c-1.9 4.3-4.8 7.65-8.7 10.05-3.9 2.3-8.4 3.45-13.5 3.45-4.7 0-9.05-.95-13.05-2.85-3.9-1.9-7-4.55-9.3-7.95-2.3-3.4-3.45-7.15-3.45-11.25 0-5.5 1.4-9.75 4.2-12.75 2.8-3.1 7.4-5.3 13.8-6.6 6.4-1.4 15.3-2.1 26.7-2.1h3.3v-4.95c0-6-1.25-10.4-3.75-13.2-2.4-2.8-6.35-4.2-11.85-4.2-6.8 0-13.7 1.85-20.7 5.55-2.7 1.7-4.6 2.55-5.7 2.55-1.2 0-2.2-.45-3-1.35-.8-.9-1.2-2.05-1.2-3.45 0-1.4.4-2.6 1.2-3.6.9-1.1 2.3-2.2 4.2-3.3 3.5-2 7.45-3.55 11.85-4.65 4.5-1.2 8.95-1.8 13.35-1.8Zm-4.95 66.3c6 0 10.9-2 14.7-6 3.9-4.1 5.85-9.35 5.85-15.75v-4.35h-2.7c-8.8 0-15.5.4-20.1 1.2-4.6.7-7.9 1.95-9.9 3.75-1.9 1.7-2.85 4.25-2.85 7.65 0 3.9 1.4 7.15 4.2 9.75 2.9 2.5 6.5 3.75 10.8 3.75Zm60.791 9.3c-1.8 0-3.3-.5-4.5-1.5-1.1-1.1-1.65-2.6-1.65-4.5V543.5c0-1.9.55-3.35 1.65-4.35 1.2-1.1 2.7-1.65 4.5-1.65 1.7 0 3.1.55 4.2 1.65 1.2 1 1.8 2.45 1.8 4.35v95.25c0 1.9-.6 3.4-1.8 4.5-1.1 1-2.5 1.5-4.2 1.5ZM662.28 537.5c2.8 0 5.05.9 6.75 2.7 1.7 1.7 2.55 4 2.55 6.9v88.8c0 2.8-.8 5-2.4 6.6-1.6 1.6-3.7 2.4-6.3 2.4-2.6 0-4.65-.8-6.15-2.4-1.5-1.6-2.25-3.8-2.25-6.6v-61.8l-25.5 48.3c-1.2 2.2-2.5 3.85-3.9 4.95-1.4 1-3.05 1.5-4.95 1.5-1.9 0-3.55-.5-4.95-1.5-1.4-1-2.7-2.65-3.9-4.95l-25.65-47.55v61.05c0 2.7-.8 4.9-2.4 6.6-1.5 1.6-3.55 2.4-6.15 2.4-2.6 0-4.65-.8-6.15-2.4-1.5-1.6-2.25-3.8-2.25-6.6v-88.8c0-2.9.8-5.2 2.4-6.9 1.7-1.8 3.95-2.7 6.75-2.7 3.9 0 6.95 2.15 9.15 6.45l33.3 63.45 33.15-63.45c2.2-4.3 5.15-6.45 8.85-6.45Zm88.624 86.4c1.7 0 3.05.65 4.05 1.95 1.1 1.3 1.65 3.05 1.65 5.25 0 3.1-1.85 5.7-5.55 7.8-3.4 1.9-7.25 3.45-11.55 4.65-4.3 1.1-8.4 1.65-12.3 1.65-11.8 0-21.15-3.4-28.05-10.2-6.9-6.8-10.35-16.1-10.35-27.9 0-7.5 1.5-14.15 4.5-19.95 3-5.8 7.2-10.3 12.6-13.5 5.5-3.2 11.7-4.8 18.6-4.8 6.6 0 12.35 1.45 17.25 4.35 4.9 2.9 8.7 7 11.4 12.3 2.7 5.3 4.05 11.55 4.05 18.75 0 4.3-1.9 6.45-5.7 6.45h-44.25c.6 6.9 2.55 12 5.85 15.3 3.3 3.2 8.1 4.8 14.4 4.8 3.2 0 6-.4 8.4-1.2 2.5-.8 5.3-1.9 8.4-3.3 3-1.6 5.2-2.4 6.6-2.4Zm-25.95-41.85c-5.1 0-9.2 1.6-12.3 4.8-3 3.2-4.8 7.8-5.4 13.8h33.9c-.2-6.1-1.7-10.7-4.5-13.8-2.8-3.2-6.7-4.8-11.7-4.8Zm105.637 41.85c1.7 0 3.05.65 4.05 1.95 1.1 1.3 1.65 3.05 1.65 5.25 0 3.1-1.85 5.7-5.55 7.8-3.4 1.9-7.25 3.45-11.55 4.65-4.3 1.1-8.4 1.65-12.3 1.65-11.8 0-21.15-3.4-28.05-10.2-6.9-6.8-10.35-16.1-10.35-27.9 0-7.5 1.5-14.15 4.5-19.95 3-5.8 7.2-10.3 12.6-13.5 5.5-3.2 11.7-4.8 18.6-4.8 6.6 0 12.35 1.45 17.25 4.35 4.9 2.9 8.7 7 11.4 12.3 2.7 5.3 4.05 11.55 4.05 18.75 0 4.3-1.9 6.45-5.7 6.45h-44.25c.6 6.9 2.55 12 5.85 15.3 3.3 3.2 8.1 4.8 14.4 4.8 3.2 0 6-.4 8.4-1.2 2.5-.8 5.3-1.9 8.4-3.3 3-1.6 5.2-2.4 6.6-2.4Zm-25.95-41.85c-5.1 0-9.2 1.6-12.3 4.8-3 3.2-4.8 7.8-5.4 13.8h33.9c-.2-6.1-1.7-10.7-4.5-13.8-2.8-3.2-6.7-4.8-11.7-4.8Zm84.662 48.9c5 .3 7.5 2.55 7.5 6.75 0 2.4-1 4.25-3 5.55-1.9 1.2-4.65 1.7-8.25 1.5l-4.05-.3c-16.8-1.2-25.2-10.2-25.2-27v-32.7h-7.5c-2.7 0-4.8-.6-6.3-1.8-1.4-1.2-2.1-2.95-2.1-5.25s.7-4.05 2.1-5.25c1.5-1.2 3.6-1.8 6.3-1.8h7.5v-13.8c0-2.7.85-4.85 2.55-6.45 1.7-1.6 4-2.4 6.9-2.4 2.8 0 5.05.8 6.75 2.4 1.7 1.6 2.55 3.75 2.55 6.45v13.8h12.75c2.7 0 4.75.6 6.15 1.8 1.5 1.2 2.25 2.95 2.25 5.25s-.75 4.05-2.25 5.25c-1.4 1.2-3.45 1.8-6.15 1.8h-12.75v34.05c0 7.4 3.4 11.35 10.2 11.85l4.05.3Z" fill="#fff"/><defs><linearGradient id="a" x1="148" y1="144.5" x2="1143" y2="861" gradientUnits="userSpaceOnUse"><stop stop-color="#EC0340"/><stop offset="1" stop-color="#390099"/></linearGradient><linearGradient id="b" x1="642" y1="398" x2="338" y2="144.5" gradientUnits="userSpaceOnUse"><stop stop-color="#FDA712"/><stop offset="1" stop-color="#EC0340"/></linearGradient></defs></svg>